M48
METRIC,TZ
T1C0.500
T2C0.600
T3C0.701
T4C0.800
T5C1.000
T6C1.016
T7C1.100
T8C1.321
T9C1.270
T10C2.100
T11C2.200
T12C3.200
%
G90
G05
T1
X68326Y-41656
X69596Y-42418
X71628Y-45654
X76200Y-91186
X76454Y-52578
X78740Y-98933
X80010Y-42164
X81280Y-92456
X83820Y-92964
X84582Y-94996
X86360Y-91948
X86614Y-101346
X87122Y-96774
X89154Y-95098
X89408Y-102616
X92710Y-45720
X93980Y-30226
X93980Y-92964
X96774Y-63754
X97536Y-105156
X98552Y-66548
X98552Y-97028
X99568Y-67056
X99568Y-84582
X106934Y-74676
X107188Y-30734
X107188Y-34544
X110236Y-29718
X112014Y-36322
X113284Y-35052
X114046Y-77216
X115316Y-83312
X115570Y-80264
X116840Y-76962
X116840Y-83312
X118364Y-77978
T2
X46736Y-56134
X46736Y-58928
X46736Y-73152
X46736Y-87376
X46736Y-101600
X49784Y-58928
X49784Y-65024
X49784Y-73152
X49784Y-79248
X49784Y-87376
X49784Y-93472
X49784Y-101600
X49784Y-107696
X51308Y-65024
X51308Y-79248
X51308Y-93472
X51308Y-107696
X51816Y-49530
X52832Y-55118
X55611Y-32705
X66802Y-60198
X68326Y-38354
X69850Y-38354
X73152Y-60198
X75184Y-51308
X77724Y-62738
X78232Y-70358
X78232Y-71882
X78232Y-73406
X78232Y-74930
X83312Y-90932
X84709Y-90170
X93472Y-100076
X93472Y-101600
X94996Y-96012
X101092Y-74422
X106172Y-123190
X106172Y-125222
X107696Y-123190
X107696Y-125222
X109220Y-123190
X109220Y-125222
X110744Y-123190
X110744Y-125222
X111252Y-84836
X111506Y-78994
X112268Y-123190
X112268Y-125222
X113284Y-108458
X113284Y-111506
X113792Y-123190
X113792Y-125222
X114300Y-109474
X114300Y-112522
X115062Y-103124
X115316Y-110490
X115316Y-113538
X115316Y-123190
X115316Y-125222
X115824Y-93472
X116078Y-104140
X116332Y-111506
X116332Y-114554
X116840Y-94488
X116840Y-123190
X116840Y-125222
X117094Y-105156
X117348Y-112522
X117348Y-115570
X117856Y-95504
X118110Y-91440
X118110Y-106172
X118364Y-113538
X118364Y-116586
X118364Y-123190
X118364Y-125222
X118618Y-84836
X118872Y-96520
X119126Y-92456
X119126Y-107188
X119380Y-114554
X119380Y-117602
X119888Y-43688
X119888Y-45212
X119888Y-46736
X119888Y-59436
X119888Y-65024
X119888Y-67056
X119888Y-97536
X119888Y-123190
X119888Y-125222
X120142Y-93472
X120142Y-108204
X120396Y-115570
X120650Y-36576
X120650Y-38100
X120650Y-71628
X120650Y-73152
X120650Y-74676
X120650Y-77724
X120650Y-79248
X120650Y-85344
X120650Y-86868
X120650Y-89916
X120650Y-91440
X120904Y-42672
X120904Y-47752
X120904Y-58420
X120904Y-64008
X120904Y-66040
X120904Y-98552
X121158Y-94488
X121158Y-109220
X121412Y-116586
X121412Y-123190
X121412Y-125222
X121666Y-70612
X121920Y-41656
X121920Y-48768
X121920Y-57404
X121920Y-62992
X121920Y-65024
X121920Y-99568
X122174Y-36576
X122174Y-38100
X122174Y-74676
X122174Y-77724
X122174Y-79248
X122174Y-85344
X122174Y-86868
X122174Y-89916
X122174Y-91440
X122174Y-95504
X122174Y-110236
X122428Y-117602
X122428Y-119126
X122682Y-69596
X122936Y-49784
X122936Y-51816
X122936Y-56388
X122936Y-61976
X122936Y-64008
X122936Y-100584
X123190Y-92456
X123190Y-96520
X123190Y-111252
X123444Y-41656
X123698Y-36576
X123698Y-38100
X123698Y-74676
X123698Y-77724
X123698Y-79248
X123698Y-85344
X123698Y-86868
X123698Y-89916
X123952Y-50800
X123952Y-55372
X123952Y-62992
X123952Y-101600
X124206Y-97536
X124968Y-41656
X124968Y-54356
X125219Y-119126
X125222Y-36576
X125222Y-38112
X125222Y-50304
X125222Y-62496
X125222Y-74688
X125222Y-77724
X125222Y-86880
X125222Y-89916
X125222Y-99072
X125222Y-111264
X125222Y-120777
X126508Y-42164
X126508Y-54356
X126508Y-66548
X126508Y-115316
X127124Y-35687
X127124Y-47879
X127124Y-60071
X127124Y-72263
X127124Y-84455
X127124Y-96647
X127124Y-108839
X127127Y-120777
X130302Y-116840
X131826Y-116840
X133350Y-116840
X133350Y-118110
X134620Y-119380
X135128Y-124968
X136652Y-124968
X138176Y-123444
X138176Y-124968
X139700Y-123444
X139700Y-124968
X141224Y-124968
T3
X51435Y-33830
X51435Y-35829
X51435Y-37831
X51435Y-39832
T5
X74208Y-35560
X79208Y-35560
X83312Y-34798
X83312Y-37338
X83312Y-39878
X83312Y-42418
X83312Y-44958
X83312Y-47498
X83312Y-50038
X83312Y-52578
X83312Y-55118
X83312Y-57658
X83312Y-60198
X83312Y-62738
X83312Y-65278
X83312Y-67818
X103632Y-34798
X103632Y-37338
X103632Y-39878
X103632Y-42418
X103632Y-44958
X103632Y-47498
X103632Y-50038
X103632Y-52578
X103632Y-55118
X103632Y-57658
X103632Y-60198
X103632Y-62738
X103632Y-65278
X103632Y-67818
T6
X61468Y-93980
X61468Y-96520
X61468Y-99060
X61468Y-101600
X61468Y-104140
X61468Y-106680
X61468Y-109220
X109220Y-93980
X109220Y-96520
X109220Y-99060
X109220Y-101600
X109220Y-104140
X109220Y-106680
X109220Y-109220
T8
X135636Y-31242
X135636Y-36242
X135636Y-43434
X135636Y-48434
X135636Y-55626
X135636Y-60626
X135636Y-67818
X135636Y-72818
X135636Y-80010
X135636Y-85010
X135636Y-92202
X135636Y-97202
X135636Y-104394
X135636Y-109394
X135636Y-116586
X135636Y-121586
T9
X54737Y-61214
X54737Y-75438
X54737Y-89662
X54737Y-103886
T10
X98940Y-115610
X98940Y-120610
T11
X83222Y-30378
X83222Y-87478
X103722Y-30378
X103722Y-87478
T12
X68218Y-51962
X68218Y-101962
X118218Y-51962
X118218Y-101962
T4
X103290Y-115610G85X101590Y-115610
G05
X103290Y-120610G85X101590Y-120610
G05
X106940Y-115210G85X105240Y-115210
G05
X106940Y-121010G85X105240Y-121010
G05
T7
X96940Y-117510G85X96940Y-118710
G05
T0
M30
