G04 #@! TF.FileFunction,Legend,Bot*
%FSLAX46Y46*%
G04 Gerber Fmt 4.6, Leading zero omitted, Abs format (unit mm)*
G04 Created by KiCad (PCBNEW (2015-12-10 BZR 6367)-product) date Fri 07 Oct 2016 02:00:44 BST*
%MOMM*%
G01*
G04 APERTURE LIST*
%ADD10C,0.100000*%
%ADD11C,0.300000*%
%ADD12C,0.200000*%
%ADD13C,0.400000*%
%ADD14C,0.150000*%
%ADD15C,0.127000*%
%ADD16C,0.381000*%
%ADD17C,0.120000*%
G04 APERTURE END LIST*
D10*
D11*
X64686571Y-95492858D02*
X63972286Y-94992858D01*
X64686571Y-94635715D02*
X63186571Y-94635715D01*
X63186571Y-95207143D01*
X63258000Y-95350001D01*
X63329429Y-95421429D01*
X63472286Y-95492858D01*
X63686571Y-95492858D01*
X63829429Y-95421429D01*
X63900857Y-95350001D01*
X63972286Y-95207143D01*
X63972286Y-94635715D01*
X63900857Y-96635715D02*
X63900857Y-96135715D01*
X64686571Y-96135715D02*
X63186571Y-96135715D01*
X63186571Y-96850001D01*
X64686571Y-98564286D02*
X63686571Y-98564286D01*
X63829429Y-98564286D02*
X63758000Y-98635714D01*
X63686571Y-98778572D01*
X63686571Y-98992857D01*
X63758000Y-99135714D01*
X63900857Y-99207143D01*
X64686571Y-99207143D01*
X63900857Y-99207143D02*
X63758000Y-99278572D01*
X63686571Y-99421429D01*
X63686571Y-99635714D01*
X63758000Y-99778572D01*
X63900857Y-99850000D01*
X64686571Y-99850000D01*
X64686571Y-100778572D02*
X64615143Y-100635714D01*
X64543714Y-100564286D01*
X64400857Y-100492857D01*
X63972286Y-100492857D01*
X63829429Y-100564286D01*
X63758000Y-100635714D01*
X63686571Y-100778572D01*
X63686571Y-100992857D01*
X63758000Y-101135714D01*
X63829429Y-101207143D01*
X63972286Y-101278572D01*
X64400857Y-101278572D01*
X64543714Y-101207143D01*
X64615143Y-101135714D01*
X64686571Y-100992857D01*
X64686571Y-100778572D01*
X64686571Y-102564286D02*
X63186571Y-102564286D01*
X64615143Y-102564286D02*
X64686571Y-102421429D01*
X64686571Y-102135715D01*
X64615143Y-101992857D01*
X64543714Y-101921429D01*
X64400857Y-101850000D01*
X63972286Y-101850000D01*
X63829429Y-101921429D01*
X63758000Y-101992857D01*
X63686571Y-102135715D01*
X63686571Y-102421429D01*
X63758000Y-102564286D01*
X63686571Y-103921429D02*
X64686571Y-103921429D01*
X63686571Y-103278572D02*
X64472286Y-103278572D01*
X64615143Y-103350000D01*
X64686571Y-103492858D01*
X64686571Y-103707143D01*
X64615143Y-103850000D01*
X64543714Y-103921429D01*
X64686571Y-104850001D02*
X64615143Y-104707143D01*
X64472286Y-104635715D01*
X63186571Y-104635715D01*
X64615143Y-105992857D02*
X64686571Y-105850000D01*
X64686571Y-105564286D01*
X64615143Y-105421429D01*
X64472286Y-105350000D01*
X63900857Y-105350000D01*
X63758000Y-105421429D01*
X63686571Y-105564286D01*
X63686571Y-105850000D01*
X63758000Y-105992857D01*
X63900857Y-106064286D01*
X64043714Y-106064286D01*
X64186571Y-105350000D01*
X64686571Y-108635714D02*
X64686571Y-107778571D01*
X64686571Y-108207143D02*
X63186571Y-108207143D01*
X63400857Y-108064286D01*
X63543714Y-107921428D01*
X63615143Y-107778571D01*
X112438571Y-95492858D02*
X111724286Y-94992858D01*
X112438571Y-94635715D02*
X110938571Y-94635715D01*
X110938571Y-95207143D01*
X111010000Y-95350001D01*
X111081429Y-95421429D01*
X111224286Y-95492858D01*
X111438571Y-95492858D01*
X111581429Y-95421429D01*
X111652857Y-95350001D01*
X111724286Y-95207143D01*
X111724286Y-94635715D01*
X111652857Y-96635715D02*
X111652857Y-96135715D01*
X112438571Y-96135715D02*
X110938571Y-96135715D01*
X110938571Y-96850001D01*
X112438571Y-98564286D02*
X111438571Y-98564286D01*
X111581429Y-98564286D02*
X111510000Y-98635714D01*
X111438571Y-98778572D01*
X111438571Y-98992857D01*
X111510000Y-99135714D01*
X111652857Y-99207143D01*
X112438571Y-99207143D01*
X111652857Y-99207143D02*
X111510000Y-99278572D01*
X111438571Y-99421429D01*
X111438571Y-99635714D01*
X111510000Y-99778572D01*
X111652857Y-99850000D01*
X112438571Y-99850000D01*
X112438571Y-100778572D02*
X112367143Y-100635714D01*
X112295714Y-100564286D01*
X112152857Y-100492857D01*
X111724286Y-100492857D01*
X111581429Y-100564286D01*
X111510000Y-100635714D01*
X111438571Y-100778572D01*
X111438571Y-100992857D01*
X111510000Y-101135714D01*
X111581429Y-101207143D01*
X111724286Y-101278572D01*
X112152857Y-101278572D01*
X112295714Y-101207143D01*
X112367143Y-101135714D01*
X112438571Y-100992857D01*
X112438571Y-100778572D01*
X112438571Y-102564286D02*
X110938571Y-102564286D01*
X112367143Y-102564286D02*
X112438571Y-102421429D01*
X112438571Y-102135715D01*
X112367143Y-101992857D01*
X112295714Y-101921429D01*
X112152857Y-101850000D01*
X111724286Y-101850000D01*
X111581429Y-101921429D01*
X111510000Y-101992857D01*
X111438571Y-102135715D01*
X111438571Y-102421429D01*
X111510000Y-102564286D01*
X111438571Y-103921429D02*
X112438571Y-103921429D01*
X111438571Y-103278572D02*
X112224286Y-103278572D01*
X112367143Y-103350000D01*
X112438571Y-103492858D01*
X112438571Y-103707143D01*
X112367143Y-103850000D01*
X112295714Y-103921429D01*
X112438571Y-104850001D02*
X112367143Y-104707143D01*
X112224286Y-104635715D01*
X110938571Y-104635715D01*
X112367143Y-105992857D02*
X112438571Y-105850000D01*
X112438571Y-105564286D01*
X112367143Y-105421429D01*
X112224286Y-105350000D01*
X111652857Y-105350000D01*
X111510000Y-105421429D01*
X111438571Y-105564286D01*
X111438571Y-105850000D01*
X111510000Y-105992857D01*
X111652857Y-106064286D01*
X111795714Y-106064286D01*
X111938571Y-105350000D01*
X111081429Y-107778571D02*
X111010000Y-107850000D01*
X110938571Y-107992857D01*
X110938571Y-108350000D01*
X111010000Y-108492857D01*
X111081429Y-108564286D01*
X111224286Y-108635714D01*
X111367143Y-108635714D01*
X111581429Y-108564286D01*
X112438571Y-107707143D01*
X112438571Y-108635714D01*
X60419571Y-34714571D02*
X60919571Y-34000286D01*
X61276714Y-34714571D02*
X61276714Y-33214571D01*
X60705286Y-33214571D01*
X60562428Y-33286000D01*
X60491000Y-33357429D01*
X60419571Y-33500286D01*
X60419571Y-33714571D01*
X60491000Y-33857429D01*
X60562428Y-33928857D01*
X60705286Y-34000286D01*
X61276714Y-34000286D01*
X59776714Y-33928857D02*
X59276714Y-33928857D01*
X59062428Y-34714571D02*
X59776714Y-34714571D01*
X59776714Y-33214571D01*
X59062428Y-33214571D01*
X57705285Y-34714571D02*
X58419571Y-34714571D01*
X58419571Y-33214571D01*
X57276714Y-34286000D02*
X56562428Y-34286000D01*
X57419571Y-34714571D02*
X56919571Y-33214571D01*
X56419571Y-34714571D01*
X55633857Y-34000286D02*
X55633857Y-34714571D01*
X56133857Y-33214571D02*
X55633857Y-34000286D01*
X55133857Y-33214571D01*
X58419572Y-39001000D02*
X58562429Y-38929571D01*
X58776715Y-38929571D01*
X58991000Y-39001000D01*
X59133858Y-39143857D01*
X59205286Y-39286714D01*
X59276715Y-39572429D01*
X59276715Y-39786714D01*
X59205286Y-40072429D01*
X59133858Y-40215286D01*
X58991000Y-40358143D01*
X58776715Y-40429571D01*
X58633858Y-40429571D01*
X58419572Y-40358143D01*
X58348143Y-40286714D01*
X58348143Y-39786714D01*
X58633858Y-39786714D01*
X57705286Y-40429571D02*
X57705286Y-38929571D01*
X56848143Y-40429571D01*
X56848143Y-38929571D01*
X56133857Y-40429571D02*
X56133857Y-38929571D01*
X55776714Y-38929571D01*
X55562429Y-39001000D01*
X55419571Y-39143857D01*
X55348143Y-39286714D01*
X55276714Y-39572429D01*
X55276714Y-39786714D01*
X55348143Y-40072429D01*
X55419571Y-40215286D01*
X55562429Y-40358143D01*
X55776714Y-40429571D01*
X56133857Y-40429571D01*
X59205285Y-37826143D02*
X58062428Y-37826143D01*
X58633857Y-38397571D02*
X58633857Y-37254714D01*
X56633856Y-36897571D02*
X57348142Y-36897571D01*
X57419571Y-37611857D01*
X57348142Y-37540429D01*
X57205285Y-37469000D01*
X56848142Y-37469000D01*
X56705285Y-37540429D01*
X56633856Y-37611857D01*
X56562428Y-37754714D01*
X56562428Y-38111857D01*
X56633856Y-38254714D01*
X56705285Y-38326143D01*
X56848142Y-38397571D01*
X57205285Y-38397571D01*
X57348142Y-38326143D01*
X57419571Y-38254714D01*
X56133857Y-36897571D02*
X55633857Y-38397571D01*
X55133857Y-36897571D01*
D12*
X140470000Y-120904096D02*
X140422381Y-120808858D01*
X140422381Y-120666001D01*
X140470000Y-120523143D01*
X140565238Y-120427905D01*
X140660476Y-120380286D01*
X140850952Y-120332667D01*
X140993810Y-120332667D01*
X141184286Y-120380286D01*
X141279524Y-120427905D01*
X141374762Y-120523143D01*
X141422381Y-120666001D01*
X141422381Y-120761239D01*
X141374762Y-120904096D01*
X141327143Y-120951715D01*
X140993810Y-120951715D01*
X140993810Y-120761239D01*
X141422381Y-121380286D02*
X140422381Y-121380286D01*
X141422381Y-121951715D01*
X140422381Y-121951715D01*
X141422381Y-122427905D02*
X140422381Y-122427905D01*
X140422381Y-122666000D01*
X140470000Y-122808858D01*
X140565238Y-122904096D01*
X140660476Y-122951715D01*
X140850952Y-122999334D01*
X140993810Y-122999334D01*
X141184286Y-122951715D01*
X141279524Y-122904096D01*
X141374762Y-122808858D01*
X141422381Y-122666000D01*
X141422381Y-122427905D01*
X140470000Y-108712096D02*
X140422381Y-108616858D01*
X140422381Y-108474001D01*
X140470000Y-108331143D01*
X140565238Y-108235905D01*
X140660476Y-108188286D01*
X140850952Y-108140667D01*
X140993810Y-108140667D01*
X141184286Y-108188286D01*
X141279524Y-108235905D01*
X141374762Y-108331143D01*
X141422381Y-108474001D01*
X141422381Y-108569239D01*
X141374762Y-108712096D01*
X141327143Y-108759715D01*
X140993810Y-108759715D01*
X140993810Y-108569239D01*
X141422381Y-109188286D02*
X140422381Y-109188286D01*
X141422381Y-109759715D01*
X140422381Y-109759715D01*
X141422381Y-110235905D02*
X140422381Y-110235905D01*
X140422381Y-110474000D01*
X140470000Y-110616858D01*
X140565238Y-110712096D01*
X140660476Y-110759715D01*
X140850952Y-110807334D01*
X140993810Y-110807334D01*
X141184286Y-110759715D01*
X141279524Y-110712096D01*
X141374762Y-110616858D01*
X141422381Y-110474000D01*
X141422381Y-110235905D01*
X140470000Y-96520096D02*
X140422381Y-96424858D01*
X140422381Y-96282001D01*
X140470000Y-96139143D01*
X140565238Y-96043905D01*
X140660476Y-95996286D01*
X140850952Y-95948667D01*
X140993810Y-95948667D01*
X141184286Y-95996286D01*
X141279524Y-96043905D01*
X141374762Y-96139143D01*
X141422381Y-96282001D01*
X141422381Y-96377239D01*
X141374762Y-96520096D01*
X141327143Y-96567715D01*
X140993810Y-96567715D01*
X140993810Y-96377239D01*
X141422381Y-96996286D02*
X140422381Y-96996286D01*
X141422381Y-97567715D01*
X140422381Y-97567715D01*
X141422381Y-98043905D02*
X140422381Y-98043905D01*
X140422381Y-98282000D01*
X140470000Y-98424858D01*
X140565238Y-98520096D01*
X140660476Y-98567715D01*
X140850952Y-98615334D01*
X140993810Y-98615334D01*
X141184286Y-98567715D01*
X141279524Y-98520096D01*
X141374762Y-98424858D01*
X141422381Y-98282000D01*
X141422381Y-98043905D01*
X140470000Y-84328096D02*
X140422381Y-84232858D01*
X140422381Y-84090001D01*
X140470000Y-83947143D01*
X140565238Y-83851905D01*
X140660476Y-83804286D01*
X140850952Y-83756667D01*
X140993810Y-83756667D01*
X141184286Y-83804286D01*
X141279524Y-83851905D01*
X141374762Y-83947143D01*
X141422381Y-84090001D01*
X141422381Y-84185239D01*
X141374762Y-84328096D01*
X141327143Y-84375715D01*
X140993810Y-84375715D01*
X140993810Y-84185239D01*
X141422381Y-84804286D02*
X140422381Y-84804286D01*
X141422381Y-85375715D01*
X140422381Y-85375715D01*
X141422381Y-85851905D02*
X140422381Y-85851905D01*
X140422381Y-86090000D01*
X140470000Y-86232858D01*
X140565238Y-86328096D01*
X140660476Y-86375715D01*
X140850952Y-86423334D01*
X140993810Y-86423334D01*
X141184286Y-86375715D01*
X141279524Y-86328096D01*
X141374762Y-86232858D01*
X141422381Y-86090000D01*
X141422381Y-85851905D01*
X140470000Y-72136096D02*
X140422381Y-72040858D01*
X140422381Y-71898001D01*
X140470000Y-71755143D01*
X140565238Y-71659905D01*
X140660476Y-71612286D01*
X140850952Y-71564667D01*
X140993810Y-71564667D01*
X141184286Y-71612286D01*
X141279524Y-71659905D01*
X141374762Y-71755143D01*
X141422381Y-71898001D01*
X141422381Y-71993239D01*
X141374762Y-72136096D01*
X141327143Y-72183715D01*
X140993810Y-72183715D01*
X140993810Y-71993239D01*
X141422381Y-72612286D02*
X140422381Y-72612286D01*
X141422381Y-73183715D01*
X140422381Y-73183715D01*
X141422381Y-73659905D02*
X140422381Y-73659905D01*
X140422381Y-73898000D01*
X140470000Y-74040858D01*
X140565238Y-74136096D01*
X140660476Y-74183715D01*
X140850952Y-74231334D01*
X140993810Y-74231334D01*
X141184286Y-74183715D01*
X141279524Y-74136096D01*
X141374762Y-74040858D01*
X141422381Y-73898000D01*
X141422381Y-73659905D01*
X140470000Y-59944096D02*
X140422381Y-59848858D01*
X140422381Y-59706001D01*
X140470000Y-59563143D01*
X140565238Y-59467905D01*
X140660476Y-59420286D01*
X140850952Y-59372667D01*
X140993810Y-59372667D01*
X141184286Y-59420286D01*
X141279524Y-59467905D01*
X141374762Y-59563143D01*
X141422381Y-59706001D01*
X141422381Y-59801239D01*
X141374762Y-59944096D01*
X141327143Y-59991715D01*
X140993810Y-59991715D01*
X140993810Y-59801239D01*
X141422381Y-60420286D02*
X140422381Y-60420286D01*
X141422381Y-60991715D01*
X140422381Y-60991715D01*
X141422381Y-61467905D02*
X140422381Y-61467905D01*
X140422381Y-61706000D01*
X140470000Y-61848858D01*
X140565238Y-61944096D01*
X140660476Y-61991715D01*
X140850952Y-62039334D01*
X140993810Y-62039334D01*
X141184286Y-61991715D01*
X141279524Y-61944096D01*
X141374762Y-61848858D01*
X141422381Y-61706000D01*
X141422381Y-61467905D01*
X140470000Y-35560096D02*
X140422381Y-35464858D01*
X140422381Y-35322001D01*
X140470000Y-35179143D01*
X140565238Y-35083905D01*
X140660476Y-35036286D01*
X140850952Y-34988667D01*
X140993810Y-34988667D01*
X141184286Y-35036286D01*
X141279524Y-35083905D01*
X141374762Y-35179143D01*
X141422381Y-35322001D01*
X141422381Y-35417239D01*
X141374762Y-35560096D01*
X141327143Y-35607715D01*
X140993810Y-35607715D01*
X140993810Y-35417239D01*
X141422381Y-36036286D02*
X140422381Y-36036286D01*
X141422381Y-36607715D01*
X140422381Y-36607715D01*
X141422381Y-37083905D02*
X140422381Y-37083905D01*
X140422381Y-37322000D01*
X140470000Y-37464858D01*
X140565238Y-37560096D01*
X140660476Y-37607715D01*
X140850952Y-37655334D01*
X140993810Y-37655334D01*
X141184286Y-37607715D01*
X141279524Y-37560096D01*
X141374762Y-37464858D01*
X141422381Y-37322000D01*
X141422381Y-37083905D01*
X140470000Y-47752096D02*
X140422381Y-47656858D01*
X140422381Y-47514001D01*
X140470000Y-47371143D01*
X140565238Y-47275905D01*
X140660476Y-47228286D01*
X140850952Y-47180667D01*
X140993810Y-47180667D01*
X141184286Y-47228286D01*
X141279524Y-47275905D01*
X141374762Y-47371143D01*
X141422381Y-47514001D01*
X141422381Y-47609239D01*
X141374762Y-47752096D01*
X141327143Y-47799715D01*
X140993810Y-47799715D01*
X140993810Y-47609239D01*
X141422381Y-48228286D02*
X140422381Y-48228286D01*
X141422381Y-48799715D01*
X140422381Y-48799715D01*
X141422381Y-49275905D02*
X140422381Y-49275905D01*
X140422381Y-49514000D01*
X140470000Y-49656858D01*
X140565238Y-49752096D01*
X140660476Y-49799715D01*
X140850952Y-49847334D01*
X140993810Y-49847334D01*
X141184286Y-49799715D01*
X141279524Y-49752096D01*
X141374762Y-49656858D01*
X141422381Y-49514000D01*
X141422381Y-49275905D01*
X141422381Y-115966953D02*
X141422381Y-115395524D01*
X141422381Y-115681238D02*
X140422381Y-115681238D01*
X140565238Y-115586000D01*
X140660476Y-115490762D01*
X140708095Y-115395524D01*
X140517619Y-116347905D02*
X140470000Y-116395524D01*
X140422381Y-116490762D01*
X140422381Y-116728858D01*
X140470000Y-116824096D01*
X140517619Y-116871715D01*
X140612857Y-116919334D01*
X140708095Y-116919334D01*
X140850952Y-116871715D01*
X141422381Y-116300286D01*
X141422381Y-116919334D01*
X140422381Y-117205048D02*
X141422381Y-117538381D01*
X140422381Y-117871715D01*
X141422381Y-103774953D02*
X141422381Y-103203524D01*
X141422381Y-103489238D02*
X140422381Y-103489238D01*
X140565238Y-103394000D01*
X140660476Y-103298762D01*
X140708095Y-103203524D01*
X140517619Y-104155905D02*
X140470000Y-104203524D01*
X140422381Y-104298762D01*
X140422381Y-104536858D01*
X140470000Y-104632096D01*
X140517619Y-104679715D01*
X140612857Y-104727334D01*
X140708095Y-104727334D01*
X140850952Y-104679715D01*
X141422381Y-104108286D01*
X141422381Y-104727334D01*
X140422381Y-105013048D02*
X141422381Y-105346381D01*
X140422381Y-105679715D01*
X141422381Y-91582953D02*
X141422381Y-91011524D01*
X141422381Y-91297238D02*
X140422381Y-91297238D01*
X140565238Y-91202000D01*
X140660476Y-91106762D01*
X140708095Y-91011524D01*
X140517619Y-91963905D02*
X140470000Y-92011524D01*
X140422381Y-92106762D01*
X140422381Y-92344858D01*
X140470000Y-92440096D01*
X140517619Y-92487715D01*
X140612857Y-92535334D01*
X140708095Y-92535334D01*
X140850952Y-92487715D01*
X141422381Y-91916286D01*
X141422381Y-92535334D01*
X140422381Y-92821048D02*
X141422381Y-93154381D01*
X140422381Y-93487715D01*
X141422381Y-79390953D02*
X141422381Y-78819524D01*
X141422381Y-79105238D02*
X140422381Y-79105238D01*
X140565238Y-79010000D01*
X140660476Y-78914762D01*
X140708095Y-78819524D01*
X140517619Y-79771905D02*
X140470000Y-79819524D01*
X140422381Y-79914762D01*
X140422381Y-80152858D01*
X140470000Y-80248096D01*
X140517619Y-80295715D01*
X140612857Y-80343334D01*
X140708095Y-80343334D01*
X140850952Y-80295715D01*
X141422381Y-79724286D01*
X141422381Y-80343334D01*
X140422381Y-80629048D02*
X141422381Y-80962381D01*
X140422381Y-81295715D01*
X141422381Y-67198953D02*
X141422381Y-66627524D01*
X141422381Y-66913238D02*
X140422381Y-66913238D01*
X140565238Y-66818000D01*
X140660476Y-66722762D01*
X140708095Y-66627524D01*
X140517619Y-67579905D02*
X140470000Y-67627524D01*
X140422381Y-67722762D01*
X140422381Y-67960858D01*
X140470000Y-68056096D01*
X140517619Y-68103715D01*
X140612857Y-68151334D01*
X140708095Y-68151334D01*
X140850952Y-68103715D01*
X141422381Y-67532286D01*
X141422381Y-68151334D01*
X140422381Y-68437048D02*
X141422381Y-68770381D01*
X140422381Y-69103715D01*
X141422381Y-55006953D02*
X141422381Y-54435524D01*
X141422381Y-54721238D02*
X140422381Y-54721238D01*
X140565238Y-54626000D01*
X140660476Y-54530762D01*
X140708095Y-54435524D01*
X140517619Y-55387905D02*
X140470000Y-55435524D01*
X140422381Y-55530762D01*
X140422381Y-55768858D01*
X140470000Y-55864096D01*
X140517619Y-55911715D01*
X140612857Y-55959334D01*
X140708095Y-55959334D01*
X140850952Y-55911715D01*
X141422381Y-55340286D01*
X141422381Y-55959334D01*
X140422381Y-56245048D02*
X141422381Y-56578381D01*
X140422381Y-56911715D01*
X141422381Y-42814953D02*
X141422381Y-42243524D01*
X141422381Y-42529238D02*
X140422381Y-42529238D01*
X140565238Y-42434000D01*
X140660476Y-42338762D01*
X140708095Y-42243524D01*
X140517619Y-43195905D02*
X140470000Y-43243524D01*
X140422381Y-43338762D01*
X140422381Y-43576858D01*
X140470000Y-43672096D01*
X140517619Y-43719715D01*
X140612857Y-43767334D01*
X140708095Y-43767334D01*
X140850952Y-43719715D01*
X141422381Y-43148286D01*
X141422381Y-43767334D01*
X140422381Y-44053048D02*
X141422381Y-44386381D01*
X140422381Y-44719715D01*
X141422381Y-30622953D02*
X141422381Y-30051524D01*
X141422381Y-30337238D02*
X140422381Y-30337238D01*
X140565238Y-30242000D01*
X140660476Y-30146762D01*
X140708095Y-30051524D01*
X140517619Y-31003905D02*
X140470000Y-31051524D01*
X140422381Y-31146762D01*
X140422381Y-31384858D01*
X140470000Y-31480096D01*
X140517619Y-31527715D01*
X140612857Y-31575334D01*
X140708095Y-31575334D01*
X140850952Y-31527715D01*
X141422381Y-30956286D01*
X141422381Y-31575334D01*
X140422381Y-31861048D02*
X141422381Y-32194381D01*
X140422381Y-32527715D01*
D11*
X45986000Y-31579999D02*
X45914571Y-31437142D01*
X45914571Y-31222856D01*
X45986000Y-31008571D01*
X46128857Y-30865713D01*
X46271714Y-30794285D01*
X46557429Y-30722856D01*
X46771714Y-30722856D01*
X47057429Y-30794285D01*
X47200286Y-30865713D01*
X47343143Y-31008571D01*
X47414571Y-31222856D01*
X47414571Y-31365713D01*
X47343143Y-31579999D01*
X47271714Y-31651428D01*
X46771714Y-31651428D01*
X46771714Y-31365713D01*
X45914571Y-32294285D02*
X47128857Y-32294285D01*
X47271714Y-32365713D01*
X47343143Y-32437142D01*
X47414571Y-32579999D01*
X47414571Y-32865713D01*
X47343143Y-33008571D01*
X47271714Y-33079999D01*
X47128857Y-33151428D01*
X45914571Y-33151428D01*
X46986000Y-33794285D02*
X46986000Y-34508571D01*
X47414571Y-33651428D02*
X45914571Y-34151428D01*
X47414571Y-34651428D01*
X47414571Y-36008571D02*
X46700286Y-35508571D01*
X47414571Y-35151428D02*
X45914571Y-35151428D01*
X45914571Y-35722856D01*
X45986000Y-35865714D01*
X46057429Y-35937142D01*
X46200286Y-36008571D01*
X46414571Y-36008571D01*
X46557429Y-35937142D01*
X46628857Y-35865714D01*
X46700286Y-35722856D01*
X46700286Y-35151428D01*
X47414571Y-36651428D02*
X45914571Y-36651428D01*
X45914571Y-37008571D01*
X45986000Y-37222856D01*
X46128857Y-37365714D01*
X46271714Y-37437142D01*
X46557429Y-37508571D01*
X46771714Y-37508571D01*
X47057429Y-37437142D01*
X47200286Y-37365714D01*
X47343143Y-37222856D01*
X47414571Y-37008571D01*
X47414571Y-36651428D01*
X45914571Y-38151428D02*
X47128857Y-38151428D01*
X47271714Y-38222856D01*
X47343143Y-38294285D01*
X47414571Y-38437142D01*
X47414571Y-38722856D01*
X47343143Y-38865714D01*
X47271714Y-38937142D01*
X47128857Y-39008571D01*
X45914571Y-39008571D01*
X47414571Y-39722857D02*
X45914571Y-39722857D01*
X47414571Y-40437143D02*
X45914571Y-40437143D01*
X47414571Y-41294286D01*
X45914571Y-41294286D01*
X45914571Y-42294286D02*
X45914571Y-42580000D01*
X45986000Y-42722858D01*
X46128857Y-42865715D01*
X46414571Y-42937143D01*
X46914571Y-42937143D01*
X47200286Y-42865715D01*
X47343143Y-42722858D01*
X47414571Y-42580000D01*
X47414571Y-42294286D01*
X47343143Y-42151429D01*
X47200286Y-42008572D01*
X46914571Y-41937143D01*
X46414571Y-41937143D01*
X46128857Y-42008572D01*
X45986000Y-42151429D01*
X45914571Y-42294286D01*
D13*
X62804762Y-117125905D02*
X62804762Y-115983047D01*
X62804762Y-116554476D02*
X60804762Y-116554476D01*
X61090476Y-116364000D01*
X61280952Y-116173524D01*
X61376190Y-115983047D01*
X60995238Y-117887809D02*
X60900000Y-117983047D01*
X60804762Y-118173524D01*
X60804762Y-118649714D01*
X60900000Y-118840190D01*
X60995238Y-118935428D01*
X61185714Y-119030667D01*
X61376190Y-119030667D01*
X61661905Y-118935428D01*
X62804762Y-117792571D01*
X62804762Y-119030667D01*
X60804762Y-119602095D02*
X62804762Y-120268762D01*
X60804762Y-120935429D01*
X66004762Y-115697334D02*
X66004762Y-114554476D01*
X66004762Y-115125905D02*
X64004762Y-115125905D01*
X64290476Y-114935429D01*
X64480952Y-114744953D01*
X64576190Y-114554476D01*
X64195238Y-116459238D02*
X64100000Y-116554476D01*
X64004762Y-116744953D01*
X64004762Y-117221143D01*
X64100000Y-117411619D01*
X64195238Y-117506857D01*
X64385714Y-117602096D01*
X64576190Y-117602096D01*
X64861905Y-117506857D01*
X66004762Y-116364000D01*
X66004762Y-117602096D01*
X65814286Y-118459238D02*
X65909524Y-118554477D01*
X66004762Y-118459238D01*
X65909524Y-118364000D01*
X65814286Y-118459238D01*
X66004762Y-118459238D01*
X64004762Y-120364000D02*
X64004762Y-119411619D01*
X64957143Y-119316381D01*
X64861905Y-119411619D01*
X64766667Y-119602096D01*
X64766667Y-120078286D01*
X64861905Y-120268762D01*
X64957143Y-120364000D01*
X65147619Y-120459239D01*
X65623810Y-120459239D01*
X65814286Y-120364000D01*
X65909524Y-120268762D01*
X66004762Y-120078286D01*
X66004762Y-119602096D01*
X65909524Y-119411619D01*
X65814286Y-119316381D01*
X65433333Y-121221143D02*
X65433333Y-122173524D01*
X66004762Y-121030667D02*
X64004762Y-121697334D01*
X66004762Y-122364001D01*
X59070762Y-101886000D02*
X57070762Y-101886000D01*
X59070762Y-102838381D02*
X57070762Y-102838381D01*
X59070762Y-103981239D01*
X57070762Y-103981239D01*
X59070762Y-105981239D02*
X59070762Y-104838381D01*
X59070762Y-105409810D02*
X57070762Y-105409810D01*
X57356476Y-105219334D01*
X57546952Y-105028858D01*
X57642190Y-104838381D01*
X59070762Y-87662000D02*
X57070762Y-87662000D01*
X59070762Y-88614381D02*
X57070762Y-88614381D01*
X59070762Y-89757239D01*
X57070762Y-89757239D01*
X57261238Y-90614381D02*
X57166000Y-90709619D01*
X57070762Y-90900096D01*
X57070762Y-91376286D01*
X57166000Y-91566762D01*
X57261238Y-91662000D01*
X57451714Y-91757239D01*
X57642190Y-91757239D01*
X57927905Y-91662000D01*
X59070762Y-90519143D01*
X59070762Y-91757239D01*
X59070762Y-73438000D02*
X57070762Y-73438000D01*
X59070762Y-74390381D02*
X57070762Y-74390381D01*
X59070762Y-75533239D01*
X57070762Y-75533239D01*
X57070762Y-76295143D02*
X57070762Y-77533239D01*
X57832667Y-76866572D01*
X57832667Y-77152286D01*
X57927905Y-77342762D01*
X58023143Y-77438000D01*
X58213619Y-77533239D01*
X58689810Y-77533239D01*
X58880286Y-77438000D01*
X58975524Y-77342762D01*
X59070762Y-77152286D01*
X59070762Y-76580858D01*
X58975524Y-76390381D01*
X58880286Y-76295143D01*
X59070762Y-59214000D02*
X57070762Y-59214000D01*
X59070762Y-60166381D02*
X57070762Y-60166381D01*
X59070762Y-61309239D01*
X57070762Y-61309239D01*
X57737429Y-63118762D02*
X59070762Y-63118762D01*
X56975524Y-62642572D02*
X58404095Y-62166381D01*
X58404095Y-63404477D01*
X127587333Y-33305809D02*
X127587333Y-34258190D01*
X128158762Y-33115333D02*
X126158762Y-33782000D01*
X128158762Y-34448667D01*
X127111143Y-46116857D02*
X127206381Y-46402571D01*
X127301619Y-46497810D01*
X127492095Y-46593048D01*
X127777810Y-46593048D01*
X127968286Y-46497810D01*
X128063524Y-46402571D01*
X128158762Y-46212095D01*
X128158762Y-45450190D01*
X126158762Y-45450190D01*
X126158762Y-46116857D01*
X126254000Y-46307333D01*
X126349238Y-46402571D01*
X126539714Y-46497810D01*
X126730190Y-46497810D01*
X126920667Y-46402571D01*
X127015905Y-46307333D01*
X127111143Y-46116857D01*
X127111143Y-45450190D01*
X127968286Y-58785048D02*
X128063524Y-58689810D01*
X128158762Y-58404095D01*
X128158762Y-58213619D01*
X128063524Y-57927905D01*
X127873048Y-57737429D01*
X127682571Y-57642190D01*
X127301619Y-57546952D01*
X127015905Y-57546952D01*
X126634952Y-57642190D01*
X126444476Y-57737429D01*
X126254000Y-57927905D01*
X126158762Y-58213619D01*
X126158762Y-58404095D01*
X126254000Y-58689810D01*
X126349238Y-58785048D01*
X128158762Y-69834190D02*
X126158762Y-69834190D01*
X126158762Y-70310381D01*
X126254000Y-70596095D01*
X126444476Y-70786571D01*
X126634952Y-70881810D01*
X127015905Y-70977048D01*
X127301619Y-70977048D01*
X127682571Y-70881810D01*
X127873048Y-70786571D01*
X128063524Y-70596095D01*
X128158762Y-70310381D01*
X128158762Y-69834190D01*
X127111143Y-82121428D02*
X127111143Y-82788095D01*
X128158762Y-83073809D02*
X128158762Y-82121428D01*
X126158762Y-82121428D01*
X126158762Y-83073809D01*
X127111143Y-95027714D02*
X127111143Y-94361047D01*
X128158762Y-94361047D02*
X126158762Y-94361047D01*
X126158762Y-95313428D01*
X126254000Y-107457810D02*
X126158762Y-107267333D01*
X126158762Y-106981619D01*
X126254000Y-106695905D01*
X126444476Y-106505429D01*
X126634952Y-106410190D01*
X127015905Y-106314952D01*
X127301619Y-106314952D01*
X127682571Y-106410190D01*
X127873048Y-106505429D01*
X128063524Y-106695905D01*
X128158762Y-106981619D01*
X128158762Y-107172095D01*
X128063524Y-107457810D01*
X127968286Y-107553048D01*
X127301619Y-107553048D01*
X127301619Y-107172095D01*
X128158762Y-118554571D02*
X126158762Y-118554571D01*
X127111143Y-118554571D02*
X127111143Y-119697429D01*
X128158762Y-119697429D02*
X126158762Y-119697429D01*
D12*
X66652857Y-75076286D02*
X66652857Y-74504857D01*
X67224286Y-74447714D01*
X67167143Y-74504857D01*
X67110000Y-74619143D01*
X67110000Y-74904857D01*
X67167143Y-75019143D01*
X67224286Y-75076286D01*
X67338571Y-75133429D01*
X67624286Y-75133429D01*
X67738571Y-75076286D01*
X67795714Y-75019143D01*
X67852857Y-74904857D01*
X67852857Y-74619143D01*
X67795714Y-74504857D01*
X67738571Y-74447714D01*
X66652857Y-75876286D02*
X66652857Y-75990571D01*
X66710000Y-76104857D01*
X66767143Y-76162000D01*
X66881429Y-76219143D01*
X67110000Y-76276286D01*
X67395714Y-76276286D01*
X67624286Y-76219143D01*
X67738571Y-76162000D01*
X67795714Y-76104857D01*
X67852857Y-75990571D01*
X67852857Y-75876286D01*
X67795714Y-75762000D01*
X67738571Y-75704857D01*
X67624286Y-75647714D01*
X67395714Y-75590571D01*
X67110000Y-75590571D01*
X66881429Y-75647714D01*
X66767143Y-75704857D01*
X66710000Y-75762000D01*
X66652857Y-75876286D01*
X67852857Y-76790571D02*
X67052857Y-76790571D01*
X67167143Y-76790571D02*
X67110000Y-76847714D01*
X67052857Y-76962000D01*
X67052857Y-77133428D01*
X67110000Y-77247714D01*
X67224286Y-77304857D01*
X67852857Y-77304857D01*
X67224286Y-77304857D02*
X67110000Y-77362000D01*
X67052857Y-77476286D01*
X67052857Y-77647714D01*
X67110000Y-77762000D01*
X67224286Y-77819143D01*
X67852857Y-77819143D01*
X67852857Y-78390571D02*
X67052857Y-78390571D01*
X67167143Y-78390571D02*
X67110000Y-78447714D01*
X67052857Y-78562000D01*
X67052857Y-78733428D01*
X67110000Y-78847714D01*
X67224286Y-78904857D01*
X67852857Y-78904857D01*
X67224286Y-78904857D02*
X67110000Y-78962000D01*
X67052857Y-79076286D01*
X67052857Y-79247714D01*
X67110000Y-79362000D01*
X67224286Y-79419143D01*
X67852857Y-79419143D01*
X104120714Y-100307857D02*
X104692143Y-100307857D01*
X104749286Y-100879286D01*
X104692143Y-100822143D01*
X104577857Y-100765000D01*
X104292143Y-100765000D01*
X104177857Y-100822143D01*
X104120714Y-100879286D01*
X104063571Y-100993571D01*
X104063571Y-101279286D01*
X104120714Y-101393571D01*
X104177857Y-101450714D01*
X104292143Y-101507857D01*
X104577857Y-101507857D01*
X104692143Y-101450714D01*
X104749286Y-101393571D01*
X103320714Y-100307857D02*
X103206429Y-100307857D01*
X103092143Y-100365000D01*
X103035000Y-100422143D01*
X102977857Y-100536429D01*
X102920714Y-100765000D01*
X102920714Y-101050714D01*
X102977857Y-101279286D01*
X103035000Y-101393571D01*
X103092143Y-101450714D01*
X103206429Y-101507857D01*
X103320714Y-101507857D01*
X103435000Y-101450714D01*
X103492143Y-101393571D01*
X103549286Y-101279286D01*
X103606429Y-101050714D01*
X103606429Y-100765000D01*
X103549286Y-100536429D01*
X103492143Y-100422143D01*
X103435000Y-100365000D01*
X103320714Y-100307857D01*
X102406429Y-101507857D02*
X102406429Y-100707857D01*
X102406429Y-100822143D02*
X102349286Y-100765000D01*
X102235000Y-100707857D01*
X102063572Y-100707857D01*
X101949286Y-100765000D01*
X101892143Y-100879286D01*
X101892143Y-101507857D01*
X101892143Y-100879286D02*
X101835000Y-100765000D01*
X101720714Y-100707857D01*
X101549286Y-100707857D01*
X101435000Y-100765000D01*
X101377857Y-100879286D01*
X101377857Y-101507857D01*
X100806429Y-101507857D02*
X100806429Y-100707857D01*
X100806429Y-100822143D02*
X100749286Y-100765000D01*
X100635000Y-100707857D01*
X100463572Y-100707857D01*
X100349286Y-100765000D01*
X100292143Y-100879286D01*
X100292143Y-101507857D01*
X100292143Y-100879286D02*
X100235000Y-100765000D01*
X100120714Y-100707857D01*
X99949286Y-100707857D01*
X99835000Y-100765000D01*
X99777857Y-100879286D01*
X99777857Y-101507857D01*
X68199000Y-100330000D02*
X68199000Y-53594000D01*
X116586000Y-101981000D02*
X69850000Y-101981000D01*
D11*
X103590573Y-114706000D02*
X103733430Y-114634571D01*
X103947716Y-114634571D01*
X104162001Y-114706000D01*
X104304859Y-114848857D01*
X104376287Y-114991714D01*
X104447716Y-115277429D01*
X104447716Y-115491714D01*
X104376287Y-115777429D01*
X104304859Y-115920286D01*
X104162001Y-116063143D01*
X103947716Y-116134571D01*
X103804859Y-116134571D01*
X103590573Y-116063143D01*
X103519144Y-115991714D01*
X103519144Y-115491714D01*
X103804859Y-115491714D01*
X102876287Y-114634571D02*
X102876287Y-115848857D01*
X102804859Y-115991714D01*
X102733430Y-116063143D01*
X102590573Y-116134571D01*
X102304859Y-116134571D01*
X102162001Y-116063143D01*
X102090573Y-115991714D01*
X102019144Y-115848857D01*
X102019144Y-114634571D01*
X101376287Y-115706000D02*
X100662001Y-115706000D01*
X101519144Y-116134571D02*
X101019144Y-114634571D01*
X100519144Y-116134571D01*
X99162001Y-116134571D02*
X99662001Y-115420286D01*
X100019144Y-116134571D02*
X100019144Y-114634571D01*
X99447716Y-114634571D01*
X99304858Y-114706000D01*
X99233430Y-114777429D01*
X99162001Y-114920286D01*
X99162001Y-115134571D01*
X99233430Y-115277429D01*
X99304858Y-115348857D01*
X99447716Y-115420286D01*
X100019144Y-115420286D01*
X98519144Y-116134571D02*
X98519144Y-114634571D01*
X98162001Y-114634571D01*
X97947716Y-114706000D01*
X97804858Y-114848857D01*
X97733430Y-114991714D01*
X97662001Y-115277429D01*
X97662001Y-115491714D01*
X97733430Y-115777429D01*
X97804858Y-115920286D01*
X97947716Y-116063143D01*
X98162001Y-116134571D01*
X98519144Y-116134571D01*
X97019144Y-114634571D02*
X97019144Y-115848857D01*
X96947716Y-115991714D01*
X96876287Y-116063143D01*
X96733430Y-116134571D01*
X96447716Y-116134571D01*
X96304858Y-116063143D01*
X96233430Y-115991714D01*
X96162001Y-115848857D01*
X96162001Y-114634571D01*
X95447715Y-116134571D02*
X95447715Y-114634571D01*
X94733429Y-116134571D02*
X94733429Y-114634571D01*
X93876286Y-116134571D01*
X93876286Y-114634571D01*
X92876286Y-114634571D02*
X92590572Y-114634571D01*
X92447714Y-114706000D01*
X92304857Y-114848857D01*
X92233429Y-115134571D01*
X92233429Y-115634571D01*
X92304857Y-115920286D01*
X92447714Y-116063143D01*
X92590572Y-116134571D01*
X92876286Y-116134571D01*
X93019143Y-116063143D01*
X93162000Y-115920286D01*
X93233429Y-115634571D01*
X93233429Y-115134571D01*
X93162000Y-114848857D01*
X93019143Y-114706000D01*
X92876286Y-114634571D01*
X89590571Y-115991714D02*
X89662000Y-116063143D01*
X89876286Y-116134571D01*
X90019143Y-116134571D01*
X90233428Y-116063143D01*
X90376286Y-115920286D01*
X90447714Y-115777429D01*
X90519143Y-115491714D01*
X90519143Y-115277429D01*
X90447714Y-114991714D01*
X90376286Y-114848857D01*
X90233428Y-114706000D01*
X90019143Y-114634571D01*
X89876286Y-114634571D01*
X89662000Y-114706000D01*
X89590571Y-114777429D01*
X88662000Y-114634571D02*
X88376286Y-114634571D01*
X88233428Y-114706000D01*
X88090571Y-114848857D01*
X88019143Y-115134571D01*
X88019143Y-115634571D01*
X88090571Y-115920286D01*
X88233428Y-116063143D01*
X88376286Y-116134571D01*
X88662000Y-116134571D01*
X88804857Y-116063143D01*
X88947714Y-115920286D01*
X89019143Y-115634571D01*
X89019143Y-115134571D01*
X88947714Y-114848857D01*
X88804857Y-114706000D01*
X88662000Y-114634571D01*
X87376285Y-116134571D02*
X87376285Y-114634571D01*
X86519142Y-116134571D01*
X86519142Y-114634571D01*
X86019142Y-114634571D02*
X85161999Y-114634571D01*
X85590570Y-116134571D02*
X85590570Y-114634571D01*
X83804856Y-116134571D02*
X84304856Y-115420286D01*
X84661999Y-116134571D02*
X84661999Y-114634571D01*
X84090571Y-114634571D01*
X83947713Y-114706000D01*
X83876285Y-114777429D01*
X83804856Y-114920286D01*
X83804856Y-115134571D01*
X83876285Y-115277429D01*
X83947713Y-115348857D01*
X84090571Y-115420286D01*
X84661999Y-115420286D01*
X82876285Y-114634571D02*
X82590571Y-114634571D01*
X82447713Y-114706000D01*
X82304856Y-114848857D01*
X82233428Y-115134571D01*
X82233428Y-115634571D01*
X82304856Y-115920286D01*
X82447713Y-116063143D01*
X82590571Y-116134571D01*
X82876285Y-116134571D01*
X83019142Y-116063143D01*
X83161999Y-115920286D01*
X83233428Y-115634571D01*
X83233428Y-115134571D01*
X83161999Y-114848857D01*
X83019142Y-114706000D01*
X82876285Y-114634571D01*
X80876284Y-116134571D02*
X81590570Y-116134571D01*
X81590570Y-114634571D01*
X79233427Y-114634571D02*
X79233427Y-115848857D01*
X79161999Y-115991714D01*
X79090570Y-116063143D01*
X78947713Y-116134571D01*
X78661999Y-116134571D01*
X78519141Y-116063143D01*
X78447713Y-115991714D01*
X78376284Y-115848857D01*
X78376284Y-114634571D01*
X77661998Y-116134571D02*
X77661998Y-114634571D01*
X76804855Y-116134571D01*
X76804855Y-114634571D01*
X76090569Y-116134571D02*
X76090569Y-114634571D01*
X75590569Y-114634571D02*
X74733426Y-114634571D01*
X75161997Y-116134571D02*
X75161997Y-114634571D01*
X105840570Y-117534571D02*
X105483427Y-118534571D01*
X105126285Y-117534571D01*
X103983428Y-118463143D02*
X104126285Y-118534571D01*
X104411999Y-118534571D01*
X104554856Y-118463143D01*
X104626285Y-118320286D01*
X104626285Y-117748857D01*
X104554856Y-117606000D01*
X104411999Y-117534571D01*
X104126285Y-117534571D01*
X103983428Y-117606000D01*
X103911999Y-117748857D01*
X103911999Y-117891714D01*
X104626285Y-118034571D01*
X103269142Y-118534571D02*
X103269142Y-117534571D01*
X103269142Y-117820286D02*
X103197714Y-117677429D01*
X103126285Y-117606000D01*
X102983428Y-117534571D01*
X102840571Y-117534571D01*
X100412000Y-118534571D02*
X101269143Y-118534571D01*
X100840571Y-118534571D02*
X100840571Y-117034571D01*
X100983428Y-117248857D01*
X101126286Y-117391714D01*
X101269143Y-117463143D01*
X99769143Y-118391714D02*
X99697715Y-118463143D01*
X99769143Y-118534571D01*
X99840572Y-118463143D01*
X99769143Y-118391714D01*
X99769143Y-118534571D01*
X98769143Y-117034571D02*
X98626286Y-117034571D01*
X98483429Y-117106000D01*
X98412000Y-117177429D01*
X98340571Y-117320286D01*
X98269143Y-117606000D01*
X98269143Y-117963143D01*
X98340571Y-118248857D01*
X98412000Y-118391714D01*
X98483429Y-118463143D01*
X98626286Y-118534571D01*
X98769143Y-118534571D01*
X98912000Y-118463143D01*
X98983429Y-118391714D01*
X99054857Y-118248857D01*
X99126286Y-117963143D01*
X99126286Y-117606000D01*
X99054857Y-117320286D01*
X98983429Y-117177429D01*
X98912000Y-117106000D01*
X98769143Y-117034571D01*
X97554858Y-118463143D02*
X97554858Y-118534571D01*
X97626286Y-118677429D01*
X97697715Y-118748857D01*
X95340572Y-117034571D02*
X95340572Y-118106000D01*
X95412000Y-118320286D01*
X95554857Y-118463143D01*
X95769143Y-118534571D01*
X95912000Y-118534571D01*
X93983429Y-118534571D02*
X93983429Y-117748857D01*
X94054858Y-117606000D01*
X94197715Y-117534571D01*
X94483429Y-117534571D01*
X94626286Y-117606000D01*
X93983429Y-118463143D02*
X94126286Y-118534571D01*
X94483429Y-118534571D01*
X94626286Y-118463143D01*
X94697715Y-118320286D01*
X94697715Y-118177429D01*
X94626286Y-118034571D01*
X94483429Y-117963143D01*
X94126286Y-117963143D01*
X93983429Y-117891714D01*
X93269143Y-118534571D02*
X93269143Y-117034571D01*
X93126286Y-117963143D02*
X92697715Y-118534571D01*
X92697715Y-117534571D02*
X93269143Y-118106000D01*
X91412000Y-117534571D02*
X91412000Y-118534571D01*
X92054857Y-117534571D02*
X92054857Y-118320286D01*
X91983429Y-118463143D01*
X91840571Y-118534571D01*
X91626286Y-118534571D01*
X91483429Y-118463143D01*
X91412000Y-118391714D01*
X90697714Y-118534571D02*
X90697714Y-117034571D01*
X90697714Y-117606000D02*
X90554857Y-117534571D01*
X90269143Y-117534571D01*
X90126286Y-117606000D01*
X90054857Y-117677429D01*
X89983428Y-117820286D01*
X89983428Y-118248857D01*
X90054857Y-118391714D01*
X90126286Y-118463143D01*
X90269143Y-118534571D01*
X90554857Y-118534571D01*
X90697714Y-118463143D01*
X88197714Y-118534571D02*
X88197714Y-117034571D01*
X87340571Y-118534571D01*
X87340571Y-117034571D01*
X86054857Y-118463143D02*
X86197714Y-118534571D01*
X86483428Y-118534571D01*
X86626285Y-118463143D01*
X86697714Y-118320286D01*
X86697714Y-117748857D01*
X86626285Y-117606000D01*
X86483428Y-117534571D01*
X86197714Y-117534571D01*
X86054857Y-117606000D01*
X85983428Y-117748857D01*
X85983428Y-117891714D01*
X86697714Y-118034571D01*
X84697714Y-118534571D02*
X84697714Y-117034571D01*
X84697714Y-118463143D02*
X84840571Y-118534571D01*
X85126285Y-118534571D01*
X85269143Y-118463143D01*
X85340571Y-118391714D01*
X85412000Y-118248857D01*
X85412000Y-117820286D01*
X85340571Y-117677429D01*
X85269143Y-117606000D01*
X85126285Y-117534571D01*
X84840571Y-117534571D01*
X84697714Y-117606000D01*
X83983428Y-118534571D02*
X83983428Y-117034571D01*
X83983428Y-117606000D02*
X83840571Y-117534571D01*
X83554857Y-117534571D01*
X83412000Y-117606000D01*
X83340571Y-117677429D01*
X83269142Y-117820286D01*
X83269142Y-118248857D01*
X83340571Y-118391714D01*
X83412000Y-118463143D01*
X83554857Y-118534571D01*
X83840571Y-118534571D01*
X83983428Y-118463143D01*
X81983428Y-118534571D02*
X81983428Y-117748857D01*
X82054857Y-117606000D01*
X82197714Y-117534571D01*
X82483428Y-117534571D01*
X82626285Y-117606000D01*
X81983428Y-118463143D02*
X82126285Y-118534571D01*
X82483428Y-118534571D01*
X82626285Y-118463143D01*
X82697714Y-118320286D01*
X82697714Y-118177429D01*
X82626285Y-118034571D01*
X82483428Y-117963143D01*
X82126285Y-117963143D01*
X81983428Y-117891714D01*
X81054856Y-118534571D02*
X81197714Y-118463143D01*
X81269142Y-118320286D01*
X81269142Y-117034571D01*
X80412000Y-118463143D02*
X80412000Y-118534571D01*
X80483428Y-118677429D01*
X80554857Y-118748857D01*
X78697714Y-117177429D02*
X78626285Y-117106000D01*
X78483428Y-117034571D01*
X78126285Y-117034571D01*
X77983428Y-117106000D01*
X77911999Y-117177429D01*
X77840571Y-117320286D01*
X77840571Y-117463143D01*
X77911999Y-117677429D01*
X78769142Y-118534571D01*
X77840571Y-118534571D01*
X76912000Y-117034571D02*
X76769143Y-117034571D01*
X76626286Y-117106000D01*
X76554857Y-117177429D01*
X76483428Y-117320286D01*
X76412000Y-117606000D01*
X76412000Y-117963143D01*
X76483428Y-118248857D01*
X76554857Y-118391714D01*
X76626286Y-118463143D01*
X76769143Y-118534571D01*
X76912000Y-118534571D01*
X77054857Y-118463143D01*
X77126286Y-118391714D01*
X77197714Y-118248857D01*
X77269143Y-117963143D01*
X77269143Y-117606000D01*
X77197714Y-117320286D01*
X77126286Y-117177429D01*
X77054857Y-117106000D01*
X76912000Y-117034571D01*
X74983429Y-118534571D02*
X75840572Y-118534571D01*
X75412000Y-118534571D02*
X75412000Y-117034571D01*
X75554857Y-117248857D01*
X75697715Y-117391714D01*
X75840572Y-117463143D01*
X73697715Y-117034571D02*
X73983429Y-117034571D01*
X74126286Y-117106000D01*
X74197715Y-117177429D01*
X74340572Y-117391714D01*
X74412001Y-117677429D01*
X74412001Y-118248857D01*
X74340572Y-118391714D01*
X74269144Y-118463143D01*
X74126286Y-118534571D01*
X73840572Y-118534571D01*
X73697715Y-118463143D01*
X73626286Y-118391714D01*
X73554858Y-118248857D01*
X73554858Y-117891714D01*
X73626286Y-117748857D01*
X73697715Y-117677429D01*
X73840572Y-117606000D01*
X74126286Y-117606000D01*
X74269144Y-117677429D01*
X74340572Y-117748857D01*
X74412001Y-117891714D01*
X94554856Y-120791714D02*
X94626285Y-120863143D01*
X94840571Y-120934571D01*
X94983428Y-120934571D01*
X95197713Y-120863143D01*
X95340571Y-120720286D01*
X95411999Y-120577429D01*
X95483428Y-120291714D01*
X95483428Y-120077429D01*
X95411999Y-119791714D01*
X95340571Y-119648857D01*
X95197713Y-119506000D01*
X94983428Y-119434571D01*
X94840571Y-119434571D01*
X94626285Y-119506000D01*
X94554856Y-119577429D01*
X93054856Y-120791714D02*
X93126285Y-120863143D01*
X93340571Y-120934571D01*
X93483428Y-120934571D01*
X93697713Y-120863143D01*
X93840571Y-120720286D01*
X93911999Y-120577429D01*
X93983428Y-120291714D01*
X93983428Y-120077429D01*
X93911999Y-119791714D01*
X93840571Y-119648857D01*
X93697713Y-119506000D01*
X93483428Y-119434571D01*
X93340571Y-119434571D01*
X93126285Y-119506000D01*
X93054856Y-119577429D01*
X92411999Y-120363143D02*
X91269142Y-120363143D01*
X90054856Y-120148857D02*
X89840570Y-120220286D01*
X89769142Y-120291714D01*
X89697713Y-120434571D01*
X89697713Y-120648857D01*
X89769142Y-120791714D01*
X89840570Y-120863143D01*
X89983428Y-120934571D01*
X90554856Y-120934571D01*
X90554856Y-119434571D01*
X90054856Y-119434571D01*
X89911999Y-119506000D01*
X89840570Y-119577429D01*
X89769142Y-119720286D01*
X89769142Y-119863143D01*
X89840570Y-120006000D01*
X89911999Y-120077429D01*
X90054856Y-120148857D01*
X90554856Y-120148857D01*
X88769142Y-120220286D02*
X88769142Y-120934571D01*
X89269142Y-119434571D02*
X88769142Y-120220286D01*
X88269142Y-119434571D01*
X87769142Y-120363143D02*
X86626285Y-120363143D01*
X85983428Y-120863143D02*
X85769142Y-120934571D01*
X85411999Y-120934571D01*
X85269142Y-120863143D01*
X85197713Y-120791714D01*
X85126285Y-120648857D01*
X85126285Y-120506000D01*
X85197713Y-120363143D01*
X85269142Y-120291714D01*
X85411999Y-120220286D01*
X85697713Y-120148857D01*
X85840571Y-120077429D01*
X85911999Y-120006000D01*
X85983428Y-119863143D01*
X85983428Y-119720286D01*
X85911999Y-119577429D01*
X85840571Y-119506000D01*
X85697713Y-119434571D01*
X85340571Y-119434571D01*
X85126285Y-119506000D01*
X84554857Y-120506000D02*
X83840571Y-120506000D01*
X84697714Y-120934571D02*
X84197714Y-119434571D01*
X83697714Y-120934571D01*
D14*
X138176000Y-54366400D02*
X138176000Y-56906400D01*
X138176000Y-56906400D02*
X135382000Y-56906400D01*
X135382000Y-54366400D02*
X135382000Y-56906400D01*
X138176000Y-54366400D02*
X135382000Y-54366400D01*
X138176000Y-59370200D02*
X138176000Y-61910200D01*
X138176000Y-61910200D02*
X135382000Y-61910200D01*
X135382000Y-59370200D02*
X135382000Y-61910200D01*
X138176000Y-59370200D02*
X135382000Y-59370200D01*
X129413000Y-63231000D02*
X132461000Y-63231000D01*
X129413000Y-63231000D02*
X129413000Y-53046000D01*
X129413000Y-63231000D02*
X129413000Y-63739000D01*
X129413000Y-63739000D02*
X134239000Y-63739000D01*
X134239000Y-63739000D02*
X133985000Y-63231000D01*
X141097000Y-63739000D02*
X140843000Y-63231000D01*
X140843000Y-63231000D02*
X141859000Y-63231000D01*
X139446000Y-63739000D02*
X139700000Y-63231000D01*
X139700000Y-63231000D02*
X140843000Y-63231000D01*
X139446000Y-63739000D02*
X141097000Y-63739000D01*
X141859000Y-58608200D02*
X139954000Y-58608200D01*
X135382000Y-62672200D02*
X139954000Y-62672200D01*
X141859000Y-58608200D02*
X141859000Y-62672200D01*
X141859000Y-62672200D02*
X141859000Y-63231000D01*
X141859000Y-57668400D02*
X139954000Y-57668400D01*
X141859000Y-57668400D02*
X141859000Y-58608200D01*
X135382000Y-53604400D02*
X139954000Y-53604400D01*
X141859000Y-53046000D02*
X141859000Y-53604400D01*
X141859000Y-53604400D02*
X141859000Y-57668400D01*
X139954000Y-58608200D02*
X139954000Y-62672200D01*
X139954000Y-58608200D02*
X135382000Y-58608200D01*
X139954000Y-62672200D02*
X141859000Y-62672200D01*
X139954000Y-57668400D02*
X139954000Y-53604400D01*
X139954000Y-57668400D02*
X135382000Y-57668400D01*
X139954000Y-53604400D02*
X141859000Y-53604400D01*
X139319000Y-62291200D02*
X136144000Y-62291200D01*
X139319000Y-62291200D02*
X139319000Y-58989200D01*
X139319000Y-58989200D02*
X136144000Y-58989200D01*
X139319000Y-57287400D02*
X136144000Y-57287400D01*
X139319000Y-57287400D02*
X139319000Y-53985400D01*
X139319000Y-53985400D02*
X136144000Y-53985400D01*
X136144000Y-53985400D02*
X136144000Y-54366400D01*
X136144000Y-57287400D02*
X136144000Y-56906400D01*
X136144000Y-58989200D02*
X136144000Y-59370200D01*
X136144000Y-62291200D02*
X136144000Y-61910200D01*
X141859000Y-53046000D02*
X135001000Y-53046000D01*
X135001000Y-53046000D02*
X132461000Y-53046000D01*
X133985000Y-63231000D02*
X135001000Y-63231000D01*
X135001000Y-63231000D02*
X139700000Y-63231000D01*
X132461000Y-53046000D02*
X132461000Y-63231000D01*
X132461000Y-53046000D02*
X129413000Y-53046000D01*
X132461000Y-63231000D02*
X133985000Y-63231000D01*
X132207000Y-58608200D02*
X129667000Y-58608200D01*
X129667000Y-58608200D02*
X129667000Y-62672200D01*
X129667000Y-62672200D02*
X132207000Y-62672200D01*
X132207000Y-62672200D02*
X132207000Y-58608200D01*
X132207000Y-57668400D02*
X129667000Y-57668400D01*
X132207000Y-57668400D02*
X132207000Y-53604400D01*
X132207000Y-53604400D02*
X129667000Y-53604400D01*
X129667000Y-57668400D02*
X129667000Y-53604400D01*
X131191000Y-59014600D02*
X130556000Y-62062600D01*
X131318000Y-59141600D02*
X130683000Y-62189600D01*
X131191000Y-54010800D02*
X130556000Y-57061340D01*
X131318000Y-54137800D02*
X130683000Y-57185800D01*
X135382000Y-53604400D02*
X135382000Y-53985400D01*
X135382000Y-57668400D02*
X135382000Y-57287400D01*
X135382000Y-57287400D02*
X135382000Y-53985400D01*
X135001000Y-53046000D02*
X135001000Y-53985400D01*
X135001000Y-53985400D02*
X135001000Y-57287400D01*
X135001000Y-57287400D02*
X135001000Y-58989200D01*
X135001000Y-63231000D02*
X135001000Y-62291200D01*
X135001000Y-62291200D02*
X135001000Y-58989200D01*
X135382000Y-62672200D02*
X135382000Y-62291200D01*
X135382000Y-58608200D02*
X135382000Y-58989200D01*
X135382000Y-58989200D02*
X135382000Y-62291200D01*
X131550570Y-62108972D02*
G75*
G02X130583940Y-62161660I-509430J452772D01*
G01*
X131470896Y-59166272D02*
G75*
G02X131518660Y-62154040I-1905496J-1524728D01*
G01*
X130579156Y-62165411D02*
G75*
G02X130632200Y-59014600I1348444J1553151D01*
G01*
X130582519Y-59065903D02*
G75*
G02X131508500Y-59207640I407821J-431297D01*
G01*
X131553110Y-57105149D02*
G75*
G02X130583940Y-57160400I-511970J452749D01*
G01*
X131470896Y-54165012D02*
G75*
G02X131518660Y-57152780I-1905496J-1524728D01*
G01*
X130574153Y-57167573D02*
G75*
G02X130632200Y-54010800I1353447J1554033D01*
G01*
X130584981Y-54061480D02*
G75*
G02X131508500Y-54206380I405359J-431920D01*
G01*
X138176000Y-103134400D02*
X138176000Y-105674400D01*
X138176000Y-105674400D02*
X135382000Y-105674400D01*
X135382000Y-103134400D02*
X135382000Y-105674400D01*
X138176000Y-103134400D02*
X135382000Y-103134400D01*
X138176000Y-108138200D02*
X138176000Y-110678200D01*
X138176000Y-110678200D02*
X135382000Y-110678200D01*
X135382000Y-108138200D02*
X135382000Y-110678200D01*
X138176000Y-108138200D02*
X135382000Y-108138200D01*
X129413000Y-111999000D02*
X132461000Y-111999000D01*
X129413000Y-111999000D02*
X129413000Y-101814000D01*
X129413000Y-111999000D02*
X129413000Y-112507000D01*
X129413000Y-112507000D02*
X134239000Y-112507000D01*
X134239000Y-112507000D02*
X133985000Y-111999000D01*
X141097000Y-112507000D02*
X140843000Y-111999000D01*
X140843000Y-111999000D02*
X141859000Y-111999000D01*
X139446000Y-112507000D02*
X139700000Y-111999000D01*
X139700000Y-111999000D02*
X140843000Y-111999000D01*
X139446000Y-112507000D02*
X141097000Y-112507000D01*
X141859000Y-107376200D02*
X139954000Y-107376200D01*
X135382000Y-111440200D02*
X139954000Y-111440200D01*
X141859000Y-107376200D02*
X141859000Y-111440200D01*
X141859000Y-111440200D02*
X141859000Y-111999000D01*
X141859000Y-106436400D02*
X139954000Y-106436400D01*
X141859000Y-106436400D02*
X141859000Y-107376200D01*
X135382000Y-102372400D02*
X139954000Y-102372400D01*
X141859000Y-101814000D02*
X141859000Y-102372400D01*
X141859000Y-102372400D02*
X141859000Y-106436400D01*
X139954000Y-107376200D02*
X139954000Y-111440200D01*
X139954000Y-107376200D02*
X135382000Y-107376200D01*
X139954000Y-111440200D02*
X141859000Y-111440200D01*
X139954000Y-106436400D02*
X139954000Y-102372400D01*
X139954000Y-106436400D02*
X135382000Y-106436400D01*
X139954000Y-102372400D02*
X141859000Y-102372400D01*
X139319000Y-111059200D02*
X136144000Y-111059200D01*
X139319000Y-111059200D02*
X139319000Y-107757200D01*
X139319000Y-107757200D02*
X136144000Y-107757200D01*
X139319000Y-106055400D02*
X136144000Y-106055400D01*
X139319000Y-106055400D02*
X139319000Y-102753400D01*
X139319000Y-102753400D02*
X136144000Y-102753400D01*
X136144000Y-102753400D02*
X136144000Y-103134400D01*
X136144000Y-106055400D02*
X136144000Y-105674400D01*
X136144000Y-107757200D02*
X136144000Y-108138200D01*
X136144000Y-111059200D02*
X136144000Y-110678200D01*
X141859000Y-101814000D02*
X135001000Y-101814000D01*
X135001000Y-101814000D02*
X132461000Y-101814000D01*
X133985000Y-111999000D02*
X135001000Y-111999000D01*
X135001000Y-111999000D02*
X139700000Y-111999000D01*
X132461000Y-101814000D02*
X132461000Y-111999000D01*
X132461000Y-101814000D02*
X129413000Y-101814000D01*
X132461000Y-111999000D02*
X133985000Y-111999000D01*
X132207000Y-107376200D02*
X129667000Y-107376200D01*
X129667000Y-107376200D02*
X129667000Y-111440200D01*
X129667000Y-111440200D02*
X132207000Y-111440200D01*
X132207000Y-111440200D02*
X132207000Y-107376200D01*
X132207000Y-106436400D02*
X129667000Y-106436400D01*
X132207000Y-106436400D02*
X132207000Y-102372400D01*
X132207000Y-102372400D02*
X129667000Y-102372400D01*
X129667000Y-106436400D02*
X129667000Y-102372400D01*
X131191000Y-107782600D02*
X130556000Y-110830600D01*
X131318000Y-107909600D02*
X130683000Y-110957600D01*
X131191000Y-102778800D02*
X130556000Y-105829340D01*
X131318000Y-102905800D02*
X130683000Y-105953800D01*
X135382000Y-102372400D02*
X135382000Y-102753400D01*
X135382000Y-106436400D02*
X135382000Y-106055400D01*
X135382000Y-106055400D02*
X135382000Y-102753400D01*
X135001000Y-101814000D02*
X135001000Y-102753400D01*
X135001000Y-102753400D02*
X135001000Y-106055400D01*
X135001000Y-106055400D02*
X135001000Y-107757200D01*
X135001000Y-111999000D02*
X135001000Y-111059200D01*
X135001000Y-111059200D02*
X135001000Y-107757200D01*
X135382000Y-111440200D02*
X135382000Y-111059200D01*
X135382000Y-107376200D02*
X135382000Y-107757200D01*
X135382000Y-107757200D02*
X135382000Y-111059200D01*
X131550570Y-110876972D02*
G75*
G02X130583940Y-110929660I-509430J452772D01*
G01*
X131470896Y-107934272D02*
G75*
G02X131518660Y-110922040I-1905496J-1524728D01*
G01*
X130579156Y-110933411D02*
G75*
G02X130632200Y-107782600I1348444J1553151D01*
G01*
X130582519Y-107833903D02*
G75*
G02X131508500Y-107975640I407821J-431297D01*
G01*
X131553110Y-105873149D02*
G75*
G02X130583940Y-105928400I-511970J452749D01*
G01*
X131470896Y-102933012D02*
G75*
G02X131518660Y-105920780I-1905496J-1524728D01*
G01*
X130574153Y-105935573D02*
G75*
G02X130632200Y-102778800I1353447J1554033D01*
G01*
X130584981Y-102829480D02*
G75*
G02X131508500Y-102974380I405359J-431920D01*
G01*
X138176000Y-115326400D02*
X138176000Y-117866400D01*
X138176000Y-117866400D02*
X135382000Y-117866400D01*
X135382000Y-115326400D02*
X135382000Y-117866400D01*
X138176000Y-115326400D02*
X135382000Y-115326400D01*
X138176000Y-120330200D02*
X138176000Y-122870200D01*
X138176000Y-122870200D02*
X135382000Y-122870200D01*
X135382000Y-120330200D02*
X135382000Y-122870200D01*
X138176000Y-120330200D02*
X135382000Y-120330200D01*
X129413000Y-124191000D02*
X132461000Y-124191000D01*
X129413000Y-124191000D02*
X129413000Y-114006000D01*
X129413000Y-124191000D02*
X129413000Y-124699000D01*
X129413000Y-124699000D02*
X134239000Y-124699000D01*
X134239000Y-124699000D02*
X133985000Y-124191000D01*
X141097000Y-124699000D02*
X140843000Y-124191000D01*
X140843000Y-124191000D02*
X141859000Y-124191000D01*
X139446000Y-124699000D02*
X139700000Y-124191000D01*
X139700000Y-124191000D02*
X140843000Y-124191000D01*
X139446000Y-124699000D02*
X141097000Y-124699000D01*
X141859000Y-119568200D02*
X139954000Y-119568200D01*
X135382000Y-123632200D02*
X139954000Y-123632200D01*
X141859000Y-119568200D02*
X141859000Y-123632200D01*
X141859000Y-123632200D02*
X141859000Y-124191000D01*
X141859000Y-118628400D02*
X139954000Y-118628400D01*
X141859000Y-118628400D02*
X141859000Y-119568200D01*
X135382000Y-114564400D02*
X139954000Y-114564400D01*
X141859000Y-114006000D02*
X141859000Y-114564400D01*
X141859000Y-114564400D02*
X141859000Y-118628400D01*
X139954000Y-119568200D02*
X139954000Y-123632200D01*
X139954000Y-119568200D02*
X135382000Y-119568200D01*
X139954000Y-123632200D02*
X141859000Y-123632200D01*
X139954000Y-118628400D02*
X139954000Y-114564400D01*
X139954000Y-118628400D02*
X135382000Y-118628400D01*
X139954000Y-114564400D02*
X141859000Y-114564400D01*
X139319000Y-123251200D02*
X136144000Y-123251200D01*
X139319000Y-123251200D02*
X139319000Y-119949200D01*
X139319000Y-119949200D02*
X136144000Y-119949200D01*
X139319000Y-118247400D02*
X136144000Y-118247400D01*
X139319000Y-118247400D02*
X139319000Y-114945400D01*
X139319000Y-114945400D02*
X136144000Y-114945400D01*
X136144000Y-114945400D02*
X136144000Y-115326400D01*
X136144000Y-118247400D02*
X136144000Y-117866400D01*
X136144000Y-119949200D02*
X136144000Y-120330200D01*
X136144000Y-123251200D02*
X136144000Y-122870200D01*
X141859000Y-114006000D02*
X135001000Y-114006000D01*
X135001000Y-114006000D02*
X132461000Y-114006000D01*
X133985000Y-124191000D02*
X135001000Y-124191000D01*
X135001000Y-124191000D02*
X139700000Y-124191000D01*
X132461000Y-114006000D02*
X132461000Y-124191000D01*
X132461000Y-114006000D02*
X129413000Y-114006000D01*
X132461000Y-124191000D02*
X133985000Y-124191000D01*
X132207000Y-119568200D02*
X129667000Y-119568200D01*
X129667000Y-119568200D02*
X129667000Y-123632200D01*
X129667000Y-123632200D02*
X132207000Y-123632200D01*
X132207000Y-123632200D02*
X132207000Y-119568200D01*
X132207000Y-118628400D02*
X129667000Y-118628400D01*
X132207000Y-118628400D02*
X132207000Y-114564400D01*
X132207000Y-114564400D02*
X129667000Y-114564400D01*
X129667000Y-118628400D02*
X129667000Y-114564400D01*
X131191000Y-119974600D02*
X130556000Y-123022600D01*
X131318000Y-120101600D02*
X130683000Y-123149600D01*
X131191000Y-114970800D02*
X130556000Y-118021340D01*
X131318000Y-115097800D02*
X130683000Y-118145800D01*
X135382000Y-114564400D02*
X135382000Y-114945400D01*
X135382000Y-118628400D02*
X135382000Y-118247400D01*
X135382000Y-118247400D02*
X135382000Y-114945400D01*
X135001000Y-114006000D02*
X135001000Y-114945400D01*
X135001000Y-114945400D02*
X135001000Y-118247400D01*
X135001000Y-118247400D02*
X135001000Y-119949200D01*
X135001000Y-124191000D02*
X135001000Y-123251200D01*
X135001000Y-123251200D02*
X135001000Y-119949200D01*
X135382000Y-123632200D02*
X135382000Y-123251200D01*
X135382000Y-119568200D02*
X135382000Y-119949200D01*
X135382000Y-119949200D02*
X135382000Y-123251200D01*
X131550570Y-123068972D02*
G75*
G02X130583940Y-123121660I-509430J452772D01*
G01*
X131470896Y-120126272D02*
G75*
G02X131518660Y-123114040I-1905496J-1524728D01*
G01*
X130579156Y-123125411D02*
G75*
G02X130632200Y-119974600I1348444J1553151D01*
G01*
X130582519Y-120025903D02*
G75*
G02X131508500Y-120167640I407821J-431297D01*
G01*
X131553110Y-118065149D02*
G75*
G02X130583940Y-118120400I-511970J452749D01*
G01*
X131470896Y-115125012D02*
G75*
G02X131518660Y-118112780I-1905496J-1524728D01*
G01*
X130574153Y-118127573D02*
G75*
G02X130632200Y-114970800I1353447J1554033D01*
G01*
X130584981Y-115021480D02*
G75*
G02X131508500Y-115166380I405359J-431920D01*
G01*
X138176000Y-66558400D02*
X138176000Y-69098400D01*
X138176000Y-69098400D02*
X135382000Y-69098400D01*
X135382000Y-66558400D02*
X135382000Y-69098400D01*
X138176000Y-66558400D02*
X135382000Y-66558400D01*
X138176000Y-71562200D02*
X138176000Y-74102200D01*
X138176000Y-74102200D02*
X135382000Y-74102200D01*
X135382000Y-71562200D02*
X135382000Y-74102200D01*
X138176000Y-71562200D02*
X135382000Y-71562200D01*
X129413000Y-75423000D02*
X132461000Y-75423000D01*
X129413000Y-75423000D02*
X129413000Y-65238000D01*
X129413000Y-75423000D02*
X129413000Y-75931000D01*
X129413000Y-75931000D02*
X134239000Y-75931000D01*
X134239000Y-75931000D02*
X133985000Y-75423000D01*
X141097000Y-75931000D02*
X140843000Y-75423000D01*
X140843000Y-75423000D02*
X141859000Y-75423000D01*
X139446000Y-75931000D02*
X139700000Y-75423000D01*
X139700000Y-75423000D02*
X140843000Y-75423000D01*
X139446000Y-75931000D02*
X141097000Y-75931000D01*
X141859000Y-70800200D02*
X139954000Y-70800200D01*
X135382000Y-74864200D02*
X139954000Y-74864200D01*
X141859000Y-70800200D02*
X141859000Y-74864200D01*
X141859000Y-74864200D02*
X141859000Y-75423000D01*
X141859000Y-69860400D02*
X139954000Y-69860400D01*
X141859000Y-69860400D02*
X141859000Y-70800200D01*
X135382000Y-65796400D02*
X139954000Y-65796400D01*
X141859000Y-65238000D02*
X141859000Y-65796400D01*
X141859000Y-65796400D02*
X141859000Y-69860400D01*
X139954000Y-70800200D02*
X139954000Y-74864200D01*
X139954000Y-70800200D02*
X135382000Y-70800200D01*
X139954000Y-74864200D02*
X141859000Y-74864200D01*
X139954000Y-69860400D02*
X139954000Y-65796400D01*
X139954000Y-69860400D02*
X135382000Y-69860400D01*
X139954000Y-65796400D02*
X141859000Y-65796400D01*
X139319000Y-74483200D02*
X136144000Y-74483200D01*
X139319000Y-74483200D02*
X139319000Y-71181200D01*
X139319000Y-71181200D02*
X136144000Y-71181200D01*
X139319000Y-69479400D02*
X136144000Y-69479400D01*
X139319000Y-69479400D02*
X139319000Y-66177400D01*
X139319000Y-66177400D02*
X136144000Y-66177400D01*
X136144000Y-66177400D02*
X136144000Y-66558400D01*
X136144000Y-69479400D02*
X136144000Y-69098400D01*
X136144000Y-71181200D02*
X136144000Y-71562200D01*
X136144000Y-74483200D02*
X136144000Y-74102200D01*
X141859000Y-65238000D02*
X135001000Y-65238000D01*
X135001000Y-65238000D02*
X132461000Y-65238000D01*
X133985000Y-75423000D02*
X135001000Y-75423000D01*
X135001000Y-75423000D02*
X139700000Y-75423000D01*
X132461000Y-65238000D02*
X132461000Y-75423000D01*
X132461000Y-65238000D02*
X129413000Y-65238000D01*
X132461000Y-75423000D02*
X133985000Y-75423000D01*
X132207000Y-70800200D02*
X129667000Y-70800200D01*
X129667000Y-70800200D02*
X129667000Y-74864200D01*
X129667000Y-74864200D02*
X132207000Y-74864200D01*
X132207000Y-74864200D02*
X132207000Y-70800200D01*
X132207000Y-69860400D02*
X129667000Y-69860400D01*
X132207000Y-69860400D02*
X132207000Y-65796400D01*
X132207000Y-65796400D02*
X129667000Y-65796400D01*
X129667000Y-69860400D02*
X129667000Y-65796400D01*
X131191000Y-71206600D02*
X130556000Y-74254600D01*
X131318000Y-71333600D02*
X130683000Y-74381600D01*
X131191000Y-66202800D02*
X130556000Y-69253340D01*
X131318000Y-66329800D02*
X130683000Y-69377800D01*
X135382000Y-65796400D02*
X135382000Y-66177400D01*
X135382000Y-69860400D02*
X135382000Y-69479400D01*
X135382000Y-69479400D02*
X135382000Y-66177400D01*
X135001000Y-65238000D02*
X135001000Y-66177400D01*
X135001000Y-66177400D02*
X135001000Y-69479400D01*
X135001000Y-69479400D02*
X135001000Y-71181200D01*
X135001000Y-75423000D02*
X135001000Y-74483200D01*
X135001000Y-74483200D02*
X135001000Y-71181200D01*
X135382000Y-74864200D02*
X135382000Y-74483200D01*
X135382000Y-70800200D02*
X135382000Y-71181200D01*
X135382000Y-71181200D02*
X135382000Y-74483200D01*
X131550570Y-74300972D02*
G75*
G02X130583940Y-74353660I-509430J452772D01*
G01*
X131470896Y-71358272D02*
G75*
G02X131518660Y-74346040I-1905496J-1524728D01*
G01*
X130579156Y-74357411D02*
G75*
G02X130632200Y-71206600I1348444J1553151D01*
G01*
X130582519Y-71257903D02*
G75*
G02X131508500Y-71399640I407821J-431297D01*
G01*
X131553110Y-69297149D02*
G75*
G02X130583940Y-69352400I-511970J452749D01*
G01*
X131470896Y-66357012D02*
G75*
G02X131518660Y-69344780I-1905496J-1524728D01*
G01*
X130574153Y-69359573D02*
G75*
G02X130632200Y-66202800I1353447J1554033D01*
G01*
X130584981Y-66253480D02*
G75*
G02X131508500Y-66398380I405359J-431920D01*
G01*
X138176000Y-42174400D02*
X138176000Y-44714400D01*
X138176000Y-44714400D02*
X135382000Y-44714400D01*
X135382000Y-42174400D02*
X135382000Y-44714400D01*
X138176000Y-42174400D02*
X135382000Y-42174400D01*
X138176000Y-47178200D02*
X138176000Y-49718200D01*
X138176000Y-49718200D02*
X135382000Y-49718200D01*
X135382000Y-47178200D02*
X135382000Y-49718200D01*
X138176000Y-47178200D02*
X135382000Y-47178200D01*
X129413000Y-51039000D02*
X132461000Y-51039000D01*
X129413000Y-51039000D02*
X129413000Y-40854000D01*
X129413000Y-51039000D02*
X129413000Y-51547000D01*
X129413000Y-51547000D02*
X134239000Y-51547000D01*
X134239000Y-51547000D02*
X133985000Y-51039000D01*
X141097000Y-51547000D02*
X140843000Y-51039000D01*
X140843000Y-51039000D02*
X141859000Y-51039000D01*
X139446000Y-51547000D02*
X139700000Y-51039000D01*
X139700000Y-51039000D02*
X140843000Y-51039000D01*
X139446000Y-51547000D02*
X141097000Y-51547000D01*
X141859000Y-46416200D02*
X139954000Y-46416200D01*
X135382000Y-50480200D02*
X139954000Y-50480200D01*
X141859000Y-46416200D02*
X141859000Y-50480200D01*
X141859000Y-50480200D02*
X141859000Y-51039000D01*
X141859000Y-45476400D02*
X139954000Y-45476400D01*
X141859000Y-45476400D02*
X141859000Y-46416200D01*
X135382000Y-41412400D02*
X139954000Y-41412400D01*
X141859000Y-40854000D02*
X141859000Y-41412400D01*
X141859000Y-41412400D02*
X141859000Y-45476400D01*
X139954000Y-46416200D02*
X139954000Y-50480200D01*
X139954000Y-46416200D02*
X135382000Y-46416200D01*
X139954000Y-50480200D02*
X141859000Y-50480200D01*
X139954000Y-45476400D02*
X139954000Y-41412400D01*
X139954000Y-45476400D02*
X135382000Y-45476400D01*
X139954000Y-41412400D02*
X141859000Y-41412400D01*
X139319000Y-50099200D02*
X136144000Y-50099200D01*
X139319000Y-50099200D02*
X139319000Y-46797200D01*
X139319000Y-46797200D02*
X136144000Y-46797200D01*
X139319000Y-45095400D02*
X136144000Y-45095400D01*
X139319000Y-45095400D02*
X139319000Y-41793400D01*
X139319000Y-41793400D02*
X136144000Y-41793400D01*
X136144000Y-41793400D02*
X136144000Y-42174400D01*
X136144000Y-45095400D02*
X136144000Y-44714400D01*
X136144000Y-46797200D02*
X136144000Y-47178200D01*
X136144000Y-50099200D02*
X136144000Y-49718200D01*
X141859000Y-40854000D02*
X135001000Y-40854000D01*
X135001000Y-40854000D02*
X132461000Y-40854000D01*
X133985000Y-51039000D02*
X135001000Y-51039000D01*
X135001000Y-51039000D02*
X139700000Y-51039000D01*
X132461000Y-40854000D02*
X132461000Y-51039000D01*
X132461000Y-40854000D02*
X129413000Y-40854000D01*
X132461000Y-51039000D02*
X133985000Y-51039000D01*
X132207000Y-46416200D02*
X129667000Y-46416200D01*
X129667000Y-46416200D02*
X129667000Y-50480200D01*
X129667000Y-50480200D02*
X132207000Y-50480200D01*
X132207000Y-50480200D02*
X132207000Y-46416200D01*
X132207000Y-45476400D02*
X129667000Y-45476400D01*
X132207000Y-45476400D02*
X132207000Y-41412400D01*
X132207000Y-41412400D02*
X129667000Y-41412400D01*
X129667000Y-45476400D02*
X129667000Y-41412400D01*
X131191000Y-46822600D02*
X130556000Y-49870600D01*
X131318000Y-46949600D02*
X130683000Y-49997600D01*
X131191000Y-41818800D02*
X130556000Y-44869340D01*
X131318000Y-41945800D02*
X130683000Y-44993800D01*
X135382000Y-41412400D02*
X135382000Y-41793400D01*
X135382000Y-45476400D02*
X135382000Y-45095400D01*
X135382000Y-45095400D02*
X135382000Y-41793400D01*
X135001000Y-40854000D02*
X135001000Y-41793400D01*
X135001000Y-41793400D02*
X135001000Y-45095400D01*
X135001000Y-45095400D02*
X135001000Y-46797200D01*
X135001000Y-51039000D02*
X135001000Y-50099200D01*
X135001000Y-50099200D02*
X135001000Y-46797200D01*
X135382000Y-50480200D02*
X135382000Y-50099200D01*
X135382000Y-46416200D02*
X135382000Y-46797200D01*
X135382000Y-46797200D02*
X135382000Y-50099200D01*
X131550570Y-49916972D02*
G75*
G02X130583940Y-49969660I-509430J452772D01*
G01*
X131470896Y-46974272D02*
G75*
G02X131518660Y-49962040I-1905496J-1524728D01*
G01*
X130579156Y-49973411D02*
G75*
G02X130632200Y-46822600I1348444J1553151D01*
G01*
X130582519Y-46873903D02*
G75*
G02X131508500Y-47015640I407821J-431297D01*
G01*
X131553110Y-44913149D02*
G75*
G02X130583940Y-44968400I-511970J452749D01*
G01*
X131470896Y-41973012D02*
G75*
G02X131518660Y-44960780I-1905496J-1524728D01*
G01*
X130574153Y-44975573D02*
G75*
G02X130632200Y-41818800I1353447J1554033D01*
G01*
X130584981Y-41869480D02*
G75*
G02X131508500Y-42014380I405359J-431920D01*
G01*
X138176000Y-90942400D02*
X138176000Y-93482400D01*
X138176000Y-93482400D02*
X135382000Y-93482400D01*
X135382000Y-90942400D02*
X135382000Y-93482400D01*
X138176000Y-90942400D02*
X135382000Y-90942400D01*
X138176000Y-95946200D02*
X138176000Y-98486200D01*
X138176000Y-98486200D02*
X135382000Y-98486200D01*
X135382000Y-95946200D02*
X135382000Y-98486200D01*
X138176000Y-95946200D02*
X135382000Y-95946200D01*
X129413000Y-99807000D02*
X132461000Y-99807000D01*
X129413000Y-99807000D02*
X129413000Y-89622000D01*
X129413000Y-99807000D02*
X129413000Y-100315000D01*
X129413000Y-100315000D02*
X134239000Y-100315000D01*
X134239000Y-100315000D02*
X133985000Y-99807000D01*
X141097000Y-100315000D02*
X140843000Y-99807000D01*
X140843000Y-99807000D02*
X141859000Y-99807000D01*
X139446000Y-100315000D02*
X139700000Y-99807000D01*
X139700000Y-99807000D02*
X140843000Y-99807000D01*
X139446000Y-100315000D02*
X141097000Y-100315000D01*
X141859000Y-95184200D02*
X139954000Y-95184200D01*
X135382000Y-99248200D02*
X139954000Y-99248200D01*
X141859000Y-95184200D02*
X141859000Y-99248200D01*
X141859000Y-99248200D02*
X141859000Y-99807000D01*
X141859000Y-94244400D02*
X139954000Y-94244400D01*
X141859000Y-94244400D02*
X141859000Y-95184200D01*
X135382000Y-90180400D02*
X139954000Y-90180400D01*
X141859000Y-89622000D02*
X141859000Y-90180400D01*
X141859000Y-90180400D02*
X141859000Y-94244400D01*
X139954000Y-95184200D02*
X139954000Y-99248200D01*
X139954000Y-95184200D02*
X135382000Y-95184200D01*
X139954000Y-99248200D02*
X141859000Y-99248200D01*
X139954000Y-94244400D02*
X139954000Y-90180400D01*
X139954000Y-94244400D02*
X135382000Y-94244400D01*
X139954000Y-90180400D02*
X141859000Y-90180400D01*
X139319000Y-98867200D02*
X136144000Y-98867200D01*
X139319000Y-98867200D02*
X139319000Y-95565200D01*
X139319000Y-95565200D02*
X136144000Y-95565200D01*
X139319000Y-93863400D02*
X136144000Y-93863400D01*
X139319000Y-93863400D02*
X139319000Y-90561400D01*
X139319000Y-90561400D02*
X136144000Y-90561400D01*
X136144000Y-90561400D02*
X136144000Y-90942400D01*
X136144000Y-93863400D02*
X136144000Y-93482400D01*
X136144000Y-95565200D02*
X136144000Y-95946200D01*
X136144000Y-98867200D02*
X136144000Y-98486200D01*
X141859000Y-89622000D02*
X135001000Y-89622000D01*
X135001000Y-89622000D02*
X132461000Y-89622000D01*
X133985000Y-99807000D02*
X135001000Y-99807000D01*
X135001000Y-99807000D02*
X139700000Y-99807000D01*
X132461000Y-89622000D02*
X132461000Y-99807000D01*
X132461000Y-89622000D02*
X129413000Y-89622000D01*
X132461000Y-99807000D02*
X133985000Y-99807000D01*
X132207000Y-95184200D02*
X129667000Y-95184200D01*
X129667000Y-95184200D02*
X129667000Y-99248200D01*
X129667000Y-99248200D02*
X132207000Y-99248200D01*
X132207000Y-99248200D02*
X132207000Y-95184200D01*
X132207000Y-94244400D02*
X129667000Y-94244400D01*
X132207000Y-94244400D02*
X132207000Y-90180400D01*
X132207000Y-90180400D02*
X129667000Y-90180400D01*
X129667000Y-94244400D02*
X129667000Y-90180400D01*
X131191000Y-95590600D02*
X130556000Y-98638600D01*
X131318000Y-95717600D02*
X130683000Y-98765600D01*
X131191000Y-90586800D02*
X130556000Y-93637340D01*
X131318000Y-90713800D02*
X130683000Y-93761800D01*
X135382000Y-90180400D02*
X135382000Y-90561400D01*
X135382000Y-94244400D02*
X135382000Y-93863400D01*
X135382000Y-93863400D02*
X135382000Y-90561400D01*
X135001000Y-89622000D02*
X135001000Y-90561400D01*
X135001000Y-90561400D02*
X135001000Y-93863400D01*
X135001000Y-93863400D02*
X135001000Y-95565200D01*
X135001000Y-99807000D02*
X135001000Y-98867200D01*
X135001000Y-98867200D02*
X135001000Y-95565200D01*
X135382000Y-99248200D02*
X135382000Y-98867200D01*
X135382000Y-95184200D02*
X135382000Y-95565200D01*
X135382000Y-95565200D02*
X135382000Y-98867200D01*
X131550570Y-98684972D02*
G75*
G02X130583940Y-98737660I-509430J452772D01*
G01*
X131470896Y-95742272D02*
G75*
G02X131518660Y-98730040I-1905496J-1524728D01*
G01*
X130579156Y-98741411D02*
G75*
G02X130632200Y-95590600I1348444J1553151D01*
G01*
X130582519Y-95641903D02*
G75*
G02X131508500Y-95783640I407821J-431297D01*
G01*
X131553110Y-93681149D02*
G75*
G02X130583940Y-93736400I-511970J452749D01*
G01*
X131470896Y-90741012D02*
G75*
G02X131518660Y-93728780I-1905496J-1524728D01*
G01*
X130574153Y-93743573D02*
G75*
G02X130632200Y-90586800I1353447J1554033D01*
G01*
X130584981Y-90637480D02*
G75*
G02X131508500Y-90782380I405359J-431920D01*
G01*
X138176000Y-78750400D02*
X138176000Y-81290400D01*
X138176000Y-81290400D02*
X135382000Y-81290400D01*
X135382000Y-78750400D02*
X135382000Y-81290400D01*
X138176000Y-78750400D02*
X135382000Y-78750400D01*
X138176000Y-83754200D02*
X138176000Y-86294200D01*
X138176000Y-86294200D02*
X135382000Y-86294200D01*
X135382000Y-83754200D02*
X135382000Y-86294200D01*
X138176000Y-83754200D02*
X135382000Y-83754200D01*
X129413000Y-87615000D02*
X132461000Y-87615000D01*
X129413000Y-87615000D02*
X129413000Y-77430000D01*
X129413000Y-87615000D02*
X129413000Y-88123000D01*
X129413000Y-88123000D02*
X134239000Y-88123000D01*
X134239000Y-88123000D02*
X133985000Y-87615000D01*
X141097000Y-88123000D02*
X140843000Y-87615000D01*
X140843000Y-87615000D02*
X141859000Y-87615000D01*
X139446000Y-88123000D02*
X139700000Y-87615000D01*
X139700000Y-87615000D02*
X140843000Y-87615000D01*
X139446000Y-88123000D02*
X141097000Y-88123000D01*
X141859000Y-82992200D02*
X139954000Y-82992200D01*
X135382000Y-87056200D02*
X139954000Y-87056200D01*
X141859000Y-82992200D02*
X141859000Y-87056200D01*
X141859000Y-87056200D02*
X141859000Y-87615000D01*
X141859000Y-82052400D02*
X139954000Y-82052400D01*
X141859000Y-82052400D02*
X141859000Y-82992200D01*
X135382000Y-77988400D02*
X139954000Y-77988400D01*
X141859000Y-77430000D02*
X141859000Y-77988400D01*
X141859000Y-77988400D02*
X141859000Y-82052400D01*
X139954000Y-82992200D02*
X139954000Y-87056200D01*
X139954000Y-82992200D02*
X135382000Y-82992200D01*
X139954000Y-87056200D02*
X141859000Y-87056200D01*
X139954000Y-82052400D02*
X139954000Y-77988400D01*
X139954000Y-82052400D02*
X135382000Y-82052400D01*
X139954000Y-77988400D02*
X141859000Y-77988400D01*
X139319000Y-86675200D02*
X136144000Y-86675200D01*
X139319000Y-86675200D02*
X139319000Y-83373200D01*
X139319000Y-83373200D02*
X136144000Y-83373200D01*
X139319000Y-81671400D02*
X136144000Y-81671400D01*
X139319000Y-81671400D02*
X139319000Y-78369400D01*
X139319000Y-78369400D02*
X136144000Y-78369400D01*
X136144000Y-78369400D02*
X136144000Y-78750400D01*
X136144000Y-81671400D02*
X136144000Y-81290400D01*
X136144000Y-83373200D02*
X136144000Y-83754200D01*
X136144000Y-86675200D02*
X136144000Y-86294200D01*
X141859000Y-77430000D02*
X135001000Y-77430000D01*
X135001000Y-77430000D02*
X132461000Y-77430000D01*
X133985000Y-87615000D02*
X135001000Y-87615000D01*
X135001000Y-87615000D02*
X139700000Y-87615000D01*
X132461000Y-77430000D02*
X132461000Y-87615000D01*
X132461000Y-77430000D02*
X129413000Y-77430000D01*
X132461000Y-87615000D02*
X133985000Y-87615000D01*
X132207000Y-82992200D02*
X129667000Y-82992200D01*
X129667000Y-82992200D02*
X129667000Y-87056200D01*
X129667000Y-87056200D02*
X132207000Y-87056200D01*
X132207000Y-87056200D02*
X132207000Y-82992200D01*
X132207000Y-82052400D02*
X129667000Y-82052400D01*
X132207000Y-82052400D02*
X132207000Y-77988400D01*
X132207000Y-77988400D02*
X129667000Y-77988400D01*
X129667000Y-82052400D02*
X129667000Y-77988400D01*
X131191000Y-83398600D02*
X130556000Y-86446600D01*
X131318000Y-83525600D02*
X130683000Y-86573600D01*
X131191000Y-78394800D02*
X130556000Y-81445340D01*
X131318000Y-78521800D02*
X130683000Y-81569800D01*
X135382000Y-77988400D02*
X135382000Y-78369400D01*
X135382000Y-82052400D02*
X135382000Y-81671400D01*
X135382000Y-81671400D02*
X135382000Y-78369400D01*
X135001000Y-77430000D02*
X135001000Y-78369400D01*
X135001000Y-78369400D02*
X135001000Y-81671400D01*
X135001000Y-81671400D02*
X135001000Y-83373200D01*
X135001000Y-87615000D02*
X135001000Y-86675200D01*
X135001000Y-86675200D02*
X135001000Y-83373200D01*
X135382000Y-87056200D02*
X135382000Y-86675200D01*
X135382000Y-82992200D02*
X135382000Y-83373200D01*
X135382000Y-83373200D02*
X135382000Y-86675200D01*
X131550570Y-86492972D02*
G75*
G02X130583940Y-86545660I-509430J452772D01*
G01*
X131470896Y-83550272D02*
G75*
G02X131518660Y-86538040I-1905496J-1524728D01*
G01*
X130579156Y-86549411D02*
G75*
G02X130632200Y-83398600I1348444J1553151D01*
G01*
X130582519Y-83449903D02*
G75*
G02X131508500Y-83591640I407821J-431297D01*
G01*
X131553110Y-81489149D02*
G75*
G02X130583940Y-81544400I-511970J452749D01*
G01*
X131470896Y-78549012D02*
G75*
G02X131518660Y-81536780I-1905496J-1524728D01*
G01*
X130574153Y-81551573D02*
G75*
G02X130632200Y-78394800I1353447J1554033D01*
G01*
X130584981Y-78445480D02*
G75*
G02X131508500Y-78590380I405359J-431920D01*
G01*
X69438000Y-37754000D02*
X68738000Y-37754000D01*
X68738000Y-38954000D02*
X69438000Y-38954000D01*
X88488000Y-95158000D02*
X87788000Y-95158000D01*
X87788000Y-96358000D02*
X88488000Y-96358000D01*
X92872000Y-100488000D02*
X92872000Y-101188000D01*
X94072000Y-101188000D02*
X94072000Y-100488000D01*
X81946000Y-92548000D02*
X82646000Y-92548000D01*
X82646000Y-91348000D02*
X81946000Y-91348000D01*
X138176000Y-29982400D02*
X138176000Y-32522400D01*
X138176000Y-32522400D02*
X135382000Y-32522400D01*
X135382000Y-29982400D02*
X135382000Y-32522400D01*
X138176000Y-29982400D02*
X135382000Y-29982400D01*
X138176000Y-34986200D02*
X138176000Y-37526200D01*
X138176000Y-37526200D02*
X135382000Y-37526200D01*
X135382000Y-34986200D02*
X135382000Y-37526200D01*
X138176000Y-34986200D02*
X135382000Y-34986200D01*
X129413000Y-38847000D02*
X132461000Y-38847000D01*
X129413000Y-38847000D02*
X129413000Y-28662000D01*
X129413000Y-38847000D02*
X129413000Y-39355000D01*
X129413000Y-39355000D02*
X134239000Y-39355000D01*
X134239000Y-39355000D02*
X133985000Y-38847000D01*
X141097000Y-39355000D02*
X140843000Y-38847000D01*
X140843000Y-38847000D02*
X141859000Y-38847000D01*
X139446000Y-39355000D02*
X139700000Y-38847000D01*
X139700000Y-38847000D02*
X140843000Y-38847000D01*
X139446000Y-39355000D02*
X141097000Y-39355000D01*
X141859000Y-34224200D02*
X139954000Y-34224200D01*
X135382000Y-38288200D02*
X139954000Y-38288200D01*
X141859000Y-34224200D02*
X141859000Y-38288200D01*
X141859000Y-38288200D02*
X141859000Y-38847000D01*
X141859000Y-33284400D02*
X139954000Y-33284400D01*
X141859000Y-33284400D02*
X141859000Y-34224200D01*
X135382000Y-29220400D02*
X139954000Y-29220400D01*
X141859000Y-28662000D02*
X141859000Y-29220400D01*
X141859000Y-29220400D02*
X141859000Y-33284400D01*
X139954000Y-34224200D02*
X139954000Y-38288200D01*
X139954000Y-34224200D02*
X135382000Y-34224200D01*
X139954000Y-38288200D02*
X141859000Y-38288200D01*
X139954000Y-33284400D02*
X139954000Y-29220400D01*
X139954000Y-33284400D02*
X135382000Y-33284400D01*
X139954000Y-29220400D02*
X141859000Y-29220400D01*
X139319000Y-37907200D02*
X136144000Y-37907200D01*
X139319000Y-37907200D02*
X139319000Y-34605200D01*
X139319000Y-34605200D02*
X136144000Y-34605200D01*
X139319000Y-32903400D02*
X136144000Y-32903400D01*
X139319000Y-32903400D02*
X139319000Y-29601400D01*
X139319000Y-29601400D02*
X136144000Y-29601400D01*
X136144000Y-29601400D02*
X136144000Y-29982400D01*
X136144000Y-32903400D02*
X136144000Y-32522400D01*
X136144000Y-34605200D02*
X136144000Y-34986200D01*
X136144000Y-37907200D02*
X136144000Y-37526200D01*
X141859000Y-28662000D02*
X135001000Y-28662000D01*
X135001000Y-28662000D02*
X132461000Y-28662000D01*
X133985000Y-38847000D02*
X135001000Y-38847000D01*
X135001000Y-38847000D02*
X139700000Y-38847000D01*
X132461000Y-28662000D02*
X132461000Y-38847000D01*
X132461000Y-28662000D02*
X129413000Y-28662000D01*
X132461000Y-38847000D02*
X133985000Y-38847000D01*
X132207000Y-34224200D02*
X129667000Y-34224200D01*
X129667000Y-34224200D02*
X129667000Y-38288200D01*
X129667000Y-38288200D02*
X132207000Y-38288200D01*
X132207000Y-38288200D02*
X132207000Y-34224200D01*
X132207000Y-33284400D02*
X129667000Y-33284400D01*
X132207000Y-33284400D02*
X132207000Y-29220400D01*
X132207000Y-29220400D02*
X129667000Y-29220400D01*
X129667000Y-33284400D02*
X129667000Y-29220400D01*
X131191000Y-34630600D02*
X130556000Y-37678600D01*
X131318000Y-34757600D02*
X130683000Y-37805600D01*
X131191000Y-29626800D02*
X130556000Y-32677340D01*
X131318000Y-29753800D02*
X130683000Y-32801800D01*
X135382000Y-29220400D02*
X135382000Y-29601400D01*
X135382000Y-33284400D02*
X135382000Y-32903400D01*
X135382000Y-32903400D02*
X135382000Y-29601400D01*
X135001000Y-28662000D02*
X135001000Y-29601400D01*
X135001000Y-29601400D02*
X135001000Y-32903400D01*
X135001000Y-32903400D02*
X135001000Y-34605200D01*
X135001000Y-38847000D02*
X135001000Y-37907200D01*
X135001000Y-37907200D02*
X135001000Y-34605200D01*
X135382000Y-38288200D02*
X135382000Y-37907200D01*
X135382000Y-34224200D02*
X135382000Y-34605200D01*
X135382000Y-34605200D02*
X135382000Y-37907200D01*
X131550570Y-37724972D02*
G75*
G02X130583940Y-37777660I-509430J452772D01*
G01*
X131470896Y-34782272D02*
G75*
G02X131518660Y-37770040I-1905496J-1524728D01*
G01*
X130579156Y-37781411D02*
G75*
G02X130632200Y-34630600I1348444J1553151D01*
G01*
X130582519Y-34681903D02*
G75*
G02X131508500Y-34823640I407821J-431297D01*
G01*
X131553110Y-32721149D02*
G75*
G02X130583940Y-32776400I-511970J452749D01*
G01*
X131470896Y-29781012D02*
G75*
G02X131518660Y-32768780I-1905496J-1524728D01*
G01*
X130574153Y-32783573D02*
G75*
G02X130632200Y-29626800I1353447J1554033D01*
G01*
X130584981Y-29677480D02*
G75*
G02X131508500Y-29822380I405359J-431920D01*
G01*
D15*
X42164000Y-58674000D02*
X44069000Y-58674000D01*
X44069000Y-63754000D02*
X42164000Y-63754000D01*
X42164000Y-63754000D02*
X42164000Y-58674000D01*
X44064000Y-58614000D02*
X44064000Y-58039000D01*
X44064000Y-58039000D02*
X45964000Y-58039000D01*
X47564000Y-58014000D02*
X48964000Y-58014000D01*
X50564000Y-58014000D02*
X53764000Y-58014000D01*
X55264000Y-58014000D02*
X56164000Y-58014000D01*
X56164000Y-58014000D02*
X56164000Y-62814000D01*
X54764000Y-64414000D02*
X54264000Y-64414000D01*
X52664000Y-64414000D02*
X47664000Y-64414000D01*
X46064000Y-64414000D02*
X44064000Y-64414000D01*
X44064000Y-64414000D02*
X44064000Y-63714000D01*
X42164000Y-72898000D02*
X44069000Y-72898000D01*
X44069000Y-77978000D02*
X42164000Y-77978000D01*
X42164000Y-77978000D02*
X42164000Y-72898000D01*
X44064000Y-72838000D02*
X44064000Y-72263000D01*
X44064000Y-72263000D02*
X45964000Y-72263000D01*
X47564000Y-72238000D02*
X48964000Y-72238000D01*
X50564000Y-72238000D02*
X53764000Y-72238000D01*
X55264000Y-72238000D02*
X56164000Y-72238000D01*
X56164000Y-72238000D02*
X56164000Y-77038000D01*
X54764000Y-78638000D02*
X54264000Y-78638000D01*
X52664000Y-78638000D02*
X47664000Y-78638000D01*
X46064000Y-78638000D02*
X44064000Y-78638000D01*
X44064000Y-78638000D02*
X44064000Y-77938000D01*
X42164000Y-87122000D02*
X44069000Y-87122000D01*
X44069000Y-92202000D02*
X42164000Y-92202000D01*
X42164000Y-92202000D02*
X42164000Y-87122000D01*
X44064000Y-87062000D02*
X44064000Y-86487000D01*
X44064000Y-86487000D02*
X45964000Y-86487000D01*
X47564000Y-86462000D02*
X48964000Y-86462000D01*
X50564000Y-86462000D02*
X53764000Y-86462000D01*
X55264000Y-86462000D02*
X56164000Y-86462000D01*
X56164000Y-86462000D02*
X56164000Y-91262000D01*
X54764000Y-92862000D02*
X54264000Y-92862000D01*
X52664000Y-92862000D02*
X47664000Y-92862000D01*
X46064000Y-92862000D02*
X44064000Y-92862000D01*
X44064000Y-92862000D02*
X44064000Y-92162000D01*
X42164000Y-101346000D02*
X44069000Y-101346000D01*
X44069000Y-106426000D02*
X42164000Y-106426000D01*
X42164000Y-106426000D02*
X42164000Y-101346000D01*
X44064000Y-101286000D02*
X44064000Y-100711000D01*
X44064000Y-100711000D02*
X45964000Y-100711000D01*
X47564000Y-100686000D02*
X48964000Y-100686000D01*
X50564000Y-100686000D02*
X53764000Y-100686000D01*
X55264000Y-100686000D02*
X56164000Y-100686000D01*
X56164000Y-100686000D02*
X56164000Y-105486000D01*
X54764000Y-107086000D02*
X54264000Y-107086000D01*
X52664000Y-107086000D02*
X47664000Y-107086000D01*
X46064000Y-107086000D02*
X44064000Y-107086000D01*
X44064000Y-107086000D02*
X44064000Y-106386000D01*
D16*
X49634140Y-36730940D02*
X49133760Y-36730940D01*
X49634140Y-36929060D02*
X49634140Y-36730940D01*
X49133760Y-36929060D02*
X49634140Y-36929060D01*
X48635920Y-41831260D02*
X48635920Y-31828740D01*
X49133760Y-32329120D02*
X49133760Y-41330880D01*
X53134260Y-41831260D02*
X53134260Y-31828740D01*
X49634140Y-38732460D02*
X49133760Y-38732460D01*
X49634140Y-38930580D02*
X49634140Y-38732460D01*
X49133760Y-38930580D02*
X49634140Y-38930580D01*
X49133760Y-34930080D02*
X49634140Y-34930080D01*
X49634140Y-34930080D02*
X49634140Y-34731960D01*
X49634140Y-34731960D02*
X49133760Y-34731960D01*
X51935380Y-31828740D02*
X51935380Y-32329120D01*
X50634900Y-32329120D02*
X50634900Y-31828740D01*
X50634900Y-41330880D02*
X50634900Y-41831260D01*
X51935380Y-41330880D02*
X51935380Y-41831260D01*
X53134260Y-39331900D02*
X52633880Y-39331900D01*
X52633880Y-39331900D02*
X52633880Y-41330880D01*
X52633880Y-41330880D02*
X49133760Y-41330880D01*
X49133760Y-32329120D02*
X52633880Y-32329120D01*
X52633880Y-32329120D02*
X52633880Y-34328100D01*
X52633880Y-34328100D02*
X53134260Y-34328100D01*
X53134260Y-41831260D02*
X48635920Y-41831260D01*
X53134260Y-31828740D02*
X48635920Y-31828740D01*
X53134260Y-40132000D02*
X53334920Y-40132000D01*
X53334920Y-40132000D02*
X53334920Y-40431720D01*
X53334920Y-40431720D02*
X53134260Y-40431720D01*
D14*
X40132000Y-112364000D02*
X44132000Y-112364000D01*
X40132000Y-112364000D02*
X40132000Y-124364000D01*
X40132000Y-124364000D02*
X44132000Y-124364000D01*
X55132000Y-125864000D02*
X57132000Y-122864000D01*
X55132000Y-110864000D02*
X57132000Y-113864000D01*
X44132000Y-125864000D02*
X55132000Y-125864000D01*
X44132000Y-124364000D02*
X44132000Y-125864000D01*
X57132000Y-113864000D02*
X57132000Y-122864000D01*
X44132000Y-110864000D02*
X55132000Y-110864000D01*
X44132000Y-110864000D02*
X44132000Y-112364000D01*
D17*
X129139905Y-53257524D02*
X128339905Y-53257524D01*
X128339905Y-53562286D01*
X128378000Y-53638477D01*
X128416095Y-53676572D01*
X128492286Y-53714667D01*
X128606571Y-53714667D01*
X128682762Y-53676572D01*
X128720857Y-53638477D01*
X128758952Y-53562286D01*
X128758952Y-53257524D01*
X128339905Y-53981334D02*
X128339905Y-54514667D01*
X129139905Y-54171810D01*
X129139905Y-102025524D02*
X128339905Y-102025524D01*
X128339905Y-102330286D01*
X128378000Y-102406477D01*
X128416095Y-102444572D01*
X128492286Y-102482667D01*
X128606571Y-102482667D01*
X128682762Y-102444572D01*
X128720857Y-102406477D01*
X128758952Y-102330286D01*
X128758952Y-102025524D01*
X128682762Y-102939810D02*
X128644667Y-102863619D01*
X128606571Y-102825524D01*
X128530381Y-102787429D01*
X128492286Y-102787429D01*
X128416095Y-102825524D01*
X128378000Y-102863619D01*
X128339905Y-102939810D01*
X128339905Y-103092191D01*
X128378000Y-103168381D01*
X128416095Y-103206477D01*
X128492286Y-103244572D01*
X128530381Y-103244572D01*
X128606571Y-103206477D01*
X128644667Y-103168381D01*
X128682762Y-103092191D01*
X128682762Y-102939810D01*
X128720857Y-102863619D01*
X128758952Y-102825524D01*
X128835143Y-102787429D01*
X128987524Y-102787429D01*
X129063714Y-102825524D01*
X129101810Y-102863619D01*
X129139905Y-102939810D01*
X129139905Y-103092191D01*
X129101810Y-103168381D01*
X129063714Y-103206477D01*
X128987524Y-103244572D01*
X128835143Y-103244572D01*
X128758952Y-103206477D01*
X128720857Y-103168381D01*
X128682762Y-103092191D01*
X129139905Y-114090571D02*
X128339905Y-114090571D01*
X128339905Y-114395333D01*
X128378000Y-114471524D01*
X128416095Y-114509619D01*
X128492286Y-114547714D01*
X128606571Y-114547714D01*
X128682762Y-114509619D01*
X128720857Y-114471524D01*
X128758952Y-114395333D01*
X128758952Y-114090571D01*
X129139905Y-115309619D02*
X129139905Y-114852476D01*
X129139905Y-115081047D02*
X128339905Y-115081047D01*
X128454190Y-115004857D01*
X128530381Y-114928666D01*
X128568476Y-114852476D01*
X128339905Y-115804857D02*
X128339905Y-115881048D01*
X128378000Y-115957238D01*
X128416095Y-115995333D01*
X128492286Y-116033429D01*
X128644667Y-116071524D01*
X128835143Y-116071524D01*
X128987524Y-116033429D01*
X129063714Y-115995333D01*
X129101810Y-115957238D01*
X129139905Y-115881048D01*
X129139905Y-115804857D01*
X129101810Y-115728667D01*
X129063714Y-115690571D01*
X128987524Y-115652476D01*
X128835143Y-115614381D01*
X128644667Y-115614381D01*
X128492286Y-115652476D01*
X128416095Y-115690571D01*
X128378000Y-115728667D01*
X128339905Y-115804857D01*
X129139905Y-65449524D02*
X128339905Y-65449524D01*
X128339905Y-65754286D01*
X128378000Y-65830477D01*
X128416095Y-65868572D01*
X128492286Y-65906667D01*
X128606571Y-65906667D01*
X128682762Y-65868572D01*
X128720857Y-65830477D01*
X128758952Y-65754286D01*
X128758952Y-65449524D01*
X129139905Y-66287619D02*
X129139905Y-66440000D01*
X129101810Y-66516191D01*
X129063714Y-66554286D01*
X128949429Y-66630477D01*
X128797048Y-66668572D01*
X128492286Y-66668572D01*
X128416095Y-66630477D01*
X128378000Y-66592381D01*
X128339905Y-66516191D01*
X128339905Y-66363810D01*
X128378000Y-66287619D01*
X128416095Y-66249524D01*
X128492286Y-66211429D01*
X128682762Y-66211429D01*
X128758952Y-66249524D01*
X128797048Y-66287619D01*
X128835143Y-66363810D01*
X128835143Y-66516191D01*
X128797048Y-66592381D01*
X128758952Y-66630477D01*
X128682762Y-66668572D01*
X129139905Y-41065524D02*
X128339905Y-41065524D01*
X128339905Y-41370286D01*
X128378000Y-41446477D01*
X128416095Y-41484572D01*
X128492286Y-41522667D01*
X128606571Y-41522667D01*
X128682762Y-41484572D01*
X128720857Y-41446477D01*
X128758952Y-41370286D01*
X128758952Y-41065524D01*
X128339905Y-42246477D02*
X128339905Y-41865524D01*
X128720857Y-41827429D01*
X128682762Y-41865524D01*
X128644667Y-41941715D01*
X128644667Y-42132191D01*
X128682762Y-42208381D01*
X128720857Y-42246477D01*
X128797048Y-42284572D01*
X128987524Y-42284572D01*
X129063714Y-42246477D01*
X129101810Y-42208381D01*
X129139905Y-42132191D01*
X129139905Y-41941715D01*
X129101810Y-41865524D01*
X129063714Y-41827429D01*
X129139905Y-89833524D02*
X128339905Y-89833524D01*
X128339905Y-90138286D01*
X128378000Y-90214477D01*
X128416095Y-90252572D01*
X128492286Y-90290667D01*
X128606571Y-90290667D01*
X128682762Y-90252572D01*
X128720857Y-90214477D01*
X128758952Y-90138286D01*
X128758952Y-89833524D01*
X128339905Y-90976381D02*
X128339905Y-90824000D01*
X128378000Y-90747810D01*
X128416095Y-90709715D01*
X128530381Y-90633524D01*
X128682762Y-90595429D01*
X128987524Y-90595429D01*
X129063714Y-90633524D01*
X129101810Y-90671619D01*
X129139905Y-90747810D01*
X129139905Y-90900191D01*
X129101810Y-90976381D01*
X129063714Y-91014477D01*
X128987524Y-91052572D01*
X128797048Y-91052572D01*
X128720857Y-91014477D01*
X128682762Y-90976381D01*
X128644667Y-90900191D01*
X128644667Y-90747810D01*
X128682762Y-90671619D01*
X128720857Y-90633524D01*
X128797048Y-90595429D01*
X129139905Y-77641524D02*
X128339905Y-77641524D01*
X128339905Y-77946286D01*
X128378000Y-78022477D01*
X128416095Y-78060572D01*
X128492286Y-78098667D01*
X128606571Y-78098667D01*
X128682762Y-78060572D01*
X128720857Y-78022477D01*
X128758952Y-77946286D01*
X128758952Y-77641524D01*
X128606571Y-78784381D02*
X129139905Y-78784381D01*
X128301810Y-78593905D02*
X128873238Y-78403429D01*
X128873238Y-78898667D01*
X69221333Y-37115714D02*
X69259428Y-37153810D01*
X69373714Y-37191905D01*
X69449904Y-37191905D01*
X69564190Y-37153810D01*
X69640381Y-37077619D01*
X69678476Y-37001429D01*
X69716571Y-36849048D01*
X69716571Y-36734762D01*
X69678476Y-36582381D01*
X69640381Y-36506190D01*
X69564190Y-36430000D01*
X69449904Y-36391905D01*
X69373714Y-36391905D01*
X69259428Y-36430000D01*
X69221333Y-36468095D01*
X68954666Y-36391905D02*
X68459428Y-36391905D01*
X68726095Y-36696667D01*
X68611809Y-36696667D01*
X68535619Y-36734762D01*
X68497523Y-36772857D01*
X68459428Y-36849048D01*
X68459428Y-37039524D01*
X68497523Y-37115714D01*
X68535619Y-37153810D01*
X68611809Y-37191905D01*
X68840381Y-37191905D01*
X68916571Y-37153810D01*
X68954666Y-37115714D01*
X88652286Y-94265714D02*
X88690381Y-94303810D01*
X88804667Y-94341905D01*
X88880857Y-94341905D01*
X88995143Y-94303810D01*
X89071334Y-94227619D01*
X89109429Y-94151429D01*
X89147524Y-93999048D01*
X89147524Y-93884762D01*
X89109429Y-93732381D01*
X89071334Y-93656190D01*
X88995143Y-93580000D01*
X88880857Y-93541905D01*
X88804667Y-93541905D01*
X88690381Y-93580000D01*
X88652286Y-93618095D01*
X88347524Y-93618095D02*
X88309429Y-93580000D01*
X88233238Y-93541905D01*
X88042762Y-93541905D01*
X87966572Y-93580000D01*
X87928476Y-93618095D01*
X87890381Y-93694286D01*
X87890381Y-93770476D01*
X87928476Y-93884762D01*
X88385619Y-94341905D01*
X87890381Y-94341905D01*
X87204667Y-93808571D02*
X87204667Y-94341905D01*
X87395143Y-93503810D02*
X87585619Y-94075238D01*
X87090381Y-94075238D01*
X92487714Y-100323714D02*
X92525810Y-100285619D01*
X92563905Y-100171333D01*
X92563905Y-100095143D01*
X92525810Y-99980857D01*
X92449619Y-99904666D01*
X92373429Y-99866571D01*
X92221048Y-99828476D01*
X92106762Y-99828476D01*
X91954381Y-99866571D01*
X91878190Y-99904666D01*
X91802000Y-99980857D01*
X91763905Y-100095143D01*
X91763905Y-100171333D01*
X91802000Y-100285619D01*
X91840095Y-100323714D01*
X91840095Y-100628476D02*
X91802000Y-100666571D01*
X91763905Y-100742762D01*
X91763905Y-100933238D01*
X91802000Y-101009428D01*
X91840095Y-101047524D01*
X91916286Y-101085619D01*
X91992476Y-101085619D01*
X92106762Y-101047524D01*
X92563905Y-100590381D01*
X92563905Y-101085619D01*
X91763905Y-101771333D02*
X91763905Y-101618952D01*
X91802000Y-101542762D01*
X91840095Y-101504667D01*
X91954381Y-101428476D01*
X92106762Y-101390381D01*
X92411524Y-101390381D01*
X92487714Y-101428476D01*
X92525810Y-101466571D01*
X92563905Y-101542762D01*
X92563905Y-101695143D01*
X92525810Y-101771333D01*
X92487714Y-101809429D01*
X92411524Y-101847524D01*
X92221048Y-101847524D01*
X92144857Y-101809429D01*
X92106762Y-101771333D01*
X92068667Y-101695143D01*
X92068667Y-101542762D01*
X92106762Y-101466571D01*
X92144857Y-101428476D01*
X92221048Y-101390381D01*
X82810286Y-93757714D02*
X82848381Y-93795810D01*
X82962667Y-93833905D01*
X83038857Y-93833905D01*
X83153143Y-93795810D01*
X83229334Y-93719619D01*
X83267429Y-93643429D01*
X83305524Y-93491048D01*
X83305524Y-93376762D01*
X83267429Y-93224381D01*
X83229334Y-93148190D01*
X83153143Y-93072000D01*
X83038857Y-93033905D01*
X82962667Y-93033905D01*
X82848381Y-93072000D01*
X82810286Y-93110095D01*
X82505524Y-93110095D02*
X82467429Y-93072000D01*
X82391238Y-93033905D01*
X82200762Y-93033905D01*
X82124572Y-93072000D01*
X82086476Y-93110095D01*
X82048381Y-93186286D01*
X82048381Y-93262476D01*
X82086476Y-93376762D01*
X82543619Y-93833905D01*
X82048381Y-93833905D01*
X81781714Y-93033905D02*
X81248381Y-93033905D01*
X81591238Y-93833905D01*
X129139905Y-28873524D02*
X128339905Y-28873524D01*
X128339905Y-29178286D01*
X128378000Y-29254477D01*
X128416095Y-29292572D01*
X128492286Y-29330667D01*
X128606571Y-29330667D01*
X128682762Y-29292572D01*
X128720857Y-29254477D01*
X128758952Y-29178286D01*
X128758952Y-28873524D01*
X128339905Y-29597334D02*
X128339905Y-30092572D01*
X128644667Y-29825905D01*
X128644667Y-29940191D01*
X128682762Y-30016381D01*
X128720857Y-30054477D01*
X128797048Y-30092572D01*
X128987524Y-30092572D01*
X129063714Y-30054477D01*
X129101810Y-30016381D01*
X129139905Y-29940191D01*
X129139905Y-29711619D01*
X129101810Y-29635429D01*
X129063714Y-29597334D01*
X56749905Y-55416571D02*
X55949905Y-55416571D01*
X55949905Y-55721333D01*
X55988000Y-55797524D01*
X56026095Y-55835619D01*
X56102286Y-55873714D01*
X56216571Y-55873714D01*
X56292762Y-55835619D01*
X56330857Y-55797524D01*
X56368952Y-55721333D01*
X56368952Y-55416571D01*
X56749905Y-56635619D02*
X56749905Y-56178476D01*
X56749905Y-56407047D02*
X55949905Y-56407047D01*
X56064190Y-56330857D01*
X56140381Y-56254666D01*
X56178476Y-56178476D01*
X56216571Y-57321333D02*
X56749905Y-57321333D01*
X55911810Y-57130857D02*
X56483238Y-56940381D01*
X56483238Y-57435619D01*
X56749905Y-69640571D02*
X55949905Y-69640571D01*
X55949905Y-69945333D01*
X55988000Y-70021524D01*
X56026095Y-70059619D01*
X56102286Y-70097714D01*
X56216571Y-70097714D01*
X56292762Y-70059619D01*
X56330857Y-70021524D01*
X56368952Y-69945333D01*
X56368952Y-69640571D01*
X56749905Y-70859619D02*
X56749905Y-70402476D01*
X56749905Y-70631047D02*
X55949905Y-70631047D01*
X56064190Y-70554857D01*
X56140381Y-70478666D01*
X56178476Y-70402476D01*
X55949905Y-71126286D02*
X55949905Y-71621524D01*
X56254667Y-71354857D01*
X56254667Y-71469143D01*
X56292762Y-71545333D01*
X56330857Y-71583429D01*
X56407048Y-71621524D01*
X56597524Y-71621524D01*
X56673714Y-71583429D01*
X56711810Y-71545333D01*
X56749905Y-71469143D01*
X56749905Y-71240571D01*
X56711810Y-71164381D01*
X56673714Y-71126286D01*
X56749905Y-83864571D02*
X55949905Y-83864571D01*
X55949905Y-84169333D01*
X55988000Y-84245524D01*
X56026095Y-84283619D01*
X56102286Y-84321714D01*
X56216571Y-84321714D01*
X56292762Y-84283619D01*
X56330857Y-84245524D01*
X56368952Y-84169333D01*
X56368952Y-83864571D01*
X56749905Y-85083619D02*
X56749905Y-84626476D01*
X56749905Y-84855047D02*
X55949905Y-84855047D01*
X56064190Y-84778857D01*
X56140381Y-84702666D01*
X56178476Y-84626476D01*
X56026095Y-85388381D02*
X55988000Y-85426476D01*
X55949905Y-85502667D01*
X55949905Y-85693143D01*
X55988000Y-85769333D01*
X56026095Y-85807429D01*
X56102286Y-85845524D01*
X56178476Y-85845524D01*
X56292762Y-85807429D01*
X56749905Y-85350286D01*
X56749905Y-85845524D01*
X56749905Y-98088571D02*
X55949905Y-98088571D01*
X55949905Y-98393333D01*
X55988000Y-98469524D01*
X56026095Y-98507619D01*
X56102286Y-98545714D01*
X56216571Y-98545714D01*
X56292762Y-98507619D01*
X56330857Y-98469524D01*
X56368952Y-98393333D01*
X56368952Y-98088571D01*
X56749905Y-99307619D02*
X56749905Y-98850476D01*
X56749905Y-99079047D02*
X55949905Y-99079047D01*
X56064190Y-99002857D01*
X56140381Y-98926666D01*
X56178476Y-98850476D01*
X56749905Y-100069524D02*
X56749905Y-99612381D01*
X56749905Y-99840952D02*
X55949905Y-99840952D01*
X56064190Y-99764762D01*
X56140381Y-99688571D01*
X56178476Y-99612381D01*
X54463905Y-36239524D02*
X53663905Y-36239524D01*
X53663905Y-36544286D01*
X53702000Y-36620477D01*
X53740095Y-36658572D01*
X53816286Y-36696667D01*
X53930571Y-36696667D01*
X54006762Y-36658572D01*
X54044857Y-36620477D01*
X54082952Y-36544286D01*
X54082952Y-36239524D01*
X53740095Y-37001429D02*
X53702000Y-37039524D01*
X53663905Y-37115715D01*
X53663905Y-37306191D01*
X53702000Y-37382381D01*
X53740095Y-37420477D01*
X53816286Y-37458572D01*
X53892476Y-37458572D01*
X54006762Y-37420477D01*
X54463905Y-36963334D01*
X54463905Y-37458572D01*
X58273905Y-117773524D02*
X57473905Y-117773524D01*
X57473905Y-118078286D01*
X57512000Y-118154477D01*
X57550095Y-118192572D01*
X57626286Y-118230667D01*
X57740571Y-118230667D01*
X57816762Y-118192572D01*
X57854857Y-118154477D01*
X57892952Y-118078286D01*
X57892952Y-117773524D01*
X58273905Y-118992572D02*
X58273905Y-118535429D01*
X58273905Y-118764000D02*
X57473905Y-118764000D01*
X57588190Y-118687810D01*
X57664381Y-118611619D01*
X57702476Y-118535429D01*
D14*
X47204381Y-118602096D02*
X47204381Y-118125905D01*
X47680571Y-118078286D01*
X47632952Y-118125905D01*
X47585333Y-118221143D01*
X47585333Y-118459239D01*
X47632952Y-118554477D01*
X47680571Y-118602096D01*
X47775810Y-118649715D01*
X48013905Y-118649715D01*
X48109143Y-118602096D01*
X48156762Y-118554477D01*
X48204381Y-118459239D01*
X48204381Y-118221143D01*
X48156762Y-118125905D01*
X48109143Y-118078286D01*
X53887714Y-123634477D02*
X54554381Y-123634477D01*
X53506762Y-123396381D02*
X54221048Y-123158286D01*
X54221048Y-123777334D01*
X50379381Y-123110667D02*
X50379381Y-123729715D01*
X50760333Y-123396381D01*
X50760333Y-123539239D01*
X50807952Y-123634477D01*
X50855571Y-123682096D01*
X50950810Y-123729715D01*
X51188905Y-123729715D01*
X51284143Y-123682096D01*
X51331762Y-123634477D01*
X51379381Y-123539239D01*
X51379381Y-123253524D01*
X51331762Y-123158286D01*
X51284143Y-123110667D01*
X53649619Y-112998286D02*
X53602000Y-113045905D01*
X53554381Y-113141143D01*
X53554381Y-113379239D01*
X53602000Y-113474477D01*
X53649619Y-113522096D01*
X53744857Y-113569715D01*
X53840095Y-113569715D01*
X53982952Y-113522096D01*
X54554381Y-112950667D01*
X54554381Y-113569715D01*
X51379381Y-113569715D02*
X51379381Y-112998286D01*
X51379381Y-113284000D02*
X50379381Y-113284000D01*
X50522238Y-113188762D01*
X50617476Y-113093524D01*
X50665095Y-112998286D01*
M02*
