G04 #@! TF.FileFunction,Copper,L2,Bot,Signal*
%FSLAX46Y46*%
G04 Gerber Fmt 4.6, Leading zero omitted, Abs format (unit mm)*
G04 Created by KiCad (PCBNEW (2015-12-10 BZR 6367)-product) date Fri 14 Oct 2016 00:38:17 BST*
%MOMM*%
G01*
G04 APERTURE LIST*
%ADD10C,0.100000*%
%ADD11C,0.381000*%
%ADD12O,3.962400X1.981200*%
%ADD13R,0.800000X0.750000*%
%ADD14R,0.750000X0.800000*%
%ADD15R,2.032000X1.727200*%
%ADD16O,2.032000X1.727200*%
%ADD17R,1.270000X3.302000*%
%ADD18R,1.270000X2.286000*%
%ADD19R,1.270000X2.794000*%
%ADD20C,2.200000*%
%ADD21R,1.699260X1.198880*%
%ADD22O,1.699260X1.198880*%
%ADD23O,2.100000X3.300000*%
%ADD24O,3.300000X1.800000*%
%ADD25C,2.300000*%
%ADD26C,2.000000*%
%ADD27C,1.200000*%
%ADD28C,0.900000*%
%ADD29C,1.024000*%
%ADD30C,2.000000*%
%ADD31C,0.508000*%
%ADD32C,0.768000*%
%ADD33C,0.254000*%
G04 APERTURE END LIST*
D10*
D11*
X64770000Y-68585080D02*
X64770000Y-68983860D01*
X65471040Y-69783960D02*
X64170560Y-69783960D01*
X64269620Y-70086220D02*
X65471040Y-70086220D01*
X65570100Y-70385940D02*
X64269620Y-70385940D01*
X64770000Y-70784720D02*
X64770000Y-72085200D01*
X64670940Y-72285860D02*
X64470280Y-72285860D01*
X64470280Y-72285860D02*
X64470280Y-70685660D01*
X65069720Y-70784720D02*
X65069720Y-72285860D01*
X65069720Y-72285860D02*
X64569340Y-72285860D01*
X65570100Y-69484240D02*
X64068960Y-69484240D01*
X64068960Y-69484240D02*
X64068960Y-70685660D01*
X64068960Y-70685660D02*
X65570100Y-70685660D01*
X65570100Y-70685660D02*
X65570100Y-69484240D01*
X65085666Y-68785740D02*
G75*
G03X65085666Y-68785740I-315666J0D01*
G01*
X64770000Y-67985640D02*
X64869060Y-67985640D01*
X64869060Y-67985640D02*
X65471040Y-68084700D01*
X65471040Y-68084700D02*
X65968880Y-68285360D01*
X65968880Y-68285360D02*
X66469260Y-68684140D01*
X66469260Y-68684140D02*
X66969640Y-69286120D01*
X66969640Y-69286120D02*
X67170300Y-69684900D01*
X67170300Y-69684900D02*
X67269360Y-70185280D01*
X67269360Y-70185280D02*
X67269360Y-70784720D01*
X67269360Y-70784720D02*
X67071240Y-71584820D01*
X67071240Y-71584820D02*
X66469260Y-72285860D01*
X66469260Y-72285860D02*
X65968880Y-72684640D01*
X65968880Y-72684640D02*
X65270380Y-72984360D01*
X65270380Y-72984360D02*
X64470280Y-72984360D01*
X64470280Y-72984360D02*
X63870840Y-72786240D01*
X63870840Y-72786240D02*
X63268860Y-72483980D01*
X63268860Y-72483980D02*
X62771020Y-71986140D01*
X62771020Y-71986140D02*
X62369700Y-71285100D01*
X62369700Y-71285100D02*
X62270640Y-70685660D01*
X62270640Y-70685660D02*
X62270640Y-70086220D01*
X62270640Y-70086220D02*
X62468760Y-69484240D01*
X62468760Y-69484240D02*
X62771020Y-68983860D01*
X62771020Y-68983860D02*
X63268860Y-68486020D01*
X63268860Y-68486020D02*
X63769240Y-68183760D01*
X63769240Y-68183760D02*
X64170560Y-68084700D01*
X64170560Y-68084700D02*
X64770000Y-67985640D01*
X60154820Y-71683880D02*
X59654440Y-71986140D01*
X59654440Y-71986140D02*
X59154060Y-72085200D01*
X59154060Y-72085200D02*
X58656220Y-71986140D01*
X58656220Y-71986140D02*
X58155840Y-71785480D01*
X58155840Y-71785480D02*
X57754520Y-71384160D01*
X57754520Y-71384160D02*
X57454800Y-70883780D01*
X57454800Y-70883780D02*
X57454800Y-70485000D01*
X57454800Y-70485000D02*
X57553860Y-69984620D01*
X57553860Y-69984620D02*
X57856120Y-69484240D01*
X57856120Y-69484240D02*
X58155840Y-69184520D01*
X58155840Y-69184520D02*
X58755280Y-68884800D01*
X58755280Y-68884800D02*
X59154060Y-68884800D01*
X59154060Y-68884800D02*
X59555380Y-68983860D01*
X59555380Y-68983860D02*
X60055760Y-69184520D01*
X59055000Y-67985640D02*
X59154060Y-67985640D01*
X59154060Y-67985640D02*
X59756040Y-68084700D01*
X59756040Y-68084700D02*
X60253880Y-68285360D01*
X60253880Y-68285360D02*
X60754260Y-68684140D01*
X60754260Y-68684140D02*
X61254640Y-69286120D01*
X61254640Y-69286120D02*
X61455300Y-69684900D01*
X61455300Y-69684900D02*
X61554360Y-70185280D01*
X61554360Y-70185280D02*
X61554360Y-70784720D01*
X61554360Y-70784720D02*
X61356240Y-71584820D01*
X61356240Y-71584820D02*
X60754260Y-72285860D01*
X60754260Y-72285860D02*
X60253880Y-72684640D01*
X60253880Y-72684640D02*
X59555380Y-72984360D01*
X59555380Y-72984360D02*
X58755280Y-72984360D01*
X58755280Y-72984360D02*
X58155840Y-72786240D01*
X58155840Y-72786240D02*
X57553860Y-72483980D01*
X57553860Y-72483980D02*
X57056020Y-71986140D01*
X57056020Y-71986140D02*
X56654700Y-71285100D01*
X56654700Y-71285100D02*
X56555640Y-70685660D01*
X56555640Y-70685660D02*
X56555640Y-70086220D01*
X56555640Y-70086220D02*
X56753760Y-69484240D01*
X56753760Y-69484240D02*
X57056020Y-68983860D01*
X57056020Y-68983860D02*
X57553860Y-68486020D01*
X57553860Y-68486020D02*
X58054240Y-68183760D01*
X58054240Y-68183760D02*
X58455560Y-68084700D01*
X58455560Y-68084700D02*
X59055000Y-67985640D01*
X68734800Y-69584900D02*
X68833860Y-69485840D01*
X68833860Y-69485840D02*
X69034520Y-69384240D01*
X69034520Y-69384240D02*
X69334240Y-69384240D01*
X69334240Y-69384240D02*
X69633960Y-69485840D01*
X69633960Y-69485840D02*
X69834620Y-69884620D01*
X69834620Y-69884620D02*
X69936220Y-70385000D01*
X69936220Y-70385000D02*
X69936220Y-70783780D01*
X69936220Y-70783780D02*
X69735560Y-71185100D01*
X69735560Y-71185100D02*
X69334240Y-71385760D01*
X69334240Y-71385760D02*
X69136120Y-71385760D01*
X69136120Y-71385760D02*
X68833860Y-71385760D01*
X68833860Y-71385760D02*
X68734800Y-71185100D01*
X70733780Y-69584900D02*
X70835380Y-69485840D01*
X70835380Y-69485840D02*
X71135100Y-69384240D01*
X71135100Y-69384240D02*
X71533880Y-69485840D01*
X71533880Y-69485840D02*
X71836140Y-69683960D01*
X71836140Y-69683960D02*
X71935200Y-70085280D01*
X71935200Y-70085280D02*
X71935200Y-70484060D01*
X71935200Y-70484060D02*
X71836140Y-70984440D01*
X71836140Y-70984440D02*
X71635480Y-71284160D01*
X71635480Y-71284160D02*
X71335760Y-71385760D01*
X71335760Y-71385760D02*
X70934440Y-71385760D01*
X70934440Y-71385760D02*
X70733780Y-71185100D01*
X70335000Y-67885640D02*
X70434060Y-67885640D01*
X70434060Y-67885640D02*
X71036040Y-67984700D01*
X71036040Y-67984700D02*
X71533880Y-68185360D01*
X71533880Y-68185360D02*
X72034260Y-68584140D01*
X72034260Y-68584140D02*
X72534640Y-69186120D01*
X72534640Y-69186120D02*
X72735300Y-69584900D01*
X72735300Y-69584900D02*
X72834360Y-70085280D01*
X72834360Y-70085280D02*
X72834360Y-70684720D01*
X72834360Y-70684720D02*
X72636240Y-71484820D01*
X72636240Y-71484820D02*
X72034260Y-72185860D01*
X72034260Y-72185860D02*
X71533880Y-72584640D01*
X71533880Y-72584640D02*
X70835380Y-72884360D01*
X70835380Y-72884360D02*
X70035280Y-72884360D01*
X70035280Y-72884360D02*
X69435840Y-72686240D01*
X69435840Y-72686240D02*
X68833860Y-72383980D01*
X68833860Y-72383980D02*
X68336020Y-71886140D01*
X68336020Y-71886140D02*
X67934700Y-71185100D01*
X67934700Y-71185100D02*
X67835640Y-70585660D01*
X67835640Y-70585660D02*
X67835640Y-69986220D01*
X67835640Y-69986220D02*
X68033760Y-69384240D01*
X68033760Y-69384240D02*
X68336020Y-68883860D01*
X68336020Y-68883860D02*
X68833860Y-68386020D01*
X68833860Y-68386020D02*
X69334240Y-68083760D01*
X69334240Y-68083760D02*
X69735560Y-67984700D01*
X69735560Y-67984700D02*
X70335000Y-67885640D01*
D12*
X135636000Y-55626000D03*
X135636000Y-60626000D03*
X135636000Y-104394000D03*
X135636000Y-109394000D03*
X135636000Y-116586000D03*
X135636000Y-121586000D03*
X135636000Y-67818000D03*
X135636000Y-72818000D03*
X135636000Y-43434000D03*
X135636000Y-48434000D03*
X135636000Y-92202000D03*
X135636000Y-97202000D03*
X135636000Y-80010000D03*
X135636000Y-85010000D03*
D13*
X69838000Y-38354000D03*
X68338000Y-38354000D03*
X88888000Y-95758000D03*
X87388000Y-95758000D03*
D14*
X93472000Y-100088000D03*
X93472000Y-101588000D03*
D13*
X81546000Y-91948000D03*
X83046000Y-91948000D03*
D15*
X109220000Y-109220000D03*
D16*
X109220000Y-106680000D03*
X109220000Y-104140000D03*
X109220000Y-101600000D03*
X109220000Y-99060000D03*
X109220000Y-96520000D03*
X109220000Y-93980000D03*
D15*
X61468000Y-109220000D03*
D16*
X61468000Y-106680000D03*
X61468000Y-104140000D03*
X61468000Y-101600000D03*
X61468000Y-99060000D03*
X61468000Y-96520000D03*
X61468000Y-93980000D03*
D12*
X135636000Y-31242000D03*
X135636000Y-36242000D03*
D17*
X55499000Y-64643000D03*
D18*
X53467000Y-65151000D03*
D19*
X46863000Y-64897000D03*
D18*
X54483000Y-57277000D03*
X49784000Y-57277000D03*
X46736000Y-57277000D03*
D17*
X55499000Y-78867000D03*
D18*
X53467000Y-79375000D03*
D19*
X46863000Y-79121000D03*
D18*
X54483000Y-71501000D03*
X49784000Y-71501000D03*
X46736000Y-71501000D03*
D17*
X55499000Y-93091000D03*
D18*
X53467000Y-93599000D03*
D19*
X46863000Y-93345000D03*
D18*
X54483000Y-85725000D03*
X49784000Y-85725000D03*
X46736000Y-85725000D03*
D17*
X55499000Y-107315000D03*
D18*
X53467000Y-107823000D03*
D19*
X46863000Y-107569000D03*
D18*
X54483000Y-99949000D03*
X49784000Y-99949000D03*
X46736000Y-99949000D03*
D20*
X103632000Y-34798000D03*
X103632000Y-37338000D03*
X103632000Y-39878000D03*
X103632000Y-42418000D03*
X103632000Y-44958000D03*
X103632000Y-47498000D03*
X103632000Y-50038000D03*
X103632000Y-52578000D03*
X103632000Y-55118000D03*
X103632000Y-57658000D03*
X103632000Y-60198000D03*
X103632000Y-62738000D03*
X103632000Y-65278000D03*
X103632000Y-67818000D03*
X83312000Y-67818000D03*
X83312000Y-65278000D03*
X83312000Y-62738000D03*
X83312000Y-60198000D03*
X83312000Y-57658000D03*
X83312000Y-55118000D03*
X83312000Y-52578000D03*
X83312000Y-50038000D03*
X83312000Y-47498000D03*
X83312000Y-44958000D03*
X83312000Y-42418000D03*
X83312000Y-39878000D03*
X83312000Y-37338000D03*
X83312000Y-34798000D03*
D21*
X51435000Y-39832280D03*
D22*
X51435000Y-35829240D03*
X51435000Y-37830760D03*
X51435000Y-33830260D03*
D23*
X96940000Y-118110000D03*
D24*
X102440000Y-120610000D03*
X102440000Y-115610000D03*
X106090000Y-121010000D03*
X106090000Y-115210000D03*
D25*
X98940000Y-115610000D03*
X98940000Y-120610000D03*
D26*
X74208000Y-35560000D03*
X79208000Y-35560000D03*
D27*
X133350000Y-116840000D03*
X130302000Y-116840000D03*
X131826000Y-116840000D03*
X134620000Y-119380000D03*
X133350000Y-118110000D03*
X138176000Y-124968000D03*
X138176000Y-123444000D03*
X139700000Y-123444000D03*
X135128000Y-124968000D03*
X136652000Y-124968000D03*
X141224000Y-124968000D03*
X139700000Y-124968000D03*
X106172000Y-123190000D03*
X121412000Y-125222000D03*
X119888000Y-125222000D03*
X118364000Y-125222000D03*
X116840000Y-125222000D03*
X115316000Y-125222000D03*
X113792000Y-125222000D03*
X112268000Y-125222000D03*
X110744000Y-125222000D03*
X109220000Y-125222000D03*
X107696000Y-125222000D03*
X106172000Y-125222000D03*
X121412000Y-123190000D03*
X107696000Y-123190000D03*
X109220000Y-123190000D03*
X110744000Y-123190000D03*
X112268000Y-123190000D03*
X113792000Y-123190000D03*
X115316000Y-123190000D03*
X116840000Y-123190000D03*
X118364000Y-123190000D03*
X119888000Y-123190000D03*
X113284000Y-108458000D03*
X114300000Y-109474000D03*
X115316000Y-110490000D03*
X122174000Y-110236000D03*
X121158000Y-109220000D03*
X120142000Y-108204000D03*
X119126000Y-107188000D03*
X118110000Y-106172000D03*
X123190000Y-111252000D03*
X115062000Y-103124000D03*
X116078000Y-104140000D03*
X117094000Y-105156000D03*
X124206000Y-97536000D03*
X123190000Y-96520000D03*
X122174000Y-95504000D03*
X121158000Y-94488000D03*
X120142000Y-93472000D03*
X118110000Y-91440000D03*
X119126000Y-92456000D03*
X123952000Y-101600000D03*
X122936000Y-100584000D03*
X121920000Y-99568000D03*
X120904000Y-98552000D03*
X119888000Y-97536000D03*
X115824000Y-93472000D03*
X116840000Y-94488000D03*
X117856000Y-95504000D03*
X118872000Y-96520000D03*
X126508000Y-115316000D03*
X125219000Y-119126000D03*
X125222000Y-36576000D03*
X123698000Y-36576000D03*
X122174000Y-36576000D03*
X120650000Y-36576000D03*
X120650000Y-38100000D03*
X122174000Y-38100000D03*
X123698000Y-38100000D03*
X126508000Y-42164000D03*
X124968000Y-41656000D03*
X123952000Y-50800000D03*
X122936000Y-51816000D03*
X122936000Y-49784000D03*
X121920000Y-48768000D03*
X120904000Y-47752000D03*
X119888000Y-46736000D03*
X123444000Y-41656000D03*
X121920000Y-41656000D03*
X120904000Y-42672000D03*
X119888000Y-43688000D03*
X119888000Y-45212000D03*
X126508000Y-54356000D03*
X119888000Y-59436000D03*
X120904000Y-58420000D03*
X121920000Y-57404000D03*
X122936000Y-56388000D03*
X123952000Y-55372000D03*
X124968000Y-54356000D03*
X122936000Y-61976000D03*
X123952000Y-62992000D03*
X122936000Y-64008000D03*
X121920000Y-65024000D03*
X120904000Y-66040000D03*
X119888000Y-67056000D03*
X119888000Y-65024000D03*
X120904000Y-64008000D03*
X121920000Y-62992000D03*
X126508000Y-66548000D03*
X122682000Y-69596000D03*
X121666000Y-70612000D03*
X120650000Y-71628000D03*
X120650000Y-73152000D03*
X120650000Y-74676000D03*
X122174000Y-74676000D03*
X123698000Y-74676000D03*
X123698000Y-79248000D03*
X122174000Y-79248000D03*
X120650000Y-79248000D03*
X120650000Y-77724000D03*
X122174000Y-77724000D03*
X123698000Y-77724000D03*
X125222000Y-77724000D03*
X123698000Y-85344000D03*
X122174000Y-85344000D03*
X120650000Y-85344000D03*
X120650000Y-86868000D03*
X122174000Y-86868000D03*
X123698000Y-86868000D03*
X123190000Y-92456000D03*
X122174000Y-91440000D03*
X120650000Y-91440000D03*
X120650000Y-89916000D03*
X122174000Y-89916000D03*
X123698000Y-89916000D03*
X125222000Y-89916000D03*
X113284000Y-111506000D03*
X118364000Y-113538000D03*
X117348000Y-112522000D03*
X116332000Y-111506000D03*
X122428000Y-119126000D03*
X119380000Y-114554000D03*
X120396000Y-115570000D03*
X121412000Y-116586000D03*
X122428000Y-117602000D03*
X119380000Y-117602000D03*
X118364000Y-116586000D03*
X117348000Y-115570000D03*
X116332000Y-114554000D03*
X115316000Y-113538000D03*
X114300000Y-112522000D03*
X55610760Y-32705000D03*
D28*
X107188000Y-30734000D03*
X107188000Y-34544000D03*
X110236000Y-29718000D03*
X93980000Y-30226000D03*
X92710000Y-45720000D03*
X80010000Y-42164000D03*
X96774000Y-63754000D03*
X106934000Y-74676000D03*
D27*
X118618000Y-84836000D03*
X111252000Y-84836000D03*
X75184000Y-51308000D03*
X125222000Y-120777000D03*
X125222000Y-111264000D03*
X125222000Y-99072000D03*
X125222000Y-86880000D03*
X125222000Y-74688000D03*
X125222000Y-62496000D03*
X125222000Y-50304000D03*
X125222000Y-38112000D03*
X127127000Y-120777000D03*
X127124000Y-108839000D03*
X127124000Y-96647000D03*
X127124000Y-84455000D03*
X127124000Y-72263000D03*
X127124000Y-60071000D03*
X127124000Y-35687000D03*
X127124000Y-47879000D03*
X66802000Y-60198000D03*
X52832000Y-55118000D03*
X46736000Y-56134000D03*
X73152000Y-60198000D03*
D28*
X93980000Y-92964000D03*
X76200000Y-91186000D03*
D27*
X83312000Y-90932000D03*
X93472000Y-101600000D03*
X49784000Y-93472000D03*
X49784000Y-107696000D03*
X46736000Y-101600000D03*
X49784000Y-65024000D03*
X49784000Y-79248000D03*
X46736000Y-87376000D03*
X46736000Y-73152000D03*
X46736000Y-58928000D03*
X68326000Y-38354000D03*
D28*
X87122000Y-96774000D03*
D27*
X111506000Y-78994000D03*
X101092000Y-74422000D03*
X84709000Y-90170000D03*
D28*
X81280000Y-92456000D03*
D27*
X94996000Y-96012000D03*
X93472000Y-100076000D03*
D28*
X89154000Y-95097600D03*
D27*
X69850000Y-38354000D03*
X77724000Y-62738000D03*
X49784000Y-101600000D03*
X49784000Y-87376000D03*
X51816000Y-49530000D03*
X51308000Y-65024000D03*
X51308000Y-79248000D03*
X51308000Y-93472000D03*
X51308000Y-107696000D03*
X49784000Y-73152000D03*
X49784000Y-58928000D03*
D28*
X99568000Y-67056000D03*
X99568000Y-84582000D03*
X78740000Y-98933000D03*
X86614000Y-101346000D03*
X89408000Y-102616000D03*
X69596000Y-42418000D03*
X71628000Y-45654000D03*
X68326000Y-41656000D03*
X84582000Y-94996000D03*
X83820000Y-92964000D03*
X97536000Y-105156000D03*
X86360000Y-91948000D03*
X116840000Y-83312000D03*
X115316000Y-83312000D03*
D27*
X78232000Y-70358000D03*
X78232000Y-71882000D03*
D28*
X114046000Y-77216000D03*
X115570000Y-80264000D03*
D27*
X78232000Y-73406000D03*
X78232000Y-74930000D03*
D28*
X76454000Y-52578000D03*
X98552000Y-66548000D03*
X98552000Y-97028000D03*
X116840000Y-76962000D03*
X112014000Y-36322000D03*
X118364000Y-77978000D03*
X113284000Y-35052000D03*
D29*
X133350000Y-116840000D02*
X131826000Y-116840000D01*
X133350000Y-118110000D02*
X133731000Y-118491000D01*
D30*
X139700000Y-124968000D02*
X139700000Y-123444000D01*
X138176000Y-124968000D02*
X139700000Y-124968000D01*
X136652000Y-124968000D02*
X138176000Y-124968000D01*
X131064000Y-124968000D02*
X135128000Y-124968000D01*
X106172000Y-125222000D02*
X106172000Y-123190000D01*
X132080000Y-123952000D02*
X131064000Y-124968000D01*
X132080000Y-120142000D02*
X132080000Y-123952000D01*
X133731000Y-118491000D02*
X132080000Y-120142000D01*
X135636000Y-116586000D02*
X133731000Y-118491000D01*
X131064000Y-124968000D02*
X121666000Y-124968000D01*
X121412000Y-125222000D02*
X121666000Y-124968000D01*
X118364000Y-125222000D02*
X119888000Y-125222000D01*
X115316000Y-125222000D02*
X116840000Y-125222000D01*
X112268000Y-125222000D02*
X113792000Y-125222000D01*
X109220000Y-125222000D02*
X110744000Y-125222000D01*
X106172000Y-125222000D02*
X107696000Y-125222000D01*
X107696000Y-123190000D02*
X109220000Y-123190000D01*
X110744000Y-123190000D02*
X112268000Y-123190000D01*
X113792000Y-123190000D02*
X115316000Y-123190000D01*
X116840000Y-123190000D02*
X118364000Y-123190000D01*
X119888000Y-123190000D02*
X121412000Y-123190000D01*
X135636000Y-116586000D02*
X140462000Y-121412000D01*
X135636000Y-43434000D02*
X139192000Y-39878000D01*
X139192000Y-34798000D02*
X135636000Y-31242000D01*
X139192000Y-39878000D02*
X139192000Y-34798000D01*
X135636000Y-55626000D02*
X139192000Y-52070000D01*
X139192000Y-46990000D02*
X135636000Y-43434000D01*
X139192000Y-52070000D02*
X139192000Y-46990000D01*
X135636000Y-67818000D02*
X139192000Y-64262000D01*
X139192000Y-59182000D02*
X135636000Y-55626000D01*
X139192000Y-64262000D02*
X139192000Y-59182000D01*
X135636000Y-80010000D02*
X139192000Y-76454000D01*
X139192000Y-71374000D02*
X135636000Y-67818000D01*
X139192000Y-76454000D02*
X139192000Y-71374000D01*
X135636000Y-92202000D02*
X139192000Y-88646000D01*
X139192000Y-83566000D02*
X135636000Y-80010000D01*
X139192000Y-88646000D02*
X139192000Y-83566000D01*
X135636000Y-104394000D02*
X139192000Y-100838000D01*
X139192000Y-95758000D02*
X135636000Y-92202000D01*
X139192000Y-100838000D02*
X139192000Y-95758000D01*
X135636000Y-116586000D02*
X139192000Y-113030000D01*
X139192000Y-107950000D02*
X135636000Y-104394000D01*
X139192000Y-113030000D02*
X139192000Y-107950000D01*
D29*
X115316000Y-110490000D02*
X114300000Y-109474000D01*
X118110000Y-106172000D02*
X117094000Y-105156000D01*
X121158000Y-109220000D02*
X120142000Y-108204000D01*
X119126000Y-107188000D02*
X118110000Y-106172000D01*
X123190000Y-111252000D02*
X122174000Y-110236000D01*
X116078000Y-104140000D02*
X115062000Y-103124000D01*
X120142000Y-93472000D02*
X119126000Y-92456000D01*
X124206000Y-97536000D02*
X123190000Y-96520000D01*
X122174000Y-95504000D02*
X121158000Y-94488000D01*
X119888000Y-97536000D02*
X118872000Y-96520000D01*
X123952000Y-101600000D02*
X122936000Y-100584000D01*
X121920000Y-99568000D02*
X120904000Y-98552000D01*
X117856000Y-95504000D02*
X116840000Y-94488000D01*
X127125628Y-115317355D02*
X127125628Y-115315841D01*
X126508159Y-115315841D02*
X127125628Y-115315841D01*
X126508159Y-115315841D02*
X126508000Y-115316000D01*
X125222000Y-120777000D02*
X125222000Y-119129000D01*
X125222000Y-119129000D02*
X125219000Y-119126000D01*
X125347500Y-36701500D02*
X126109500Y-36701500D01*
X125222000Y-36576000D02*
X125347500Y-36701500D01*
X122174000Y-36576000D02*
X123698000Y-36576000D01*
X120650000Y-38100000D02*
X120650000Y-36576000D01*
X123698000Y-38100000D02*
X122174000Y-38100000D01*
X126508000Y-42164000D02*
X126492000Y-42164000D01*
X124968000Y-41656000D02*
X125476000Y-42164000D01*
X125476000Y-42164000D02*
X126492000Y-42164000D01*
X123952000Y-50800000D02*
X122936000Y-51816000D01*
X122936000Y-49784000D02*
X121920000Y-48768000D01*
X120904000Y-47752000D02*
X119888000Y-46736000D01*
X120904000Y-42672000D02*
X121920000Y-41656000D01*
X119888000Y-45212000D02*
X119888000Y-43688000D01*
X126492000Y-42164000D02*
X127124000Y-42164000D01*
X126508000Y-54356000D02*
X127124000Y-54356000D01*
X119888000Y-59436000D02*
X120904000Y-58420000D01*
X121920000Y-57404000D02*
X122936000Y-56388000D01*
X124968000Y-54356000D02*
X125222000Y-54356000D01*
X124448000Y-62496000D02*
X123952000Y-62992000D01*
X122936000Y-64008000D02*
X121920000Y-65024000D01*
X120904000Y-66040000D02*
X119888000Y-67056000D01*
X119888000Y-65024000D02*
X120904000Y-64008000D01*
X122936000Y-61976000D02*
X121920000Y-62992000D01*
X124448000Y-62496000D02*
X125222000Y-62496000D01*
X126508000Y-66548000D02*
X127124000Y-66548000D01*
X125222000Y-74688000D02*
X123710000Y-74688000D01*
X121666000Y-70612000D02*
X122682000Y-69596000D01*
X120650000Y-73152000D02*
X120650000Y-71628000D01*
X122174000Y-74676000D02*
X120650000Y-74676000D01*
X123710000Y-74688000D02*
X123698000Y-74676000D01*
X120650000Y-79248000D02*
X122174000Y-79248000D01*
X122174000Y-77724000D02*
X120650000Y-77724000D01*
X125222000Y-77724000D02*
X123698000Y-77724000D01*
X125222000Y-86880000D02*
X123710000Y-86880000D01*
X120650000Y-85344000D02*
X122174000Y-85344000D01*
X122174000Y-86868000D02*
X120650000Y-86868000D01*
X123710000Y-86880000D02*
X123698000Y-86868000D01*
X120650000Y-91440000D02*
X122174000Y-91440000D01*
X122174000Y-89916000D02*
X120650000Y-89916000D01*
X125222000Y-89916000D02*
X123698000Y-89916000D01*
D30*
X108458000Y-112776000D02*
X106680000Y-110998000D01*
X94742000Y-115912000D02*
X96940000Y-118110000D01*
X94742000Y-110998000D02*
X94742000Y-115912000D01*
X106680000Y-110998000D02*
X94742000Y-110998000D01*
X111252000Y-113792000D02*
X110236000Y-112776000D01*
X102362000Y-112776000D02*
X102362000Y-114046000D01*
X103632000Y-112776000D02*
X102362000Y-112776000D01*
X110236000Y-112776000D02*
X108458000Y-112776000D01*
X108458000Y-112776000D02*
X103632000Y-112776000D01*
X96940000Y-118110000D02*
X101854000Y-118110000D01*
X101854000Y-118110000D02*
X102440000Y-118696000D01*
X102440000Y-120610000D02*
X102440000Y-118696000D01*
X102440000Y-118696000D02*
X102440000Y-115610000D01*
X104648000Y-111760000D02*
X113030000Y-111760000D01*
X104648000Y-111760000D02*
X103759000Y-112649000D01*
X103759000Y-112649000D02*
X102362000Y-114046000D01*
X102362000Y-114046000D02*
X102440000Y-113968000D01*
X102440000Y-115610000D02*
X102440000Y-113968000D01*
X113030000Y-111760000D02*
X113284000Y-111506000D01*
X113284000Y-111506000D02*
X116332000Y-111506000D01*
X118364000Y-113538000D02*
X117348000Y-112522000D01*
X122428000Y-119126000D02*
X125219000Y-119126000D01*
X120396000Y-115570000D02*
X119380000Y-114554000D01*
X122428000Y-117602000D02*
X121412000Y-116586000D01*
X127127000Y-120777000D02*
X125219000Y-119126000D01*
X118364000Y-116586000D02*
X119380000Y-117602000D01*
X116332000Y-114554000D02*
X117348000Y-115570000D01*
X114300000Y-112522000D02*
X115316000Y-113538000D01*
D29*
X58973760Y-36068000D02*
X55610760Y-32705000D01*
X51435000Y-39832280D02*
X66548000Y-39832280D01*
X66548000Y-39832280D02*
X66548000Y-39636000D01*
D31*
X107188000Y-34544000D02*
X107188000Y-30734000D01*
X106426000Y-29972000D02*
X107188000Y-30734000D01*
X106426000Y-29972000D02*
X106426000Y-28448000D01*
X92202000Y-28448000D02*
X106426000Y-28448000D01*
X106426000Y-28448000D02*
X108966000Y-28448000D01*
X108966000Y-28448000D02*
X110236000Y-29718000D01*
X77724000Y-34036000D02*
X77724000Y-30988000D01*
X77724000Y-30988000D02*
X80264000Y-28448000D01*
X80264000Y-28448000D02*
X92202000Y-28448000D01*
X93980000Y-30226000D02*
X92202000Y-28448000D01*
X77724000Y-34036000D02*
X79208000Y-35520000D01*
X79208000Y-35560000D02*
X79208000Y-35520000D01*
X83312000Y-60198000D02*
X92710000Y-50800000D01*
X92710000Y-50800000D02*
X92710000Y-45720000D01*
D29*
X56828000Y-110168000D02*
X51376000Y-110168000D01*
X51376000Y-110168000D02*
X49784000Y-111760000D01*
X56828000Y-110168000D02*
X57776000Y-109220000D01*
X57776000Y-109220000D02*
X61468000Y-109220000D01*
X49784000Y-107696000D02*
X49784000Y-111760000D01*
X100330000Y-109220000D02*
X100330000Y-95758000D01*
X100330000Y-95758000D02*
X111252000Y-84836000D01*
X118618000Y-84836000D02*
X111252000Y-84836000D01*
D30*
X125222000Y-120777000D02*
X124841000Y-120396000D01*
D29*
X66548000Y-43688000D02*
X74168000Y-51308000D01*
X66548000Y-43688000D02*
X66548000Y-39636000D01*
X66681000Y-39503000D02*
X66548000Y-39636000D01*
X74168000Y-51308000D02*
X75184000Y-51308000D01*
X75184000Y-55880000D02*
X79502000Y-60198000D01*
X75184000Y-51308000D02*
X75184000Y-55880000D01*
X61468000Y-109220000D02*
X68580000Y-109220000D01*
X93472000Y-109220000D02*
X68580000Y-109220000D01*
D30*
X126109500Y-36701500D02*
X127124000Y-35687000D01*
X125222000Y-120777000D02*
X125222000Y-111264000D01*
X125222000Y-111264000D02*
X125222000Y-99072000D01*
X125222000Y-99072000D02*
X125222000Y-86880000D01*
X125222000Y-86880000D02*
X125222000Y-74688000D01*
X125222000Y-74688000D02*
X125222000Y-62496000D01*
X125222000Y-62496000D02*
X125222000Y-54356000D01*
X125222000Y-54356000D02*
X125222000Y-50304000D01*
X125222000Y-50304000D02*
X125222000Y-38112000D01*
X127127000Y-120777000D02*
X127125628Y-115317355D01*
X127125628Y-115317355D02*
X127124000Y-108839000D01*
X127124000Y-108839000D02*
X127124000Y-96647000D01*
X127124000Y-96647000D02*
X127124000Y-84455000D01*
X127124000Y-84455000D02*
X127124000Y-72263000D01*
X127124000Y-47879000D02*
X127124000Y-54356000D01*
X127124000Y-54356000D02*
X127124000Y-60071000D01*
X127124000Y-66548000D02*
X127124000Y-60071000D01*
X127124000Y-35687000D02*
X127124000Y-42164000D01*
X127124000Y-42164000D02*
X127124000Y-47879000D01*
D31*
X77704000Y-37064000D02*
X69628000Y-37064000D01*
X69628000Y-37064000D02*
X68338000Y-38354000D01*
X79208000Y-35560000D02*
X77704000Y-37064000D01*
X77704000Y-37064000D02*
X77684000Y-37084000D01*
D29*
X66802000Y-60198000D02*
X61722000Y-55118000D01*
X61722000Y-55118000D02*
X52832000Y-55118000D01*
X46736000Y-56134000D02*
X46736000Y-57277000D01*
X79502000Y-60198000D02*
X73152000Y-60198000D01*
X58973760Y-36068000D02*
X63246000Y-36068000D01*
X63246000Y-36068000D02*
X66681000Y-39503000D01*
X83312000Y-60198000D02*
X79502000Y-60198000D01*
X66681000Y-39503000D02*
X68338000Y-38354000D01*
X46863000Y-93345000D02*
X46736000Y-93472000D01*
X46736000Y-93472000D02*
X46736000Y-99949000D01*
X46863000Y-79121000D02*
X46736000Y-79248000D01*
X46736000Y-79248000D02*
X46736000Y-85725000D01*
X46863000Y-64897000D02*
X46736000Y-65024000D01*
X46736000Y-65024000D02*
X46736000Y-71501000D01*
X87122000Y-96774000D02*
X91936000Y-101588000D01*
X91936000Y-101588000D02*
X93472000Y-101588000D01*
X93472000Y-101588000D02*
X94500000Y-101588000D01*
X94500000Y-101588000D02*
X96520000Y-99568000D01*
X96520000Y-99568000D02*
X96520000Y-95504000D01*
X96520000Y-95504000D02*
X93980000Y-92964000D01*
X82550000Y-94488000D02*
X79502000Y-94488000D01*
X79502000Y-94488000D02*
X76200000Y-91186000D01*
X82550000Y-94488000D02*
X82550000Y-93218000D01*
D32*
X83046000Y-91948000D02*
X82550000Y-92444000D01*
X82550000Y-92444000D02*
X82550000Y-93218000D01*
X84836000Y-96774000D02*
X87122000Y-96774000D01*
X82550000Y-94488000D02*
X84836000Y-96774000D01*
X83046000Y-91198000D02*
X83312000Y-90932000D01*
X83046000Y-91198000D02*
X83046000Y-91948000D01*
D31*
X93472000Y-101600000D02*
X93472000Y-101588000D01*
D29*
X93472000Y-101588000D02*
X93472000Y-109220000D01*
X109220000Y-109220000D02*
X100330000Y-109220000D01*
X100330000Y-109220000D02*
X93472000Y-109220000D01*
X46863000Y-93345000D02*
X46990000Y-93472000D01*
X46990000Y-93472000D02*
X49784000Y-93472000D01*
X46863000Y-107569000D02*
X46990000Y-107696000D01*
X46990000Y-107696000D02*
X49784000Y-107696000D01*
X46736000Y-101600000D02*
X46736000Y-107442000D01*
X46736000Y-107442000D02*
X46863000Y-107569000D01*
X46736000Y-99949000D02*
X46736000Y-101600000D01*
X46863000Y-64897000D02*
X46990000Y-65024000D01*
X46990000Y-65024000D02*
X49784000Y-65024000D01*
X46863000Y-79121000D02*
X46990000Y-79248000D01*
X46990000Y-79248000D02*
X49784000Y-79248000D01*
X46736000Y-87376000D02*
X46736000Y-93218000D01*
X46736000Y-93218000D02*
X46863000Y-93345000D01*
X46736000Y-85725000D02*
X46736000Y-87376000D01*
X46736000Y-73152000D02*
X46736000Y-78994000D01*
X46736000Y-78994000D02*
X46863000Y-79121000D01*
X46736000Y-71501000D02*
X46736000Y-73152000D01*
X46736000Y-58928000D02*
X46736000Y-64770000D01*
X46736000Y-64770000D02*
X46863000Y-64897000D01*
X46736000Y-57277000D02*
X46736000Y-58928000D01*
D11*
X68326000Y-38354000D02*
X68338000Y-38354000D01*
D31*
X87388000Y-96508000D02*
X87388000Y-95758000D01*
X87388000Y-96508000D02*
X87122000Y-96774000D01*
D29*
X51054000Y-41656000D02*
X50546000Y-41656000D01*
X50546000Y-41656000D02*
X49530000Y-40640000D01*
X51435000Y-37830760D02*
X50434240Y-37830760D01*
X49530000Y-38735000D02*
X49530000Y-40640000D01*
X50434240Y-37830760D02*
X49530000Y-38735000D01*
X111506000Y-78994000D02*
X105664000Y-78994000D01*
X105664000Y-78994000D02*
X101092000Y-74422000D01*
X83312000Y-65278000D02*
X74676000Y-65278000D01*
X74676000Y-65278000D02*
X51054000Y-41656000D01*
X89154000Y-95097600D02*
X89154000Y-95758000D01*
X89154000Y-95758000D02*
X93472000Y-100076000D01*
X93472000Y-100076000D02*
X93472000Y-100088000D01*
D31*
X81546000Y-91948000D02*
X81546000Y-92190000D01*
X81546000Y-92190000D02*
X81280000Y-92456000D01*
D29*
X84709000Y-90170000D02*
X84709000Y-92075000D01*
X84709000Y-92075000D02*
X87122000Y-94488000D01*
X87122000Y-94488000D02*
X88544400Y-94488000D01*
X88544400Y-94488000D02*
X89154000Y-95097600D01*
X81546000Y-90793000D02*
X82804000Y-89535000D01*
X81546000Y-91948000D02*
X81546000Y-90793000D01*
X84074000Y-89535000D02*
X84709000Y-90170000D01*
X82804000Y-89535000D02*
X84074000Y-89535000D01*
X93472000Y-97536000D02*
X94996000Y-96012000D01*
X93472000Y-100088000D02*
X93472000Y-97536000D01*
D31*
X93472000Y-100076000D02*
X93472000Y-100088000D01*
X88888000Y-95363600D02*
X88888000Y-95758000D01*
X89154000Y-95097600D02*
X88888000Y-95363600D01*
D11*
X69850000Y-38354000D02*
X69838000Y-38354000D01*
D29*
X77724000Y-62738000D02*
X83312000Y-62738000D01*
X49784000Y-99949000D02*
X49784000Y-101600000D01*
X49784000Y-85725000D02*
X49784000Y-87376000D01*
X51816000Y-49530000D02*
X51308000Y-50038000D01*
X51308000Y-50038000D02*
X51308000Y-65024000D01*
X51308000Y-93472000D02*
X51308000Y-107696000D01*
X51308000Y-79248000D02*
X51308000Y-93472000D01*
X51308000Y-65024000D02*
X51308000Y-79248000D01*
X53467000Y-65151000D02*
X53340000Y-65024000D01*
X53340000Y-65024000D02*
X51308000Y-65024000D01*
X53467000Y-79375000D02*
X53340000Y-79248000D01*
X53340000Y-79248000D02*
X51308000Y-79248000D01*
X53467000Y-93599000D02*
X53340000Y-93472000D01*
X53340000Y-93472000D02*
X51308000Y-93472000D01*
X53467000Y-107823000D02*
X53340000Y-107696000D01*
X53340000Y-107696000D02*
X52324000Y-107696000D01*
X52324000Y-107696000D02*
X51308000Y-107696000D01*
X49784000Y-71501000D02*
X49784000Y-73152000D01*
X49784000Y-57277000D02*
X49784000Y-58928000D01*
D31*
X99568000Y-67056000D02*
X99568000Y-84582000D01*
X64008000Y-106680000D02*
X61468000Y-104140000D01*
X70993000Y-106680000D02*
X64008000Y-106680000D01*
X78740000Y-98933000D02*
X70993000Y-106680000D01*
X61468000Y-99060000D02*
X62992000Y-99060000D01*
X82804000Y-97536000D02*
X86614000Y-101346000D01*
X64516000Y-97536000D02*
X82804000Y-97536000D01*
X62992000Y-99060000D02*
X64516000Y-97536000D01*
X61468000Y-96520000D02*
X83312000Y-96520000D01*
X89408000Y-102616000D02*
X83312000Y-96520000D01*
X69596000Y-42418000D02*
X75184000Y-42418000D01*
X98806000Y-32512000D02*
X103632000Y-37338000D01*
X82296000Y-32512000D02*
X98806000Y-32512000D01*
X81026000Y-33782000D02*
X82296000Y-32512000D01*
X81026000Y-36576000D02*
X81026000Y-33782000D01*
X75184000Y-42418000D02*
X81026000Y-36576000D01*
X73472000Y-47498000D02*
X71628000Y-45654000D01*
X83312000Y-47498000D02*
X73472000Y-47498000D01*
X83312000Y-50038000D02*
X81788000Y-48514000D01*
X73152000Y-48514000D02*
X68326000Y-43688000D01*
X81788000Y-48514000D02*
X73152000Y-48514000D01*
X68326000Y-41656000D02*
X68326000Y-43688000D01*
X83820000Y-92964000D02*
X83820000Y-94234000D01*
X83820000Y-94234000D02*
X84582000Y-94996000D01*
X86360000Y-91948000D02*
X94742000Y-91948000D01*
X97536000Y-94742000D02*
X97536000Y-105156000D01*
X94742000Y-91948000D02*
X97536000Y-94742000D01*
D11*
X115824000Y-78232000D02*
X115824000Y-75692000D01*
X117348000Y-79756000D02*
X115824000Y-78232000D01*
X117348000Y-82804000D02*
X117348000Y-79756000D01*
X116840000Y-83312000D02*
X117348000Y-82804000D01*
D31*
X107188000Y-43434000D02*
X107188000Y-55372000D01*
X107188000Y-55372000D02*
X114808000Y-62992000D01*
X114808000Y-62992000D02*
X114808000Y-74676000D01*
X114808000Y-74676000D02*
X115824000Y-75692000D01*
X107188000Y-43434000D02*
X103632000Y-39878000D01*
D11*
X115062000Y-78486000D02*
X115062000Y-76454000D01*
X115316000Y-83312000D02*
X116586000Y-82042000D01*
X116586000Y-82042000D02*
X116586000Y-80010000D01*
X116586000Y-80010000D02*
X115062000Y-78486000D01*
D31*
X106172000Y-44958000D02*
X106172000Y-55880000D01*
X106172000Y-55880000D02*
X113792000Y-63500000D01*
X113792000Y-63500000D02*
X113792000Y-75184000D01*
X113792000Y-75184000D02*
X114808000Y-76200000D01*
X106172000Y-44958000D02*
X103632000Y-42418000D01*
D11*
X115062000Y-76454000D02*
X114808000Y-76200000D01*
D31*
X85090000Y-70358000D02*
X99314000Y-56134000D01*
X99314000Y-56134000D02*
X99314000Y-54356000D01*
X99314000Y-54356000D02*
X103632000Y-50038000D01*
X78232000Y-70358000D02*
X85090000Y-70358000D01*
X103632000Y-52578000D02*
X100330000Y-55880000D01*
X84836000Y-71882000D02*
X78232000Y-71882000D01*
X100330000Y-56388000D02*
X84836000Y-71882000D01*
X100330000Y-55880000D02*
X100330000Y-56388000D01*
X103632000Y-55118000D02*
X112776000Y-64262000D01*
X112776000Y-75946000D02*
X114046000Y-77216000D01*
X112776000Y-64262000D02*
X112776000Y-75946000D01*
X103632000Y-57658000D02*
X111760000Y-65786000D01*
X111760000Y-76454000D02*
X115570000Y-80264000D01*
X111760000Y-65786000D02*
X111760000Y-76454000D01*
X103632000Y-60198000D02*
X97790000Y-60198000D01*
X84582000Y-73406000D02*
X78232000Y-73406000D01*
X97790000Y-60198000D02*
X84582000Y-73406000D01*
X78232000Y-74930000D02*
X84328000Y-74930000D01*
X93980000Y-65278000D02*
X103632000Y-65278000D01*
X84328000Y-74930000D02*
X93980000Y-65278000D01*
X83312000Y-52578000D02*
X76454000Y-52578000D01*
X98552000Y-97028000D02*
X98552000Y-66548000D01*
X112014000Y-36322000D02*
X112014000Y-58674000D01*
X116840000Y-75184000D02*
X116840000Y-76962000D01*
X115824000Y-74168000D02*
X116840000Y-75184000D01*
X115824000Y-62484000D02*
X115824000Y-74168000D01*
X112014000Y-58674000D02*
X115824000Y-62484000D01*
X113284000Y-35052000D02*
X113284000Y-58420000D01*
X118364000Y-75184000D02*
X118364000Y-77978000D01*
X116840000Y-73660000D02*
X118364000Y-75184000D01*
X116840000Y-61976000D02*
X116840000Y-73660000D01*
X113284000Y-58420000D02*
X116840000Y-61976000D01*
D33*
G36*
X142038000Y-125782000D02*
X104775000Y-125782000D01*
X104775000Y-114427000D01*
X107897394Y-114427000D01*
X113448197Y-119977803D01*
X113490211Y-120005666D01*
X113538000Y-120015000D01*
X120089394Y-120015000D01*
X122338197Y-122263803D01*
X122380211Y-122291666D01*
X122428000Y-122301000D01*
X124663966Y-122301000D01*
X125222000Y-122412000D01*
X125780034Y-122301000D01*
X126563039Y-122301000D01*
X126611732Y-122328684D01*
X126871069Y-122361077D01*
X127127411Y-122412000D01*
X127185741Y-122400382D01*
X127244759Y-122407754D01*
X127496747Y-122338438D01*
X127684714Y-122301000D01*
X128016000Y-122301000D01*
X128065410Y-122290994D01*
X128105803Y-122263803D01*
X128783606Y-121586000D01*
X132968546Y-121586000D01*
X133092287Y-122208090D01*
X133444673Y-122735473D01*
X133972056Y-123087859D01*
X134594146Y-123211600D01*
X136677854Y-123211600D01*
X137299944Y-123087859D01*
X137827327Y-122735473D01*
X138179713Y-122208090D01*
X138303454Y-121586000D01*
X138179713Y-120963910D01*
X137827327Y-120436527D01*
X137299944Y-120084141D01*
X136677854Y-119960400D01*
X134594146Y-119960400D01*
X133972056Y-120084141D01*
X133444673Y-120436527D01*
X133092287Y-120963910D01*
X132968546Y-121586000D01*
X128783606Y-121586000D01*
X129375803Y-120993803D01*
X129403666Y-120951789D01*
X129413000Y-120904000D01*
X129413000Y-109394000D01*
X132968546Y-109394000D01*
X133092287Y-110016090D01*
X133444673Y-110543473D01*
X133972056Y-110895859D01*
X134594146Y-111019600D01*
X136677854Y-111019600D01*
X137299944Y-110895859D01*
X137827327Y-110543473D01*
X138179713Y-110016090D01*
X138303454Y-109394000D01*
X138179713Y-108771910D01*
X137827327Y-108244527D01*
X137299944Y-107892141D01*
X136677854Y-107768400D01*
X134594146Y-107768400D01*
X133972056Y-107892141D01*
X133444673Y-108244527D01*
X133092287Y-108771910D01*
X132968546Y-109394000D01*
X129413000Y-109394000D01*
X129413000Y-97202000D01*
X132968546Y-97202000D01*
X133092287Y-97824090D01*
X133444673Y-98351473D01*
X133972056Y-98703859D01*
X134594146Y-98827600D01*
X136677854Y-98827600D01*
X137299944Y-98703859D01*
X137827327Y-98351473D01*
X138179713Y-97824090D01*
X138303454Y-97202000D01*
X138179713Y-96579910D01*
X137827327Y-96052527D01*
X137299944Y-95700141D01*
X136677854Y-95576400D01*
X134594146Y-95576400D01*
X133972056Y-95700141D01*
X133444673Y-96052527D01*
X133092287Y-96579910D01*
X132968546Y-97202000D01*
X129413000Y-97202000D01*
X129413000Y-85010000D01*
X132968546Y-85010000D01*
X133092287Y-85632090D01*
X133444673Y-86159473D01*
X133972056Y-86511859D01*
X134594146Y-86635600D01*
X136677854Y-86635600D01*
X137299944Y-86511859D01*
X137827327Y-86159473D01*
X138179713Y-85632090D01*
X138303454Y-85010000D01*
X138179713Y-84387910D01*
X137827327Y-83860527D01*
X137299944Y-83508141D01*
X136677854Y-83384400D01*
X134594146Y-83384400D01*
X133972056Y-83508141D01*
X133444673Y-83860527D01*
X133092287Y-84387910D01*
X132968546Y-85010000D01*
X129413000Y-85010000D01*
X129413000Y-72818000D01*
X132968546Y-72818000D01*
X133092287Y-73440090D01*
X133444673Y-73967473D01*
X133972056Y-74319859D01*
X134594146Y-74443600D01*
X136677854Y-74443600D01*
X137299944Y-74319859D01*
X137827327Y-73967473D01*
X138179713Y-73440090D01*
X138303454Y-72818000D01*
X138179713Y-72195910D01*
X137827327Y-71668527D01*
X137299944Y-71316141D01*
X136677854Y-71192400D01*
X134594146Y-71192400D01*
X133972056Y-71316141D01*
X133444673Y-71668527D01*
X133092287Y-72195910D01*
X132968546Y-72818000D01*
X129413000Y-72818000D01*
X129413000Y-60626000D01*
X132968546Y-60626000D01*
X133092287Y-61248090D01*
X133444673Y-61775473D01*
X133972056Y-62127859D01*
X134594146Y-62251600D01*
X136677854Y-62251600D01*
X137299944Y-62127859D01*
X137827327Y-61775473D01*
X138179713Y-61248090D01*
X138303454Y-60626000D01*
X138179713Y-60003910D01*
X137827327Y-59476527D01*
X137299944Y-59124141D01*
X136677854Y-59000400D01*
X134594146Y-59000400D01*
X133972056Y-59124141D01*
X133444673Y-59476527D01*
X133092287Y-60003910D01*
X132968546Y-60626000D01*
X129413000Y-60626000D01*
X129413000Y-48434000D01*
X132968546Y-48434000D01*
X133092287Y-49056090D01*
X133444673Y-49583473D01*
X133972056Y-49935859D01*
X134594146Y-50059600D01*
X136677854Y-50059600D01*
X137299944Y-49935859D01*
X137827327Y-49583473D01*
X138179713Y-49056090D01*
X138303454Y-48434000D01*
X138179713Y-47811910D01*
X137827327Y-47284527D01*
X137299944Y-46932141D01*
X136677854Y-46808400D01*
X134594146Y-46808400D01*
X133972056Y-46932141D01*
X133444673Y-47284527D01*
X133092287Y-47811910D01*
X132968546Y-48434000D01*
X129413000Y-48434000D01*
X129413000Y-36242000D01*
X132968546Y-36242000D01*
X133092287Y-36864090D01*
X133444673Y-37391473D01*
X133972056Y-37743859D01*
X134594146Y-37867600D01*
X136677854Y-37867600D01*
X137299944Y-37743859D01*
X137827327Y-37391473D01*
X138179713Y-36864090D01*
X138303454Y-36242000D01*
X138179713Y-35619910D01*
X137827327Y-35092527D01*
X137299944Y-34740141D01*
X136677854Y-34616400D01*
X134594146Y-34616400D01*
X133972056Y-34740141D01*
X133444673Y-35092527D01*
X133092287Y-35619910D01*
X132968546Y-36242000D01*
X129413000Y-36242000D01*
X129413000Y-28142000D01*
X142038000Y-28142000D01*
X142038000Y-125782000D01*
X142038000Y-125782000D01*
G37*
X142038000Y-125782000D02*
X104775000Y-125782000D01*
X104775000Y-114427000D01*
X107897394Y-114427000D01*
X113448197Y-119977803D01*
X113490211Y-120005666D01*
X113538000Y-120015000D01*
X120089394Y-120015000D01*
X122338197Y-122263803D01*
X122380211Y-122291666D01*
X122428000Y-122301000D01*
X124663966Y-122301000D01*
X125222000Y-122412000D01*
X125780034Y-122301000D01*
X126563039Y-122301000D01*
X126611732Y-122328684D01*
X126871069Y-122361077D01*
X127127411Y-122412000D01*
X127185741Y-122400382D01*
X127244759Y-122407754D01*
X127496747Y-122338438D01*
X127684714Y-122301000D01*
X128016000Y-122301000D01*
X128065410Y-122290994D01*
X128105803Y-122263803D01*
X128783606Y-121586000D01*
X132968546Y-121586000D01*
X133092287Y-122208090D01*
X133444673Y-122735473D01*
X133972056Y-123087859D01*
X134594146Y-123211600D01*
X136677854Y-123211600D01*
X137299944Y-123087859D01*
X137827327Y-122735473D01*
X138179713Y-122208090D01*
X138303454Y-121586000D01*
X138179713Y-120963910D01*
X137827327Y-120436527D01*
X137299944Y-120084141D01*
X136677854Y-119960400D01*
X134594146Y-119960400D01*
X133972056Y-120084141D01*
X133444673Y-120436527D01*
X133092287Y-120963910D01*
X132968546Y-121586000D01*
X128783606Y-121586000D01*
X129375803Y-120993803D01*
X129403666Y-120951789D01*
X129413000Y-120904000D01*
X129413000Y-109394000D01*
X132968546Y-109394000D01*
X133092287Y-110016090D01*
X133444673Y-110543473D01*
X133972056Y-110895859D01*
X134594146Y-111019600D01*
X136677854Y-111019600D01*
X137299944Y-110895859D01*
X137827327Y-110543473D01*
X138179713Y-110016090D01*
X138303454Y-109394000D01*
X138179713Y-108771910D01*
X137827327Y-108244527D01*
X137299944Y-107892141D01*
X136677854Y-107768400D01*
X134594146Y-107768400D01*
X133972056Y-107892141D01*
X133444673Y-108244527D01*
X133092287Y-108771910D01*
X132968546Y-109394000D01*
X129413000Y-109394000D01*
X129413000Y-97202000D01*
X132968546Y-97202000D01*
X133092287Y-97824090D01*
X133444673Y-98351473D01*
X133972056Y-98703859D01*
X134594146Y-98827600D01*
X136677854Y-98827600D01*
X137299944Y-98703859D01*
X137827327Y-98351473D01*
X138179713Y-97824090D01*
X138303454Y-97202000D01*
X138179713Y-96579910D01*
X137827327Y-96052527D01*
X137299944Y-95700141D01*
X136677854Y-95576400D01*
X134594146Y-95576400D01*
X133972056Y-95700141D01*
X133444673Y-96052527D01*
X133092287Y-96579910D01*
X132968546Y-97202000D01*
X129413000Y-97202000D01*
X129413000Y-85010000D01*
X132968546Y-85010000D01*
X133092287Y-85632090D01*
X133444673Y-86159473D01*
X133972056Y-86511859D01*
X134594146Y-86635600D01*
X136677854Y-86635600D01*
X137299944Y-86511859D01*
X137827327Y-86159473D01*
X138179713Y-85632090D01*
X138303454Y-85010000D01*
X138179713Y-84387910D01*
X137827327Y-83860527D01*
X137299944Y-83508141D01*
X136677854Y-83384400D01*
X134594146Y-83384400D01*
X133972056Y-83508141D01*
X133444673Y-83860527D01*
X133092287Y-84387910D01*
X132968546Y-85010000D01*
X129413000Y-85010000D01*
X129413000Y-72818000D01*
X132968546Y-72818000D01*
X133092287Y-73440090D01*
X133444673Y-73967473D01*
X133972056Y-74319859D01*
X134594146Y-74443600D01*
X136677854Y-74443600D01*
X137299944Y-74319859D01*
X137827327Y-73967473D01*
X138179713Y-73440090D01*
X138303454Y-72818000D01*
X138179713Y-72195910D01*
X137827327Y-71668527D01*
X137299944Y-71316141D01*
X136677854Y-71192400D01*
X134594146Y-71192400D01*
X133972056Y-71316141D01*
X133444673Y-71668527D01*
X133092287Y-72195910D01*
X132968546Y-72818000D01*
X129413000Y-72818000D01*
X129413000Y-60626000D01*
X132968546Y-60626000D01*
X133092287Y-61248090D01*
X133444673Y-61775473D01*
X133972056Y-62127859D01*
X134594146Y-62251600D01*
X136677854Y-62251600D01*
X137299944Y-62127859D01*
X137827327Y-61775473D01*
X138179713Y-61248090D01*
X138303454Y-60626000D01*
X138179713Y-60003910D01*
X137827327Y-59476527D01*
X137299944Y-59124141D01*
X136677854Y-59000400D01*
X134594146Y-59000400D01*
X133972056Y-59124141D01*
X133444673Y-59476527D01*
X133092287Y-60003910D01*
X132968546Y-60626000D01*
X129413000Y-60626000D01*
X129413000Y-48434000D01*
X132968546Y-48434000D01*
X133092287Y-49056090D01*
X133444673Y-49583473D01*
X133972056Y-49935859D01*
X134594146Y-50059600D01*
X136677854Y-50059600D01*
X137299944Y-49935859D01*
X137827327Y-49583473D01*
X138179713Y-49056090D01*
X138303454Y-48434000D01*
X138179713Y-47811910D01*
X137827327Y-47284527D01*
X137299944Y-46932141D01*
X136677854Y-46808400D01*
X134594146Y-46808400D01*
X133972056Y-46932141D01*
X133444673Y-47284527D01*
X133092287Y-47811910D01*
X132968546Y-48434000D01*
X129413000Y-48434000D01*
X129413000Y-36242000D01*
X132968546Y-36242000D01*
X133092287Y-36864090D01*
X133444673Y-37391473D01*
X133972056Y-37743859D01*
X134594146Y-37867600D01*
X136677854Y-37867600D01*
X137299944Y-37743859D01*
X137827327Y-37391473D01*
X138179713Y-36864090D01*
X138303454Y-36242000D01*
X138179713Y-35619910D01*
X137827327Y-35092527D01*
X137299944Y-34740141D01*
X136677854Y-34616400D01*
X134594146Y-34616400D01*
X133972056Y-34740141D01*
X133444673Y-35092527D01*
X133092287Y-35619910D01*
X132968546Y-36242000D01*
X129413000Y-36242000D01*
X129413000Y-28142000D01*
X142038000Y-28142000D01*
X142038000Y-125782000D01*
G36*
X118237000Y-49727016D02*
X117775381Y-49726613D01*
X116953628Y-50066155D01*
X116324364Y-50694321D01*
X115983389Y-51515481D01*
X115982613Y-52404619D01*
X116322155Y-53226372D01*
X116950321Y-53855636D01*
X117771481Y-54196611D01*
X118237000Y-54197017D01*
X118237000Y-73799764D01*
X117729000Y-73291764D01*
X117729000Y-61976000D01*
X117661329Y-61635794D01*
X117468618Y-61347382D01*
X114173000Y-58051764D01*
X114173000Y-35697634D01*
X114203282Y-35667405D01*
X114368811Y-35268767D01*
X114369188Y-34837127D01*
X114204354Y-34438200D01*
X113899405Y-34132718D01*
X113500767Y-33967189D01*
X113069127Y-33966812D01*
X112670200Y-34131646D01*
X112364718Y-34436595D01*
X112199189Y-34835233D01*
X112198838Y-35237161D01*
X111799127Y-35236812D01*
X111400200Y-35401646D01*
X111094718Y-35706595D01*
X110929189Y-36105233D01*
X110928812Y-36536873D01*
X111093646Y-36935800D01*
X111125000Y-36967209D01*
X111125000Y-58051764D01*
X108077000Y-55003764D01*
X108077000Y-43434000D01*
X108009329Y-43093794D01*
X107816618Y-42805382D01*
X105328311Y-40317075D01*
X105366699Y-40224627D01*
X105367301Y-39534401D01*
X105103719Y-38896485D01*
X104815662Y-38607925D01*
X105102004Y-38322082D01*
X105366699Y-37684627D01*
X105367301Y-36994401D01*
X105103719Y-36356485D01*
X104815662Y-36067925D01*
X105102004Y-35782082D01*
X105366699Y-35144627D01*
X105367301Y-34454401D01*
X105103719Y-33816485D01*
X104616082Y-33327996D01*
X103978627Y-33063301D01*
X103288401Y-33062699D01*
X102650485Y-33326281D01*
X102161996Y-33813918D01*
X101928199Y-34376963D01*
X99434618Y-31883382D01*
X99381671Y-31848004D01*
X99146206Y-31690671D01*
X98806000Y-31623000D01*
X84430630Y-31623000D01*
X84692004Y-31362082D01*
X84956699Y-30724627D01*
X84956701Y-30721599D01*
X101986699Y-30721599D01*
X102250281Y-31359515D01*
X102737918Y-31848004D01*
X103375373Y-32112699D01*
X104065599Y-32113301D01*
X104703515Y-31849719D01*
X105192004Y-31362082D01*
X105456699Y-30724627D01*
X105457301Y-30034401D01*
X105193719Y-29396485D01*
X104706082Y-28907996D01*
X104068627Y-28643301D01*
X103378401Y-28642699D01*
X102740485Y-28906281D01*
X102251996Y-29393918D01*
X101987301Y-30031373D01*
X101986699Y-30721599D01*
X84956701Y-30721599D01*
X84957301Y-30034401D01*
X84693719Y-29396485D01*
X84206082Y-28907996D01*
X83568627Y-28643301D01*
X82878401Y-28642699D01*
X82240485Y-28906281D01*
X81751996Y-29393918D01*
X81487301Y-30031373D01*
X81486699Y-30721599D01*
X81750281Y-31359515D01*
X82060140Y-31669915D01*
X81955794Y-31690671D01*
X81720329Y-31848004D01*
X81667382Y-31883382D01*
X80397382Y-33153382D01*
X80204671Y-33441794D01*
X80137000Y-33782000D01*
X80137000Y-36207764D01*
X74815764Y-41529000D01*
X70241634Y-41529000D01*
X70211405Y-41498718D01*
X69812767Y-41333189D01*
X69381127Y-41332812D01*
X69368576Y-41337998D01*
X69246354Y-41042200D01*
X68941405Y-40736718D01*
X68542767Y-40571189D01*
X68111127Y-40570812D01*
X67712200Y-40735646D01*
X67406718Y-41040595D01*
X67241189Y-41439233D01*
X67240812Y-41870873D01*
X67405646Y-42269800D01*
X67437000Y-42301209D01*
X67437000Y-43688000D01*
X67504671Y-44028206D01*
X67587855Y-44152699D01*
X67697382Y-44316618D01*
X72523382Y-49142618D01*
X72811795Y-49335330D01*
X73152000Y-49403000D01*
X81419764Y-49403000D01*
X81615689Y-49598925D01*
X81577301Y-49691373D01*
X81576699Y-50381599D01*
X81840281Y-51019515D01*
X82128338Y-51308075D01*
X81841996Y-51593918D01*
X81802514Y-51689000D01*
X77099634Y-51689000D01*
X77069405Y-51658718D01*
X76670767Y-51493189D01*
X76239127Y-51492812D01*
X75840200Y-51657646D01*
X75534718Y-51962595D01*
X75369189Y-52361233D01*
X75368812Y-52792873D01*
X75533646Y-53191800D01*
X75838595Y-53497282D01*
X76237233Y-53662811D01*
X76668873Y-53663188D01*
X77067800Y-53498354D01*
X77099209Y-53467000D01*
X81802055Y-53467000D01*
X81840281Y-53559515D01*
X82128338Y-53848075D01*
X81841996Y-54133918D01*
X81577301Y-54771373D01*
X81576699Y-55461599D01*
X81840281Y-56099515D01*
X82128338Y-56388075D01*
X81841996Y-56673918D01*
X81577301Y-57311373D01*
X81576699Y-58001599D01*
X81840281Y-58639515D01*
X82327918Y-59128004D01*
X82965373Y-59392699D01*
X83655599Y-59393301D01*
X84293515Y-59129719D01*
X84782004Y-58642082D01*
X85046699Y-58004627D01*
X85047301Y-57314401D01*
X84783719Y-56676485D01*
X84495662Y-56387925D01*
X84782004Y-56102082D01*
X85046699Y-55464627D01*
X85047301Y-54774401D01*
X84783719Y-54136485D01*
X84495662Y-53847925D01*
X84782004Y-53562082D01*
X85046699Y-52924627D01*
X85047301Y-52234401D01*
X84783719Y-51596485D01*
X84495662Y-51307925D01*
X84782004Y-51022082D01*
X85046699Y-50384627D01*
X85047301Y-49694401D01*
X84783719Y-49056485D01*
X84495662Y-48767925D01*
X84782004Y-48482082D01*
X85046699Y-47844627D01*
X85047301Y-47154401D01*
X84783719Y-46516485D01*
X84495662Y-46227925D01*
X84782004Y-45942082D01*
X85046699Y-45304627D01*
X85047301Y-44614401D01*
X84783719Y-43976485D01*
X84495662Y-43687925D01*
X84782004Y-43402082D01*
X85046699Y-42764627D01*
X85047301Y-42074401D01*
X84783719Y-41436485D01*
X84495662Y-41147925D01*
X84782004Y-40862082D01*
X85046699Y-40224627D01*
X85047301Y-39534401D01*
X84783719Y-38896485D01*
X84495662Y-38607925D01*
X84782004Y-38322082D01*
X85046699Y-37684627D01*
X85047301Y-36994401D01*
X84783719Y-36356485D01*
X84495662Y-36067925D01*
X84782004Y-35782082D01*
X85046699Y-35144627D01*
X85047301Y-34454401D01*
X84783719Y-33816485D01*
X84368959Y-33401000D01*
X98437764Y-33401000D01*
X101935689Y-36898925D01*
X101897301Y-36991373D01*
X101896699Y-37681599D01*
X102160281Y-38319515D01*
X102448338Y-38608075D01*
X102161996Y-38893918D01*
X101897301Y-39531373D01*
X101896699Y-40221599D01*
X102160281Y-40859515D01*
X102448338Y-41148075D01*
X102161996Y-41433918D01*
X101897301Y-42071373D01*
X101896699Y-42761599D01*
X102160281Y-43399515D01*
X102448338Y-43688075D01*
X102161996Y-43973918D01*
X101897301Y-44611373D01*
X101896699Y-45301599D01*
X102160281Y-45939515D01*
X102448338Y-46228075D01*
X102161996Y-46513918D01*
X101897301Y-47151373D01*
X101896699Y-47841599D01*
X102160281Y-48479515D01*
X102448338Y-48768075D01*
X102161996Y-49053918D01*
X101897301Y-49691373D01*
X101896699Y-50381599D01*
X101936014Y-50476750D01*
X98685382Y-53727382D01*
X98492671Y-54015794D01*
X98425000Y-54356000D01*
X98425000Y-55765764D01*
X84721764Y-69469000D01*
X83859623Y-69469000D01*
X84293515Y-69289719D01*
X84782004Y-68802082D01*
X85046699Y-68164627D01*
X85047301Y-67474401D01*
X84783719Y-66836485D01*
X84495662Y-66547925D01*
X84782004Y-66262082D01*
X85046699Y-65624627D01*
X85047301Y-64934401D01*
X84783719Y-64296485D01*
X84495662Y-64007925D01*
X84782004Y-63722082D01*
X85046699Y-63084627D01*
X85047301Y-62394401D01*
X84783719Y-61756485D01*
X84296082Y-61267996D01*
X83658627Y-61003301D01*
X82968401Y-61002699D01*
X82330485Y-61266281D01*
X82005199Y-61591000D01*
X78182144Y-61591000D01*
X77970734Y-61503215D01*
X77479421Y-61502786D01*
X77025343Y-61690408D01*
X76677629Y-62037515D01*
X76489215Y-62491266D01*
X76488786Y-62982579D01*
X76676408Y-63436657D01*
X77023515Y-63784371D01*
X77477266Y-63972785D01*
X77968579Y-63973214D01*
X78182072Y-63885000D01*
X82005477Y-63885000D01*
X82128338Y-64008075D01*
X82005199Y-64131000D01*
X75151103Y-64131000D01*
X63424722Y-52404619D01*
X65982613Y-52404619D01*
X66322155Y-53226372D01*
X66950321Y-53855636D01*
X67771481Y-54196611D01*
X68660619Y-54197387D01*
X69482372Y-53857845D01*
X70111636Y-53229679D01*
X70452611Y-52408519D01*
X70453387Y-51519381D01*
X70113845Y-50697628D01*
X69485679Y-50068364D01*
X68664519Y-49727389D01*
X67775381Y-49726613D01*
X66953628Y-50066155D01*
X66324364Y-50694321D01*
X65983389Y-51515481D01*
X65982613Y-52404619D01*
X63424722Y-52404619D01*
X51865051Y-40844949D01*
X51492938Y-40596310D01*
X51054000Y-40509000D01*
X51021102Y-40509000D01*
X50677000Y-40164898D01*
X50677000Y-39210102D01*
X50877287Y-39009816D01*
X51155724Y-39065200D01*
X51714276Y-39065200D01*
X52186676Y-38971234D01*
X52587157Y-38703641D01*
X52657357Y-38598579D01*
X68614786Y-38598579D01*
X68802408Y-39052657D01*
X69149515Y-39400371D01*
X69603266Y-39588785D01*
X70094579Y-39589214D01*
X70548657Y-39401592D01*
X70896371Y-39054485D01*
X71084785Y-38600734D01*
X71085214Y-38109421D01*
X70897592Y-37655343D01*
X70550485Y-37307629D01*
X70096734Y-37119215D01*
X69605421Y-37118786D01*
X69151343Y-37306408D01*
X68803629Y-37653515D01*
X68615215Y-38107266D01*
X68614786Y-38598579D01*
X52657357Y-38598579D01*
X52854750Y-38303160D01*
X52948716Y-37830760D01*
X52854750Y-37358360D01*
X52587157Y-36957879D01*
X52395773Y-36830000D01*
X52587157Y-36702121D01*
X52854750Y-36301640D01*
X52937864Y-35883795D01*
X72572716Y-35883795D01*
X72821106Y-36484943D01*
X73280637Y-36945278D01*
X73881352Y-37194716D01*
X74531795Y-37195284D01*
X75132943Y-36946894D01*
X75593278Y-36487363D01*
X75842716Y-35886648D01*
X75843284Y-35236205D01*
X75594894Y-34635057D01*
X75135363Y-34174722D01*
X74534648Y-33925284D01*
X73884205Y-33924716D01*
X73283057Y-34173106D01*
X72822722Y-34632637D01*
X72573284Y-35233352D01*
X72572716Y-35883795D01*
X52937864Y-35883795D01*
X52948716Y-35829240D01*
X52854750Y-35356840D01*
X52587157Y-34956359D01*
X52397673Y-34829750D01*
X52587157Y-34703141D01*
X52854750Y-34302660D01*
X52948716Y-33830260D01*
X52854750Y-33357860D01*
X52587157Y-32957379D01*
X52186676Y-32689786D01*
X51714276Y-32595820D01*
X51155724Y-32595820D01*
X50683324Y-32689786D01*
X50282843Y-32957379D01*
X50015250Y-33357860D01*
X49921284Y-33830260D01*
X50015250Y-34302660D01*
X50282843Y-34703141D01*
X50472327Y-34829750D01*
X50282843Y-34956359D01*
X50015250Y-35356840D01*
X49921284Y-35829240D01*
X50015250Y-36301640D01*
X50282843Y-36702121D01*
X50296398Y-36711178D01*
X49995302Y-36771070D01*
X49623188Y-37019709D01*
X48718949Y-37923949D01*
X48470310Y-38296062D01*
X48383000Y-38735000D01*
X48383000Y-40640000D01*
X48427175Y-40862082D01*
X48470310Y-41078938D01*
X48718949Y-41451051D01*
X49734949Y-42467051D01*
X50107062Y-42715690D01*
X50546000Y-42803000D01*
X50578898Y-42803000D01*
X73864949Y-66089052D01*
X74177660Y-66297999D01*
X74237062Y-66337690D01*
X74676000Y-66425000D01*
X82005477Y-66425000D01*
X82128338Y-66548075D01*
X81841996Y-66833918D01*
X81577301Y-67471373D01*
X81576699Y-68161599D01*
X81840281Y-68799515D01*
X82327918Y-69288004D01*
X82763804Y-69469000D01*
X79089581Y-69469000D01*
X78932485Y-69311629D01*
X78478734Y-69123215D01*
X77987421Y-69122786D01*
X77533343Y-69310408D01*
X77185629Y-69657515D01*
X76997215Y-70111266D01*
X76996786Y-70602579D01*
X77184408Y-71056657D01*
X77247446Y-71119806D01*
X77185629Y-71181515D01*
X76997215Y-71635266D01*
X76996786Y-72126579D01*
X77184408Y-72580657D01*
X77247446Y-72643806D01*
X77185629Y-72705515D01*
X76997215Y-73159266D01*
X76996786Y-73650579D01*
X77184408Y-74104657D01*
X77247446Y-74167806D01*
X77185629Y-74229515D01*
X76997215Y-74683266D01*
X76996786Y-75174579D01*
X77184408Y-75628657D01*
X77531515Y-75976371D01*
X77985266Y-76164785D01*
X78476579Y-76165214D01*
X78930657Y-75977592D01*
X79089526Y-75819000D01*
X84328000Y-75819000D01*
X84668206Y-75751329D01*
X84956618Y-75558618D01*
X94348236Y-66167000D01*
X97535385Y-66167000D01*
X97467189Y-66331233D01*
X97466812Y-66762873D01*
X97631646Y-67161800D01*
X97663000Y-67193209D01*
X97663000Y-93611764D01*
X95370618Y-91319382D01*
X95343107Y-91301000D01*
X95082206Y-91126671D01*
X94742000Y-91059000D01*
X87005634Y-91059000D01*
X86975405Y-91028718D01*
X86576767Y-90863189D01*
X86145127Y-90862812D01*
X85856000Y-90982277D01*
X85856000Y-90628144D01*
X85943785Y-90416734D01*
X85944214Y-89925421D01*
X85756592Y-89471343D01*
X85409485Y-89123629D01*
X85196145Y-89035042D01*
X84885051Y-88723949D01*
X84612267Y-88541680D01*
X84692004Y-88462082D01*
X84956699Y-87824627D01*
X84957301Y-87134401D01*
X84693719Y-86496485D01*
X84206082Y-86007996D01*
X83568627Y-85743301D01*
X82878401Y-85742699D01*
X82240485Y-86006281D01*
X81751996Y-86493918D01*
X81487301Y-87131373D01*
X81486699Y-87821599D01*
X81750281Y-88459515D01*
X82005729Y-88715409D01*
X81992949Y-88723948D01*
X80734949Y-89981949D01*
X80486310Y-90354062D01*
X80399000Y-90793000D01*
X80399000Y-91802380D01*
X80360718Y-91840595D01*
X80195189Y-92239233D01*
X80194812Y-92670873D01*
X80359646Y-93069800D01*
X80664595Y-93375282D01*
X81063233Y-93540811D01*
X81494873Y-93541188D01*
X81893800Y-93376354D01*
X82199282Y-93071405D01*
X82288133Y-92857428D01*
X82397441Y-92787090D01*
X82542431Y-92574890D01*
X82569535Y-92441048D01*
X82605690Y-92386938D01*
X82693000Y-91948000D01*
X82693000Y-91268102D01*
X83279103Y-90682000D01*
X83562000Y-90682000D01*
X83562000Y-91896632D01*
X83206200Y-92043646D01*
X82900718Y-92348595D01*
X82735189Y-92747233D01*
X82734812Y-93178873D01*
X82899646Y-93577800D01*
X82931000Y-93609209D01*
X82931000Y-94234000D01*
X82998671Y-94574206D01*
X83140568Y-94786569D01*
X83191382Y-94862618D01*
X83496849Y-95168085D01*
X83496812Y-95210873D01*
X83661646Y-95609800D01*
X83966595Y-95915282D01*
X84365233Y-96080811D01*
X84796873Y-96081188D01*
X85195800Y-95916354D01*
X85501282Y-95611405D01*
X85666811Y-95212767D01*
X85667188Y-94781127D01*
X85578582Y-94566684D01*
X86310948Y-95299051D01*
X86518608Y-95437805D01*
X86683062Y-95547690D01*
X87122000Y-95635000D01*
X87840560Y-95635000D01*
X87840560Y-96133000D01*
X87884838Y-96368317D01*
X88023910Y-96584441D01*
X88236110Y-96729431D01*
X88488000Y-96780440D01*
X88554338Y-96780440D01*
X92336992Y-100563095D01*
X92424408Y-100774657D01*
X92771515Y-101122371D01*
X93225266Y-101310785D01*
X93716579Y-101311214D01*
X94170657Y-101123592D01*
X94518371Y-100776485D01*
X94706785Y-100322734D01*
X94707214Y-99831421D01*
X94619000Y-99617928D01*
X94619000Y-98011102D01*
X95483095Y-97147008D01*
X95694657Y-97059592D01*
X96042371Y-96712485D01*
X96230785Y-96258734D01*
X96231214Y-95767421D01*
X96043592Y-95313343D01*
X95696485Y-94965629D01*
X95242734Y-94777215D01*
X94751421Y-94776786D01*
X94297343Y-94964408D01*
X93949629Y-95311515D01*
X93861043Y-95524855D01*
X92660949Y-96724949D01*
X92412310Y-97097062D01*
X92363010Y-97344908D01*
X90301000Y-95282898D01*
X90301000Y-95097600D01*
X90213690Y-94658662D01*
X90157258Y-94574206D01*
X89965052Y-94286549D01*
X89355451Y-93676949D01*
X88983338Y-93428310D01*
X88544400Y-93341000D01*
X87597103Y-93341000D01*
X87093103Y-92837000D01*
X94373764Y-92837000D01*
X96647000Y-95110236D01*
X96647000Y-104510366D01*
X96616718Y-104540595D01*
X96451189Y-104939233D01*
X96450812Y-105370873D01*
X96615646Y-105769800D01*
X96920595Y-106075282D01*
X97319233Y-106240811D01*
X97750873Y-106241188D01*
X98149800Y-106076354D01*
X98455282Y-105771405D01*
X98620811Y-105372767D01*
X98621188Y-104941127D01*
X98456354Y-104542200D01*
X98425000Y-104510791D01*
X98425000Y-98112889D01*
X98766873Y-98113188D01*
X99165800Y-97948354D01*
X99471282Y-97643405D01*
X99636811Y-97244767D01*
X99637188Y-96813127D01*
X99472354Y-96414200D01*
X99441000Y-96382791D01*
X99441000Y-93980000D01*
X107536655Y-93980000D01*
X107650729Y-94553489D01*
X107975585Y-95039670D01*
X108290366Y-95250000D01*
X107975585Y-95460330D01*
X107650729Y-95946511D01*
X107536655Y-96520000D01*
X107650729Y-97093489D01*
X107975585Y-97579670D01*
X108290366Y-97790000D01*
X107975585Y-98000330D01*
X107650729Y-98486511D01*
X107536655Y-99060000D01*
X107650729Y-99633489D01*
X107975585Y-100119670D01*
X108290366Y-100330000D01*
X107975585Y-100540330D01*
X107650729Y-101026511D01*
X107536655Y-101600000D01*
X107650729Y-102173489D01*
X107975585Y-102659670D01*
X108290366Y-102870000D01*
X107975585Y-103080330D01*
X107650729Y-103566511D01*
X107536655Y-104140000D01*
X107650729Y-104713489D01*
X107975585Y-105199670D01*
X108290366Y-105410000D01*
X107975585Y-105620330D01*
X107650729Y-106106511D01*
X107536655Y-106680000D01*
X107650729Y-107253489D01*
X107975585Y-107739670D01*
X108461766Y-108064526D01*
X109035255Y-108178600D01*
X109404745Y-108178600D01*
X109978234Y-108064526D01*
X110464415Y-107739670D01*
X110789271Y-107253489D01*
X110903345Y-106680000D01*
X110789271Y-106106511D01*
X110464415Y-105620330D01*
X110149634Y-105410000D01*
X110464415Y-105199670D01*
X110789271Y-104713489D01*
X110903345Y-104140000D01*
X110789271Y-103566511D01*
X110464415Y-103080330D01*
X110149634Y-102870000D01*
X110464415Y-102659670D01*
X110789271Y-102173489D01*
X110903345Y-101600000D01*
X110789271Y-101026511D01*
X110464415Y-100540330D01*
X110149634Y-100330000D01*
X110464415Y-100119670D01*
X110789271Y-99633489D01*
X110903345Y-99060000D01*
X110789271Y-98486511D01*
X110464415Y-98000330D01*
X110149634Y-97790000D01*
X110464415Y-97579670D01*
X110789271Y-97093489D01*
X110903345Y-96520000D01*
X110789271Y-95946511D01*
X110464415Y-95460330D01*
X110149634Y-95250000D01*
X110464415Y-95039670D01*
X110789271Y-94553489D01*
X110903345Y-93980000D01*
X110789271Y-93406511D01*
X110464415Y-92920330D01*
X109978234Y-92595474D01*
X109404745Y-92481400D01*
X109035255Y-92481400D01*
X108461766Y-92595474D01*
X107975585Y-92920330D01*
X107650729Y-93406511D01*
X107536655Y-93980000D01*
X99441000Y-93980000D01*
X99441000Y-87821599D01*
X101986699Y-87821599D01*
X102250281Y-88459515D01*
X102737918Y-88948004D01*
X103375373Y-89212699D01*
X104065599Y-89213301D01*
X104703515Y-88949719D01*
X105192004Y-88462082D01*
X105456699Y-87824627D01*
X105457301Y-87134401D01*
X105193719Y-86496485D01*
X104706082Y-86007996D01*
X104068627Y-85743301D01*
X103378401Y-85742699D01*
X102740485Y-86006281D01*
X102251996Y-86493918D01*
X101987301Y-87131373D01*
X101986699Y-87821599D01*
X99441000Y-87821599D01*
X99441000Y-85666889D01*
X99782873Y-85667188D01*
X100181800Y-85502354D01*
X100487282Y-85197405D01*
X100652811Y-84798767D01*
X100653188Y-84367127D01*
X100488354Y-83968200D01*
X100457000Y-83936791D01*
X100457000Y-75495563D01*
X100604856Y-75556958D01*
X104852948Y-79805051D01*
X105205129Y-80040371D01*
X105225062Y-80053690D01*
X105664000Y-80141000D01*
X111047856Y-80141000D01*
X111259266Y-80228785D01*
X111750579Y-80229214D01*
X112204657Y-80041592D01*
X112552371Y-79694485D01*
X112740785Y-79240734D01*
X112741214Y-78749421D01*
X112701099Y-78652335D01*
X114484849Y-80436085D01*
X114484812Y-80478873D01*
X114649646Y-80877800D01*
X114954595Y-81183282D01*
X115353233Y-81348811D01*
X115760500Y-81349167D01*
X115760500Y-81700067D01*
X115233639Y-82226928D01*
X115101127Y-82226812D01*
X114702200Y-82391646D01*
X114396718Y-82696595D01*
X114231189Y-83095233D01*
X114230812Y-83526873D01*
X114395646Y-83925800D01*
X114700595Y-84231282D01*
X115099233Y-84396811D01*
X115530873Y-84397188D01*
X115929800Y-84232354D01*
X116077991Y-84084422D01*
X116224595Y-84231282D01*
X116623233Y-84396811D01*
X117054873Y-84397188D01*
X117453800Y-84232354D01*
X117759282Y-83927405D01*
X117924811Y-83528767D01*
X117924928Y-83394505D01*
X117931714Y-83387719D01*
X117931717Y-83387717D01*
X118110663Y-83119905D01*
X118173500Y-82804000D01*
X118173500Y-79756000D01*
X118110663Y-79440095D01*
X117931717Y-79172283D01*
X117931714Y-79172281D01*
X116806405Y-78046971D01*
X117054873Y-78047188D01*
X117279020Y-77954572D01*
X117278812Y-78192873D01*
X117443646Y-78591800D01*
X117748595Y-78897282D01*
X118147233Y-79062811D01*
X118237000Y-79062889D01*
X118237000Y-86815394D01*
X117041394Y-88011000D01*
X113030000Y-88011000D01*
X112980590Y-88021006D01*
X112940197Y-88048197D01*
X111670197Y-89318197D01*
X111642334Y-89360211D01*
X111633000Y-89408000D01*
X111633000Y-109347000D01*
X96012000Y-109347000D01*
X95962590Y-109357006D01*
X95920965Y-109385447D01*
X95893685Y-109427841D01*
X95885000Y-109474000D01*
X95885000Y-110744000D01*
X95895006Y-110793410D01*
X95923447Y-110835035D01*
X95965841Y-110862315D01*
X96012000Y-110871000D01*
X112268000Y-110871000D01*
X112317410Y-110860994D01*
X112357803Y-110833803D01*
X112865803Y-110325803D01*
X112893666Y-110283789D01*
X112903000Y-110236000D01*
X112903000Y-102404619D01*
X115982613Y-102404619D01*
X116322155Y-103226372D01*
X116950321Y-103855636D01*
X117771481Y-104196611D01*
X118660619Y-104197387D01*
X119482372Y-103857845D01*
X120111636Y-103229679D01*
X120452611Y-102408519D01*
X120453387Y-101519381D01*
X120113845Y-100697628D01*
X119485679Y-100068364D01*
X118664519Y-99727389D01*
X117775381Y-99726613D01*
X116953628Y-100066155D01*
X116324364Y-100694321D01*
X115983389Y-101515481D01*
X115982613Y-102404619D01*
X112903000Y-102404619D01*
X112903000Y-89714606D01*
X113336606Y-89281000D01*
X117602000Y-89281000D01*
X117651410Y-89270994D01*
X117691803Y-89243803D01*
X118961803Y-87973803D01*
X118989666Y-87931789D01*
X118999000Y-87884000D01*
X118999000Y-85979000D01*
X119634000Y-85979000D01*
X119683410Y-85968994D01*
X119725035Y-85940553D01*
X119752315Y-85898159D01*
X119761000Y-85852000D01*
X119761000Y-83820000D01*
X119750994Y-83770590D01*
X119722553Y-83728965D01*
X119680159Y-83701685D01*
X119634000Y-83693000D01*
X118999000Y-83693000D01*
X118999000Y-78877191D01*
X119283282Y-78593405D01*
X119448811Y-78194767D01*
X119449188Y-77763127D01*
X119284354Y-77364200D01*
X119253000Y-77332791D01*
X119253000Y-75184000D01*
X119185329Y-74843794D01*
X118999000Y-74564933D01*
X118999000Y-54057571D01*
X119482372Y-53857845D01*
X120111636Y-53229679D01*
X120452611Y-52408519D01*
X120453387Y-51519381D01*
X120113845Y-50697628D01*
X119485679Y-50068364D01*
X118999000Y-49866277D01*
X118999000Y-28142000D01*
X128651000Y-28142000D01*
X128651000Y-120343394D01*
X127455394Y-121539000D01*
X123496606Y-121539000D01*
X120739803Y-118782197D01*
X120697789Y-118754334D01*
X120650000Y-118745000D01*
X114352606Y-118745000D01*
X108547803Y-112940197D01*
X108505789Y-112912334D01*
X108458000Y-112903000D01*
X103632000Y-112903000D01*
X103582590Y-112913006D01*
X103540965Y-112941447D01*
X103513685Y-112983841D01*
X103505000Y-113030000D01*
X103505000Y-125782000D01*
X44398000Y-125782000D01*
X44398000Y-120963501D01*
X97154691Y-120963501D01*
X97425868Y-121619800D01*
X97927559Y-122122367D01*
X98583384Y-122394689D01*
X99293501Y-122395309D01*
X99949800Y-122124132D01*
X100452367Y-121622441D01*
X100724689Y-120966616D01*
X100725309Y-120256499D01*
X100454132Y-119600200D01*
X99952441Y-119097633D01*
X99296616Y-118825311D01*
X98586499Y-118824691D01*
X97930200Y-119095868D01*
X97427633Y-119597559D01*
X97155311Y-120253384D01*
X97154691Y-120963501D01*
X44398000Y-120963501D01*
X44398000Y-115963501D01*
X97154691Y-115963501D01*
X97425868Y-116619800D01*
X97927559Y-117122367D01*
X98583384Y-117394689D01*
X99293501Y-117395309D01*
X99949800Y-117124132D01*
X100452367Y-116622441D01*
X100724689Y-115966616D01*
X100725309Y-115256499D01*
X100454132Y-114600200D01*
X99952441Y-114097633D01*
X99296616Y-113825311D01*
X98586499Y-113824691D01*
X97930200Y-114095868D01*
X97427633Y-114597559D01*
X97155311Y-115253384D01*
X97154691Y-115963501D01*
X44398000Y-115963501D01*
X44398000Y-56134000D01*
X48501560Y-56134000D01*
X48501560Y-58420000D01*
X48545838Y-58655317D01*
X48554439Y-58668684D01*
X48549215Y-58681266D01*
X48548786Y-59172579D01*
X48736408Y-59626657D01*
X49083515Y-59974371D01*
X49537266Y-60162785D01*
X50028579Y-60163214D01*
X50161000Y-60108499D01*
X50161000Y-64565856D01*
X50073215Y-64777266D01*
X50072786Y-65268579D01*
X50161000Y-65482072D01*
X50161000Y-69710560D01*
X49149000Y-69710560D01*
X48913683Y-69754838D01*
X48697559Y-69893910D01*
X48552569Y-70106110D01*
X48501560Y-70358000D01*
X48501560Y-72644000D01*
X48545838Y-72879317D01*
X48554439Y-72892684D01*
X48549215Y-72905266D01*
X48548786Y-73396579D01*
X48736408Y-73850657D01*
X49083515Y-74198371D01*
X49537266Y-74386785D01*
X50028579Y-74387214D01*
X50161000Y-74332499D01*
X50161000Y-78789856D01*
X50073215Y-79001266D01*
X50072786Y-79492579D01*
X50161000Y-79706072D01*
X50161000Y-83934560D01*
X49149000Y-83934560D01*
X48913683Y-83978838D01*
X48697559Y-84117910D01*
X48552569Y-84330110D01*
X48501560Y-84582000D01*
X48501560Y-86868000D01*
X48545838Y-87103317D01*
X48554439Y-87116684D01*
X48549215Y-87129266D01*
X48548786Y-87620579D01*
X48736408Y-88074657D01*
X49083515Y-88422371D01*
X49537266Y-88610785D01*
X50028579Y-88611214D01*
X50161000Y-88556499D01*
X50161000Y-93013856D01*
X50073215Y-93225266D01*
X50072786Y-93716579D01*
X50161000Y-93930072D01*
X50161000Y-98158560D01*
X49149000Y-98158560D01*
X48913683Y-98202838D01*
X48697559Y-98341910D01*
X48552569Y-98554110D01*
X48501560Y-98806000D01*
X48501560Y-101092000D01*
X48545838Y-101327317D01*
X48554439Y-101340684D01*
X48549215Y-101353266D01*
X48548786Y-101844579D01*
X48736408Y-102298657D01*
X49083515Y-102646371D01*
X49537266Y-102834785D01*
X50028579Y-102835214D01*
X50161000Y-102780499D01*
X50161000Y-107237856D01*
X50073215Y-107449266D01*
X50072786Y-107940579D01*
X50260408Y-108394657D01*
X50607515Y-108742371D01*
X51061266Y-108930785D01*
X51552579Y-108931214D01*
X51766072Y-108843000D01*
X52184560Y-108843000D01*
X52184560Y-108966000D01*
X52228838Y-109201317D01*
X52367910Y-109417441D01*
X52580110Y-109562431D01*
X52832000Y-109613440D01*
X54102000Y-109613440D01*
X54337317Y-109569162D01*
X54483907Y-109474834D01*
X54612110Y-109562431D01*
X54864000Y-109613440D01*
X56134000Y-109613440D01*
X56369317Y-109569162D01*
X56585441Y-109430090D01*
X56730431Y-109217890D01*
X56781440Y-108966000D01*
X56781440Y-105664000D01*
X56737162Y-105428683D01*
X56598090Y-105212559D01*
X56385890Y-105067569D01*
X56134000Y-105016560D01*
X55326515Y-105016560D01*
X55455458Y-104963282D01*
X55813026Y-104606337D01*
X56006779Y-104139727D01*
X56007220Y-103634490D01*
X55814282Y-103167542D01*
X55457337Y-102809974D01*
X54990727Y-102616221D01*
X54485490Y-102615780D01*
X54018542Y-102808718D01*
X53660974Y-103165663D01*
X53467221Y-103632273D01*
X53466780Y-104137510D01*
X53659718Y-104604458D01*
X54016663Y-104962026D01*
X54481977Y-105155241D01*
X54412559Y-105199910D01*
X54267569Y-105412110D01*
X54216560Y-105664000D01*
X54216560Y-106055759D01*
X54102000Y-106032560D01*
X52832000Y-106032560D01*
X52596683Y-106076838D01*
X52455000Y-106168009D01*
X52455000Y-98806000D01*
X53200560Y-98806000D01*
X53200560Y-101092000D01*
X53244838Y-101327317D01*
X53383910Y-101543441D01*
X53596110Y-101688431D01*
X53848000Y-101739440D01*
X55118000Y-101739440D01*
X55353317Y-101695162D01*
X55569441Y-101556090D01*
X55714431Y-101343890D01*
X55765440Y-101092000D01*
X55765440Y-98806000D01*
X55721162Y-98570683D01*
X55582090Y-98354559D01*
X55369890Y-98209569D01*
X55118000Y-98158560D01*
X53848000Y-98158560D01*
X53612683Y-98202838D01*
X53396559Y-98341910D01*
X53251569Y-98554110D01*
X53200560Y-98806000D01*
X52455000Y-98806000D01*
X52455000Y-95252947D01*
X52580110Y-95338431D01*
X52832000Y-95389440D01*
X54102000Y-95389440D01*
X54337317Y-95345162D01*
X54483907Y-95250834D01*
X54612110Y-95338431D01*
X54864000Y-95389440D01*
X56134000Y-95389440D01*
X56369317Y-95345162D01*
X56585441Y-95206090D01*
X56730431Y-94993890D01*
X56781440Y-94742000D01*
X56781440Y-93980000D01*
X59784655Y-93980000D01*
X59898729Y-94553489D01*
X60223585Y-95039670D01*
X60538366Y-95250000D01*
X60223585Y-95460330D01*
X59898729Y-95946511D01*
X59784655Y-96520000D01*
X59898729Y-97093489D01*
X60223585Y-97579670D01*
X60538366Y-97790000D01*
X60223585Y-98000330D01*
X59898729Y-98486511D01*
X59784655Y-99060000D01*
X59898729Y-99633489D01*
X60223585Y-100119670D01*
X60538366Y-100330000D01*
X60223585Y-100540330D01*
X59898729Y-101026511D01*
X59784655Y-101600000D01*
X59898729Y-102173489D01*
X60223585Y-102659670D01*
X60538366Y-102870000D01*
X60223585Y-103080330D01*
X59898729Y-103566511D01*
X59784655Y-104140000D01*
X59898729Y-104713489D01*
X60223585Y-105199670D01*
X60538366Y-105410000D01*
X60223585Y-105620330D01*
X59898729Y-106106511D01*
X59784655Y-106680000D01*
X59898729Y-107253489D01*
X60223585Y-107739670D01*
X60709766Y-108064526D01*
X61283255Y-108178600D01*
X61652745Y-108178600D01*
X62226234Y-108064526D01*
X62712415Y-107739670D01*
X63037271Y-107253489D01*
X63084884Y-107014120D01*
X63379382Y-107308618D01*
X63667794Y-107501329D01*
X64008000Y-107569000D01*
X70993000Y-107569000D01*
X71333206Y-107501329D01*
X71621618Y-107308618D01*
X78912085Y-100018151D01*
X78954873Y-100018188D01*
X79353800Y-99853354D01*
X79659282Y-99548405D01*
X79824811Y-99149767D01*
X79825188Y-98718127D01*
X79704070Y-98425000D01*
X82435764Y-98425000D01*
X85528849Y-101518085D01*
X85528812Y-101560873D01*
X85693646Y-101959800D01*
X85998595Y-102265282D01*
X86397233Y-102430811D01*
X86828873Y-102431188D01*
X87227800Y-102266354D01*
X87514709Y-101979945D01*
X88322849Y-102788085D01*
X88322812Y-102830873D01*
X88487646Y-103229800D01*
X88792595Y-103535282D01*
X89191233Y-103700811D01*
X89622873Y-103701188D01*
X90021800Y-103536354D01*
X90327282Y-103231405D01*
X90492811Y-102832767D01*
X90493188Y-102401127D01*
X90328354Y-102002200D01*
X90023405Y-101696718D01*
X89624767Y-101531189D01*
X89580386Y-101531150D01*
X83940618Y-95891382D01*
X83829790Y-95817329D01*
X83652206Y-95698671D01*
X83312000Y-95631000D01*
X62826453Y-95631000D01*
X62712415Y-95460330D01*
X62397634Y-95250000D01*
X62712415Y-95039670D01*
X63037271Y-94553489D01*
X63151345Y-93980000D01*
X63037271Y-93406511D01*
X62712415Y-92920330D01*
X62226234Y-92595474D01*
X61652745Y-92481400D01*
X61283255Y-92481400D01*
X60709766Y-92595474D01*
X60223585Y-92920330D01*
X59898729Y-93406511D01*
X59784655Y-93980000D01*
X56781440Y-93980000D01*
X56781440Y-91440000D01*
X56737162Y-91204683D01*
X56598090Y-90988559D01*
X56385890Y-90843569D01*
X56134000Y-90792560D01*
X55326515Y-90792560D01*
X55455458Y-90739282D01*
X55813026Y-90382337D01*
X56006779Y-89915727D01*
X56007220Y-89410490D01*
X55814282Y-88943542D01*
X55457337Y-88585974D01*
X54990727Y-88392221D01*
X54485490Y-88391780D01*
X54018542Y-88584718D01*
X53660974Y-88941663D01*
X53467221Y-89408273D01*
X53466780Y-89913510D01*
X53659718Y-90380458D01*
X54016663Y-90738026D01*
X54481977Y-90931241D01*
X54412559Y-90975910D01*
X54267569Y-91188110D01*
X54216560Y-91440000D01*
X54216560Y-91831759D01*
X54102000Y-91808560D01*
X52832000Y-91808560D01*
X52596683Y-91852838D01*
X52455000Y-91944009D01*
X52455000Y-84582000D01*
X53200560Y-84582000D01*
X53200560Y-86868000D01*
X53244838Y-87103317D01*
X53383910Y-87319441D01*
X53596110Y-87464431D01*
X53848000Y-87515440D01*
X55118000Y-87515440D01*
X55353317Y-87471162D01*
X55569441Y-87332090D01*
X55714431Y-87119890D01*
X55765440Y-86868000D01*
X55765440Y-84582000D01*
X55721162Y-84346683D01*
X55582090Y-84130559D01*
X55369890Y-83985569D01*
X55118000Y-83934560D01*
X53848000Y-83934560D01*
X53612683Y-83978838D01*
X53396559Y-84117910D01*
X53251569Y-84330110D01*
X53200560Y-84582000D01*
X52455000Y-84582000D01*
X52455000Y-81028947D01*
X52580110Y-81114431D01*
X52832000Y-81165440D01*
X54102000Y-81165440D01*
X54337317Y-81121162D01*
X54483907Y-81026834D01*
X54612110Y-81114431D01*
X54864000Y-81165440D01*
X56134000Y-81165440D01*
X56369317Y-81121162D01*
X56585441Y-80982090D01*
X56730431Y-80769890D01*
X56781440Y-80518000D01*
X56781440Y-77216000D01*
X56737162Y-76980683D01*
X56598090Y-76764559D01*
X56385890Y-76619569D01*
X56134000Y-76568560D01*
X55326515Y-76568560D01*
X55455458Y-76515282D01*
X55813026Y-76158337D01*
X56006779Y-75691727D01*
X56007220Y-75186490D01*
X55814282Y-74719542D01*
X55457337Y-74361974D01*
X54990727Y-74168221D01*
X54485490Y-74167780D01*
X54018542Y-74360718D01*
X53660974Y-74717663D01*
X53467221Y-75184273D01*
X53466780Y-75689510D01*
X53659718Y-76156458D01*
X54016663Y-76514026D01*
X54481977Y-76707241D01*
X54412559Y-76751910D01*
X54267569Y-76964110D01*
X54216560Y-77216000D01*
X54216560Y-77607759D01*
X54102000Y-77584560D01*
X52832000Y-77584560D01*
X52596683Y-77628838D01*
X52455000Y-77720009D01*
X52455000Y-70358000D01*
X53200560Y-70358000D01*
X53200560Y-72644000D01*
X53244838Y-72879317D01*
X53383910Y-73095441D01*
X53596110Y-73240431D01*
X53848000Y-73291440D01*
X55118000Y-73291440D01*
X55353317Y-73247162D01*
X55569441Y-73108090D01*
X55714431Y-72895890D01*
X55765440Y-72644000D01*
X55765440Y-70967020D01*
X55840246Y-71419692D01*
X55891786Y-71556568D01*
X55938285Y-71695222D01*
X56339605Y-72396262D01*
X56411481Y-72478831D01*
X56472303Y-72569857D01*
X56970143Y-73067697D01*
X57079598Y-73140833D01*
X57183441Y-73221706D01*
X57785421Y-73523966D01*
X57843959Y-73540103D01*
X57896788Y-73570040D01*
X58496228Y-73768160D01*
X58626521Y-73784248D01*
X58755280Y-73809860D01*
X59555380Y-73809860D01*
X59560588Y-73808824D01*
X59565807Y-73809794D01*
X59718307Y-73777452D01*
X59871285Y-73747023D01*
X59875701Y-73744072D01*
X59880893Y-73742971D01*
X60579393Y-73443252D01*
X60670341Y-73380806D01*
X60768366Y-73330205D01*
X61268746Y-72931425D01*
X61319120Y-72871808D01*
X61380546Y-72823649D01*
X61931780Y-72181706D01*
X62054605Y-72396262D01*
X62126481Y-72478831D01*
X62187303Y-72569857D01*
X62685143Y-73067697D01*
X62794598Y-73140833D01*
X62898441Y-73221706D01*
X63500421Y-73523966D01*
X63558959Y-73540103D01*
X63611788Y-73570040D01*
X64211228Y-73768160D01*
X64341521Y-73784248D01*
X64470280Y-73809860D01*
X65270380Y-73809860D01*
X65275588Y-73808824D01*
X65280807Y-73809794D01*
X65433307Y-73777452D01*
X65586285Y-73747023D01*
X65590701Y-73744072D01*
X65595893Y-73742971D01*
X66294393Y-73443252D01*
X66385341Y-73380806D01*
X66483366Y-73330205D01*
X66983746Y-72931425D01*
X67034120Y-72871808D01*
X67095546Y-72823649D01*
X67591127Y-72246516D01*
X67619605Y-72296262D01*
X67691481Y-72378831D01*
X67752303Y-72469857D01*
X68250143Y-72967697D01*
X68359598Y-73040833D01*
X68463441Y-73121706D01*
X69065421Y-73423966D01*
X69123959Y-73440103D01*
X69176788Y-73470040D01*
X69776228Y-73668160D01*
X69906521Y-73684248D01*
X70035280Y-73709860D01*
X70835380Y-73709860D01*
X70840588Y-73708824D01*
X70845807Y-73709794D01*
X70998307Y-73677452D01*
X71151285Y-73647023D01*
X71155701Y-73644072D01*
X71160893Y-73642971D01*
X71859393Y-73343252D01*
X71950341Y-73280806D01*
X72048366Y-73230205D01*
X72548746Y-72831425D01*
X72599120Y-72771808D01*
X72660546Y-72723649D01*
X73262526Y-72022609D01*
X73277728Y-71995633D01*
X73300614Y-71974777D01*
X73356323Y-71856163D01*
X73420655Y-71742003D01*
X73424376Y-71711265D01*
X73437540Y-71683237D01*
X73635659Y-70883137D01*
X73640306Y-70783023D01*
X73659860Y-70684720D01*
X73659860Y-70085280D01*
X73644071Y-70005901D01*
X73644144Y-69924967D01*
X73545084Y-69424587D01*
X73502463Y-69321427D01*
X73472708Y-69213848D01*
X73272048Y-68815068D01*
X73214265Y-68741004D01*
X73169465Y-68658439D01*
X72669085Y-68056459D01*
X72603351Y-68003198D01*
X72548746Y-67938575D01*
X72048366Y-67539795D01*
X71942336Y-67485061D01*
X71842483Y-67419713D01*
X71344642Y-67219053D01*
X71255243Y-67202157D01*
X71170079Y-67170155D01*
X70568099Y-67071095D01*
X70500448Y-67073345D01*
X70434060Y-67060140D01*
X70335000Y-67060140D01*
X70268339Y-67073400D01*
X70200408Y-67071186D01*
X69600968Y-67170246D01*
X69570383Y-67181763D01*
X69537735Y-67183254D01*
X69136415Y-67282314D01*
X69024082Y-67334972D01*
X68907415Y-67377169D01*
X68407036Y-67679429D01*
X68333232Y-67746785D01*
X68250143Y-67802303D01*
X67752303Y-68300143D01*
X67696787Y-68383229D01*
X67629428Y-68457036D01*
X67513481Y-68648982D01*
X67104085Y-68156459D01*
X67038351Y-68103198D01*
X66983746Y-68038575D01*
X66483366Y-67639795D01*
X66377336Y-67585061D01*
X66277483Y-67519713D01*
X65779642Y-67319053D01*
X65690243Y-67302157D01*
X65605079Y-67270155D01*
X65003099Y-67171095D01*
X64935448Y-67173345D01*
X64869060Y-67160140D01*
X64770000Y-67160140D01*
X64703339Y-67173400D01*
X64635408Y-67171186D01*
X64035968Y-67270246D01*
X64005383Y-67281763D01*
X63972735Y-67283254D01*
X63571415Y-67382314D01*
X63459082Y-67434972D01*
X63342415Y-67477169D01*
X62842036Y-67779429D01*
X62768232Y-67846785D01*
X62685143Y-67902303D01*
X62187303Y-68400143D01*
X62131787Y-68483229D01*
X62064428Y-68557036D01*
X61914688Y-68804925D01*
X61889465Y-68758439D01*
X61389085Y-68156459D01*
X61323351Y-68103198D01*
X61268746Y-68038575D01*
X60768366Y-67639795D01*
X60662336Y-67585061D01*
X60562483Y-67519713D01*
X60064642Y-67319053D01*
X59975243Y-67302157D01*
X59890079Y-67270155D01*
X59288099Y-67171095D01*
X59220448Y-67173345D01*
X59154060Y-67160140D01*
X59055000Y-67160140D01*
X58988339Y-67173400D01*
X58920408Y-67171186D01*
X58320968Y-67270246D01*
X58290383Y-67281763D01*
X58257735Y-67283254D01*
X57856415Y-67382314D01*
X57744082Y-67434972D01*
X57627415Y-67477169D01*
X57127036Y-67779429D01*
X57053232Y-67846785D01*
X56970143Y-67902303D01*
X56472303Y-68400143D01*
X56416787Y-68483229D01*
X56349428Y-68557036D01*
X56047169Y-69057416D01*
X56015475Y-69145043D01*
X55969635Y-69226174D01*
X55771515Y-69828154D01*
X55755652Y-69957960D01*
X55730140Y-70086220D01*
X55730140Y-70170397D01*
X55721162Y-70122683D01*
X55582090Y-69906559D01*
X55369890Y-69761569D01*
X55118000Y-69710560D01*
X53848000Y-69710560D01*
X53612683Y-69754838D01*
X53396559Y-69893910D01*
X53251569Y-70106110D01*
X53200560Y-70358000D01*
X52455000Y-70358000D01*
X52455000Y-66804947D01*
X52580110Y-66890431D01*
X52832000Y-66941440D01*
X54102000Y-66941440D01*
X54337317Y-66897162D01*
X54483907Y-66802834D01*
X54612110Y-66890431D01*
X54864000Y-66941440D01*
X56134000Y-66941440D01*
X56369317Y-66897162D01*
X56585441Y-66758090D01*
X56730431Y-66545890D01*
X56781440Y-66294000D01*
X56781440Y-62992000D01*
X56737162Y-62756683D01*
X56598090Y-62540559D01*
X56385890Y-62395569D01*
X56134000Y-62344560D01*
X55326515Y-62344560D01*
X55455458Y-62291282D01*
X55813026Y-61934337D01*
X56006779Y-61467727D01*
X56007220Y-60962490D01*
X55814282Y-60495542D01*
X55457337Y-60137974D01*
X54990727Y-59944221D01*
X54485490Y-59943780D01*
X54018542Y-60136718D01*
X53660974Y-60493663D01*
X53467221Y-60960273D01*
X53466780Y-61465510D01*
X53659718Y-61932458D01*
X54016663Y-62290026D01*
X54481977Y-62483241D01*
X54412559Y-62527910D01*
X54267569Y-62740110D01*
X54216560Y-62992000D01*
X54216560Y-63383759D01*
X54102000Y-63360560D01*
X52832000Y-63360560D01*
X52596683Y-63404838D01*
X52455000Y-63496009D01*
X52455000Y-56134000D01*
X53200560Y-56134000D01*
X53200560Y-58420000D01*
X53244838Y-58655317D01*
X53383910Y-58871441D01*
X53596110Y-59016431D01*
X53848000Y-59067440D01*
X55118000Y-59067440D01*
X55353317Y-59023162D01*
X55569441Y-58884090D01*
X55714431Y-58671890D01*
X55765440Y-58420000D01*
X55765440Y-56134000D01*
X55721162Y-55898683D01*
X55582090Y-55682559D01*
X55369890Y-55537569D01*
X55118000Y-55486560D01*
X53848000Y-55486560D01*
X53612683Y-55530838D01*
X53396559Y-55669910D01*
X53251569Y-55882110D01*
X53200560Y-56134000D01*
X52455000Y-56134000D01*
X52455000Y-50602242D01*
X52514657Y-50577592D01*
X52862371Y-50230485D01*
X53050785Y-49776734D01*
X53051214Y-49285421D01*
X52863592Y-48831343D01*
X52516485Y-48483629D01*
X52062734Y-48295215D01*
X51571421Y-48294786D01*
X51117343Y-48482408D01*
X50769629Y-48829515D01*
X50681042Y-49042855D01*
X50496949Y-49226949D01*
X50248310Y-49599062D01*
X50161000Y-50038000D01*
X50161000Y-55486560D01*
X49149000Y-55486560D01*
X48913683Y-55530838D01*
X48697559Y-55669910D01*
X48552569Y-55882110D01*
X48501560Y-56134000D01*
X44398000Y-56134000D01*
X44398000Y-28142000D01*
X118237000Y-28142000D01*
X118237000Y-49727016D01*
X118237000Y-49727016D01*
G37*
X118237000Y-49727016D02*
X117775381Y-49726613D01*
X116953628Y-50066155D01*
X116324364Y-50694321D01*
X115983389Y-51515481D01*
X115982613Y-52404619D01*
X116322155Y-53226372D01*
X116950321Y-53855636D01*
X117771481Y-54196611D01*
X118237000Y-54197017D01*
X118237000Y-73799764D01*
X117729000Y-73291764D01*
X117729000Y-61976000D01*
X117661329Y-61635794D01*
X117468618Y-61347382D01*
X114173000Y-58051764D01*
X114173000Y-35697634D01*
X114203282Y-35667405D01*
X114368811Y-35268767D01*
X114369188Y-34837127D01*
X114204354Y-34438200D01*
X113899405Y-34132718D01*
X113500767Y-33967189D01*
X113069127Y-33966812D01*
X112670200Y-34131646D01*
X112364718Y-34436595D01*
X112199189Y-34835233D01*
X112198838Y-35237161D01*
X111799127Y-35236812D01*
X111400200Y-35401646D01*
X111094718Y-35706595D01*
X110929189Y-36105233D01*
X110928812Y-36536873D01*
X111093646Y-36935800D01*
X111125000Y-36967209D01*
X111125000Y-58051764D01*
X108077000Y-55003764D01*
X108077000Y-43434000D01*
X108009329Y-43093794D01*
X107816618Y-42805382D01*
X105328311Y-40317075D01*
X105366699Y-40224627D01*
X105367301Y-39534401D01*
X105103719Y-38896485D01*
X104815662Y-38607925D01*
X105102004Y-38322082D01*
X105366699Y-37684627D01*
X105367301Y-36994401D01*
X105103719Y-36356485D01*
X104815662Y-36067925D01*
X105102004Y-35782082D01*
X105366699Y-35144627D01*
X105367301Y-34454401D01*
X105103719Y-33816485D01*
X104616082Y-33327996D01*
X103978627Y-33063301D01*
X103288401Y-33062699D01*
X102650485Y-33326281D01*
X102161996Y-33813918D01*
X101928199Y-34376963D01*
X99434618Y-31883382D01*
X99381671Y-31848004D01*
X99146206Y-31690671D01*
X98806000Y-31623000D01*
X84430630Y-31623000D01*
X84692004Y-31362082D01*
X84956699Y-30724627D01*
X84956701Y-30721599D01*
X101986699Y-30721599D01*
X102250281Y-31359515D01*
X102737918Y-31848004D01*
X103375373Y-32112699D01*
X104065599Y-32113301D01*
X104703515Y-31849719D01*
X105192004Y-31362082D01*
X105456699Y-30724627D01*
X105457301Y-30034401D01*
X105193719Y-29396485D01*
X104706082Y-28907996D01*
X104068627Y-28643301D01*
X103378401Y-28642699D01*
X102740485Y-28906281D01*
X102251996Y-29393918D01*
X101987301Y-30031373D01*
X101986699Y-30721599D01*
X84956701Y-30721599D01*
X84957301Y-30034401D01*
X84693719Y-29396485D01*
X84206082Y-28907996D01*
X83568627Y-28643301D01*
X82878401Y-28642699D01*
X82240485Y-28906281D01*
X81751996Y-29393918D01*
X81487301Y-30031373D01*
X81486699Y-30721599D01*
X81750281Y-31359515D01*
X82060140Y-31669915D01*
X81955794Y-31690671D01*
X81720329Y-31848004D01*
X81667382Y-31883382D01*
X80397382Y-33153382D01*
X80204671Y-33441794D01*
X80137000Y-33782000D01*
X80137000Y-36207764D01*
X74815764Y-41529000D01*
X70241634Y-41529000D01*
X70211405Y-41498718D01*
X69812767Y-41333189D01*
X69381127Y-41332812D01*
X69368576Y-41337998D01*
X69246354Y-41042200D01*
X68941405Y-40736718D01*
X68542767Y-40571189D01*
X68111127Y-40570812D01*
X67712200Y-40735646D01*
X67406718Y-41040595D01*
X67241189Y-41439233D01*
X67240812Y-41870873D01*
X67405646Y-42269800D01*
X67437000Y-42301209D01*
X67437000Y-43688000D01*
X67504671Y-44028206D01*
X67587855Y-44152699D01*
X67697382Y-44316618D01*
X72523382Y-49142618D01*
X72811795Y-49335330D01*
X73152000Y-49403000D01*
X81419764Y-49403000D01*
X81615689Y-49598925D01*
X81577301Y-49691373D01*
X81576699Y-50381599D01*
X81840281Y-51019515D01*
X82128338Y-51308075D01*
X81841996Y-51593918D01*
X81802514Y-51689000D01*
X77099634Y-51689000D01*
X77069405Y-51658718D01*
X76670767Y-51493189D01*
X76239127Y-51492812D01*
X75840200Y-51657646D01*
X75534718Y-51962595D01*
X75369189Y-52361233D01*
X75368812Y-52792873D01*
X75533646Y-53191800D01*
X75838595Y-53497282D01*
X76237233Y-53662811D01*
X76668873Y-53663188D01*
X77067800Y-53498354D01*
X77099209Y-53467000D01*
X81802055Y-53467000D01*
X81840281Y-53559515D01*
X82128338Y-53848075D01*
X81841996Y-54133918D01*
X81577301Y-54771373D01*
X81576699Y-55461599D01*
X81840281Y-56099515D01*
X82128338Y-56388075D01*
X81841996Y-56673918D01*
X81577301Y-57311373D01*
X81576699Y-58001599D01*
X81840281Y-58639515D01*
X82327918Y-59128004D01*
X82965373Y-59392699D01*
X83655599Y-59393301D01*
X84293515Y-59129719D01*
X84782004Y-58642082D01*
X85046699Y-58004627D01*
X85047301Y-57314401D01*
X84783719Y-56676485D01*
X84495662Y-56387925D01*
X84782004Y-56102082D01*
X85046699Y-55464627D01*
X85047301Y-54774401D01*
X84783719Y-54136485D01*
X84495662Y-53847925D01*
X84782004Y-53562082D01*
X85046699Y-52924627D01*
X85047301Y-52234401D01*
X84783719Y-51596485D01*
X84495662Y-51307925D01*
X84782004Y-51022082D01*
X85046699Y-50384627D01*
X85047301Y-49694401D01*
X84783719Y-49056485D01*
X84495662Y-48767925D01*
X84782004Y-48482082D01*
X85046699Y-47844627D01*
X85047301Y-47154401D01*
X84783719Y-46516485D01*
X84495662Y-46227925D01*
X84782004Y-45942082D01*
X85046699Y-45304627D01*
X85047301Y-44614401D01*
X84783719Y-43976485D01*
X84495662Y-43687925D01*
X84782004Y-43402082D01*
X85046699Y-42764627D01*
X85047301Y-42074401D01*
X84783719Y-41436485D01*
X84495662Y-41147925D01*
X84782004Y-40862082D01*
X85046699Y-40224627D01*
X85047301Y-39534401D01*
X84783719Y-38896485D01*
X84495662Y-38607925D01*
X84782004Y-38322082D01*
X85046699Y-37684627D01*
X85047301Y-36994401D01*
X84783719Y-36356485D01*
X84495662Y-36067925D01*
X84782004Y-35782082D01*
X85046699Y-35144627D01*
X85047301Y-34454401D01*
X84783719Y-33816485D01*
X84368959Y-33401000D01*
X98437764Y-33401000D01*
X101935689Y-36898925D01*
X101897301Y-36991373D01*
X101896699Y-37681599D01*
X102160281Y-38319515D01*
X102448338Y-38608075D01*
X102161996Y-38893918D01*
X101897301Y-39531373D01*
X101896699Y-40221599D01*
X102160281Y-40859515D01*
X102448338Y-41148075D01*
X102161996Y-41433918D01*
X101897301Y-42071373D01*
X101896699Y-42761599D01*
X102160281Y-43399515D01*
X102448338Y-43688075D01*
X102161996Y-43973918D01*
X101897301Y-44611373D01*
X101896699Y-45301599D01*
X102160281Y-45939515D01*
X102448338Y-46228075D01*
X102161996Y-46513918D01*
X101897301Y-47151373D01*
X101896699Y-47841599D01*
X102160281Y-48479515D01*
X102448338Y-48768075D01*
X102161996Y-49053918D01*
X101897301Y-49691373D01*
X101896699Y-50381599D01*
X101936014Y-50476750D01*
X98685382Y-53727382D01*
X98492671Y-54015794D01*
X98425000Y-54356000D01*
X98425000Y-55765764D01*
X84721764Y-69469000D01*
X83859623Y-69469000D01*
X84293515Y-69289719D01*
X84782004Y-68802082D01*
X85046699Y-68164627D01*
X85047301Y-67474401D01*
X84783719Y-66836485D01*
X84495662Y-66547925D01*
X84782004Y-66262082D01*
X85046699Y-65624627D01*
X85047301Y-64934401D01*
X84783719Y-64296485D01*
X84495662Y-64007925D01*
X84782004Y-63722082D01*
X85046699Y-63084627D01*
X85047301Y-62394401D01*
X84783719Y-61756485D01*
X84296082Y-61267996D01*
X83658627Y-61003301D01*
X82968401Y-61002699D01*
X82330485Y-61266281D01*
X82005199Y-61591000D01*
X78182144Y-61591000D01*
X77970734Y-61503215D01*
X77479421Y-61502786D01*
X77025343Y-61690408D01*
X76677629Y-62037515D01*
X76489215Y-62491266D01*
X76488786Y-62982579D01*
X76676408Y-63436657D01*
X77023515Y-63784371D01*
X77477266Y-63972785D01*
X77968579Y-63973214D01*
X78182072Y-63885000D01*
X82005477Y-63885000D01*
X82128338Y-64008075D01*
X82005199Y-64131000D01*
X75151103Y-64131000D01*
X63424722Y-52404619D01*
X65982613Y-52404619D01*
X66322155Y-53226372D01*
X66950321Y-53855636D01*
X67771481Y-54196611D01*
X68660619Y-54197387D01*
X69482372Y-53857845D01*
X70111636Y-53229679D01*
X70452611Y-52408519D01*
X70453387Y-51519381D01*
X70113845Y-50697628D01*
X69485679Y-50068364D01*
X68664519Y-49727389D01*
X67775381Y-49726613D01*
X66953628Y-50066155D01*
X66324364Y-50694321D01*
X65983389Y-51515481D01*
X65982613Y-52404619D01*
X63424722Y-52404619D01*
X51865051Y-40844949D01*
X51492938Y-40596310D01*
X51054000Y-40509000D01*
X51021102Y-40509000D01*
X50677000Y-40164898D01*
X50677000Y-39210102D01*
X50877287Y-39009816D01*
X51155724Y-39065200D01*
X51714276Y-39065200D01*
X52186676Y-38971234D01*
X52587157Y-38703641D01*
X52657357Y-38598579D01*
X68614786Y-38598579D01*
X68802408Y-39052657D01*
X69149515Y-39400371D01*
X69603266Y-39588785D01*
X70094579Y-39589214D01*
X70548657Y-39401592D01*
X70896371Y-39054485D01*
X71084785Y-38600734D01*
X71085214Y-38109421D01*
X70897592Y-37655343D01*
X70550485Y-37307629D01*
X70096734Y-37119215D01*
X69605421Y-37118786D01*
X69151343Y-37306408D01*
X68803629Y-37653515D01*
X68615215Y-38107266D01*
X68614786Y-38598579D01*
X52657357Y-38598579D01*
X52854750Y-38303160D01*
X52948716Y-37830760D01*
X52854750Y-37358360D01*
X52587157Y-36957879D01*
X52395773Y-36830000D01*
X52587157Y-36702121D01*
X52854750Y-36301640D01*
X52937864Y-35883795D01*
X72572716Y-35883795D01*
X72821106Y-36484943D01*
X73280637Y-36945278D01*
X73881352Y-37194716D01*
X74531795Y-37195284D01*
X75132943Y-36946894D01*
X75593278Y-36487363D01*
X75842716Y-35886648D01*
X75843284Y-35236205D01*
X75594894Y-34635057D01*
X75135363Y-34174722D01*
X74534648Y-33925284D01*
X73884205Y-33924716D01*
X73283057Y-34173106D01*
X72822722Y-34632637D01*
X72573284Y-35233352D01*
X72572716Y-35883795D01*
X52937864Y-35883795D01*
X52948716Y-35829240D01*
X52854750Y-35356840D01*
X52587157Y-34956359D01*
X52397673Y-34829750D01*
X52587157Y-34703141D01*
X52854750Y-34302660D01*
X52948716Y-33830260D01*
X52854750Y-33357860D01*
X52587157Y-32957379D01*
X52186676Y-32689786D01*
X51714276Y-32595820D01*
X51155724Y-32595820D01*
X50683324Y-32689786D01*
X50282843Y-32957379D01*
X50015250Y-33357860D01*
X49921284Y-33830260D01*
X50015250Y-34302660D01*
X50282843Y-34703141D01*
X50472327Y-34829750D01*
X50282843Y-34956359D01*
X50015250Y-35356840D01*
X49921284Y-35829240D01*
X50015250Y-36301640D01*
X50282843Y-36702121D01*
X50296398Y-36711178D01*
X49995302Y-36771070D01*
X49623188Y-37019709D01*
X48718949Y-37923949D01*
X48470310Y-38296062D01*
X48383000Y-38735000D01*
X48383000Y-40640000D01*
X48427175Y-40862082D01*
X48470310Y-41078938D01*
X48718949Y-41451051D01*
X49734949Y-42467051D01*
X50107062Y-42715690D01*
X50546000Y-42803000D01*
X50578898Y-42803000D01*
X73864949Y-66089052D01*
X74177660Y-66297999D01*
X74237062Y-66337690D01*
X74676000Y-66425000D01*
X82005477Y-66425000D01*
X82128338Y-66548075D01*
X81841996Y-66833918D01*
X81577301Y-67471373D01*
X81576699Y-68161599D01*
X81840281Y-68799515D01*
X82327918Y-69288004D01*
X82763804Y-69469000D01*
X79089581Y-69469000D01*
X78932485Y-69311629D01*
X78478734Y-69123215D01*
X77987421Y-69122786D01*
X77533343Y-69310408D01*
X77185629Y-69657515D01*
X76997215Y-70111266D01*
X76996786Y-70602579D01*
X77184408Y-71056657D01*
X77247446Y-71119806D01*
X77185629Y-71181515D01*
X76997215Y-71635266D01*
X76996786Y-72126579D01*
X77184408Y-72580657D01*
X77247446Y-72643806D01*
X77185629Y-72705515D01*
X76997215Y-73159266D01*
X76996786Y-73650579D01*
X77184408Y-74104657D01*
X77247446Y-74167806D01*
X77185629Y-74229515D01*
X76997215Y-74683266D01*
X76996786Y-75174579D01*
X77184408Y-75628657D01*
X77531515Y-75976371D01*
X77985266Y-76164785D01*
X78476579Y-76165214D01*
X78930657Y-75977592D01*
X79089526Y-75819000D01*
X84328000Y-75819000D01*
X84668206Y-75751329D01*
X84956618Y-75558618D01*
X94348236Y-66167000D01*
X97535385Y-66167000D01*
X97467189Y-66331233D01*
X97466812Y-66762873D01*
X97631646Y-67161800D01*
X97663000Y-67193209D01*
X97663000Y-93611764D01*
X95370618Y-91319382D01*
X95343107Y-91301000D01*
X95082206Y-91126671D01*
X94742000Y-91059000D01*
X87005634Y-91059000D01*
X86975405Y-91028718D01*
X86576767Y-90863189D01*
X86145127Y-90862812D01*
X85856000Y-90982277D01*
X85856000Y-90628144D01*
X85943785Y-90416734D01*
X85944214Y-89925421D01*
X85756592Y-89471343D01*
X85409485Y-89123629D01*
X85196145Y-89035042D01*
X84885051Y-88723949D01*
X84612267Y-88541680D01*
X84692004Y-88462082D01*
X84956699Y-87824627D01*
X84957301Y-87134401D01*
X84693719Y-86496485D01*
X84206082Y-86007996D01*
X83568627Y-85743301D01*
X82878401Y-85742699D01*
X82240485Y-86006281D01*
X81751996Y-86493918D01*
X81487301Y-87131373D01*
X81486699Y-87821599D01*
X81750281Y-88459515D01*
X82005729Y-88715409D01*
X81992949Y-88723948D01*
X80734949Y-89981949D01*
X80486310Y-90354062D01*
X80399000Y-90793000D01*
X80399000Y-91802380D01*
X80360718Y-91840595D01*
X80195189Y-92239233D01*
X80194812Y-92670873D01*
X80359646Y-93069800D01*
X80664595Y-93375282D01*
X81063233Y-93540811D01*
X81494873Y-93541188D01*
X81893800Y-93376354D01*
X82199282Y-93071405D01*
X82288133Y-92857428D01*
X82397441Y-92787090D01*
X82542431Y-92574890D01*
X82569535Y-92441048D01*
X82605690Y-92386938D01*
X82693000Y-91948000D01*
X82693000Y-91268102D01*
X83279103Y-90682000D01*
X83562000Y-90682000D01*
X83562000Y-91896632D01*
X83206200Y-92043646D01*
X82900718Y-92348595D01*
X82735189Y-92747233D01*
X82734812Y-93178873D01*
X82899646Y-93577800D01*
X82931000Y-93609209D01*
X82931000Y-94234000D01*
X82998671Y-94574206D01*
X83140568Y-94786569D01*
X83191382Y-94862618D01*
X83496849Y-95168085D01*
X83496812Y-95210873D01*
X83661646Y-95609800D01*
X83966595Y-95915282D01*
X84365233Y-96080811D01*
X84796873Y-96081188D01*
X85195800Y-95916354D01*
X85501282Y-95611405D01*
X85666811Y-95212767D01*
X85667188Y-94781127D01*
X85578582Y-94566684D01*
X86310948Y-95299051D01*
X86518608Y-95437805D01*
X86683062Y-95547690D01*
X87122000Y-95635000D01*
X87840560Y-95635000D01*
X87840560Y-96133000D01*
X87884838Y-96368317D01*
X88023910Y-96584441D01*
X88236110Y-96729431D01*
X88488000Y-96780440D01*
X88554338Y-96780440D01*
X92336992Y-100563095D01*
X92424408Y-100774657D01*
X92771515Y-101122371D01*
X93225266Y-101310785D01*
X93716579Y-101311214D01*
X94170657Y-101123592D01*
X94518371Y-100776485D01*
X94706785Y-100322734D01*
X94707214Y-99831421D01*
X94619000Y-99617928D01*
X94619000Y-98011102D01*
X95483095Y-97147008D01*
X95694657Y-97059592D01*
X96042371Y-96712485D01*
X96230785Y-96258734D01*
X96231214Y-95767421D01*
X96043592Y-95313343D01*
X95696485Y-94965629D01*
X95242734Y-94777215D01*
X94751421Y-94776786D01*
X94297343Y-94964408D01*
X93949629Y-95311515D01*
X93861043Y-95524855D01*
X92660949Y-96724949D01*
X92412310Y-97097062D01*
X92363010Y-97344908D01*
X90301000Y-95282898D01*
X90301000Y-95097600D01*
X90213690Y-94658662D01*
X90157258Y-94574206D01*
X89965052Y-94286549D01*
X89355451Y-93676949D01*
X88983338Y-93428310D01*
X88544400Y-93341000D01*
X87597103Y-93341000D01*
X87093103Y-92837000D01*
X94373764Y-92837000D01*
X96647000Y-95110236D01*
X96647000Y-104510366D01*
X96616718Y-104540595D01*
X96451189Y-104939233D01*
X96450812Y-105370873D01*
X96615646Y-105769800D01*
X96920595Y-106075282D01*
X97319233Y-106240811D01*
X97750873Y-106241188D01*
X98149800Y-106076354D01*
X98455282Y-105771405D01*
X98620811Y-105372767D01*
X98621188Y-104941127D01*
X98456354Y-104542200D01*
X98425000Y-104510791D01*
X98425000Y-98112889D01*
X98766873Y-98113188D01*
X99165800Y-97948354D01*
X99471282Y-97643405D01*
X99636811Y-97244767D01*
X99637188Y-96813127D01*
X99472354Y-96414200D01*
X99441000Y-96382791D01*
X99441000Y-93980000D01*
X107536655Y-93980000D01*
X107650729Y-94553489D01*
X107975585Y-95039670D01*
X108290366Y-95250000D01*
X107975585Y-95460330D01*
X107650729Y-95946511D01*
X107536655Y-96520000D01*
X107650729Y-97093489D01*
X107975585Y-97579670D01*
X108290366Y-97790000D01*
X107975585Y-98000330D01*
X107650729Y-98486511D01*
X107536655Y-99060000D01*
X107650729Y-99633489D01*
X107975585Y-100119670D01*
X108290366Y-100330000D01*
X107975585Y-100540330D01*
X107650729Y-101026511D01*
X107536655Y-101600000D01*
X107650729Y-102173489D01*
X107975585Y-102659670D01*
X108290366Y-102870000D01*
X107975585Y-103080330D01*
X107650729Y-103566511D01*
X107536655Y-104140000D01*
X107650729Y-104713489D01*
X107975585Y-105199670D01*
X108290366Y-105410000D01*
X107975585Y-105620330D01*
X107650729Y-106106511D01*
X107536655Y-106680000D01*
X107650729Y-107253489D01*
X107975585Y-107739670D01*
X108461766Y-108064526D01*
X109035255Y-108178600D01*
X109404745Y-108178600D01*
X109978234Y-108064526D01*
X110464415Y-107739670D01*
X110789271Y-107253489D01*
X110903345Y-106680000D01*
X110789271Y-106106511D01*
X110464415Y-105620330D01*
X110149634Y-105410000D01*
X110464415Y-105199670D01*
X110789271Y-104713489D01*
X110903345Y-104140000D01*
X110789271Y-103566511D01*
X110464415Y-103080330D01*
X110149634Y-102870000D01*
X110464415Y-102659670D01*
X110789271Y-102173489D01*
X110903345Y-101600000D01*
X110789271Y-101026511D01*
X110464415Y-100540330D01*
X110149634Y-100330000D01*
X110464415Y-100119670D01*
X110789271Y-99633489D01*
X110903345Y-99060000D01*
X110789271Y-98486511D01*
X110464415Y-98000330D01*
X110149634Y-97790000D01*
X110464415Y-97579670D01*
X110789271Y-97093489D01*
X110903345Y-96520000D01*
X110789271Y-95946511D01*
X110464415Y-95460330D01*
X110149634Y-95250000D01*
X110464415Y-95039670D01*
X110789271Y-94553489D01*
X110903345Y-93980000D01*
X110789271Y-93406511D01*
X110464415Y-92920330D01*
X109978234Y-92595474D01*
X109404745Y-92481400D01*
X109035255Y-92481400D01*
X108461766Y-92595474D01*
X107975585Y-92920330D01*
X107650729Y-93406511D01*
X107536655Y-93980000D01*
X99441000Y-93980000D01*
X99441000Y-87821599D01*
X101986699Y-87821599D01*
X102250281Y-88459515D01*
X102737918Y-88948004D01*
X103375373Y-89212699D01*
X104065599Y-89213301D01*
X104703515Y-88949719D01*
X105192004Y-88462082D01*
X105456699Y-87824627D01*
X105457301Y-87134401D01*
X105193719Y-86496485D01*
X104706082Y-86007996D01*
X104068627Y-85743301D01*
X103378401Y-85742699D01*
X102740485Y-86006281D01*
X102251996Y-86493918D01*
X101987301Y-87131373D01*
X101986699Y-87821599D01*
X99441000Y-87821599D01*
X99441000Y-85666889D01*
X99782873Y-85667188D01*
X100181800Y-85502354D01*
X100487282Y-85197405D01*
X100652811Y-84798767D01*
X100653188Y-84367127D01*
X100488354Y-83968200D01*
X100457000Y-83936791D01*
X100457000Y-75495563D01*
X100604856Y-75556958D01*
X104852948Y-79805051D01*
X105205129Y-80040371D01*
X105225062Y-80053690D01*
X105664000Y-80141000D01*
X111047856Y-80141000D01*
X111259266Y-80228785D01*
X111750579Y-80229214D01*
X112204657Y-80041592D01*
X112552371Y-79694485D01*
X112740785Y-79240734D01*
X112741214Y-78749421D01*
X112701099Y-78652335D01*
X114484849Y-80436085D01*
X114484812Y-80478873D01*
X114649646Y-80877800D01*
X114954595Y-81183282D01*
X115353233Y-81348811D01*
X115760500Y-81349167D01*
X115760500Y-81700067D01*
X115233639Y-82226928D01*
X115101127Y-82226812D01*
X114702200Y-82391646D01*
X114396718Y-82696595D01*
X114231189Y-83095233D01*
X114230812Y-83526873D01*
X114395646Y-83925800D01*
X114700595Y-84231282D01*
X115099233Y-84396811D01*
X115530873Y-84397188D01*
X115929800Y-84232354D01*
X116077991Y-84084422D01*
X116224595Y-84231282D01*
X116623233Y-84396811D01*
X117054873Y-84397188D01*
X117453800Y-84232354D01*
X117759282Y-83927405D01*
X117924811Y-83528767D01*
X117924928Y-83394505D01*
X117931714Y-83387719D01*
X117931717Y-83387717D01*
X118110663Y-83119905D01*
X118173500Y-82804000D01*
X118173500Y-79756000D01*
X118110663Y-79440095D01*
X117931717Y-79172283D01*
X117931714Y-79172281D01*
X116806405Y-78046971D01*
X117054873Y-78047188D01*
X117279020Y-77954572D01*
X117278812Y-78192873D01*
X117443646Y-78591800D01*
X117748595Y-78897282D01*
X118147233Y-79062811D01*
X118237000Y-79062889D01*
X118237000Y-86815394D01*
X117041394Y-88011000D01*
X113030000Y-88011000D01*
X112980590Y-88021006D01*
X112940197Y-88048197D01*
X111670197Y-89318197D01*
X111642334Y-89360211D01*
X111633000Y-89408000D01*
X111633000Y-109347000D01*
X96012000Y-109347000D01*
X95962590Y-109357006D01*
X95920965Y-109385447D01*
X95893685Y-109427841D01*
X95885000Y-109474000D01*
X95885000Y-110744000D01*
X95895006Y-110793410D01*
X95923447Y-110835035D01*
X95965841Y-110862315D01*
X96012000Y-110871000D01*
X112268000Y-110871000D01*
X112317410Y-110860994D01*
X112357803Y-110833803D01*
X112865803Y-110325803D01*
X112893666Y-110283789D01*
X112903000Y-110236000D01*
X112903000Y-102404619D01*
X115982613Y-102404619D01*
X116322155Y-103226372D01*
X116950321Y-103855636D01*
X117771481Y-104196611D01*
X118660619Y-104197387D01*
X119482372Y-103857845D01*
X120111636Y-103229679D01*
X120452611Y-102408519D01*
X120453387Y-101519381D01*
X120113845Y-100697628D01*
X119485679Y-100068364D01*
X118664519Y-99727389D01*
X117775381Y-99726613D01*
X116953628Y-100066155D01*
X116324364Y-100694321D01*
X115983389Y-101515481D01*
X115982613Y-102404619D01*
X112903000Y-102404619D01*
X112903000Y-89714606D01*
X113336606Y-89281000D01*
X117602000Y-89281000D01*
X117651410Y-89270994D01*
X117691803Y-89243803D01*
X118961803Y-87973803D01*
X118989666Y-87931789D01*
X118999000Y-87884000D01*
X118999000Y-85979000D01*
X119634000Y-85979000D01*
X119683410Y-85968994D01*
X119725035Y-85940553D01*
X119752315Y-85898159D01*
X119761000Y-85852000D01*
X119761000Y-83820000D01*
X119750994Y-83770590D01*
X119722553Y-83728965D01*
X119680159Y-83701685D01*
X119634000Y-83693000D01*
X118999000Y-83693000D01*
X118999000Y-78877191D01*
X119283282Y-78593405D01*
X119448811Y-78194767D01*
X119449188Y-77763127D01*
X119284354Y-77364200D01*
X119253000Y-77332791D01*
X119253000Y-75184000D01*
X119185329Y-74843794D01*
X118999000Y-74564933D01*
X118999000Y-54057571D01*
X119482372Y-53857845D01*
X120111636Y-53229679D01*
X120452611Y-52408519D01*
X120453387Y-51519381D01*
X120113845Y-50697628D01*
X119485679Y-50068364D01*
X118999000Y-49866277D01*
X118999000Y-28142000D01*
X128651000Y-28142000D01*
X128651000Y-120343394D01*
X127455394Y-121539000D01*
X123496606Y-121539000D01*
X120739803Y-118782197D01*
X120697789Y-118754334D01*
X120650000Y-118745000D01*
X114352606Y-118745000D01*
X108547803Y-112940197D01*
X108505789Y-112912334D01*
X108458000Y-112903000D01*
X103632000Y-112903000D01*
X103582590Y-112913006D01*
X103540965Y-112941447D01*
X103513685Y-112983841D01*
X103505000Y-113030000D01*
X103505000Y-125782000D01*
X44398000Y-125782000D01*
X44398000Y-120963501D01*
X97154691Y-120963501D01*
X97425868Y-121619800D01*
X97927559Y-122122367D01*
X98583384Y-122394689D01*
X99293501Y-122395309D01*
X99949800Y-122124132D01*
X100452367Y-121622441D01*
X100724689Y-120966616D01*
X100725309Y-120256499D01*
X100454132Y-119600200D01*
X99952441Y-119097633D01*
X99296616Y-118825311D01*
X98586499Y-118824691D01*
X97930200Y-119095868D01*
X97427633Y-119597559D01*
X97155311Y-120253384D01*
X97154691Y-120963501D01*
X44398000Y-120963501D01*
X44398000Y-115963501D01*
X97154691Y-115963501D01*
X97425868Y-116619800D01*
X97927559Y-117122367D01*
X98583384Y-117394689D01*
X99293501Y-117395309D01*
X99949800Y-117124132D01*
X100452367Y-116622441D01*
X100724689Y-115966616D01*
X100725309Y-115256499D01*
X100454132Y-114600200D01*
X99952441Y-114097633D01*
X99296616Y-113825311D01*
X98586499Y-113824691D01*
X97930200Y-114095868D01*
X97427633Y-114597559D01*
X97155311Y-115253384D01*
X97154691Y-115963501D01*
X44398000Y-115963501D01*
X44398000Y-56134000D01*
X48501560Y-56134000D01*
X48501560Y-58420000D01*
X48545838Y-58655317D01*
X48554439Y-58668684D01*
X48549215Y-58681266D01*
X48548786Y-59172579D01*
X48736408Y-59626657D01*
X49083515Y-59974371D01*
X49537266Y-60162785D01*
X50028579Y-60163214D01*
X50161000Y-60108499D01*
X50161000Y-64565856D01*
X50073215Y-64777266D01*
X50072786Y-65268579D01*
X50161000Y-65482072D01*
X50161000Y-69710560D01*
X49149000Y-69710560D01*
X48913683Y-69754838D01*
X48697559Y-69893910D01*
X48552569Y-70106110D01*
X48501560Y-70358000D01*
X48501560Y-72644000D01*
X48545838Y-72879317D01*
X48554439Y-72892684D01*
X48549215Y-72905266D01*
X48548786Y-73396579D01*
X48736408Y-73850657D01*
X49083515Y-74198371D01*
X49537266Y-74386785D01*
X50028579Y-74387214D01*
X50161000Y-74332499D01*
X50161000Y-78789856D01*
X50073215Y-79001266D01*
X50072786Y-79492579D01*
X50161000Y-79706072D01*
X50161000Y-83934560D01*
X49149000Y-83934560D01*
X48913683Y-83978838D01*
X48697559Y-84117910D01*
X48552569Y-84330110D01*
X48501560Y-84582000D01*
X48501560Y-86868000D01*
X48545838Y-87103317D01*
X48554439Y-87116684D01*
X48549215Y-87129266D01*
X48548786Y-87620579D01*
X48736408Y-88074657D01*
X49083515Y-88422371D01*
X49537266Y-88610785D01*
X50028579Y-88611214D01*
X50161000Y-88556499D01*
X50161000Y-93013856D01*
X50073215Y-93225266D01*
X50072786Y-93716579D01*
X50161000Y-93930072D01*
X50161000Y-98158560D01*
X49149000Y-98158560D01*
X48913683Y-98202838D01*
X48697559Y-98341910D01*
X48552569Y-98554110D01*
X48501560Y-98806000D01*
X48501560Y-101092000D01*
X48545838Y-101327317D01*
X48554439Y-101340684D01*
X48549215Y-101353266D01*
X48548786Y-101844579D01*
X48736408Y-102298657D01*
X49083515Y-102646371D01*
X49537266Y-102834785D01*
X50028579Y-102835214D01*
X50161000Y-102780499D01*
X50161000Y-107237856D01*
X50073215Y-107449266D01*
X50072786Y-107940579D01*
X50260408Y-108394657D01*
X50607515Y-108742371D01*
X51061266Y-108930785D01*
X51552579Y-108931214D01*
X51766072Y-108843000D01*
X52184560Y-108843000D01*
X52184560Y-108966000D01*
X52228838Y-109201317D01*
X52367910Y-109417441D01*
X52580110Y-109562431D01*
X52832000Y-109613440D01*
X54102000Y-109613440D01*
X54337317Y-109569162D01*
X54483907Y-109474834D01*
X54612110Y-109562431D01*
X54864000Y-109613440D01*
X56134000Y-109613440D01*
X56369317Y-109569162D01*
X56585441Y-109430090D01*
X56730431Y-109217890D01*
X56781440Y-108966000D01*
X56781440Y-105664000D01*
X56737162Y-105428683D01*
X56598090Y-105212559D01*
X56385890Y-105067569D01*
X56134000Y-105016560D01*
X55326515Y-105016560D01*
X55455458Y-104963282D01*
X55813026Y-104606337D01*
X56006779Y-104139727D01*
X56007220Y-103634490D01*
X55814282Y-103167542D01*
X55457337Y-102809974D01*
X54990727Y-102616221D01*
X54485490Y-102615780D01*
X54018542Y-102808718D01*
X53660974Y-103165663D01*
X53467221Y-103632273D01*
X53466780Y-104137510D01*
X53659718Y-104604458D01*
X54016663Y-104962026D01*
X54481977Y-105155241D01*
X54412559Y-105199910D01*
X54267569Y-105412110D01*
X54216560Y-105664000D01*
X54216560Y-106055759D01*
X54102000Y-106032560D01*
X52832000Y-106032560D01*
X52596683Y-106076838D01*
X52455000Y-106168009D01*
X52455000Y-98806000D01*
X53200560Y-98806000D01*
X53200560Y-101092000D01*
X53244838Y-101327317D01*
X53383910Y-101543441D01*
X53596110Y-101688431D01*
X53848000Y-101739440D01*
X55118000Y-101739440D01*
X55353317Y-101695162D01*
X55569441Y-101556090D01*
X55714431Y-101343890D01*
X55765440Y-101092000D01*
X55765440Y-98806000D01*
X55721162Y-98570683D01*
X55582090Y-98354559D01*
X55369890Y-98209569D01*
X55118000Y-98158560D01*
X53848000Y-98158560D01*
X53612683Y-98202838D01*
X53396559Y-98341910D01*
X53251569Y-98554110D01*
X53200560Y-98806000D01*
X52455000Y-98806000D01*
X52455000Y-95252947D01*
X52580110Y-95338431D01*
X52832000Y-95389440D01*
X54102000Y-95389440D01*
X54337317Y-95345162D01*
X54483907Y-95250834D01*
X54612110Y-95338431D01*
X54864000Y-95389440D01*
X56134000Y-95389440D01*
X56369317Y-95345162D01*
X56585441Y-95206090D01*
X56730431Y-94993890D01*
X56781440Y-94742000D01*
X56781440Y-93980000D01*
X59784655Y-93980000D01*
X59898729Y-94553489D01*
X60223585Y-95039670D01*
X60538366Y-95250000D01*
X60223585Y-95460330D01*
X59898729Y-95946511D01*
X59784655Y-96520000D01*
X59898729Y-97093489D01*
X60223585Y-97579670D01*
X60538366Y-97790000D01*
X60223585Y-98000330D01*
X59898729Y-98486511D01*
X59784655Y-99060000D01*
X59898729Y-99633489D01*
X60223585Y-100119670D01*
X60538366Y-100330000D01*
X60223585Y-100540330D01*
X59898729Y-101026511D01*
X59784655Y-101600000D01*
X59898729Y-102173489D01*
X60223585Y-102659670D01*
X60538366Y-102870000D01*
X60223585Y-103080330D01*
X59898729Y-103566511D01*
X59784655Y-104140000D01*
X59898729Y-104713489D01*
X60223585Y-105199670D01*
X60538366Y-105410000D01*
X60223585Y-105620330D01*
X59898729Y-106106511D01*
X59784655Y-106680000D01*
X59898729Y-107253489D01*
X60223585Y-107739670D01*
X60709766Y-108064526D01*
X61283255Y-108178600D01*
X61652745Y-108178600D01*
X62226234Y-108064526D01*
X62712415Y-107739670D01*
X63037271Y-107253489D01*
X63084884Y-107014120D01*
X63379382Y-107308618D01*
X63667794Y-107501329D01*
X64008000Y-107569000D01*
X70993000Y-107569000D01*
X71333206Y-107501329D01*
X71621618Y-107308618D01*
X78912085Y-100018151D01*
X78954873Y-100018188D01*
X79353800Y-99853354D01*
X79659282Y-99548405D01*
X79824811Y-99149767D01*
X79825188Y-98718127D01*
X79704070Y-98425000D01*
X82435764Y-98425000D01*
X85528849Y-101518085D01*
X85528812Y-101560873D01*
X85693646Y-101959800D01*
X85998595Y-102265282D01*
X86397233Y-102430811D01*
X86828873Y-102431188D01*
X87227800Y-102266354D01*
X87514709Y-101979945D01*
X88322849Y-102788085D01*
X88322812Y-102830873D01*
X88487646Y-103229800D01*
X88792595Y-103535282D01*
X89191233Y-103700811D01*
X89622873Y-103701188D01*
X90021800Y-103536354D01*
X90327282Y-103231405D01*
X90492811Y-102832767D01*
X90493188Y-102401127D01*
X90328354Y-102002200D01*
X90023405Y-101696718D01*
X89624767Y-101531189D01*
X89580386Y-101531150D01*
X83940618Y-95891382D01*
X83829790Y-95817329D01*
X83652206Y-95698671D01*
X83312000Y-95631000D01*
X62826453Y-95631000D01*
X62712415Y-95460330D01*
X62397634Y-95250000D01*
X62712415Y-95039670D01*
X63037271Y-94553489D01*
X63151345Y-93980000D01*
X63037271Y-93406511D01*
X62712415Y-92920330D01*
X62226234Y-92595474D01*
X61652745Y-92481400D01*
X61283255Y-92481400D01*
X60709766Y-92595474D01*
X60223585Y-92920330D01*
X59898729Y-93406511D01*
X59784655Y-93980000D01*
X56781440Y-93980000D01*
X56781440Y-91440000D01*
X56737162Y-91204683D01*
X56598090Y-90988559D01*
X56385890Y-90843569D01*
X56134000Y-90792560D01*
X55326515Y-90792560D01*
X55455458Y-90739282D01*
X55813026Y-90382337D01*
X56006779Y-89915727D01*
X56007220Y-89410490D01*
X55814282Y-88943542D01*
X55457337Y-88585974D01*
X54990727Y-88392221D01*
X54485490Y-88391780D01*
X54018542Y-88584718D01*
X53660974Y-88941663D01*
X53467221Y-89408273D01*
X53466780Y-89913510D01*
X53659718Y-90380458D01*
X54016663Y-90738026D01*
X54481977Y-90931241D01*
X54412559Y-90975910D01*
X54267569Y-91188110D01*
X54216560Y-91440000D01*
X54216560Y-91831759D01*
X54102000Y-91808560D01*
X52832000Y-91808560D01*
X52596683Y-91852838D01*
X52455000Y-91944009D01*
X52455000Y-84582000D01*
X53200560Y-84582000D01*
X53200560Y-86868000D01*
X53244838Y-87103317D01*
X53383910Y-87319441D01*
X53596110Y-87464431D01*
X53848000Y-87515440D01*
X55118000Y-87515440D01*
X55353317Y-87471162D01*
X55569441Y-87332090D01*
X55714431Y-87119890D01*
X55765440Y-86868000D01*
X55765440Y-84582000D01*
X55721162Y-84346683D01*
X55582090Y-84130559D01*
X55369890Y-83985569D01*
X55118000Y-83934560D01*
X53848000Y-83934560D01*
X53612683Y-83978838D01*
X53396559Y-84117910D01*
X53251569Y-84330110D01*
X53200560Y-84582000D01*
X52455000Y-84582000D01*
X52455000Y-81028947D01*
X52580110Y-81114431D01*
X52832000Y-81165440D01*
X54102000Y-81165440D01*
X54337317Y-81121162D01*
X54483907Y-81026834D01*
X54612110Y-81114431D01*
X54864000Y-81165440D01*
X56134000Y-81165440D01*
X56369317Y-81121162D01*
X56585441Y-80982090D01*
X56730431Y-80769890D01*
X56781440Y-80518000D01*
X56781440Y-77216000D01*
X56737162Y-76980683D01*
X56598090Y-76764559D01*
X56385890Y-76619569D01*
X56134000Y-76568560D01*
X55326515Y-76568560D01*
X55455458Y-76515282D01*
X55813026Y-76158337D01*
X56006779Y-75691727D01*
X56007220Y-75186490D01*
X55814282Y-74719542D01*
X55457337Y-74361974D01*
X54990727Y-74168221D01*
X54485490Y-74167780D01*
X54018542Y-74360718D01*
X53660974Y-74717663D01*
X53467221Y-75184273D01*
X53466780Y-75689510D01*
X53659718Y-76156458D01*
X54016663Y-76514026D01*
X54481977Y-76707241D01*
X54412559Y-76751910D01*
X54267569Y-76964110D01*
X54216560Y-77216000D01*
X54216560Y-77607759D01*
X54102000Y-77584560D01*
X52832000Y-77584560D01*
X52596683Y-77628838D01*
X52455000Y-77720009D01*
X52455000Y-70358000D01*
X53200560Y-70358000D01*
X53200560Y-72644000D01*
X53244838Y-72879317D01*
X53383910Y-73095441D01*
X53596110Y-73240431D01*
X53848000Y-73291440D01*
X55118000Y-73291440D01*
X55353317Y-73247162D01*
X55569441Y-73108090D01*
X55714431Y-72895890D01*
X55765440Y-72644000D01*
X55765440Y-70967020D01*
X55840246Y-71419692D01*
X55891786Y-71556568D01*
X55938285Y-71695222D01*
X56339605Y-72396262D01*
X56411481Y-72478831D01*
X56472303Y-72569857D01*
X56970143Y-73067697D01*
X57079598Y-73140833D01*
X57183441Y-73221706D01*
X57785421Y-73523966D01*
X57843959Y-73540103D01*
X57896788Y-73570040D01*
X58496228Y-73768160D01*
X58626521Y-73784248D01*
X58755280Y-73809860D01*
X59555380Y-73809860D01*
X59560588Y-73808824D01*
X59565807Y-73809794D01*
X59718307Y-73777452D01*
X59871285Y-73747023D01*
X59875701Y-73744072D01*
X59880893Y-73742971D01*
X60579393Y-73443252D01*
X60670341Y-73380806D01*
X60768366Y-73330205D01*
X61268746Y-72931425D01*
X61319120Y-72871808D01*
X61380546Y-72823649D01*
X61931780Y-72181706D01*
X62054605Y-72396262D01*
X62126481Y-72478831D01*
X62187303Y-72569857D01*
X62685143Y-73067697D01*
X62794598Y-73140833D01*
X62898441Y-73221706D01*
X63500421Y-73523966D01*
X63558959Y-73540103D01*
X63611788Y-73570040D01*
X64211228Y-73768160D01*
X64341521Y-73784248D01*
X64470280Y-73809860D01*
X65270380Y-73809860D01*
X65275588Y-73808824D01*
X65280807Y-73809794D01*
X65433307Y-73777452D01*
X65586285Y-73747023D01*
X65590701Y-73744072D01*
X65595893Y-73742971D01*
X66294393Y-73443252D01*
X66385341Y-73380806D01*
X66483366Y-73330205D01*
X66983746Y-72931425D01*
X67034120Y-72871808D01*
X67095546Y-72823649D01*
X67591127Y-72246516D01*
X67619605Y-72296262D01*
X67691481Y-72378831D01*
X67752303Y-72469857D01*
X68250143Y-72967697D01*
X68359598Y-73040833D01*
X68463441Y-73121706D01*
X69065421Y-73423966D01*
X69123959Y-73440103D01*
X69176788Y-73470040D01*
X69776228Y-73668160D01*
X69906521Y-73684248D01*
X70035280Y-73709860D01*
X70835380Y-73709860D01*
X70840588Y-73708824D01*
X70845807Y-73709794D01*
X70998307Y-73677452D01*
X71151285Y-73647023D01*
X71155701Y-73644072D01*
X71160893Y-73642971D01*
X71859393Y-73343252D01*
X71950341Y-73280806D01*
X72048366Y-73230205D01*
X72548746Y-72831425D01*
X72599120Y-72771808D01*
X72660546Y-72723649D01*
X73262526Y-72022609D01*
X73277728Y-71995633D01*
X73300614Y-71974777D01*
X73356323Y-71856163D01*
X73420655Y-71742003D01*
X73424376Y-71711265D01*
X73437540Y-71683237D01*
X73635659Y-70883137D01*
X73640306Y-70783023D01*
X73659860Y-70684720D01*
X73659860Y-70085280D01*
X73644071Y-70005901D01*
X73644144Y-69924967D01*
X73545084Y-69424587D01*
X73502463Y-69321427D01*
X73472708Y-69213848D01*
X73272048Y-68815068D01*
X73214265Y-68741004D01*
X73169465Y-68658439D01*
X72669085Y-68056459D01*
X72603351Y-68003198D01*
X72548746Y-67938575D01*
X72048366Y-67539795D01*
X71942336Y-67485061D01*
X71842483Y-67419713D01*
X71344642Y-67219053D01*
X71255243Y-67202157D01*
X71170079Y-67170155D01*
X70568099Y-67071095D01*
X70500448Y-67073345D01*
X70434060Y-67060140D01*
X70335000Y-67060140D01*
X70268339Y-67073400D01*
X70200408Y-67071186D01*
X69600968Y-67170246D01*
X69570383Y-67181763D01*
X69537735Y-67183254D01*
X69136415Y-67282314D01*
X69024082Y-67334972D01*
X68907415Y-67377169D01*
X68407036Y-67679429D01*
X68333232Y-67746785D01*
X68250143Y-67802303D01*
X67752303Y-68300143D01*
X67696787Y-68383229D01*
X67629428Y-68457036D01*
X67513481Y-68648982D01*
X67104085Y-68156459D01*
X67038351Y-68103198D01*
X66983746Y-68038575D01*
X66483366Y-67639795D01*
X66377336Y-67585061D01*
X66277483Y-67519713D01*
X65779642Y-67319053D01*
X65690243Y-67302157D01*
X65605079Y-67270155D01*
X65003099Y-67171095D01*
X64935448Y-67173345D01*
X64869060Y-67160140D01*
X64770000Y-67160140D01*
X64703339Y-67173400D01*
X64635408Y-67171186D01*
X64035968Y-67270246D01*
X64005383Y-67281763D01*
X63972735Y-67283254D01*
X63571415Y-67382314D01*
X63459082Y-67434972D01*
X63342415Y-67477169D01*
X62842036Y-67779429D01*
X62768232Y-67846785D01*
X62685143Y-67902303D01*
X62187303Y-68400143D01*
X62131787Y-68483229D01*
X62064428Y-68557036D01*
X61914688Y-68804925D01*
X61889465Y-68758439D01*
X61389085Y-68156459D01*
X61323351Y-68103198D01*
X61268746Y-68038575D01*
X60768366Y-67639795D01*
X60662336Y-67585061D01*
X60562483Y-67519713D01*
X60064642Y-67319053D01*
X59975243Y-67302157D01*
X59890079Y-67270155D01*
X59288099Y-67171095D01*
X59220448Y-67173345D01*
X59154060Y-67160140D01*
X59055000Y-67160140D01*
X58988339Y-67173400D01*
X58920408Y-67171186D01*
X58320968Y-67270246D01*
X58290383Y-67281763D01*
X58257735Y-67283254D01*
X57856415Y-67382314D01*
X57744082Y-67434972D01*
X57627415Y-67477169D01*
X57127036Y-67779429D01*
X57053232Y-67846785D01*
X56970143Y-67902303D01*
X56472303Y-68400143D01*
X56416787Y-68483229D01*
X56349428Y-68557036D01*
X56047169Y-69057416D01*
X56015475Y-69145043D01*
X55969635Y-69226174D01*
X55771515Y-69828154D01*
X55755652Y-69957960D01*
X55730140Y-70086220D01*
X55730140Y-70170397D01*
X55721162Y-70122683D01*
X55582090Y-69906559D01*
X55369890Y-69761569D01*
X55118000Y-69710560D01*
X53848000Y-69710560D01*
X53612683Y-69754838D01*
X53396559Y-69893910D01*
X53251569Y-70106110D01*
X53200560Y-70358000D01*
X52455000Y-70358000D01*
X52455000Y-66804947D01*
X52580110Y-66890431D01*
X52832000Y-66941440D01*
X54102000Y-66941440D01*
X54337317Y-66897162D01*
X54483907Y-66802834D01*
X54612110Y-66890431D01*
X54864000Y-66941440D01*
X56134000Y-66941440D01*
X56369317Y-66897162D01*
X56585441Y-66758090D01*
X56730431Y-66545890D01*
X56781440Y-66294000D01*
X56781440Y-62992000D01*
X56737162Y-62756683D01*
X56598090Y-62540559D01*
X56385890Y-62395569D01*
X56134000Y-62344560D01*
X55326515Y-62344560D01*
X55455458Y-62291282D01*
X55813026Y-61934337D01*
X56006779Y-61467727D01*
X56007220Y-60962490D01*
X55814282Y-60495542D01*
X55457337Y-60137974D01*
X54990727Y-59944221D01*
X54485490Y-59943780D01*
X54018542Y-60136718D01*
X53660974Y-60493663D01*
X53467221Y-60960273D01*
X53466780Y-61465510D01*
X53659718Y-61932458D01*
X54016663Y-62290026D01*
X54481977Y-62483241D01*
X54412559Y-62527910D01*
X54267569Y-62740110D01*
X54216560Y-62992000D01*
X54216560Y-63383759D01*
X54102000Y-63360560D01*
X52832000Y-63360560D01*
X52596683Y-63404838D01*
X52455000Y-63496009D01*
X52455000Y-56134000D01*
X53200560Y-56134000D01*
X53200560Y-58420000D01*
X53244838Y-58655317D01*
X53383910Y-58871441D01*
X53596110Y-59016431D01*
X53848000Y-59067440D01*
X55118000Y-59067440D01*
X55353317Y-59023162D01*
X55569441Y-58884090D01*
X55714431Y-58671890D01*
X55765440Y-58420000D01*
X55765440Y-56134000D01*
X55721162Y-55898683D01*
X55582090Y-55682559D01*
X55369890Y-55537569D01*
X55118000Y-55486560D01*
X53848000Y-55486560D01*
X53612683Y-55530838D01*
X53396559Y-55669910D01*
X53251569Y-55882110D01*
X53200560Y-56134000D01*
X52455000Y-56134000D01*
X52455000Y-50602242D01*
X52514657Y-50577592D01*
X52862371Y-50230485D01*
X53050785Y-49776734D01*
X53051214Y-49285421D01*
X52863592Y-48831343D01*
X52516485Y-48483629D01*
X52062734Y-48295215D01*
X51571421Y-48294786D01*
X51117343Y-48482408D01*
X50769629Y-48829515D01*
X50681042Y-49042855D01*
X50496949Y-49226949D01*
X50248310Y-49599062D01*
X50161000Y-50038000D01*
X50161000Y-55486560D01*
X49149000Y-55486560D01*
X48913683Y-55530838D01*
X48697559Y-55669910D01*
X48552569Y-55882110D01*
X48501560Y-56134000D01*
X44398000Y-56134000D01*
X44398000Y-28142000D01*
X118237000Y-28142000D01*
X118237000Y-49727016D01*
G36*
X110871000Y-66154236D02*
X110871000Y-76454000D01*
X110938671Y-76794206D01*
X111114696Y-77057646D01*
X111131382Y-77082618D01*
X111847208Y-77798444D01*
X111752734Y-77759215D01*
X111261421Y-77758786D01*
X111047928Y-77847000D01*
X106139103Y-77847000D01*
X102227009Y-73934907D01*
X102139592Y-73723343D01*
X101792485Y-73375629D01*
X101338734Y-73187215D01*
X100847421Y-73186786D01*
X100457000Y-73348105D01*
X100457000Y-67701634D01*
X100487282Y-67671405D01*
X100652811Y-67272767D01*
X100653188Y-66841127D01*
X100488354Y-66442200D01*
X100213634Y-66167000D01*
X102122055Y-66167000D01*
X102160281Y-66259515D01*
X102448338Y-66548075D01*
X102161996Y-66833918D01*
X101897301Y-67471373D01*
X101896699Y-68161599D01*
X102160281Y-68799515D01*
X102647918Y-69288004D01*
X103285373Y-69552699D01*
X103975599Y-69553301D01*
X104613515Y-69289719D01*
X105102004Y-68802082D01*
X105366699Y-68164627D01*
X105367301Y-67474401D01*
X105103719Y-66836485D01*
X104815662Y-66547925D01*
X105102004Y-66262082D01*
X105366699Y-65624627D01*
X105367301Y-64934401D01*
X105103719Y-64296485D01*
X104815662Y-64007925D01*
X105102004Y-63722082D01*
X105366699Y-63084627D01*
X105367301Y-62394401D01*
X105103719Y-61756485D01*
X104815662Y-61467925D01*
X105102004Y-61182082D01*
X105335801Y-60619037D01*
X110871000Y-66154236D01*
X110871000Y-66154236D01*
G37*
X110871000Y-66154236D02*
X110871000Y-76454000D01*
X110938671Y-76794206D01*
X111114696Y-77057646D01*
X111131382Y-77082618D01*
X111847208Y-77798444D01*
X111752734Y-77759215D01*
X111261421Y-77758786D01*
X111047928Y-77847000D01*
X106139103Y-77847000D01*
X102227009Y-73934907D01*
X102139592Y-73723343D01*
X101792485Y-73375629D01*
X101338734Y-73187215D01*
X100847421Y-73186786D01*
X100457000Y-73348105D01*
X100457000Y-67701634D01*
X100487282Y-67671405D01*
X100652811Y-67272767D01*
X100653188Y-66841127D01*
X100488354Y-66442200D01*
X100213634Y-66167000D01*
X102122055Y-66167000D01*
X102160281Y-66259515D01*
X102448338Y-66548075D01*
X102161996Y-66833918D01*
X101897301Y-67471373D01*
X101896699Y-68161599D01*
X102160281Y-68799515D01*
X102647918Y-69288004D01*
X103285373Y-69552699D01*
X103975599Y-69553301D01*
X104613515Y-69289719D01*
X105102004Y-68802082D01*
X105366699Y-68164627D01*
X105367301Y-67474401D01*
X105103719Y-66836485D01*
X104815662Y-66547925D01*
X105102004Y-66262082D01*
X105366699Y-65624627D01*
X105367301Y-64934401D01*
X105103719Y-64296485D01*
X104815662Y-64007925D01*
X105102004Y-63722082D01*
X105366699Y-63084627D01*
X105367301Y-62394401D01*
X105103719Y-61756485D01*
X104815662Y-61467925D01*
X105102004Y-61182082D01*
X105335801Y-60619037D01*
X110871000Y-66154236D01*
G36*
X102160281Y-61179515D02*
X102448338Y-61468075D01*
X102161996Y-61753918D01*
X101897301Y-62391373D01*
X101896699Y-63081599D01*
X102160281Y-63719515D01*
X102448338Y-64008075D01*
X102161996Y-64293918D01*
X102122514Y-64389000D01*
X94856236Y-64389000D01*
X98158236Y-61087000D01*
X102122055Y-61087000D01*
X102160281Y-61179515D01*
X102160281Y-61179515D01*
G37*
X102160281Y-61179515D02*
X102448338Y-61468075D01*
X102161996Y-61753918D01*
X101897301Y-62391373D01*
X101896699Y-63081599D01*
X102160281Y-63719515D01*
X102448338Y-64008075D01*
X102161996Y-64293918D01*
X102122514Y-64389000D01*
X94856236Y-64389000D01*
X98158236Y-61087000D01*
X102122055Y-61087000D01*
X102160281Y-61179515D01*
G36*
X81576699Y-37681599D02*
X81840281Y-38319515D01*
X82128338Y-38608075D01*
X81841996Y-38893918D01*
X81577301Y-39531373D01*
X81576699Y-40221599D01*
X81840281Y-40859515D01*
X82128338Y-41148075D01*
X81841996Y-41433918D01*
X81577301Y-42071373D01*
X81576699Y-42761599D01*
X81840281Y-43399515D01*
X82128338Y-43688075D01*
X81841996Y-43973918D01*
X81577301Y-44611373D01*
X81576699Y-45301599D01*
X81840281Y-45939515D01*
X82128338Y-46228075D01*
X81841996Y-46513918D01*
X81802514Y-46609000D01*
X73840236Y-46609000D01*
X72713151Y-45481915D01*
X72713188Y-45439127D01*
X72548354Y-45040200D01*
X72243405Y-44734718D01*
X71844767Y-44569189D01*
X71413127Y-44568812D01*
X71014200Y-44733646D01*
X70821373Y-44926137D01*
X69398063Y-43502827D01*
X69810873Y-43503188D01*
X70209800Y-43338354D01*
X70241209Y-43307000D01*
X75184000Y-43307000D01*
X75524206Y-43239329D01*
X75812618Y-43046618D01*
X81577047Y-37282189D01*
X81576699Y-37681599D01*
X81576699Y-37681599D01*
G37*
X81576699Y-37681599D02*
X81840281Y-38319515D01*
X82128338Y-38608075D01*
X81841996Y-38893918D01*
X81577301Y-39531373D01*
X81576699Y-40221599D01*
X81840281Y-40859515D01*
X82128338Y-41148075D01*
X81841996Y-41433918D01*
X81577301Y-42071373D01*
X81576699Y-42761599D01*
X81840281Y-43399515D01*
X82128338Y-43688075D01*
X81841996Y-43973918D01*
X81577301Y-44611373D01*
X81576699Y-45301599D01*
X81840281Y-45939515D01*
X82128338Y-46228075D01*
X81841996Y-46513918D01*
X81802514Y-46609000D01*
X73840236Y-46609000D01*
X72713151Y-45481915D01*
X72713188Y-45439127D01*
X72548354Y-45040200D01*
X72243405Y-44734718D01*
X71844767Y-44569189D01*
X71413127Y-44568812D01*
X71014200Y-44733646D01*
X70821373Y-44926137D01*
X69398063Y-43502827D01*
X69810873Y-43503188D01*
X70209800Y-43338354D01*
X70241209Y-43307000D01*
X75184000Y-43307000D01*
X75524206Y-43239329D01*
X75812618Y-43046618D01*
X81577047Y-37282189D01*
X81576699Y-37681599D01*
M02*
