G04 #@! TF.FileFunction,Copper,L1,Top,Signal*
%FSLAX46Y46*%
G04 Gerber Fmt 4.6, Leading zero omitted, Abs format (unit mm)*
G04 Created by KiCad (PCBNEW (2015-12-10 BZR 6367)-product) date Fri 14 Oct 2016 00:38:17 BST*
%MOMM*%
G01*
G04 APERTURE LIST*
%ADD10C,0.100000*%
%ADD11R,0.500000X0.900000*%
%ADD12R,0.900000X0.500000*%
%ADD13R,1.270000X0.610000*%
%ADD14R,1.020000X0.610000*%
%ADD15R,3.810000X3.910000*%
%ADD16O,3.962400X1.981200*%
%ADD17R,1.800860X2.499360*%
%ADD18R,0.797560X0.797560*%
%ADD19R,1.000000X1.250000*%
%ADD20R,1.250000X1.000000*%
%ADD21R,0.750000X0.800000*%
%ADD22R,0.800000X0.750000*%
%ADD23R,2.032000X1.727200*%
%ADD24O,2.032000X1.727200*%
%ADD25R,0.800100X0.800100*%
%ADD26R,0.450000X1.450000*%
%ADD27R,1.060000X0.650000*%
%ADD28R,0.660400X0.406400*%
%ADD29R,1.500000X0.600000*%
%ADD30R,2.000000X2.400000*%
%ADD31C,2.200000*%
%ADD32R,1.699260X1.198880*%
%ADD33O,1.699260X1.198880*%
%ADD34O,2.100000X3.300000*%
%ADD35O,3.300000X1.800000*%
%ADD36C,2.300000*%
%ADD37C,2.000000*%
%ADD38C,1.200000*%
%ADD39C,0.900000*%
%ADD40C,1.024000*%
%ADD41C,2.000000*%
%ADD42C,0.508000*%
%ADD43C,1.500000*%
%ADD44C,0.381000*%
%ADD45C,0.768000*%
%ADD46C,0.254000*%
G04 APERTURE END LIST*
D10*
D11*
X128766000Y-56388000D03*
X127266000Y-56388000D03*
D12*
X125222000Y-63996000D03*
X125222000Y-62496000D03*
D13*
X127124000Y-60071000D03*
X127124000Y-61341000D03*
X127124000Y-62611000D03*
X127124000Y-63881000D03*
D14*
X132589000Y-63881000D03*
X132589000Y-62611000D03*
X132589000Y-61341000D03*
X132589000Y-60071000D03*
D15*
X130484000Y-61976000D03*
D16*
X135636000Y-55626000D03*
X135636000Y-60626000D03*
D17*
X131318000Y-54389020D03*
X131318000Y-58386980D03*
D18*
X127266700Y-57912000D03*
X128765300Y-57912000D03*
D19*
X128508000Y-54356000D03*
X126508000Y-54356000D03*
X128508000Y-103124000D03*
X126508000Y-103124000D03*
D18*
X127266700Y-106680000D03*
X128765300Y-106680000D03*
D17*
X131318000Y-103157020D03*
X131318000Y-107154980D03*
D16*
X135636000Y-104394000D03*
X135636000Y-109394000D03*
D13*
X127124000Y-108839000D03*
X127124000Y-110109000D03*
X127124000Y-111379000D03*
X127124000Y-112649000D03*
D14*
X132589000Y-112649000D03*
X132589000Y-111379000D03*
X132589000Y-110109000D03*
X132589000Y-108839000D03*
D15*
X130484000Y-110744000D03*
D12*
X125222000Y-112764000D03*
X125222000Y-111264000D03*
D11*
X128766000Y-105156000D03*
X127266000Y-105156000D03*
X128766000Y-117348000D03*
X127266000Y-117348000D03*
D12*
X125222000Y-124956000D03*
X125222000Y-123456000D03*
D13*
X127124000Y-121031000D03*
X127124000Y-122301000D03*
X127124000Y-123571000D03*
X127124000Y-124841000D03*
D14*
X132589000Y-124841000D03*
X132589000Y-123571000D03*
X132589000Y-122301000D03*
X132589000Y-121031000D03*
D15*
X130484000Y-122936000D03*
D16*
X135636000Y-116586000D03*
X135636000Y-121586000D03*
D17*
X131318000Y-115349020D03*
X131318000Y-119346980D03*
D18*
X127266700Y-118872000D03*
X128765300Y-118872000D03*
D19*
X128508000Y-115316000D03*
X126508000Y-115316000D03*
X128508000Y-66548000D03*
X126508000Y-66548000D03*
D18*
X127266700Y-70104000D03*
X128765300Y-70104000D03*
D17*
X131318000Y-66581020D03*
X131318000Y-70578980D03*
D16*
X135636000Y-67818000D03*
X135636000Y-72818000D03*
D13*
X127124000Y-72263000D03*
X127124000Y-73533000D03*
X127124000Y-74803000D03*
X127124000Y-76073000D03*
D14*
X132589000Y-76073000D03*
X132589000Y-74803000D03*
X132589000Y-73533000D03*
X132589000Y-72263000D03*
D15*
X130484000Y-74168000D03*
D12*
X125222000Y-76188000D03*
X125222000Y-74688000D03*
D11*
X128766000Y-68580000D03*
X127266000Y-68580000D03*
X128766000Y-44196000D03*
X127266000Y-44196000D03*
D12*
X125222000Y-51804000D03*
X125222000Y-50304000D03*
D13*
X127124000Y-47879000D03*
X127124000Y-49149000D03*
X127124000Y-50419000D03*
X127124000Y-51689000D03*
D14*
X132589000Y-51689000D03*
X132589000Y-50419000D03*
X132589000Y-49149000D03*
X132589000Y-47879000D03*
D15*
X130484000Y-49784000D03*
D16*
X135636000Y-43434000D03*
X135636000Y-48434000D03*
D17*
X131318000Y-42197020D03*
X131318000Y-46194980D03*
D18*
X127266700Y-45720000D03*
X128765300Y-45720000D03*
D19*
X128508000Y-42164000D03*
X126508000Y-42164000D03*
X128508000Y-90932000D03*
X126508000Y-90932000D03*
D18*
X127266700Y-94488000D03*
X128765300Y-94488000D03*
D17*
X131318000Y-90965020D03*
X131318000Y-94962980D03*
D16*
X135636000Y-92202000D03*
X135636000Y-97202000D03*
D13*
X127124000Y-96647000D03*
X127124000Y-97917000D03*
X127124000Y-99187000D03*
X127124000Y-100457000D03*
D14*
X132589000Y-100457000D03*
X132589000Y-99187000D03*
X132589000Y-97917000D03*
X132589000Y-96647000D03*
D15*
X130484000Y-98552000D03*
D12*
X125222000Y-100572000D03*
X125222000Y-99072000D03*
D11*
X128766000Y-92964000D03*
X127266000Y-92964000D03*
X128766000Y-80772000D03*
X127266000Y-80772000D03*
D12*
X125222000Y-88380000D03*
X125222000Y-86880000D03*
D13*
X127124000Y-84455000D03*
X127124000Y-85725000D03*
X127124000Y-86995000D03*
X127124000Y-88265000D03*
D14*
X132589000Y-88265000D03*
X132589000Y-86995000D03*
X132589000Y-85725000D03*
X132589000Y-84455000D03*
D15*
X130484000Y-86360000D03*
D16*
X135636000Y-80010000D03*
X135636000Y-85010000D03*
D17*
X131318000Y-78773020D03*
X131318000Y-82770980D03*
D18*
X127266700Y-82296000D03*
X128765300Y-82296000D03*
D19*
X128508000Y-78740000D03*
X126508000Y-78740000D03*
X105140000Y-124206000D03*
X103140000Y-124206000D03*
D20*
X48895000Y-37735000D03*
X48895000Y-39735000D03*
D21*
X76962000Y-45454000D03*
X76962000Y-43954000D03*
D22*
X114312000Y-81788000D03*
X115812000Y-81788000D03*
D19*
X128508000Y-29972000D03*
X126508000Y-29972000D03*
D22*
X48248000Y-59944000D03*
X46748000Y-59944000D03*
X48248000Y-74168000D03*
X46748000Y-74168000D03*
X51296000Y-65024000D03*
X49796000Y-65024000D03*
X51296000Y-79248000D03*
X49796000Y-79248000D03*
X48248000Y-88392000D03*
X46748000Y-88392000D03*
X48248000Y-102616000D03*
X46748000Y-102616000D03*
X51296000Y-93472000D03*
X49796000Y-93472000D03*
X51296000Y-107696000D03*
X49796000Y-107696000D03*
D21*
X110744000Y-62750000D03*
X110744000Y-64250000D03*
X89916000Y-92468000D03*
X89916000Y-93968000D03*
X79756000Y-89674000D03*
X79756000Y-91174000D03*
D18*
X127266700Y-33528000D03*
X128765300Y-33528000D03*
D17*
X131318000Y-30005020D03*
X131318000Y-34002980D03*
D23*
X109220000Y-109220000D03*
D24*
X109220000Y-106680000D03*
X109220000Y-104140000D03*
X109220000Y-101600000D03*
X109220000Y-99060000D03*
X109220000Y-96520000D03*
X109220000Y-93980000D03*
D23*
X61468000Y-109220000D03*
D24*
X61468000Y-106680000D03*
X61468000Y-104140000D03*
X61468000Y-101600000D03*
X61468000Y-99060000D03*
X61468000Y-96520000D03*
X61468000Y-93980000D03*
D16*
X135636000Y-31242000D03*
X135636000Y-36242000D03*
D25*
X55610760Y-34605000D03*
X55610760Y-32705000D03*
X53611780Y-33655000D03*
D13*
X127124000Y-35687000D03*
X127124000Y-36957000D03*
X127124000Y-38227000D03*
X127124000Y-39497000D03*
D14*
X132589000Y-39497000D03*
X132589000Y-38227000D03*
X132589000Y-36957000D03*
X132589000Y-35687000D03*
D15*
X130484000Y-37592000D03*
D25*
X50866000Y-50784760D03*
X52766000Y-50784760D03*
X51816000Y-48785780D03*
D12*
X57150000Y-34405000D03*
X57150000Y-32905000D03*
D11*
X70854000Y-42164000D03*
X69354000Y-42164000D03*
D12*
X125222000Y-39612000D03*
X125222000Y-38112000D03*
D11*
X128766000Y-32004000D03*
X127266000Y-32004000D03*
X49796000Y-59944000D03*
X51296000Y-59944000D03*
X49796000Y-74168000D03*
X51296000Y-74168000D03*
X52566000Y-52324000D03*
X51066000Y-52324000D03*
X49796000Y-88392000D03*
X51296000Y-88392000D03*
X49796000Y-102616000D03*
X51296000Y-102616000D03*
D12*
X112522000Y-64250000D03*
X112522000Y-62750000D03*
X88138000Y-92468000D03*
X88138000Y-93968000D03*
D11*
X92468000Y-92456000D03*
X93968000Y-92456000D03*
D12*
X77978000Y-89674000D03*
X77978000Y-91174000D03*
X76200000Y-89674000D03*
X76200000Y-91174000D03*
D26*
X70063000Y-35646000D03*
X69413000Y-35646000D03*
X68763000Y-35646000D03*
X68113000Y-35646000D03*
X68113000Y-40046000D03*
X68763000Y-40046000D03*
X69413000Y-40046000D03*
X70063000Y-40046000D03*
D27*
X73068000Y-43754000D03*
X73068000Y-44704000D03*
X73068000Y-45654000D03*
X75268000Y-45654000D03*
X75268000Y-43754000D03*
D26*
X112137000Y-84738000D03*
X112787000Y-84738000D03*
X113437000Y-84738000D03*
X114087000Y-84738000D03*
X114737000Y-84738000D03*
X115387000Y-84738000D03*
X116037000Y-84738000D03*
X116687000Y-84738000D03*
X117337000Y-84738000D03*
X117987000Y-84738000D03*
X117987000Y-78838000D03*
X117337000Y-78838000D03*
X116687000Y-78838000D03*
X116037000Y-78838000D03*
X115387000Y-78838000D03*
X114737000Y-78838000D03*
X114087000Y-78838000D03*
X113437000Y-78838000D03*
X112787000Y-78838000D03*
X112137000Y-78838000D03*
D25*
X109154000Y-62753240D03*
X107254000Y-62753240D03*
X108204000Y-64752220D03*
D28*
X87122000Y-95097600D03*
X87122000Y-96418400D03*
X87122000Y-95758000D03*
X89154000Y-96418400D03*
X89154000Y-95097600D03*
D29*
X90772000Y-96393000D03*
X90772000Y-97663000D03*
X90772000Y-98933000D03*
X90772000Y-100203000D03*
X90772000Y-101473000D03*
X90772000Y-102743000D03*
X90772000Y-104013000D03*
X90772000Y-105283000D03*
X96172000Y-105283000D03*
X96172000Y-104013000D03*
X96172000Y-102743000D03*
X96172000Y-101473000D03*
X96172000Y-100203000D03*
X96172000Y-98933000D03*
X96172000Y-97663000D03*
X96172000Y-96393000D03*
D28*
X83312000Y-92608400D03*
X83312000Y-91287600D03*
X83312000Y-91948000D03*
X81280000Y-91287600D03*
X81280000Y-92608400D03*
D30*
X67546000Y-32004000D03*
X71646000Y-32004000D03*
D31*
X103632000Y-34798000D03*
X103632000Y-37338000D03*
X103632000Y-39878000D03*
X103632000Y-42418000D03*
X103632000Y-44958000D03*
X103632000Y-47498000D03*
X103632000Y-50038000D03*
X103632000Y-52578000D03*
X103632000Y-55118000D03*
X103632000Y-57658000D03*
X103632000Y-60198000D03*
X103632000Y-62738000D03*
X103632000Y-65278000D03*
X103632000Y-67818000D03*
X83312000Y-67818000D03*
X83312000Y-65278000D03*
X83312000Y-62738000D03*
X83312000Y-60198000D03*
X83312000Y-57658000D03*
X83312000Y-55118000D03*
X83312000Y-52578000D03*
X83312000Y-50038000D03*
X83312000Y-47498000D03*
X83312000Y-44958000D03*
X83312000Y-42418000D03*
X83312000Y-39878000D03*
X83312000Y-37338000D03*
X83312000Y-34798000D03*
D17*
X48006000Y-48547020D03*
X48006000Y-52544980D03*
D32*
X51435000Y-39832280D03*
D33*
X51435000Y-35829240D03*
X51435000Y-37830760D03*
X51435000Y-33830260D03*
D34*
X96940000Y-118110000D03*
D35*
X102440000Y-120610000D03*
X102440000Y-115610000D03*
X106090000Y-121010000D03*
X106090000Y-115210000D03*
D36*
X98940000Y-115610000D03*
X98940000Y-120610000D03*
D37*
X74208000Y-35560000D03*
X79208000Y-35560000D03*
D38*
X133350000Y-116840000D03*
X130302000Y-116840000D03*
X131826000Y-116840000D03*
X134620000Y-119380000D03*
X133350000Y-118110000D03*
X138176000Y-124968000D03*
X138176000Y-123444000D03*
X139700000Y-123444000D03*
X135128000Y-124968000D03*
X136652000Y-124968000D03*
X141224000Y-124968000D03*
X139700000Y-124968000D03*
X106172000Y-123190000D03*
X121412000Y-125222000D03*
X119888000Y-125222000D03*
X118364000Y-125222000D03*
X116840000Y-125222000D03*
X115316000Y-125222000D03*
X113792000Y-125222000D03*
X112268000Y-125222000D03*
X110744000Y-125222000D03*
X109220000Y-125222000D03*
X107696000Y-125222000D03*
X106172000Y-125222000D03*
X121412000Y-123190000D03*
X107696000Y-123190000D03*
X109220000Y-123190000D03*
X110744000Y-123190000D03*
X112268000Y-123190000D03*
X113792000Y-123190000D03*
X115316000Y-123190000D03*
X116840000Y-123190000D03*
X118364000Y-123190000D03*
X119888000Y-123190000D03*
X113284000Y-108458000D03*
X114300000Y-109474000D03*
X115316000Y-110490000D03*
X122174000Y-110236000D03*
X121158000Y-109220000D03*
X120142000Y-108204000D03*
X119126000Y-107188000D03*
X118110000Y-106172000D03*
X123190000Y-111252000D03*
X115062000Y-103124000D03*
X116078000Y-104140000D03*
X117094000Y-105156000D03*
X124206000Y-97536000D03*
X123190000Y-96520000D03*
X122174000Y-95504000D03*
X121158000Y-94488000D03*
X120142000Y-93472000D03*
X118110000Y-91440000D03*
X119126000Y-92456000D03*
X123952000Y-101600000D03*
X122936000Y-100584000D03*
X121920000Y-99568000D03*
X120904000Y-98552000D03*
X119888000Y-97536000D03*
X115824000Y-93472000D03*
X116840000Y-94488000D03*
X117856000Y-95504000D03*
X118872000Y-96520000D03*
X126508000Y-115316000D03*
X125219000Y-119126000D03*
X125222000Y-36576000D03*
X123698000Y-36576000D03*
X122174000Y-36576000D03*
X120650000Y-36576000D03*
X120650000Y-38100000D03*
X122174000Y-38100000D03*
X123698000Y-38100000D03*
X126508000Y-42164000D03*
X124968000Y-41656000D03*
X123952000Y-50800000D03*
X122936000Y-51816000D03*
X122936000Y-49784000D03*
X121920000Y-48768000D03*
X120904000Y-47752000D03*
X119888000Y-46736000D03*
X123444000Y-41656000D03*
X121920000Y-41656000D03*
X120904000Y-42672000D03*
X119888000Y-43688000D03*
X119888000Y-45212000D03*
X126508000Y-54356000D03*
X119888000Y-59436000D03*
X120904000Y-58420000D03*
X121920000Y-57404000D03*
X122936000Y-56388000D03*
X123952000Y-55372000D03*
X124968000Y-54356000D03*
X122936000Y-61976000D03*
X123952000Y-62992000D03*
X122936000Y-64008000D03*
X121920000Y-65024000D03*
X120904000Y-66040000D03*
X119888000Y-67056000D03*
X119888000Y-65024000D03*
X120904000Y-64008000D03*
X121920000Y-62992000D03*
X126508000Y-66548000D03*
X122682000Y-69596000D03*
X121666000Y-70612000D03*
X120650000Y-71628000D03*
X120650000Y-73152000D03*
X120650000Y-74676000D03*
X122174000Y-74676000D03*
X123698000Y-74676000D03*
X123698000Y-79248000D03*
X122174000Y-79248000D03*
X120650000Y-79248000D03*
X120650000Y-77724000D03*
X122174000Y-77724000D03*
X123698000Y-77724000D03*
X125222000Y-77724000D03*
X123698000Y-85344000D03*
X122174000Y-85344000D03*
X120650000Y-85344000D03*
X120650000Y-86868000D03*
X122174000Y-86868000D03*
X123698000Y-86868000D03*
X123190000Y-92456000D03*
X122174000Y-91440000D03*
X120650000Y-91440000D03*
X120650000Y-89916000D03*
X122174000Y-89916000D03*
X123698000Y-89916000D03*
X125222000Y-89916000D03*
X113284000Y-111506000D03*
X118364000Y-113538000D03*
X117348000Y-112522000D03*
X116332000Y-111506000D03*
X122428000Y-119126000D03*
X119380000Y-114554000D03*
X120396000Y-115570000D03*
X121412000Y-116586000D03*
X122428000Y-117602000D03*
X119380000Y-117602000D03*
X118364000Y-116586000D03*
X117348000Y-115570000D03*
X116332000Y-114554000D03*
X115316000Y-113538000D03*
X114300000Y-112522000D03*
X55610760Y-32705000D03*
D39*
X107188000Y-30734000D03*
X107188000Y-34544000D03*
X110236000Y-29718000D03*
X93980000Y-30226000D03*
X92710000Y-45720000D03*
X80010000Y-42164000D03*
X96774000Y-63754000D03*
X106934000Y-74676000D03*
D38*
X118618000Y-84836000D03*
X111252000Y-84836000D03*
X75184000Y-51308000D03*
X125222000Y-120777000D03*
X125222000Y-111264000D03*
X125222000Y-99072000D03*
X125222000Y-86880000D03*
X125222000Y-74688000D03*
X125222000Y-62496000D03*
X125222000Y-50304000D03*
X125222000Y-38112000D03*
X127127000Y-120777000D03*
X127124000Y-108839000D03*
X127124000Y-96647000D03*
X127124000Y-84455000D03*
X127124000Y-72263000D03*
X127124000Y-60071000D03*
X127124000Y-35687000D03*
X127124000Y-47879000D03*
X66802000Y-60198000D03*
X52832000Y-55118000D03*
X46736000Y-56134000D03*
X73152000Y-60198000D03*
D39*
X93980000Y-92964000D03*
X76200000Y-91186000D03*
D38*
X83312000Y-90932000D03*
X93472000Y-101600000D03*
X49784000Y-93472000D03*
X49784000Y-107696000D03*
X46736000Y-101600000D03*
X49784000Y-65024000D03*
X49784000Y-79248000D03*
X46736000Y-87376000D03*
X46736000Y-73152000D03*
X46736000Y-58928000D03*
X68326000Y-38354000D03*
D39*
X87122000Y-96774000D03*
D38*
X111506000Y-78994000D03*
X101092000Y-74422000D03*
X84709000Y-90170000D03*
D39*
X81280000Y-92456000D03*
D38*
X94996000Y-96012000D03*
X93472000Y-100076000D03*
D39*
X89154000Y-95097600D03*
D38*
X69850000Y-38354000D03*
X77724000Y-62738000D03*
X49784000Y-101600000D03*
X49784000Y-87376000D03*
X51816000Y-49530000D03*
X51308000Y-65024000D03*
X51308000Y-79248000D03*
X51308000Y-93472000D03*
X51308000Y-107696000D03*
X49784000Y-73152000D03*
X49784000Y-58928000D03*
D39*
X99568000Y-67056000D03*
X99568000Y-84582000D03*
X78740000Y-98933000D03*
X86614000Y-101346000D03*
X89408000Y-102616000D03*
X69596000Y-42418000D03*
X71628000Y-45654000D03*
X68326000Y-41656000D03*
X84582000Y-94996000D03*
X83820000Y-92964000D03*
X97536000Y-105156000D03*
X86360000Y-91948000D03*
X116840000Y-83312000D03*
X115316000Y-83312000D03*
D38*
X78232000Y-70358000D03*
X78232000Y-71882000D03*
D39*
X114046000Y-77216000D03*
X115570000Y-80264000D03*
D38*
X78232000Y-73406000D03*
X78232000Y-74930000D03*
D39*
X76454000Y-52578000D03*
X98552000Y-66548000D03*
X98552000Y-97028000D03*
X116840000Y-76962000D03*
X112014000Y-36322000D03*
X118364000Y-77978000D03*
X113284000Y-35052000D03*
D40*
X131826000Y-116840000D02*
X130302000Y-116840000D01*
X133350000Y-118110000D02*
X134620000Y-119380000D01*
X133350000Y-116840000D02*
X133350000Y-118110000D01*
X131859020Y-115349020D02*
X133350000Y-116840000D01*
X131318000Y-115349020D02*
X131859020Y-115349020D01*
D41*
X138176000Y-124968000D02*
X138176000Y-123444000D01*
X135128000Y-124968000D02*
X136652000Y-124968000D01*
X139700000Y-124968000D02*
X141224000Y-124968000D01*
X106090000Y-121010000D02*
X106090000Y-123108000D01*
X106090000Y-123108000D02*
X106172000Y-123190000D01*
X119888000Y-125222000D02*
X121412000Y-125222000D01*
X116840000Y-125222000D02*
X118364000Y-125222000D01*
X113792000Y-125222000D02*
X115316000Y-125222000D01*
X110744000Y-125222000D02*
X112268000Y-125222000D01*
X107696000Y-125222000D02*
X109220000Y-125222000D01*
X106172000Y-123190000D02*
X107696000Y-123190000D01*
X109220000Y-123190000D02*
X110744000Y-123190000D01*
X112268000Y-123190000D02*
X113792000Y-123190000D01*
X115316000Y-123190000D02*
X116840000Y-123190000D01*
X118364000Y-123190000D02*
X119888000Y-123190000D01*
X106090000Y-115210000D02*
X106090000Y-121010000D01*
D42*
X128766000Y-117348000D02*
X130764980Y-115349020D01*
X130764980Y-115349020D02*
X131318000Y-115349020D01*
X128766000Y-105156000D02*
X130764980Y-103157020D01*
X130764980Y-103157020D02*
X131318000Y-103157020D01*
X128766000Y-92964000D02*
X130764980Y-90965020D01*
X130764980Y-90965020D02*
X131318000Y-90965020D01*
X128766000Y-80772000D02*
X130764980Y-78773020D01*
X130764980Y-78773020D02*
X131318000Y-78773020D01*
D43*
X131318000Y-78773020D02*
X131284980Y-78740000D01*
X131284980Y-78740000D02*
X128508000Y-78740000D01*
D42*
X128766000Y-68580000D02*
X130764980Y-66581020D01*
X130764980Y-66581020D02*
X131318000Y-66581020D01*
X128766000Y-56388000D02*
X130764980Y-54389020D01*
X130764980Y-54389020D02*
X131318000Y-54389020D01*
X128766000Y-44196000D02*
X130764980Y-42197020D01*
X130764980Y-42197020D02*
X131318000Y-42197020D01*
X128766000Y-32004000D02*
X130764980Y-30005020D01*
X130764980Y-30005020D02*
X131318000Y-30005020D01*
D43*
X131318000Y-30005020D02*
X131284980Y-29972000D01*
X131284980Y-29972000D02*
X128508000Y-29972000D01*
X131318000Y-42197020D02*
X131284980Y-42164000D01*
X131284980Y-42164000D02*
X128508000Y-42164000D01*
X131318000Y-54389020D02*
X128541020Y-54389020D01*
X128541020Y-54389020D02*
X128508000Y-54356000D01*
X131318000Y-54389020D02*
X131284980Y-54356000D01*
X131318000Y-66581020D02*
X131284980Y-66548000D01*
X131284980Y-66548000D02*
X128508000Y-66548000D01*
X131318000Y-115349020D02*
X131284980Y-115316000D01*
X131284980Y-115316000D02*
X128508000Y-115316000D01*
X131318000Y-103157020D02*
X131284980Y-103124000D01*
X131284980Y-103124000D02*
X128508000Y-103124000D01*
X131318000Y-90965020D02*
X128541020Y-90965020D01*
X128541020Y-90965020D02*
X128508000Y-90932000D01*
X135636000Y-116586000D02*
X134399020Y-115349020D01*
X134399020Y-115349020D02*
X131318000Y-115349020D01*
X135636000Y-67818000D02*
X134399020Y-66581020D01*
X134399020Y-66581020D02*
X131318000Y-66581020D01*
X135636000Y-104394000D02*
X134399020Y-103157020D01*
X134399020Y-103157020D02*
X131318000Y-103157020D01*
X135636000Y-55626000D02*
X134399020Y-54389020D01*
X134399020Y-54389020D02*
X131318000Y-54389020D01*
X135636000Y-92202000D02*
X134399020Y-90965020D01*
X134399020Y-90965020D02*
X131318000Y-90965020D01*
X135636000Y-43434000D02*
X134399020Y-42197020D01*
X134399020Y-42197020D02*
X131318000Y-42197020D01*
X135636000Y-80010000D02*
X134399020Y-78773020D01*
X134399020Y-78773020D02*
X131318000Y-78773020D01*
X135636000Y-31242000D02*
X134399020Y-30005020D01*
X134399020Y-30005020D02*
X131318000Y-30005020D01*
D40*
X116332000Y-111506000D02*
X115316000Y-110490000D01*
X114300000Y-109474000D02*
X113284000Y-108458000D01*
X122174000Y-110236000D02*
X121158000Y-109220000D01*
X120142000Y-108204000D02*
X119126000Y-107188000D01*
X125210000Y-111252000D02*
X123190000Y-111252000D01*
X117094000Y-105156000D02*
X116078000Y-104140000D01*
X125222000Y-98552000D02*
X124206000Y-97536000D01*
X123190000Y-96520000D02*
X122174000Y-95504000D01*
X121158000Y-94488000D02*
X120142000Y-93472000D01*
X125222000Y-99072000D02*
X125222000Y-98552000D01*
X119126000Y-92456000D02*
X118110000Y-91440000D01*
X125476000Y-103124000D02*
X123952000Y-101600000D01*
X122936000Y-100584000D02*
X121920000Y-99568000D01*
X120904000Y-98552000D02*
X119888000Y-97536000D01*
X126508000Y-103124000D02*
X125476000Y-103124000D01*
X116840000Y-94488000D02*
X115824000Y-93472000D01*
X118872000Y-96520000D02*
X117856000Y-95504000D01*
X125219000Y-119126000D02*
X125476000Y-119383000D01*
X126107185Y-119915933D02*
X126107185Y-115716815D01*
X126107185Y-115716815D02*
X126508000Y-115316000D01*
X125222000Y-38112000D02*
X123710000Y-38112000D01*
X123698000Y-36576000D02*
X125222000Y-36576000D01*
X120650000Y-36576000D02*
X122174000Y-36576000D01*
X122174000Y-38100000D02*
X120650000Y-38100000D01*
X123710000Y-38112000D02*
X123698000Y-38100000D01*
D43*
X125476000Y-43196000D02*
X125476000Y-46231000D01*
X127124000Y-47879000D02*
X125476000Y-46231000D01*
X126508000Y-42164000D02*
X125476000Y-43196000D01*
D40*
X123444000Y-41656000D02*
X124968000Y-41656000D01*
X119888000Y-46736000D02*
X119888000Y-45212000D01*
X124448000Y-50304000D02*
X123952000Y-50800000D01*
X122936000Y-51816000D02*
X122936000Y-49784000D01*
X121920000Y-48768000D02*
X120904000Y-47752000D01*
X125222000Y-50304000D02*
X124448000Y-50304000D01*
X121920000Y-41656000D02*
X123444000Y-41656000D01*
X119888000Y-43688000D02*
X120904000Y-42672000D01*
X124968000Y-54356000D02*
X126508000Y-54356000D01*
X123952000Y-55372000D02*
X124968000Y-54356000D01*
X120904000Y-58420000D02*
X121920000Y-57404000D01*
X122936000Y-56388000D02*
X123952000Y-55372000D01*
X119888000Y-65024000D02*
X119888000Y-59436000D01*
X123952000Y-62992000D02*
X122936000Y-64008000D01*
X121920000Y-65024000D02*
X120904000Y-66040000D01*
X119888000Y-67056000D02*
X119888000Y-65024000D01*
X120904000Y-64008000D02*
X121920000Y-62992000D01*
D43*
X125730000Y-67326000D02*
X125730000Y-70869000D01*
X127124000Y-72263000D02*
X125730000Y-70869000D01*
X126508000Y-66548000D02*
X125730000Y-67326000D01*
D40*
X120650000Y-71628000D02*
X121666000Y-70612000D01*
X120650000Y-74676000D02*
X120650000Y-73152000D01*
X123698000Y-74676000D02*
X122174000Y-74676000D01*
X126508000Y-78740000D02*
X126238000Y-78740000D01*
X126238000Y-78740000D02*
X125222000Y-77724000D01*
X122174000Y-79248000D02*
X123698000Y-79248000D01*
X120650000Y-77724000D02*
X120650000Y-79248000D01*
X123698000Y-77724000D02*
X122174000Y-77724000D01*
X122174000Y-85344000D02*
X123698000Y-85344000D01*
X120650000Y-86868000D02*
X120650000Y-85344000D01*
X123698000Y-86868000D02*
X122174000Y-86868000D01*
X126508000Y-90932000D02*
X126238000Y-90932000D01*
X126238000Y-90932000D02*
X125222000Y-89916000D01*
X122174000Y-91440000D02*
X123190000Y-92456000D01*
X120650000Y-89916000D02*
X120650000Y-91440000D01*
X123698000Y-89916000D02*
X122174000Y-89916000D01*
X125222000Y-111264000D02*
X125210000Y-111252000D01*
D41*
X96940000Y-118110000D02*
X94742000Y-115912000D01*
X106680000Y-110998000D02*
X108458000Y-112776000D01*
X94742000Y-110998000D02*
X106680000Y-110998000D01*
X94742000Y-115912000D02*
X94742000Y-110998000D01*
X108458000Y-112776000D02*
X108458000Y-112268000D01*
X108458000Y-112268000D02*
X108458000Y-112776000D01*
X102440000Y-115610000D02*
X102440000Y-113968000D01*
X102440000Y-113968000D02*
X103632000Y-112776000D01*
X103632000Y-112776000D02*
X108458000Y-112776000D01*
X110236000Y-112776000D02*
X111252000Y-113792000D01*
X108458000Y-112776000D02*
X110236000Y-112776000D01*
X113284000Y-111506000D02*
X114300000Y-112522000D01*
X119380000Y-114554000D02*
X118364000Y-113538000D01*
X117348000Y-112522000D02*
X116332000Y-111506000D01*
X121412000Y-116586000D02*
X120396000Y-115570000D01*
X122428000Y-119126000D02*
X122428000Y-117602000D01*
X117348000Y-115570000D02*
X118364000Y-116586000D01*
X115316000Y-113538000D02*
X116332000Y-114554000D01*
D42*
X55610760Y-32705000D02*
X55810760Y-32905000D01*
X55810760Y-32905000D02*
X57150000Y-32905000D01*
D40*
X48895000Y-39735000D02*
X48530000Y-39735000D01*
X48530000Y-39735000D02*
X45974000Y-42291000D01*
X48895000Y-39735000D02*
X51337720Y-39735000D01*
X51337720Y-39735000D02*
X51435000Y-39832280D01*
D42*
X79208000Y-35560000D02*
X79208000Y-41362000D01*
X79208000Y-41362000D02*
X80010000Y-42164000D01*
X96774000Y-70358000D02*
X96774000Y-63754000D01*
X93968000Y-92456000D02*
X94996000Y-92456000D01*
X106934000Y-80518000D02*
X106934000Y-74676000D01*
X94996000Y-92456000D02*
X106934000Y-80518000D01*
D44*
X117987000Y-84738000D02*
X118520000Y-84738000D01*
X118520000Y-84738000D02*
X118618000Y-84836000D01*
X111350000Y-84738000D02*
X112137000Y-84738000D01*
X111252000Y-84836000D02*
X111350000Y-84738000D01*
D43*
X126508000Y-78740000D02*
X125476000Y-79772000D01*
X125476000Y-82807000D02*
X127124000Y-84455000D01*
X125476000Y-79772000D02*
X125476000Y-82807000D01*
X126508000Y-29972000D02*
X125476000Y-31004000D01*
X125476000Y-34039000D02*
X127124000Y-35687000D01*
X125476000Y-31004000D02*
X125476000Y-34039000D01*
X126508000Y-54356000D02*
X125476000Y-55388000D01*
X125476000Y-55388000D02*
X125476000Y-58423000D01*
X125476000Y-58423000D02*
X127124000Y-60071000D01*
X126508000Y-115316000D02*
X125476000Y-116348000D01*
X125476000Y-116348000D02*
X125476000Y-119383000D01*
X125476000Y-119383000D02*
X126107185Y-119915933D01*
X126107185Y-119915933D02*
X127127000Y-120777000D01*
X126508000Y-103124000D02*
X125476000Y-104156000D01*
X125476000Y-107191000D02*
X127124000Y-108839000D01*
X125476000Y-104156000D02*
X125476000Y-107191000D01*
X127124000Y-96647000D02*
X125476000Y-94999000D01*
X125476000Y-91964000D02*
X126508000Y-90932000D01*
X125476000Y-94999000D02*
X125476000Y-91964000D01*
D40*
X74168000Y-46736000D02*
X75184000Y-47752000D01*
D42*
X74168000Y-44704000D02*
X74168000Y-46736000D01*
D40*
X75184000Y-47752000D02*
X75184000Y-51308000D01*
X108204000Y-66548000D02*
X104394000Y-70358000D01*
X104394000Y-70358000D02*
X96774000Y-70358000D01*
X96774000Y-70358000D02*
X94742000Y-70358000D01*
X94742000Y-70358000D02*
X84582000Y-60198000D01*
X108204000Y-64752220D02*
X108204000Y-66548000D01*
X84582000Y-60198000D02*
X83312000Y-60198000D01*
X127127000Y-120777000D02*
X126111000Y-122044000D01*
X126111000Y-122044000D02*
X126111000Y-123456000D01*
X125222000Y-120777000D02*
X127124000Y-122933000D01*
X127127000Y-122936000D02*
X127124000Y-122936000D01*
X127124000Y-122933000D02*
X127127000Y-122936000D01*
X125222000Y-120777000D02*
X125222000Y-123456000D01*
X127127000Y-120777000D02*
X125222000Y-120777000D01*
X127009000Y-123456000D02*
X126111000Y-123456000D01*
X126111000Y-123456000D02*
X125222000Y-123456000D01*
X127009000Y-111264000D02*
X125222000Y-111264000D01*
X127009000Y-99072000D02*
X125222000Y-99072000D01*
X127009000Y-86880000D02*
X125222000Y-86880000D01*
X127009000Y-74688000D02*
X125222000Y-74688000D01*
X127009000Y-62496000D02*
X125222000Y-62496000D01*
X127009000Y-50304000D02*
X125222000Y-50304000D01*
X125222000Y-38112000D02*
X127009000Y-38112000D01*
X127124000Y-122301000D02*
X127127000Y-120777000D01*
X127124000Y-110109000D02*
X127124000Y-108839000D01*
X127124000Y-97917000D02*
X127124000Y-96647000D01*
X127124000Y-85725000D02*
X127124000Y-84455000D01*
X127124000Y-72263000D02*
X127124000Y-73533000D01*
X127124000Y-61341000D02*
X127124000Y-60071000D01*
X127124000Y-36957000D02*
X127124000Y-35687000D01*
X127124000Y-47879000D02*
X127124000Y-49149000D01*
D42*
X117987000Y-82935000D02*
X117987000Y-83697000D01*
D44*
X117987000Y-84738000D02*
X117987000Y-83697000D01*
D42*
X116840000Y-81788000D02*
X117987000Y-82935000D01*
X116840000Y-81788000D02*
X115812000Y-81788000D01*
D44*
X112787000Y-78838000D02*
X112787000Y-79767000D01*
X112787000Y-79767000D02*
X113792000Y-80772000D01*
X113792000Y-80772000D02*
X114796000Y-80772000D01*
X114796000Y-80772000D02*
X115812000Y-81788000D01*
X116078000Y-81788000D02*
X115812000Y-81788000D01*
D40*
X52832000Y-55118000D02*
X47752000Y-55118000D01*
X47752000Y-55118000D02*
X46736000Y-56134000D01*
X73152000Y-60198000D02*
X66802000Y-60198000D01*
X45974000Y-42291000D02*
X45974000Y-58166000D01*
X45974000Y-58166000D02*
X46736000Y-58928000D01*
D42*
X75268000Y-43754000D02*
X75468000Y-43954000D01*
X75468000Y-43954000D02*
X76962000Y-43954000D01*
X73068000Y-44704000D02*
X74168000Y-44704000D01*
X74168000Y-44704000D02*
X74318000Y-44704000D01*
X74318000Y-44704000D02*
X75268000Y-43754000D01*
D40*
X93980000Y-92964000D02*
X93968000Y-92952000D01*
X93968000Y-92952000D02*
X93968000Y-92456000D01*
X76200000Y-91186000D02*
X76200000Y-91174000D01*
D44*
X83312000Y-91287600D02*
X83312000Y-90932000D01*
D42*
X90772000Y-105283000D02*
X92075000Y-105283000D01*
X93472000Y-103886000D02*
X93472000Y-101600000D01*
X92075000Y-105283000D02*
X93472000Y-103886000D01*
D40*
X49784000Y-93472000D02*
X49796000Y-93472000D01*
X49784000Y-107696000D02*
X49796000Y-107696000D01*
X46736000Y-101600000D02*
X46736000Y-102604000D01*
X46736000Y-102604000D02*
X46748000Y-102616000D01*
X49784000Y-65024000D02*
X49796000Y-65024000D01*
X49784000Y-79248000D02*
X49796000Y-79248000D01*
X46748000Y-87388000D02*
X46748000Y-88392000D01*
X46736000Y-87376000D02*
X46748000Y-87388000D01*
X46748000Y-73164000D02*
X46748000Y-74168000D01*
X46736000Y-73152000D02*
X46748000Y-73164000D01*
X46736000Y-58928000D02*
X46736000Y-59932000D01*
X46736000Y-59932000D02*
X46748000Y-59944000D01*
D44*
X68113000Y-35646000D02*
X68113000Y-37633000D01*
X68113000Y-37633000D02*
X68326000Y-37846000D01*
D42*
X110744000Y-64250000D02*
X108706220Y-64250000D01*
X108706220Y-64250000D02*
X108204000Y-64752220D01*
D44*
X87122000Y-96418400D02*
X87122000Y-96774000D01*
D40*
X127009000Y-62496000D02*
X127124000Y-62611000D01*
X127124000Y-61341000D02*
X127124000Y-62611000D01*
X127124000Y-110109000D02*
X127124000Y-111379000D01*
X127009000Y-111264000D02*
X127124000Y-111379000D01*
X127009000Y-123456000D02*
X127124000Y-123571000D01*
X127124000Y-122301000D02*
X127124000Y-122936000D01*
X127124000Y-122936000D02*
X127124000Y-123571000D01*
X127124000Y-73533000D02*
X127124000Y-74803000D01*
X127009000Y-74688000D02*
X127124000Y-74803000D01*
X127009000Y-50304000D02*
X127124000Y-50419000D01*
X127124000Y-49149000D02*
X127124000Y-50419000D01*
X127124000Y-97917000D02*
X127124000Y-99187000D01*
X127009000Y-99072000D02*
X127124000Y-99187000D01*
X127009000Y-86880000D02*
X127124000Y-86995000D01*
X127124000Y-85725000D02*
X127124000Y-86995000D01*
X127124000Y-36957000D02*
X127124000Y-38227000D01*
X127009000Y-38112000D02*
X127124000Y-38227000D01*
X51435000Y-37830760D02*
X48990760Y-37830760D01*
X48990760Y-37830760D02*
X48895000Y-37735000D01*
D42*
X112137000Y-80387000D02*
X111506000Y-79756000D01*
X111506000Y-79756000D02*
X111506000Y-78994000D01*
D40*
X61468000Y-106680000D02*
X94234000Y-106680000D01*
X94234000Y-106680000D02*
X94742000Y-106172000D01*
X85344000Y-66294000D02*
X93472000Y-74422000D01*
X93472000Y-74422000D02*
X101092000Y-74422000D01*
D42*
X113538000Y-81788000D02*
X114312000Y-81788000D01*
X112137000Y-80387000D02*
X113538000Y-81788000D01*
D44*
X112137000Y-80387000D02*
X112137000Y-78838000D01*
D40*
X85344000Y-89535000D02*
X84709000Y-90170000D01*
X85344000Y-89535000D02*
X85344000Y-66294000D01*
X84328000Y-65278000D02*
X85344000Y-66294000D01*
X84328000Y-65278000D02*
X83312000Y-65278000D01*
D42*
X81280000Y-92456000D02*
X81280000Y-92608400D01*
D40*
X94996000Y-106426000D02*
X95250000Y-106680000D01*
X95250000Y-106680000D02*
X109220000Y-106680000D01*
D45*
X94742000Y-106172000D02*
X94996000Y-106426000D01*
X93980000Y-100076000D02*
X94742000Y-100838000D01*
X93472000Y-100076000D02*
X93980000Y-100076000D01*
X94742000Y-100838000D02*
X94742000Y-106172000D01*
D42*
X96172000Y-96393000D02*
X95377000Y-96393000D01*
X95377000Y-96393000D02*
X94996000Y-96012000D01*
X93472000Y-98298000D02*
X93472000Y-100076000D01*
X95377000Y-96393000D02*
X93472000Y-98298000D01*
X96172000Y-96393000D02*
X94876600Y-95097600D01*
X89154000Y-95097600D02*
X94876600Y-95097600D01*
D40*
X58928000Y-52324000D02*
X63754000Y-57150000D01*
X63754000Y-57150000D02*
X72136000Y-57150000D01*
X83312000Y-62738000D02*
X84582000Y-62738000D01*
X112522000Y-65786000D02*
X112522000Y-64250000D01*
X106172000Y-72136000D02*
X112522000Y-65786000D01*
X93980000Y-72136000D02*
X106172000Y-72136000D01*
X84582000Y-62738000D02*
X93980000Y-72136000D01*
D44*
X70063000Y-40046000D02*
X70063000Y-38567000D01*
X70063000Y-38567000D02*
X69850000Y-38354000D01*
X70063000Y-40046000D02*
X70063000Y-41373000D01*
D42*
X52766000Y-50784760D02*
X52766000Y-52124000D01*
X52766000Y-52124000D02*
X52566000Y-52324000D01*
D40*
X77724000Y-62738000D02*
X72136000Y-57150000D01*
X58928000Y-52324000D02*
X52832000Y-52324000D01*
D42*
X52832000Y-52324000D02*
X52566000Y-52324000D01*
D40*
X77724000Y-45454000D02*
X77724000Y-62738000D01*
D42*
X76962000Y-45454000D02*
X75468000Y-45454000D01*
X75468000Y-45454000D02*
X75268000Y-45654000D01*
X70854000Y-42164000D02*
X71616000Y-42926000D01*
X77736000Y-45454000D02*
X77724000Y-45454000D01*
X77724000Y-45454000D02*
X76962000Y-45454000D01*
X78232000Y-44958000D02*
X77736000Y-45454000D01*
X78232000Y-43434000D02*
X78232000Y-44958000D01*
X77724000Y-42926000D02*
X78232000Y-43434000D01*
X71616000Y-42926000D02*
X77724000Y-42926000D01*
D44*
X70063000Y-41373000D02*
X70854000Y-42164000D01*
D40*
X49784000Y-101600000D02*
X48780000Y-102604000D01*
X49022000Y-102362000D02*
X49022000Y-102604000D01*
X48780000Y-102604000D02*
X49022000Y-102362000D01*
X48248000Y-102616000D02*
X48260000Y-102604000D01*
X48260000Y-102604000D02*
X49022000Y-102604000D01*
X49022000Y-102604000D02*
X49784000Y-102604000D01*
X49784000Y-102604000D02*
X49796000Y-102616000D01*
X49784000Y-101600000D02*
X49784000Y-102604000D01*
X49784000Y-102604000D02*
X49796000Y-102616000D01*
X49784000Y-87376000D02*
X48768000Y-88392000D01*
X49022000Y-88138000D02*
X49022000Y-88392000D01*
X48768000Y-88392000D02*
X49022000Y-88138000D01*
X48248000Y-88392000D02*
X49022000Y-88392000D01*
X49022000Y-88392000D02*
X49796000Y-88392000D01*
X49796000Y-87388000D02*
X49796000Y-88392000D01*
X49784000Y-87376000D02*
X49796000Y-87388000D01*
X51816000Y-48785780D02*
X51816000Y-49530000D01*
X51308000Y-65024000D02*
X51296000Y-65024000D01*
X51308000Y-79248000D02*
X51296000Y-79248000D01*
X51308000Y-93472000D02*
X51296000Y-93472000D01*
X51308000Y-107696000D02*
X51296000Y-107696000D01*
X49784000Y-73152000D02*
X48768000Y-74168000D01*
X48248000Y-74168000D02*
X48768000Y-74168000D01*
X48768000Y-74168000D02*
X49796000Y-74168000D01*
X49796000Y-73164000D02*
X49796000Y-74168000D01*
X49784000Y-73152000D02*
X49796000Y-73164000D01*
X49784000Y-58928000D02*
X48768000Y-59944000D01*
X49276000Y-59690000D02*
X49276000Y-59944000D01*
X49022000Y-59944000D02*
X49276000Y-59690000D01*
X48768000Y-59944000D02*
X49022000Y-59944000D01*
X48248000Y-59944000D02*
X49276000Y-59944000D01*
D42*
X49276000Y-59944000D02*
X49796000Y-59944000D01*
X49796000Y-58940000D02*
X49796000Y-59944000D01*
D40*
X49784000Y-58928000D02*
X49796000Y-58940000D01*
D42*
X109154000Y-62753240D02*
X110740760Y-62753240D01*
X110740760Y-62753240D02*
X110744000Y-62750000D01*
X110744000Y-62750000D02*
X112522000Y-62750000D01*
X99568000Y-38862000D02*
X99568000Y-67056000D01*
X92468000Y-91682000D02*
X99568000Y-84582000D01*
X103632000Y-34798000D02*
X99568000Y-38862000D01*
X92468000Y-91682000D02*
X92468000Y-92456000D01*
X92468000Y-92456000D02*
X89928000Y-92456000D01*
X89928000Y-92456000D02*
X89916000Y-92468000D01*
X89916000Y-92468000D02*
X88138000Y-92468000D01*
X89916000Y-93968000D02*
X88138000Y-93968000D01*
X88138000Y-93968000D02*
X88138000Y-96012000D01*
X88544400Y-96418400D02*
X89154000Y-96418400D01*
X88138000Y-96012000D02*
X88544400Y-96418400D01*
X89154000Y-96418400D02*
X90746600Y-96418400D01*
X90746600Y-96418400D02*
X90772000Y-96393000D01*
X79756000Y-89674000D02*
X79756000Y-48514000D01*
X79756000Y-48514000D02*
X83312000Y-44958000D01*
X76200000Y-89674000D02*
X77978000Y-89674000D01*
X77978000Y-89674000D02*
X79756000Y-89674000D01*
X81280000Y-91287600D02*
X79869600Y-91287600D01*
X79869600Y-91287600D02*
X79756000Y-91174000D01*
X79756000Y-91174000D02*
X77978000Y-91174000D01*
X127266000Y-32004000D02*
X127266700Y-32004700D01*
X127266700Y-32004700D02*
X127266700Y-33528000D01*
D40*
X134684000Y-37402000D02*
X131318000Y-34036000D01*
X131318000Y-34036000D02*
X131318000Y-33240980D01*
X129794000Y-33515300D02*
X133604000Y-37325300D01*
X133604000Y-37325300D02*
X133604000Y-38482000D01*
X128524000Y-33515300D02*
X130484000Y-35475300D01*
X130484000Y-35475300D02*
X130484000Y-37592000D01*
X128524000Y-33515300D02*
X129794000Y-33515300D01*
X129794000Y-33515300D02*
X131043680Y-33515300D01*
X131043680Y-33515300D02*
X131318000Y-33240980D01*
X131318000Y-33240980D02*
X131318000Y-36758000D01*
D43*
X131318000Y-36758000D02*
X130484000Y-37592000D01*
X135636000Y-36242000D02*
X135636000Y-36450000D01*
D40*
X135636000Y-36450000D02*
X134684000Y-37402000D01*
X134684000Y-37402000D02*
X133604000Y-38482000D01*
X133604000Y-38482000D02*
X132589000Y-39497000D01*
X132589000Y-39497000D02*
X132589000Y-38227000D01*
X132589000Y-38227000D02*
X132589000Y-36957000D01*
X132589000Y-36957000D02*
X132589000Y-35687000D01*
X131318000Y-33240980D02*
X134319020Y-36242000D01*
X134319020Y-36242000D02*
X135636000Y-36242000D01*
D42*
X127266000Y-80772000D02*
X127266700Y-80772700D01*
X127266700Y-80772700D02*
X127266700Y-82296000D01*
D40*
X134319020Y-85010000D02*
X135636000Y-85010000D01*
X131318000Y-82008980D02*
X134319020Y-85010000D01*
X132589000Y-85725000D02*
X132589000Y-84455000D01*
X132589000Y-86995000D02*
X132589000Y-85725000D01*
X132589000Y-88265000D02*
X132589000Y-86995000D01*
X133604000Y-87250000D02*
X132589000Y-88265000D01*
X134684000Y-86170000D02*
X133604000Y-87250000D01*
X135636000Y-85218000D02*
X134684000Y-86170000D01*
D43*
X135636000Y-85010000D02*
X135636000Y-85218000D01*
X131318000Y-85526000D02*
X130484000Y-86360000D01*
D40*
X131318000Y-82008980D02*
X131318000Y-85526000D01*
X131043680Y-82283300D02*
X131318000Y-82008980D01*
X129794000Y-82283300D02*
X131043680Y-82283300D01*
X128524000Y-82283300D02*
X129794000Y-82283300D01*
X130484000Y-84243300D02*
X130484000Y-86360000D01*
X128524000Y-82283300D02*
X130484000Y-84243300D01*
X133604000Y-86093300D02*
X133604000Y-87250000D01*
X129794000Y-82283300D02*
X133604000Y-86093300D01*
X131318000Y-82804000D02*
X131318000Y-82008980D01*
X134684000Y-86170000D02*
X131318000Y-82804000D01*
D42*
X127266000Y-44196000D02*
X127266700Y-44196700D01*
X127266700Y-44196700D02*
X127266700Y-45720000D01*
D40*
X134319020Y-48434000D02*
X135636000Y-48434000D01*
X131318000Y-45432980D02*
X134319020Y-48434000D01*
X132589000Y-49149000D02*
X132589000Y-47879000D01*
X132589000Y-50419000D02*
X132589000Y-49149000D01*
X132589000Y-51689000D02*
X132589000Y-50419000D01*
X133604000Y-50674000D02*
X132589000Y-51689000D01*
X134684000Y-49594000D02*
X133604000Y-50674000D01*
X135636000Y-48642000D02*
X134684000Y-49594000D01*
D43*
X135636000Y-48434000D02*
X135636000Y-48642000D01*
X131318000Y-48950000D02*
X130484000Y-49784000D01*
D40*
X131318000Y-45432980D02*
X131318000Y-48950000D01*
X131043680Y-45707300D02*
X131318000Y-45432980D01*
X129794000Y-45707300D02*
X131043680Y-45707300D01*
X128524000Y-45707300D02*
X129794000Y-45707300D01*
X130484000Y-47667300D02*
X130484000Y-49784000D01*
X128524000Y-45707300D02*
X130484000Y-47667300D01*
X133604000Y-49517300D02*
X133604000Y-50674000D01*
X129794000Y-45707300D02*
X133604000Y-49517300D01*
X131318000Y-46228000D02*
X131318000Y-45432980D01*
X134684000Y-49594000D02*
X131318000Y-46228000D01*
D42*
X127266000Y-92964000D02*
X127266700Y-92964700D01*
X127266700Y-92964700D02*
X127266700Y-94488000D01*
D40*
X134684000Y-98362000D02*
X131318000Y-94996000D01*
X131318000Y-94996000D02*
X131318000Y-94200980D01*
X129794000Y-94475300D02*
X133604000Y-98285300D01*
X133604000Y-98285300D02*
X133604000Y-99442000D01*
X128524000Y-94475300D02*
X130484000Y-96435300D01*
X130484000Y-96435300D02*
X130484000Y-98552000D01*
X128524000Y-94475300D02*
X129794000Y-94475300D01*
X129794000Y-94475300D02*
X131043680Y-94475300D01*
X131043680Y-94475300D02*
X131318000Y-94200980D01*
X131318000Y-94200980D02*
X131318000Y-97718000D01*
D43*
X131318000Y-97718000D02*
X130484000Y-98552000D01*
X135636000Y-97202000D02*
X135636000Y-97410000D01*
D40*
X135636000Y-97410000D02*
X134684000Y-98362000D01*
X134684000Y-98362000D02*
X133604000Y-99442000D01*
X133604000Y-99442000D02*
X132589000Y-100457000D01*
X132589000Y-100457000D02*
X132589000Y-99187000D01*
X132589000Y-99187000D02*
X132589000Y-97917000D01*
X132589000Y-97917000D02*
X132589000Y-96647000D01*
X131318000Y-94200980D02*
X134319020Y-97202000D01*
X134319020Y-97202000D02*
X135636000Y-97202000D01*
D42*
X127266000Y-56388000D02*
X127266700Y-56388700D01*
X127266700Y-56388700D02*
X127266700Y-57912000D01*
D40*
X134319020Y-60626000D02*
X135636000Y-60626000D01*
X131318000Y-57624980D02*
X134319020Y-60626000D01*
X132589000Y-61341000D02*
X132589000Y-60071000D01*
X132589000Y-62611000D02*
X132589000Y-61341000D01*
X132589000Y-63881000D02*
X132589000Y-62611000D01*
X133604000Y-62866000D02*
X132589000Y-63881000D01*
X134684000Y-61786000D02*
X133604000Y-62866000D01*
X135636000Y-60834000D02*
X134684000Y-61786000D01*
D43*
X135636000Y-60626000D02*
X135636000Y-60834000D01*
X131318000Y-61142000D02*
X130484000Y-61976000D01*
D40*
X131318000Y-57624980D02*
X131318000Y-61142000D01*
X131043680Y-57899300D02*
X131318000Y-57624980D01*
X129794000Y-57899300D02*
X131043680Y-57899300D01*
X128524000Y-57899300D02*
X129794000Y-57899300D01*
X130484000Y-59859300D02*
X130484000Y-61976000D01*
X128524000Y-57899300D02*
X130484000Y-59859300D01*
X133604000Y-61709300D02*
X133604000Y-62866000D01*
X129794000Y-57899300D02*
X133604000Y-61709300D01*
X131318000Y-58420000D02*
X131318000Y-57624980D01*
X134684000Y-61786000D02*
X131318000Y-58420000D01*
D42*
X127266000Y-105156000D02*
X127266700Y-105156700D01*
X127266700Y-105156700D02*
X127266700Y-106680000D01*
D40*
X134684000Y-110554000D02*
X131318000Y-107188000D01*
X131318000Y-107188000D02*
X131318000Y-106392980D01*
X129794000Y-106667300D02*
X133604000Y-110477300D01*
X133604000Y-110477300D02*
X133604000Y-111634000D01*
X128524000Y-106667300D02*
X130484000Y-108627300D01*
X130484000Y-108627300D02*
X130484000Y-110744000D01*
X128524000Y-106667300D02*
X129794000Y-106667300D01*
X129794000Y-106667300D02*
X131043680Y-106667300D01*
X131043680Y-106667300D02*
X131318000Y-106392980D01*
X131318000Y-106392980D02*
X131318000Y-109910000D01*
D43*
X131318000Y-109910000D02*
X130484000Y-110744000D01*
X135636000Y-109394000D02*
X135636000Y-109602000D01*
D40*
X135636000Y-109602000D02*
X134684000Y-110554000D01*
X134684000Y-110554000D02*
X133604000Y-111634000D01*
X133604000Y-111634000D02*
X132589000Y-112649000D01*
X132589000Y-112649000D02*
X132589000Y-111379000D01*
X132589000Y-111379000D02*
X132589000Y-110109000D01*
X132589000Y-110109000D02*
X132589000Y-108839000D01*
X131318000Y-106392980D02*
X134319020Y-109394000D01*
X134319020Y-109394000D02*
X135636000Y-109394000D01*
D42*
X127266000Y-68580000D02*
X127266700Y-68580700D01*
X127266700Y-68580700D02*
X127266700Y-70104000D01*
D40*
X134684000Y-73978000D02*
X131318000Y-70612000D01*
X131318000Y-70612000D02*
X131318000Y-69816980D01*
X129794000Y-70091300D02*
X133604000Y-73901300D01*
X133604000Y-73901300D02*
X133604000Y-75058000D01*
X128524000Y-70091300D02*
X130484000Y-72051300D01*
X130484000Y-72051300D02*
X130484000Y-74168000D01*
X128524000Y-70091300D02*
X129794000Y-70091300D01*
X129794000Y-70091300D02*
X131043680Y-70091300D01*
X131043680Y-70091300D02*
X131318000Y-69816980D01*
X131318000Y-69816980D02*
X131318000Y-73334000D01*
D43*
X131318000Y-73334000D02*
X130484000Y-74168000D01*
X135636000Y-72818000D02*
X135636000Y-73026000D01*
D40*
X135636000Y-73026000D02*
X134684000Y-73978000D01*
X134684000Y-73978000D02*
X133604000Y-75058000D01*
X133604000Y-75058000D02*
X132589000Y-76073000D01*
X132589000Y-76073000D02*
X132589000Y-74803000D01*
X132589000Y-74803000D02*
X132589000Y-73533000D01*
X132589000Y-73533000D02*
X132589000Y-72263000D01*
X131318000Y-69816980D02*
X134319020Y-72818000D01*
X134319020Y-72818000D02*
X135636000Y-72818000D01*
D42*
X127266000Y-117348000D02*
X127266700Y-117348700D01*
X127266700Y-117348700D02*
X127266700Y-118872000D01*
D40*
X134319020Y-121586000D02*
X135636000Y-121586000D01*
X131318000Y-118584980D02*
X134319020Y-121586000D01*
X132589000Y-122301000D02*
X132589000Y-121031000D01*
X132589000Y-123571000D02*
X132589000Y-122301000D01*
X132589000Y-124841000D02*
X132589000Y-123571000D01*
X133604000Y-123826000D02*
X132589000Y-124841000D01*
X134684000Y-122746000D02*
X133604000Y-123826000D01*
X135636000Y-121794000D02*
X134684000Y-122746000D01*
D43*
X135636000Y-121586000D02*
X135636000Y-121794000D01*
X131318000Y-122102000D02*
X130484000Y-122936000D01*
D40*
X131318000Y-118584980D02*
X131318000Y-122102000D01*
X131043680Y-118859300D02*
X131318000Y-118584980D01*
X129794000Y-118859300D02*
X131043680Y-118859300D01*
X128524000Y-118859300D02*
X129794000Y-118859300D01*
X130484000Y-120819300D02*
X130484000Y-122936000D01*
X128524000Y-118859300D02*
X130484000Y-120819300D01*
X133604000Y-122669300D02*
X133604000Y-123826000D01*
X129794000Y-118859300D02*
X133604000Y-122669300D01*
X131318000Y-119380000D02*
X131318000Y-118584980D01*
X134684000Y-122746000D02*
X131318000Y-119380000D01*
D42*
X50866000Y-50784760D02*
X51066000Y-50984760D01*
X51066000Y-50984760D02*
X51066000Y-52058000D01*
X51066000Y-52058000D02*
X50546000Y-52578000D01*
D40*
X48006000Y-52544980D02*
X50546000Y-52578000D01*
D42*
X50546000Y-52578000D02*
X50766980Y-52357020D01*
X96172000Y-102743000D02*
X107823000Y-102743000D01*
X107823000Y-102743000D02*
X109220000Y-104140000D01*
X96172000Y-101473000D02*
X109093000Y-101473000D01*
X109093000Y-101473000D02*
X109220000Y-101600000D01*
X96172000Y-100203000D02*
X108077000Y-100203000D01*
X108077000Y-100203000D02*
X109220000Y-99060000D01*
X96172000Y-98933000D02*
X106807000Y-98933000D01*
X106807000Y-98933000D02*
X109220000Y-96520000D01*
X109220000Y-93980000D02*
X91694000Y-93980000D01*
X91694000Y-93980000D02*
X90932000Y-93218000D01*
D44*
X87122000Y-93726000D02*
X87630000Y-93218000D01*
X87630000Y-93218000D02*
X89154000Y-93218000D01*
D46*
X89154000Y-93218000D02*
X90932000Y-93218000D01*
D44*
X87122000Y-95097600D02*
X87122000Y-93726000D01*
D42*
X90772000Y-98933000D02*
X78740000Y-98933000D01*
X90772000Y-100203000D02*
X73787000Y-100203000D01*
X65532000Y-97536000D02*
X61468000Y-101600000D01*
X71120000Y-97536000D02*
X65532000Y-97536000D01*
X73787000Y-100203000D02*
X71120000Y-97536000D01*
X90772000Y-101473000D02*
X86741000Y-101473000D01*
X86741000Y-101473000D02*
X86614000Y-101346000D01*
X89535000Y-102743000D02*
X89408000Y-102616000D01*
X89535000Y-102743000D02*
X90772000Y-102743000D01*
X61468000Y-93980000D02*
X84836000Y-93980000D01*
D44*
X86614000Y-95758000D02*
X84836000Y-93980000D01*
X86614000Y-95758000D02*
X87122000Y-95758000D01*
D40*
X53611780Y-33655000D02*
X53436520Y-33830260D01*
X53436520Y-33830260D02*
X51435000Y-33830260D01*
D42*
X57150000Y-34405000D02*
X58305000Y-34405000D01*
X58305000Y-34405000D02*
X63500000Y-29210000D01*
X55610760Y-34605000D02*
X55810760Y-34405000D01*
X55810760Y-34405000D02*
X57150000Y-34405000D01*
X83312000Y-39878000D02*
X83058000Y-39878000D01*
X83058000Y-39878000D02*
X81026000Y-37846000D01*
X78232000Y-29210000D02*
X63500000Y-29210000D01*
X81026000Y-32004000D02*
X78232000Y-29210000D01*
X81026000Y-37846000D02*
X81026000Y-32004000D01*
X125222000Y-39612000D02*
X121424000Y-39612000D01*
X115824000Y-56896000D02*
X115824000Y-73914000D01*
X113284000Y-54356000D02*
X115824000Y-56896000D01*
X113284000Y-47752000D02*
X113284000Y-54356000D01*
X121424000Y-39612000D02*
X113284000Y-47752000D01*
X113030000Y-76708000D02*
X113030000Y-77470000D01*
D44*
X113437000Y-77877000D02*
X113030000Y-77470000D01*
X113437000Y-78838000D02*
X113437000Y-77877000D01*
D42*
X115824000Y-73914000D02*
X113030000Y-76708000D01*
X127124000Y-39497000D02*
X127009000Y-39612000D01*
X127009000Y-39612000D02*
X125222000Y-39612000D01*
X125222000Y-88380000D02*
X117844000Y-88380000D01*
X117348000Y-87884000D02*
X117348000Y-86371000D01*
X117844000Y-88380000D02*
X117348000Y-87884000D01*
X117337000Y-86360000D02*
X117348000Y-86371000D01*
D44*
X117337000Y-84738000D02*
X117337000Y-86360000D01*
D42*
X127124000Y-88265000D02*
X127009000Y-88380000D01*
X127009000Y-88380000D02*
X125222000Y-88380000D01*
X115062000Y-75946000D02*
X116840000Y-74168000D01*
D44*
X114737000Y-78838000D02*
X114737000Y-77795000D01*
X114737000Y-77795000D02*
X115062000Y-77470000D01*
X115062000Y-77470000D02*
X115062000Y-75946000D01*
D42*
X116840000Y-60186000D02*
X125222000Y-51804000D01*
X116840000Y-74168000D02*
X116840000Y-60186000D01*
X127124000Y-51689000D02*
X127009000Y-51804000D01*
X127009000Y-51804000D02*
X125222000Y-51804000D01*
X116037000Y-86319000D02*
X116037000Y-91387000D01*
D44*
X116037000Y-84738000D02*
X116037000Y-86319000D01*
D42*
X116037000Y-91387000D02*
X125222000Y-100572000D01*
D44*
X124956000Y-100572000D02*
X125222000Y-100572000D01*
D42*
X125222000Y-100572000D02*
X127009000Y-100572000D01*
X127009000Y-100572000D02*
X127124000Y-100457000D01*
X125222000Y-63996000D02*
X117856000Y-71362000D01*
X117856000Y-71362000D02*
X117856000Y-74422000D01*
X115824000Y-76454000D02*
X117856000Y-74422000D01*
D44*
X116037000Y-78838000D02*
X116037000Y-77683000D01*
X115824000Y-77470000D02*
X115824000Y-76454000D01*
X116037000Y-77683000D02*
X115824000Y-77470000D01*
D42*
X124460000Y-64758000D02*
X125222000Y-63996000D01*
X125222000Y-63996000D02*
X127009000Y-63996000D01*
X127009000Y-63996000D02*
X127124000Y-63881000D01*
X114737000Y-86035000D02*
X113284000Y-87488000D01*
X122416000Y-112764000D02*
X125222000Y-112764000D01*
X113284000Y-103632000D02*
X122416000Y-112764000D01*
X113284000Y-87488000D02*
X113284000Y-103632000D01*
X125222000Y-112764000D02*
X127009000Y-112764000D01*
X127009000Y-112764000D02*
X127124000Y-112649000D01*
D44*
X114737000Y-84738000D02*
X114737000Y-86035000D01*
D42*
X125222000Y-76188000D02*
X118884000Y-76188000D01*
X118884000Y-76188000D02*
X118364000Y-76708000D01*
D44*
X125222000Y-76188000D02*
X125337000Y-76073000D01*
X125337000Y-76073000D02*
X127124000Y-76073000D01*
X117348000Y-77724000D02*
X118364000Y-76708000D01*
X123710000Y-76188000D02*
X125222000Y-76188000D01*
X117348000Y-77724000D02*
X117337000Y-77735000D01*
X117337000Y-78838000D02*
X117337000Y-77735000D01*
D42*
X113437000Y-86005000D02*
X112268000Y-87174000D01*
X112268000Y-105156000D02*
X123952000Y-116840000D01*
X112268000Y-87174000D02*
X112268000Y-105156000D01*
X125222000Y-124956000D02*
X123952000Y-123686000D01*
X123952000Y-123686000D02*
X123952000Y-116840000D01*
X125222000Y-124956000D02*
X125337000Y-124841000D01*
X125337000Y-124841000D02*
X127124000Y-124841000D01*
D44*
X113437000Y-84738000D02*
X113437000Y-86005000D01*
X69354000Y-42176000D02*
X69596000Y-42418000D01*
X69354000Y-42164000D02*
X69354000Y-42176000D01*
X69413000Y-40046000D02*
X69413000Y-42105000D01*
X69413000Y-42105000D02*
X69354000Y-42164000D01*
X70063000Y-35646000D02*
X71646000Y-34063000D01*
X71646000Y-34063000D02*
X71646000Y-32004000D01*
X67546000Y-32004000D02*
X69413000Y-33871000D01*
X69413000Y-33871000D02*
X69413000Y-35646000D01*
X68763000Y-35646000D02*
X68763000Y-36759000D01*
X72684000Y-37084000D02*
X74208000Y-35560000D01*
X69088000Y-37084000D02*
X72684000Y-37084000D01*
X68763000Y-36759000D02*
X69088000Y-37084000D01*
D42*
X67310000Y-43688000D02*
X69276000Y-45654000D01*
D44*
X68113000Y-40091000D02*
X67310000Y-40894000D01*
D42*
X67310000Y-40894000D02*
X67310000Y-43688000D01*
X69276000Y-45654000D02*
X71628000Y-45654000D01*
D44*
X71628000Y-45654000D02*
X73068000Y-45654000D01*
X68113000Y-40091000D02*
X68113000Y-40046000D01*
X73068000Y-43754000D02*
X69154000Y-43754000D01*
X68326000Y-42926000D02*
X68326000Y-41656000D01*
X69154000Y-43754000D02*
X68326000Y-42926000D01*
D42*
X68763000Y-41219000D02*
X68326000Y-41656000D01*
D44*
X68763000Y-40046000D02*
X68763000Y-41219000D01*
X83312000Y-92608400D02*
X82702400Y-92608400D01*
D42*
X81280000Y-57150000D02*
X83312000Y-55118000D01*
X81280000Y-89662000D02*
X81280000Y-57150000D01*
D44*
X82296000Y-90678000D02*
X81280000Y-89662000D01*
X82296000Y-92202000D02*
X82296000Y-90678000D01*
X82702400Y-92608400D02*
X82296000Y-92202000D01*
D42*
X86106000Y-96520000D02*
X86106000Y-97282000D01*
X84582000Y-94996000D02*
X86106000Y-96520000D01*
D44*
X83312000Y-92608400D02*
X83464400Y-92608400D01*
X83464400Y-92608400D02*
X83820000Y-92964000D01*
X86106000Y-97282000D02*
X86487000Y-97663000D01*
X86487000Y-97663000D02*
X90772000Y-97663000D01*
X83312000Y-91948000D02*
X86360000Y-91948000D01*
D42*
X97409000Y-105283000D02*
X97536000Y-105156000D01*
X97409000Y-105283000D02*
X96172000Y-105283000D01*
D44*
X116687000Y-83465000D02*
X116840000Y-83312000D01*
X116687000Y-84738000D02*
X116687000Y-83465000D01*
X115387000Y-83383000D02*
X115316000Y-83312000D01*
X115387000Y-84738000D02*
X115387000Y-83383000D01*
D42*
X103632000Y-44958000D02*
X106172000Y-47498000D01*
X106172000Y-47498000D02*
X106172000Y-48768000D01*
X106172000Y-48768000D02*
X114808000Y-57404000D01*
X110363000Y-80137000D02*
X110363000Y-74041000D01*
X114808000Y-69596000D02*
X114808000Y-57404000D01*
X110363000Y-74041000D02*
X114808000Y-69596000D01*
D44*
X114087000Y-83861000D02*
X110363000Y-80137000D01*
X114087000Y-84738000D02*
X114087000Y-83861000D01*
D42*
X109220000Y-73660000D02*
X113792000Y-69088000D01*
X113792000Y-69088000D02*
X113792000Y-57658000D01*
X103632000Y-47498000D02*
X113792000Y-57658000D01*
D44*
X112787000Y-83577000D02*
X109220000Y-80010000D01*
X112787000Y-83577000D02*
X112787000Y-84738000D01*
D42*
X109220000Y-73660000D02*
X109220000Y-80010000D01*
X51296000Y-59944000D02*
X64770000Y-59944000D01*
X75184000Y-70358000D02*
X64770000Y-59944000D01*
X78232000Y-70358000D02*
X75184000Y-70358000D01*
X78232000Y-71882000D02*
X75946000Y-74168000D01*
X75946000Y-74168000D02*
X51296000Y-74168000D01*
D44*
X114087000Y-77257000D02*
X114046000Y-77216000D01*
X114087000Y-77257000D02*
X114087000Y-78838000D01*
X115387000Y-80081000D02*
X115570000Y-80264000D01*
X115387000Y-80081000D02*
X115387000Y-78838000D01*
D42*
X78232000Y-73406000D02*
X63246000Y-88392000D01*
X63246000Y-88392000D02*
X51296000Y-88392000D01*
X103632000Y-62738000D02*
X107238760Y-62738000D01*
X107238760Y-62738000D02*
X107254000Y-62753240D01*
X63627000Y-89535000D02*
X60833000Y-89535000D01*
X57912000Y-92456000D02*
X57912000Y-95250000D01*
X60833000Y-89535000D02*
X57912000Y-92456000D01*
X78232000Y-74930000D02*
X63627000Y-89535000D01*
X57912000Y-95250000D02*
X51296000Y-101866000D01*
X51296000Y-102616000D02*
X51296000Y-101866000D01*
X47785020Y-47244000D02*
X69596000Y-47244000D01*
X69596000Y-47244000D02*
X74930000Y-52578000D01*
X76454000Y-52578000D02*
X74930000Y-52578000D01*
X47785020Y-47244000D02*
X48006000Y-48547020D01*
X96172000Y-97663000D02*
X97917000Y-97663000D01*
X98552000Y-57658000D02*
X83312000Y-42418000D01*
X98552000Y-66548000D02*
X98552000Y-57658000D01*
X97917000Y-97663000D02*
X98552000Y-97028000D01*
D44*
X116687000Y-78838000D02*
X116687000Y-77115000D01*
X116687000Y-77115000D02*
X116840000Y-76962000D01*
D42*
X88138000Y-32512000D02*
X108458000Y-32512000D01*
X108458000Y-32512000D02*
X112014000Y-36068000D01*
X88138000Y-32512000D02*
X83312000Y-37338000D01*
D44*
X112014000Y-36322000D02*
X112014000Y-36068000D01*
X117987000Y-78838000D02*
X117987000Y-78355000D01*
X117987000Y-78355000D02*
X118364000Y-77978000D01*
D42*
X83312000Y-34798000D02*
X89662000Y-28448000D01*
X106680000Y-28448000D02*
X113284000Y-35052000D01*
X89662000Y-28448000D02*
X106680000Y-28448000D01*
D46*
G36*
X142038000Y-125782000D02*
X133205569Y-125782000D01*
X133223511Y-125770012D01*
X133334317Y-125749162D01*
X133550441Y-125610090D01*
X133695431Y-125397890D01*
X133705898Y-125346205D01*
X134415052Y-124637051D01*
X134415054Y-124637048D01*
X135495049Y-123557054D01*
X135495052Y-123557052D01*
X135495056Y-123557046D01*
X135840502Y-123211600D01*
X136677854Y-123211600D01*
X137299944Y-123087859D01*
X137827327Y-122735473D01*
X138179713Y-122208090D01*
X138303454Y-121586000D01*
X138179713Y-120963910D01*
X137827327Y-120436527D01*
X137299944Y-120084141D01*
X136677854Y-119960400D01*
X134594146Y-119960400D01*
X134361749Y-120006626D01*
X132865870Y-118510748D01*
X132865870Y-118097300D01*
X132821592Y-117861983D01*
X132682520Y-117645859D01*
X132470320Y-117500869D01*
X132218430Y-117449860D01*
X131377725Y-117449860D01*
X131318000Y-117437980D01*
X131258275Y-117449860D01*
X130417570Y-117449860D01*
X130182253Y-117494138D01*
X129966129Y-117633210D01*
X129912089Y-117712300D01*
X129413000Y-117712300D01*
X129413000Y-113346440D01*
X131576944Y-113346440D01*
X131614910Y-113405441D01*
X131827110Y-113550431D01*
X131950654Y-113575449D01*
X132150062Y-113708690D01*
X132589000Y-113796000D01*
X133027938Y-113708690D01*
X133223511Y-113578012D01*
X133334317Y-113557162D01*
X133550441Y-113418090D01*
X133695431Y-113205890D01*
X133705898Y-113154205D01*
X134415052Y-112445051D01*
X134415054Y-112445048D01*
X135495049Y-111365054D01*
X135495052Y-111365052D01*
X135495056Y-111365046D01*
X135840502Y-111019600D01*
X136677854Y-111019600D01*
X137299944Y-110895859D01*
X137827327Y-110543473D01*
X138179713Y-110016090D01*
X138303454Y-109394000D01*
X138179713Y-108771910D01*
X137827327Y-108244527D01*
X137299944Y-107892141D01*
X136677854Y-107768400D01*
X134594146Y-107768400D01*
X134361749Y-107814626D01*
X132865870Y-106318748D01*
X132865870Y-105905300D01*
X132821592Y-105669983D01*
X132682520Y-105453859D01*
X132470320Y-105308869D01*
X132218430Y-105257860D01*
X131377725Y-105257860D01*
X131318000Y-105245980D01*
X131258275Y-105257860D01*
X130417570Y-105257860D01*
X130182253Y-105302138D01*
X129966129Y-105441210D01*
X129912089Y-105520300D01*
X129413000Y-105520300D01*
X129413000Y-101154440D01*
X131576944Y-101154440D01*
X131614910Y-101213441D01*
X131827110Y-101358431D01*
X131950654Y-101383449D01*
X132150062Y-101516690D01*
X132589000Y-101604000D01*
X133027938Y-101516690D01*
X133223511Y-101386012D01*
X133334317Y-101365162D01*
X133550441Y-101226090D01*
X133695431Y-101013890D01*
X133705898Y-100962205D01*
X134415052Y-100253051D01*
X134415054Y-100253048D01*
X135495049Y-99173054D01*
X135495052Y-99173052D01*
X135495056Y-99173046D01*
X135840502Y-98827600D01*
X136677854Y-98827600D01*
X137299944Y-98703859D01*
X137827327Y-98351473D01*
X138179713Y-97824090D01*
X138303454Y-97202000D01*
X138179713Y-96579910D01*
X137827327Y-96052527D01*
X137299944Y-95700141D01*
X136677854Y-95576400D01*
X134594146Y-95576400D01*
X134361749Y-95622626D01*
X132865870Y-94126748D01*
X132865870Y-93713300D01*
X132821592Y-93477983D01*
X132682520Y-93261859D01*
X132470320Y-93116869D01*
X132218430Y-93065860D01*
X131377725Y-93065860D01*
X131318000Y-93053980D01*
X131258275Y-93065860D01*
X130417570Y-93065860D01*
X130182253Y-93110138D01*
X129966129Y-93249210D01*
X129912089Y-93328300D01*
X129413000Y-93328300D01*
X129413000Y-88962440D01*
X131576944Y-88962440D01*
X131614910Y-89021441D01*
X131827110Y-89166431D01*
X131950654Y-89191449D01*
X132150062Y-89324690D01*
X132589000Y-89412000D01*
X133027938Y-89324690D01*
X133223511Y-89194012D01*
X133334317Y-89173162D01*
X133550441Y-89034090D01*
X133695431Y-88821890D01*
X133705898Y-88770205D01*
X134415052Y-88061051D01*
X134415054Y-88061048D01*
X135495049Y-86981054D01*
X135495052Y-86981052D01*
X135495056Y-86981046D01*
X135840502Y-86635600D01*
X136677854Y-86635600D01*
X137299944Y-86511859D01*
X137827327Y-86159473D01*
X138179713Y-85632090D01*
X138303454Y-85010000D01*
X138179713Y-84387910D01*
X137827327Y-83860527D01*
X137299944Y-83508141D01*
X136677854Y-83384400D01*
X134594146Y-83384400D01*
X134361749Y-83430626D01*
X132865870Y-81934748D01*
X132865870Y-81521300D01*
X132821592Y-81285983D01*
X132682520Y-81069859D01*
X132470320Y-80924869D01*
X132218430Y-80873860D01*
X131377725Y-80873860D01*
X131318000Y-80861980D01*
X131258275Y-80873860D01*
X130417570Y-80873860D01*
X130182253Y-80918138D01*
X129966129Y-81057210D01*
X129912089Y-81136300D01*
X129413000Y-81136300D01*
X129413000Y-76770440D01*
X131576944Y-76770440D01*
X131614910Y-76829441D01*
X131827110Y-76974431D01*
X131950654Y-76999449D01*
X132150062Y-77132690D01*
X132589000Y-77220000D01*
X133027938Y-77132690D01*
X133223511Y-77002012D01*
X133334317Y-76981162D01*
X133550441Y-76842090D01*
X133695431Y-76629890D01*
X133705898Y-76578205D01*
X134415052Y-75869051D01*
X134415054Y-75869048D01*
X135495049Y-74789054D01*
X135495052Y-74789052D01*
X135495056Y-74789046D01*
X135840502Y-74443600D01*
X136677854Y-74443600D01*
X137299944Y-74319859D01*
X137827327Y-73967473D01*
X138179713Y-73440090D01*
X138303454Y-72818000D01*
X138179713Y-72195910D01*
X137827327Y-71668527D01*
X137299944Y-71316141D01*
X136677854Y-71192400D01*
X134594146Y-71192400D01*
X134361749Y-71238626D01*
X132865870Y-69742748D01*
X132865870Y-69329300D01*
X132821592Y-69093983D01*
X132682520Y-68877859D01*
X132470320Y-68732869D01*
X132218430Y-68681860D01*
X131377725Y-68681860D01*
X131318000Y-68669980D01*
X131258275Y-68681860D01*
X130417570Y-68681860D01*
X130182253Y-68726138D01*
X129966129Y-68865210D01*
X129912089Y-68944300D01*
X129413000Y-68944300D01*
X129413000Y-64578440D01*
X131576944Y-64578440D01*
X131614910Y-64637441D01*
X131827110Y-64782431D01*
X131950654Y-64807449D01*
X132150062Y-64940690D01*
X132589000Y-65028000D01*
X133027938Y-64940690D01*
X133223511Y-64810012D01*
X133334317Y-64789162D01*
X133550441Y-64650090D01*
X133695431Y-64437890D01*
X133705898Y-64386205D01*
X134415052Y-63677051D01*
X134415054Y-63677048D01*
X135495049Y-62597054D01*
X135495052Y-62597052D01*
X135495056Y-62597046D01*
X135840502Y-62251600D01*
X136677854Y-62251600D01*
X137299944Y-62127859D01*
X137827327Y-61775473D01*
X138179713Y-61248090D01*
X138303454Y-60626000D01*
X138179713Y-60003910D01*
X137827327Y-59476527D01*
X137299944Y-59124141D01*
X136677854Y-59000400D01*
X134594146Y-59000400D01*
X134361749Y-59046626D01*
X132865870Y-57550748D01*
X132865870Y-57137300D01*
X132821592Y-56901983D01*
X132682520Y-56685859D01*
X132470320Y-56540869D01*
X132218430Y-56489860D01*
X131377725Y-56489860D01*
X131318000Y-56477980D01*
X131258275Y-56489860D01*
X130417570Y-56489860D01*
X130182253Y-56534138D01*
X129966129Y-56673210D01*
X129912089Y-56752300D01*
X129413000Y-56752300D01*
X129413000Y-52386440D01*
X131576944Y-52386440D01*
X131614910Y-52445441D01*
X131827110Y-52590431D01*
X131950654Y-52615449D01*
X132150062Y-52748690D01*
X132589000Y-52836000D01*
X133027938Y-52748690D01*
X133223511Y-52618012D01*
X133334317Y-52597162D01*
X133550441Y-52458090D01*
X133695431Y-52245890D01*
X133705898Y-52194205D01*
X134415052Y-51485051D01*
X134415054Y-51485048D01*
X135495049Y-50405054D01*
X135495052Y-50405052D01*
X135495056Y-50405046D01*
X135840502Y-50059600D01*
X136677854Y-50059600D01*
X137299944Y-49935859D01*
X137827327Y-49583473D01*
X138179713Y-49056090D01*
X138303454Y-48434000D01*
X138179713Y-47811910D01*
X137827327Y-47284527D01*
X137299944Y-46932141D01*
X136677854Y-46808400D01*
X134594146Y-46808400D01*
X134361749Y-46854626D01*
X132865870Y-45358748D01*
X132865870Y-44945300D01*
X132821592Y-44709983D01*
X132682520Y-44493859D01*
X132470320Y-44348869D01*
X132218430Y-44297860D01*
X131377725Y-44297860D01*
X131318000Y-44285980D01*
X131258275Y-44297860D01*
X130417570Y-44297860D01*
X130182253Y-44342138D01*
X129966129Y-44481210D01*
X129912089Y-44560300D01*
X129413000Y-44560300D01*
X129413000Y-40194440D01*
X131576944Y-40194440D01*
X131614910Y-40253441D01*
X131827110Y-40398431D01*
X131950654Y-40423449D01*
X132150062Y-40556690D01*
X132589000Y-40644000D01*
X133027938Y-40556690D01*
X133223511Y-40426012D01*
X133334317Y-40405162D01*
X133550441Y-40266090D01*
X133695431Y-40053890D01*
X133705898Y-40002205D01*
X134415052Y-39293051D01*
X134415054Y-39293048D01*
X135495049Y-38213054D01*
X135495052Y-38213052D01*
X135495056Y-38213046D01*
X135840502Y-37867600D01*
X136677854Y-37867600D01*
X137299944Y-37743859D01*
X137827327Y-37391473D01*
X138179713Y-36864090D01*
X138303454Y-36242000D01*
X138179713Y-35619910D01*
X137827327Y-35092527D01*
X137299944Y-34740141D01*
X136677854Y-34616400D01*
X134594146Y-34616400D01*
X134361749Y-34662626D01*
X132865870Y-33166748D01*
X132865870Y-32753300D01*
X132821592Y-32517983D01*
X132682520Y-32301859D01*
X132470320Y-32156869D01*
X132218430Y-32105860D01*
X131377725Y-32105860D01*
X131318000Y-32093980D01*
X131258275Y-32105860D01*
X130417570Y-32105860D01*
X130182253Y-32150138D01*
X129966129Y-32289210D01*
X129912089Y-32368300D01*
X129413000Y-32368300D01*
X129413000Y-28142000D01*
X142038000Y-28142000D01*
X142038000Y-125782000D01*
X142038000Y-125782000D01*
G37*
X142038000Y-125782000D02*
X133205569Y-125782000D01*
X133223511Y-125770012D01*
X133334317Y-125749162D01*
X133550441Y-125610090D01*
X133695431Y-125397890D01*
X133705898Y-125346205D01*
X134415052Y-124637051D01*
X134415054Y-124637048D01*
X135495049Y-123557054D01*
X135495052Y-123557052D01*
X135495056Y-123557046D01*
X135840502Y-123211600D01*
X136677854Y-123211600D01*
X137299944Y-123087859D01*
X137827327Y-122735473D01*
X138179713Y-122208090D01*
X138303454Y-121586000D01*
X138179713Y-120963910D01*
X137827327Y-120436527D01*
X137299944Y-120084141D01*
X136677854Y-119960400D01*
X134594146Y-119960400D01*
X134361749Y-120006626D01*
X132865870Y-118510748D01*
X132865870Y-118097300D01*
X132821592Y-117861983D01*
X132682520Y-117645859D01*
X132470320Y-117500869D01*
X132218430Y-117449860D01*
X131377725Y-117449860D01*
X131318000Y-117437980D01*
X131258275Y-117449860D01*
X130417570Y-117449860D01*
X130182253Y-117494138D01*
X129966129Y-117633210D01*
X129912089Y-117712300D01*
X129413000Y-117712300D01*
X129413000Y-113346440D01*
X131576944Y-113346440D01*
X131614910Y-113405441D01*
X131827110Y-113550431D01*
X131950654Y-113575449D01*
X132150062Y-113708690D01*
X132589000Y-113796000D01*
X133027938Y-113708690D01*
X133223511Y-113578012D01*
X133334317Y-113557162D01*
X133550441Y-113418090D01*
X133695431Y-113205890D01*
X133705898Y-113154205D01*
X134415052Y-112445051D01*
X134415054Y-112445048D01*
X135495049Y-111365054D01*
X135495052Y-111365052D01*
X135495056Y-111365046D01*
X135840502Y-111019600D01*
X136677854Y-111019600D01*
X137299944Y-110895859D01*
X137827327Y-110543473D01*
X138179713Y-110016090D01*
X138303454Y-109394000D01*
X138179713Y-108771910D01*
X137827327Y-108244527D01*
X137299944Y-107892141D01*
X136677854Y-107768400D01*
X134594146Y-107768400D01*
X134361749Y-107814626D01*
X132865870Y-106318748D01*
X132865870Y-105905300D01*
X132821592Y-105669983D01*
X132682520Y-105453859D01*
X132470320Y-105308869D01*
X132218430Y-105257860D01*
X131377725Y-105257860D01*
X131318000Y-105245980D01*
X131258275Y-105257860D01*
X130417570Y-105257860D01*
X130182253Y-105302138D01*
X129966129Y-105441210D01*
X129912089Y-105520300D01*
X129413000Y-105520300D01*
X129413000Y-101154440D01*
X131576944Y-101154440D01*
X131614910Y-101213441D01*
X131827110Y-101358431D01*
X131950654Y-101383449D01*
X132150062Y-101516690D01*
X132589000Y-101604000D01*
X133027938Y-101516690D01*
X133223511Y-101386012D01*
X133334317Y-101365162D01*
X133550441Y-101226090D01*
X133695431Y-101013890D01*
X133705898Y-100962205D01*
X134415052Y-100253051D01*
X134415054Y-100253048D01*
X135495049Y-99173054D01*
X135495052Y-99173052D01*
X135495056Y-99173046D01*
X135840502Y-98827600D01*
X136677854Y-98827600D01*
X137299944Y-98703859D01*
X137827327Y-98351473D01*
X138179713Y-97824090D01*
X138303454Y-97202000D01*
X138179713Y-96579910D01*
X137827327Y-96052527D01*
X137299944Y-95700141D01*
X136677854Y-95576400D01*
X134594146Y-95576400D01*
X134361749Y-95622626D01*
X132865870Y-94126748D01*
X132865870Y-93713300D01*
X132821592Y-93477983D01*
X132682520Y-93261859D01*
X132470320Y-93116869D01*
X132218430Y-93065860D01*
X131377725Y-93065860D01*
X131318000Y-93053980D01*
X131258275Y-93065860D01*
X130417570Y-93065860D01*
X130182253Y-93110138D01*
X129966129Y-93249210D01*
X129912089Y-93328300D01*
X129413000Y-93328300D01*
X129413000Y-88962440D01*
X131576944Y-88962440D01*
X131614910Y-89021441D01*
X131827110Y-89166431D01*
X131950654Y-89191449D01*
X132150062Y-89324690D01*
X132589000Y-89412000D01*
X133027938Y-89324690D01*
X133223511Y-89194012D01*
X133334317Y-89173162D01*
X133550441Y-89034090D01*
X133695431Y-88821890D01*
X133705898Y-88770205D01*
X134415052Y-88061051D01*
X134415054Y-88061048D01*
X135495049Y-86981054D01*
X135495052Y-86981052D01*
X135495056Y-86981046D01*
X135840502Y-86635600D01*
X136677854Y-86635600D01*
X137299944Y-86511859D01*
X137827327Y-86159473D01*
X138179713Y-85632090D01*
X138303454Y-85010000D01*
X138179713Y-84387910D01*
X137827327Y-83860527D01*
X137299944Y-83508141D01*
X136677854Y-83384400D01*
X134594146Y-83384400D01*
X134361749Y-83430626D01*
X132865870Y-81934748D01*
X132865870Y-81521300D01*
X132821592Y-81285983D01*
X132682520Y-81069859D01*
X132470320Y-80924869D01*
X132218430Y-80873860D01*
X131377725Y-80873860D01*
X131318000Y-80861980D01*
X131258275Y-80873860D01*
X130417570Y-80873860D01*
X130182253Y-80918138D01*
X129966129Y-81057210D01*
X129912089Y-81136300D01*
X129413000Y-81136300D01*
X129413000Y-76770440D01*
X131576944Y-76770440D01*
X131614910Y-76829441D01*
X131827110Y-76974431D01*
X131950654Y-76999449D01*
X132150062Y-77132690D01*
X132589000Y-77220000D01*
X133027938Y-77132690D01*
X133223511Y-77002012D01*
X133334317Y-76981162D01*
X133550441Y-76842090D01*
X133695431Y-76629890D01*
X133705898Y-76578205D01*
X134415052Y-75869051D01*
X134415054Y-75869048D01*
X135495049Y-74789054D01*
X135495052Y-74789052D01*
X135495056Y-74789046D01*
X135840502Y-74443600D01*
X136677854Y-74443600D01*
X137299944Y-74319859D01*
X137827327Y-73967473D01*
X138179713Y-73440090D01*
X138303454Y-72818000D01*
X138179713Y-72195910D01*
X137827327Y-71668527D01*
X137299944Y-71316141D01*
X136677854Y-71192400D01*
X134594146Y-71192400D01*
X134361749Y-71238626D01*
X132865870Y-69742748D01*
X132865870Y-69329300D01*
X132821592Y-69093983D01*
X132682520Y-68877859D01*
X132470320Y-68732869D01*
X132218430Y-68681860D01*
X131377725Y-68681860D01*
X131318000Y-68669980D01*
X131258275Y-68681860D01*
X130417570Y-68681860D01*
X130182253Y-68726138D01*
X129966129Y-68865210D01*
X129912089Y-68944300D01*
X129413000Y-68944300D01*
X129413000Y-64578440D01*
X131576944Y-64578440D01*
X131614910Y-64637441D01*
X131827110Y-64782431D01*
X131950654Y-64807449D01*
X132150062Y-64940690D01*
X132589000Y-65028000D01*
X133027938Y-64940690D01*
X133223511Y-64810012D01*
X133334317Y-64789162D01*
X133550441Y-64650090D01*
X133695431Y-64437890D01*
X133705898Y-64386205D01*
X134415052Y-63677051D01*
X134415054Y-63677048D01*
X135495049Y-62597054D01*
X135495052Y-62597052D01*
X135495056Y-62597046D01*
X135840502Y-62251600D01*
X136677854Y-62251600D01*
X137299944Y-62127859D01*
X137827327Y-61775473D01*
X138179713Y-61248090D01*
X138303454Y-60626000D01*
X138179713Y-60003910D01*
X137827327Y-59476527D01*
X137299944Y-59124141D01*
X136677854Y-59000400D01*
X134594146Y-59000400D01*
X134361749Y-59046626D01*
X132865870Y-57550748D01*
X132865870Y-57137300D01*
X132821592Y-56901983D01*
X132682520Y-56685859D01*
X132470320Y-56540869D01*
X132218430Y-56489860D01*
X131377725Y-56489860D01*
X131318000Y-56477980D01*
X131258275Y-56489860D01*
X130417570Y-56489860D01*
X130182253Y-56534138D01*
X129966129Y-56673210D01*
X129912089Y-56752300D01*
X129413000Y-56752300D01*
X129413000Y-52386440D01*
X131576944Y-52386440D01*
X131614910Y-52445441D01*
X131827110Y-52590431D01*
X131950654Y-52615449D01*
X132150062Y-52748690D01*
X132589000Y-52836000D01*
X133027938Y-52748690D01*
X133223511Y-52618012D01*
X133334317Y-52597162D01*
X133550441Y-52458090D01*
X133695431Y-52245890D01*
X133705898Y-52194205D01*
X134415052Y-51485051D01*
X134415054Y-51485048D01*
X135495049Y-50405054D01*
X135495052Y-50405052D01*
X135495056Y-50405046D01*
X135840502Y-50059600D01*
X136677854Y-50059600D01*
X137299944Y-49935859D01*
X137827327Y-49583473D01*
X138179713Y-49056090D01*
X138303454Y-48434000D01*
X138179713Y-47811910D01*
X137827327Y-47284527D01*
X137299944Y-46932141D01*
X136677854Y-46808400D01*
X134594146Y-46808400D01*
X134361749Y-46854626D01*
X132865870Y-45358748D01*
X132865870Y-44945300D01*
X132821592Y-44709983D01*
X132682520Y-44493859D01*
X132470320Y-44348869D01*
X132218430Y-44297860D01*
X131377725Y-44297860D01*
X131318000Y-44285980D01*
X131258275Y-44297860D01*
X130417570Y-44297860D01*
X130182253Y-44342138D01*
X129966129Y-44481210D01*
X129912089Y-44560300D01*
X129413000Y-44560300D01*
X129413000Y-40194440D01*
X131576944Y-40194440D01*
X131614910Y-40253441D01*
X131827110Y-40398431D01*
X131950654Y-40423449D01*
X132150062Y-40556690D01*
X132589000Y-40644000D01*
X133027938Y-40556690D01*
X133223511Y-40426012D01*
X133334317Y-40405162D01*
X133550441Y-40266090D01*
X133695431Y-40053890D01*
X133705898Y-40002205D01*
X134415052Y-39293051D01*
X134415054Y-39293048D01*
X135495049Y-38213054D01*
X135495052Y-38213052D01*
X135495056Y-38213046D01*
X135840502Y-37867600D01*
X136677854Y-37867600D01*
X137299944Y-37743859D01*
X137827327Y-37391473D01*
X138179713Y-36864090D01*
X138303454Y-36242000D01*
X138179713Y-35619910D01*
X137827327Y-35092527D01*
X137299944Y-34740141D01*
X136677854Y-34616400D01*
X134594146Y-34616400D01*
X134361749Y-34662626D01*
X132865870Y-33166748D01*
X132865870Y-32753300D01*
X132821592Y-32517983D01*
X132682520Y-32301859D01*
X132470320Y-32156869D01*
X132218430Y-32105860D01*
X131377725Y-32105860D01*
X131318000Y-32093980D01*
X131258275Y-32105860D01*
X130417570Y-32105860D01*
X130182253Y-32150138D01*
X129966129Y-32289210D01*
X129912089Y-32368300D01*
X129413000Y-32368300D01*
X129413000Y-28142000D01*
X142038000Y-28142000D01*
X142038000Y-125782000D01*
G36*
X83751075Y-33101689D02*
X83658627Y-33063301D01*
X82968401Y-33062699D01*
X82330485Y-33326281D01*
X81915000Y-33741041D01*
X81915000Y-32004000D01*
X81847329Y-31663794D01*
X81654618Y-31375382D01*
X81000835Y-30721599D01*
X81486699Y-30721599D01*
X81750281Y-31359515D01*
X82237918Y-31848004D01*
X82875373Y-32112699D01*
X83565599Y-32113301D01*
X84203515Y-31849719D01*
X84692004Y-31362082D01*
X84956699Y-30724627D01*
X84957301Y-30034401D01*
X84693719Y-29396485D01*
X84206082Y-28907996D01*
X83568627Y-28643301D01*
X82878401Y-28642699D01*
X82240485Y-28906281D01*
X81751996Y-29393918D01*
X81487301Y-30031373D01*
X81486699Y-30721599D01*
X81000835Y-30721599D01*
X78860618Y-28581382D01*
X78572206Y-28388671D01*
X78232000Y-28321000D01*
X63500000Y-28321000D01*
X63159794Y-28388671D01*
X62871382Y-28581382D01*
X57936764Y-33516000D01*
X57641678Y-33516000D01*
X57600000Y-33507560D01*
X56700000Y-33507560D01*
X56655145Y-33516000D01*
X55810760Y-33516000D01*
X55602075Y-33557510D01*
X55210710Y-33557510D01*
X54975393Y-33601788D01*
X54759269Y-33740860D01*
X54734486Y-33777131D01*
X54758779Y-33655000D01*
X54671470Y-33216062D01*
X54644302Y-33175403D01*
X54614992Y-33019633D01*
X54475920Y-32803509D01*
X54263720Y-32658519D01*
X54093827Y-32624115D01*
X54050718Y-32595310D01*
X53611780Y-32508001D01*
X53172842Y-32595310D01*
X53132182Y-32622478D01*
X52976413Y-32651788D01*
X52927504Y-32683260D01*
X52153868Y-32683260D01*
X51714276Y-32595820D01*
X51155724Y-32595820D01*
X50683324Y-32689786D01*
X50282843Y-32957379D01*
X50015250Y-33357860D01*
X49921284Y-33830260D01*
X50015250Y-34302660D01*
X50282843Y-34703141D01*
X50472327Y-34829750D01*
X50282843Y-34956359D01*
X50015250Y-35356840D01*
X49921284Y-35829240D01*
X50015250Y-36301640D01*
X50270575Y-36683760D01*
X49838029Y-36683760D01*
X49771890Y-36638569D01*
X49520000Y-36587560D01*
X48270000Y-36587560D01*
X48034683Y-36631838D01*
X47818559Y-36770910D01*
X47673569Y-36983110D01*
X47622560Y-37235000D01*
X47622560Y-38235000D01*
X47666838Y-38470317D01*
X47805910Y-38686441D01*
X48018110Y-38831431D01*
X48270000Y-38882440D01*
X48539834Y-38882440D01*
X48551822Y-38890450D01*
X48990760Y-38977760D01*
X50716132Y-38977760D01*
X51155724Y-39065200D01*
X51714276Y-39065200D01*
X52186676Y-38971234D01*
X52587157Y-38703641D01*
X52854750Y-38303160D01*
X52948716Y-37830760D01*
X52854750Y-37358360D01*
X52587157Y-36957879D01*
X52395773Y-36830000D01*
X52587157Y-36702121D01*
X52854750Y-36301640D01*
X52948716Y-35829240D01*
X52854750Y-35356840D01*
X52601123Y-34977260D01*
X53436520Y-34977260D01*
X53875458Y-34889950D01*
X54212528Y-34664726D01*
X54247147Y-34658212D01*
X54463271Y-34519140D01*
X54563270Y-34372787D01*
X54563270Y-35005050D01*
X54607548Y-35240367D01*
X54746620Y-35456491D01*
X54958820Y-35601481D01*
X55210710Y-35652490D01*
X56010810Y-35652490D01*
X56246127Y-35608212D01*
X56462251Y-35469140D01*
X56581919Y-35294000D01*
X56658322Y-35294000D01*
X56700000Y-35302440D01*
X57600000Y-35302440D01*
X57644855Y-35294000D01*
X58305000Y-35294000D01*
X58645206Y-35226329D01*
X58933618Y-35033618D01*
X63868236Y-30099000D01*
X77863764Y-30099000D01*
X80137000Y-32372236D01*
X80137000Y-37846000D01*
X80204671Y-38186206D01*
X80351721Y-38406281D01*
X80397382Y-38474618D01*
X81577194Y-39654430D01*
X81576699Y-40221599D01*
X81840281Y-40859515D01*
X82128338Y-41148075D01*
X81841996Y-41433918D01*
X81577301Y-42071373D01*
X81576699Y-42761599D01*
X81840281Y-43399515D01*
X82128338Y-43688075D01*
X81841996Y-43973918D01*
X81577301Y-44611373D01*
X81576699Y-45301599D01*
X81616014Y-45396750D01*
X79127382Y-47885382D01*
X78934671Y-48173794D01*
X78871000Y-48493891D01*
X78871000Y-45571080D01*
X79053329Y-45298206D01*
X79121000Y-44958000D01*
X79121000Y-43434000D01*
X79053329Y-43093794D01*
X78860618Y-42805382D01*
X78352618Y-42297382D01*
X78311339Y-42269800D01*
X78064206Y-42104671D01*
X77724000Y-42037000D01*
X71984236Y-42037000D01*
X71751440Y-41804204D01*
X71751440Y-41714000D01*
X71707162Y-41478683D01*
X71568090Y-41262559D01*
X71355890Y-41117569D01*
X71104000Y-41066560D01*
X70923994Y-41066560D01*
X70888500Y-41031066D01*
X70888500Y-41002797D01*
X70935440Y-40771000D01*
X70935440Y-39321000D01*
X70891162Y-39085683D01*
X70888500Y-39081546D01*
X70888500Y-39062342D01*
X70896371Y-39054485D01*
X71084785Y-38600734D01*
X71085214Y-38109421D01*
X71002608Y-37909500D01*
X72684000Y-37909500D01*
X72999906Y-37846663D01*
X73267717Y-37667717D01*
X73781980Y-37153453D01*
X73881352Y-37194716D01*
X74531795Y-37195284D01*
X75132943Y-36946894D01*
X75593278Y-36487363D01*
X75842716Y-35886648D01*
X75843284Y-35236205D01*
X75594894Y-34635057D01*
X75135363Y-34174722D01*
X74534648Y-33925284D01*
X73884205Y-33924716D01*
X73283057Y-34173106D01*
X72822722Y-34632637D01*
X72573284Y-35233352D01*
X72572716Y-35883795D01*
X72614835Y-35985731D01*
X72342066Y-36258500D01*
X70935440Y-36258500D01*
X70935440Y-35940994D01*
X72229717Y-34646717D01*
X72408663Y-34378906D01*
X72471500Y-34063000D01*
X72471500Y-33851440D01*
X72646000Y-33851440D01*
X72881317Y-33807162D01*
X73097441Y-33668090D01*
X73242431Y-33455890D01*
X73293440Y-33204000D01*
X73293440Y-30804000D01*
X73249162Y-30568683D01*
X73110090Y-30352559D01*
X72897890Y-30207569D01*
X72646000Y-30156560D01*
X70646000Y-30156560D01*
X70410683Y-30200838D01*
X70194559Y-30339910D01*
X70049569Y-30552110D01*
X69998560Y-30804000D01*
X69998560Y-33204000D01*
X70021096Y-33323769D01*
X69996717Y-33287283D01*
X69996714Y-33287281D01*
X69193440Y-32484007D01*
X69193440Y-30804000D01*
X69149162Y-30568683D01*
X69010090Y-30352559D01*
X68797890Y-30207569D01*
X68546000Y-30156560D01*
X66546000Y-30156560D01*
X66310683Y-30200838D01*
X66094559Y-30339910D01*
X65949569Y-30552110D01*
X65898560Y-30804000D01*
X65898560Y-33204000D01*
X65942838Y-33439317D01*
X66081910Y-33655441D01*
X66294110Y-33800431D01*
X66546000Y-33851440D01*
X68226007Y-33851440D01*
X68587500Y-34212933D01*
X68587500Y-34273560D01*
X68538000Y-34273560D01*
X68302683Y-34317838D01*
X68086559Y-34456910D01*
X67941569Y-34669110D01*
X67890560Y-34921000D01*
X67890560Y-36371000D01*
X67934838Y-36606317D01*
X67937500Y-36610454D01*
X67937500Y-36759000D01*
X68000337Y-37074906D01*
X68179283Y-37342717D01*
X68504281Y-37667714D01*
X68504283Y-37667717D01*
X68733997Y-37821207D01*
X68615215Y-38107266D01*
X68614786Y-38598579D01*
X68645768Y-38673560D01*
X68538000Y-38673560D01*
X68434329Y-38693067D01*
X68338000Y-38673560D01*
X67888000Y-38673560D01*
X67652683Y-38717838D01*
X67436559Y-38856910D01*
X67291569Y-39069110D01*
X67240560Y-39321000D01*
X67240560Y-39796007D01*
X66952017Y-40084549D01*
X66681382Y-40265382D01*
X66488671Y-40553794D01*
X66421000Y-40894000D01*
X66421000Y-43688000D01*
X66488671Y-44028206D01*
X66640430Y-44255329D01*
X66681382Y-44316618D01*
X68647382Y-46282618D01*
X68755709Y-46355000D01*
X47785020Y-46355000D01*
X47711404Y-46369643D01*
X47636376Y-46367515D01*
X47542917Y-46403157D01*
X47444814Y-46422671D01*
X47382405Y-46464371D01*
X47312274Y-46491117D01*
X47239568Y-46559812D01*
X47156402Y-46615382D01*
X47133338Y-46649900D01*
X47105570Y-46649900D01*
X46870253Y-46694178D01*
X46654129Y-46833250D01*
X46509139Y-47045450D01*
X46458130Y-47297340D01*
X46458130Y-49796700D01*
X46502408Y-50032017D01*
X46641480Y-50248141D01*
X46853680Y-50393131D01*
X47105570Y-50444140D01*
X48906430Y-50444140D01*
X49141747Y-50399862D01*
X49357871Y-50260790D01*
X49502861Y-50048590D01*
X49553870Y-49796700D01*
X49553870Y-48133000D01*
X50820093Y-48133000D01*
X50819519Y-48133840D01*
X50785115Y-48303733D01*
X50756310Y-48346842D01*
X50669000Y-48785780D01*
X50669000Y-49071856D01*
X50581215Y-49283266D01*
X50580819Y-49737270D01*
X50465950Y-49737270D01*
X50230633Y-49781548D01*
X50014509Y-49920620D01*
X49869519Y-50132820D01*
X49818510Y-50384710D01*
X49818510Y-51184810D01*
X49862788Y-51420127D01*
X49864017Y-51422037D01*
X49553870Y-51418005D01*
X49553870Y-51295300D01*
X49509592Y-51059983D01*
X49370520Y-50843859D01*
X49158320Y-50698869D01*
X48906430Y-50647860D01*
X47105570Y-50647860D01*
X46870253Y-50692138D01*
X46654129Y-50831210D01*
X46509139Y-51043410D01*
X46458130Y-51295300D01*
X46458130Y-53794660D01*
X46502408Y-54029977D01*
X46641480Y-54246101D01*
X46853680Y-54391091D01*
X47105570Y-54442100D01*
X48906430Y-54442100D01*
X49141747Y-54397822D01*
X49357871Y-54258750D01*
X49502861Y-54046550D01*
X49553870Y-53794660D01*
X49553870Y-53712199D01*
X50531091Y-53724903D01*
X50971126Y-53643306D01*
X51312701Y-53421440D01*
X51316000Y-53421440D01*
X51551317Y-53377162D01*
X51767441Y-53238090D01*
X51815134Y-53168289D01*
X51851910Y-53225441D01*
X52064110Y-53370431D01*
X52316000Y-53421440D01*
X52582844Y-53421440D01*
X52832000Y-53471000D01*
X58452898Y-53471000D01*
X62942949Y-57961052D01*
X63194225Y-58128949D01*
X63315062Y-58209690D01*
X63754000Y-58297000D01*
X71660898Y-58297000D01*
X76588992Y-63225095D01*
X76676408Y-63436657D01*
X77023515Y-63784371D01*
X77477266Y-63972785D01*
X77968579Y-63973214D01*
X78422657Y-63785592D01*
X78770371Y-63438485D01*
X78867000Y-63205777D01*
X78867000Y-69284437D01*
X78478734Y-69123215D01*
X77987421Y-69122786D01*
X77533343Y-69310408D01*
X77374474Y-69469000D01*
X75552236Y-69469000D01*
X65398618Y-59315382D01*
X65302356Y-59251062D01*
X65110206Y-59122671D01*
X64770000Y-59055000D01*
X52018096Y-59055000D01*
X52010090Y-59042559D01*
X51797890Y-58897569D01*
X51546000Y-58846560D01*
X51046000Y-58846560D01*
X51019067Y-58851628D01*
X51019214Y-58683421D01*
X50831592Y-58229343D01*
X50484485Y-57881629D01*
X50030734Y-57693215D01*
X49539421Y-57692786D01*
X49085343Y-57880408D01*
X48737629Y-58227515D01*
X48649042Y-58440856D01*
X48292898Y-58797000D01*
X48248000Y-58797000D01*
X47809062Y-58884310D01*
X47716197Y-58946360D01*
X47612683Y-58965838D01*
X47396559Y-59104910D01*
X47251569Y-59317110D01*
X47224465Y-59450952D01*
X47188310Y-59505062D01*
X47101000Y-59944000D01*
X47188310Y-60382938D01*
X47222109Y-60433521D01*
X47244838Y-60554317D01*
X47383910Y-60770441D01*
X47596110Y-60915431D01*
X47712138Y-60938927D01*
X47809062Y-61003690D01*
X48248000Y-61091000D01*
X49276000Y-61091000D01*
X49535671Y-61039348D01*
X49546000Y-61041440D01*
X50046000Y-61041440D01*
X50281317Y-60997162D01*
X50497441Y-60858090D01*
X50545134Y-60788289D01*
X50581910Y-60845441D01*
X50794110Y-60990431D01*
X51046000Y-61041440D01*
X51546000Y-61041440D01*
X51781317Y-60997162D01*
X51997441Y-60858090D01*
X52014584Y-60833000D01*
X53520069Y-60833000D01*
X53467221Y-60960273D01*
X53466780Y-61465510D01*
X53659718Y-61932458D01*
X54016663Y-62290026D01*
X54483273Y-62483779D01*
X54988510Y-62484220D01*
X55455458Y-62291282D01*
X55813026Y-61934337D01*
X56006779Y-61467727D01*
X56007220Y-60962490D01*
X55953716Y-60833000D01*
X64401764Y-60833000D01*
X74555382Y-70986618D01*
X74843794Y-71179329D01*
X75184000Y-71247000D01*
X77158437Y-71247000D01*
X76997215Y-71635266D01*
X76997019Y-71859745D01*
X75577764Y-73279000D01*
X52018096Y-73279000D01*
X52010090Y-73266559D01*
X51797890Y-73121569D01*
X51546000Y-73070560D01*
X51046000Y-73070560D01*
X51019067Y-73075628D01*
X51019214Y-72907421D01*
X50831592Y-72453343D01*
X50484485Y-72105629D01*
X50030734Y-71917215D01*
X49539421Y-71916786D01*
X49085343Y-72104408D01*
X48737629Y-72451515D01*
X48649042Y-72664856D01*
X48292898Y-73021000D01*
X48248000Y-73021000D01*
X47809062Y-73108310D01*
X47716197Y-73170360D01*
X47612683Y-73189838D01*
X47396559Y-73328910D01*
X47251569Y-73541110D01*
X47224465Y-73674952D01*
X47188310Y-73729062D01*
X47101000Y-74168000D01*
X47188310Y-74606938D01*
X47222109Y-74657521D01*
X47244838Y-74778317D01*
X47383910Y-74994441D01*
X47596110Y-75139431D01*
X47712138Y-75162927D01*
X47809062Y-75227690D01*
X48248000Y-75315000D01*
X49796000Y-75315000D01*
X50045156Y-75265440D01*
X50046000Y-75265440D01*
X50281317Y-75221162D01*
X50497441Y-75082090D01*
X50534907Y-75027256D01*
X50548794Y-75017977D01*
X50581910Y-75069441D01*
X50794110Y-75214431D01*
X51046000Y-75265440D01*
X51546000Y-75265440D01*
X51781317Y-75221162D01*
X51997441Y-75082090D01*
X52014584Y-75057000D01*
X53520069Y-75057000D01*
X53467221Y-75184273D01*
X53466780Y-75689510D01*
X53659718Y-76156458D01*
X54016663Y-76514026D01*
X54483273Y-76707779D01*
X54988510Y-76708220D01*
X55455458Y-76515282D01*
X55813026Y-76158337D01*
X56006779Y-75691727D01*
X56007220Y-75186490D01*
X55953716Y-75057000D01*
X75323764Y-75057000D01*
X62877764Y-87503000D01*
X52018096Y-87503000D01*
X52010090Y-87490559D01*
X51797890Y-87345569D01*
X51546000Y-87294560D01*
X51046000Y-87294560D01*
X51019067Y-87299628D01*
X51019214Y-87131421D01*
X50831592Y-86677343D01*
X50484485Y-86329629D01*
X50030734Y-86141215D01*
X49539421Y-86140786D01*
X49085343Y-86328408D01*
X48737629Y-86675515D01*
X48649042Y-86888856D01*
X48292898Y-87245000D01*
X48248000Y-87245000D01*
X47809062Y-87332310D01*
X47716197Y-87394360D01*
X47612683Y-87413838D01*
X47396559Y-87552910D01*
X47251569Y-87765110D01*
X47224465Y-87898952D01*
X47188310Y-87953062D01*
X47101000Y-88392000D01*
X47188310Y-88830938D01*
X47222109Y-88881521D01*
X47244838Y-89002317D01*
X47383910Y-89218441D01*
X47596110Y-89363431D01*
X47712138Y-89386927D01*
X47809062Y-89451690D01*
X48248000Y-89539000D01*
X49796000Y-89539000D01*
X50045156Y-89489440D01*
X50046000Y-89489440D01*
X50281317Y-89445162D01*
X50497441Y-89306090D01*
X50534907Y-89251256D01*
X50548794Y-89241977D01*
X50581910Y-89293441D01*
X50794110Y-89438431D01*
X51046000Y-89489440D01*
X51546000Y-89489440D01*
X51781317Y-89445162D01*
X51997441Y-89306090D01*
X52014584Y-89281000D01*
X53520069Y-89281000D01*
X53467221Y-89408273D01*
X53466780Y-89913510D01*
X53659718Y-90380458D01*
X54016663Y-90738026D01*
X54483273Y-90931779D01*
X54988510Y-90932220D01*
X55455458Y-90739282D01*
X55813026Y-90382337D01*
X56006779Y-89915727D01*
X56007220Y-89410490D01*
X55953716Y-89281000D01*
X59829764Y-89281000D01*
X57283382Y-91827382D01*
X57090671Y-92115794D01*
X57023000Y-92456000D01*
X57023000Y-94881764D01*
X50881832Y-101022932D01*
X50831592Y-100901343D01*
X50484485Y-100553629D01*
X50030734Y-100365215D01*
X49539421Y-100364786D01*
X49085343Y-100552408D01*
X48737629Y-100899515D01*
X48649043Y-101112855D01*
X48304898Y-101457000D01*
X48260000Y-101457000D01*
X47821062Y-101544310D01*
X47707902Y-101619921D01*
X47612683Y-101637838D01*
X47396559Y-101776910D01*
X47251569Y-101989110D01*
X47224465Y-102122952D01*
X47188310Y-102177062D01*
X47101001Y-102616000D01*
X47188310Y-103054938D01*
X47222109Y-103105521D01*
X47244838Y-103226317D01*
X47383910Y-103442441D01*
X47596110Y-103587431D01*
X47712138Y-103610927D01*
X47809062Y-103675690D01*
X48248000Y-103762999D01*
X48308324Y-103751000D01*
X49735672Y-103751000D01*
X49796000Y-103763000D01*
X50045156Y-103713440D01*
X50046000Y-103713440D01*
X50281317Y-103669162D01*
X50497441Y-103530090D01*
X50534906Y-103475258D01*
X50548795Y-103465978D01*
X50581910Y-103517441D01*
X50794110Y-103662431D01*
X51046000Y-103713440D01*
X51546000Y-103713440D01*
X51781317Y-103669162D01*
X51997441Y-103530090D01*
X52142431Y-103317890D01*
X52193440Y-103066000D01*
X52193440Y-102225796D01*
X58540618Y-95878618D01*
X58599976Y-95789782D01*
X58733329Y-95590206D01*
X58801000Y-95250000D01*
X58801000Y-92824236D01*
X61201236Y-90424000D01*
X63627000Y-90424000D01*
X63967206Y-90356329D01*
X64255618Y-90163618D01*
X78254216Y-76165020D01*
X78476579Y-76165214D01*
X78867000Y-76003895D01*
X78867000Y-88785000D01*
X78469678Y-88785000D01*
X78428000Y-88776560D01*
X77528000Y-88776560D01*
X77483145Y-88785000D01*
X76691678Y-88785000D01*
X76650000Y-88776560D01*
X75750000Y-88776560D01*
X75514683Y-88820838D01*
X75298559Y-88959910D01*
X75153569Y-89172110D01*
X75102560Y-89424000D01*
X75102560Y-89924000D01*
X75146838Y-90159317D01*
X75285910Y-90375441D01*
X75498110Y-90520431D01*
X75750000Y-90571440D01*
X76650000Y-90571440D01*
X76694855Y-90563000D01*
X77006121Y-90563000D01*
X76931569Y-90672110D01*
X76880560Y-90924000D01*
X76880560Y-91424000D01*
X76924838Y-91659317D01*
X77063910Y-91875441D01*
X77276110Y-92020431D01*
X77528000Y-92071440D01*
X78428000Y-92071440D01*
X78472855Y-92063000D01*
X78971879Y-92063000D01*
X79129110Y-92170431D01*
X79381000Y-92221440D01*
X80131000Y-92221440D01*
X80208644Y-92206830D01*
X80195189Y-92239233D01*
X80194812Y-92670873D01*
X80343667Y-93031128D01*
X80346638Y-93046917D01*
X80356566Y-93062345D01*
X80359646Y-93069800D01*
X80364477Y-93074639D01*
X80375005Y-93091000D01*
X62826453Y-93091000D01*
X62712415Y-92920330D01*
X62226234Y-92595474D01*
X61652745Y-92481400D01*
X61283255Y-92481400D01*
X60709766Y-92595474D01*
X60223585Y-92920330D01*
X59898729Y-93406511D01*
X59784655Y-93980000D01*
X59898729Y-94553489D01*
X60223585Y-95039670D01*
X60538366Y-95250000D01*
X60223585Y-95460330D01*
X59898729Y-95946511D01*
X59784655Y-96520000D01*
X59898729Y-97093489D01*
X60223585Y-97579670D01*
X60538366Y-97790000D01*
X60223585Y-98000330D01*
X59898729Y-98486511D01*
X59784655Y-99060000D01*
X59898729Y-99633489D01*
X60223585Y-100119670D01*
X60538366Y-100330000D01*
X60223585Y-100540330D01*
X59898729Y-101026511D01*
X59784655Y-101600000D01*
X59898729Y-102173489D01*
X60223585Y-102659670D01*
X60538366Y-102870000D01*
X60223585Y-103080330D01*
X59898729Y-103566511D01*
X59784655Y-104140000D01*
X59898729Y-104713489D01*
X60223585Y-105199670D01*
X60538366Y-105410000D01*
X60223585Y-105620330D01*
X59898729Y-106106511D01*
X59784655Y-106680000D01*
X59898729Y-107253489D01*
X60223585Y-107739670D01*
X60709766Y-108064526D01*
X61283255Y-108178600D01*
X61652745Y-108178600D01*
X62226234Y-108064526D01*
X62581717Y-107827000D01*
X94234000Y-107827000D01*
X94672938Y-107739690D01*
X94742000Y-107693544D01*
X94790903Y-107726220D01*
X94811062Y-107739690D01*
X95250000Y-107827000D01*
X108106283Y-107827000D01*
X108461766Y-108064526D01*
X109035255Y-108178600D01*
X109404745Y-108178600D01*
X109978234Y-108064526D01*
X110464415Y-107739670D01*
X110789271Y-107253489D01*
X110903345Y-106680000D01*
X110789271Y-106106511D01*
X110464415Y-105620330D01*
X110149634Y-105410000D01*
X110464415Y-105199670D01*
X110789271Y-104713489D01*
X110903345Y-104140000D01*
X110789271Y-103566511D01*
X110464415Y-103080330D01*
X110149634Y-102870000D01*
X110464415Y-102659670D01*
X110789271Y-102173489D01*
X110903345Y-101600000D01*
X110789271Y-101026511D01*
X110464415Y-100540330D01*
X110149634Y-100330000D01*
X110464415Y-100119670D01*
X110789271Y-99633489D01*
X110903345Y-99060000D01*
X110789271Y-98486511D01*
X110464415Y-98000330D01*
X110149634Y-97790000D01*
X110464415Y-97579670D01*
X110789271Y-97093489D01*
X110903345Y-96520000D01*
X110789271Y-95946511D01*
X110464415Y-95460330D01*
X110149634Y-95250000D01*
X110464415Y-95039670D01*
X110789271Y-94553489D01*
X110903345Y-93980000D01*
X110789271Y-93406511D01*
X110464415Y-92920330D01*
X109978234Y-92595474D01*
X109404745Y-92481400D01*
X109035255Y-92481400D01*
X108461766Y-92595474D01*
X107975585Y-92920330D01*
X107861547Y-93091000D01*
X93327977Y-93091000D01*
X93365440Y-92906000D01*
X93365440Y-92041796D01*
X97585637Y-87821599D01*
X101986699Y-87821599D01*
X102250281Y-88459515D01*
X102737918Y-88948004D01*
X103375373Y-89212699D01*
X104065599Y-89213301D01*
X104703515Y-88949719D01*
X105192004Y-88462082D01*
X105456699Y-87824627D01*
X105457301Y-87134401D01*
X105193719Y-86496485D01*
X104706082Y-86007996D01*
X104068627Y-85743301D01*
X103378401Y-85742699D01*
X102740485Y-86006281D01*
X102251996Y-86493918D01*
X101987301Y-87131373D01*
X101986699Y-87821599D01*
X97585637Y-87821599D01*
X99740085Y-85667151D01*
X99782873Y-85667188D01*
X100181800Y-85502354D01*
X100487282Y-85197405D01*
X100652811Y-84798767D01*
X100653188Y-84367127D01*
X100488354Y-83968200D01*
X100183405Y-83662718D01*
X99784767Y-83497189D01*
X99353127Y-83496812D01*
X98954200Y-83661646D01*
X98648718Y-83966595D01*
X98483189Y-84365233D01*
X98483150Y-84409614D01*
X91839382Y-91053382D01*
X91646671Y-91341794D01*
X91601875Y-91567000D01*
X90682558Y-91567000D01*
X90542890Y-91471569D01*
X90291000Y-91420560D01*
X89541000Y-91420560D01*
X89305683Y-91464838D01*
X89128270Y-91579000D01*
X88629678Y-91579000D01*
X88588000Y-91570560D01*
X87688000Y-91570560D01*
X87452683Y-91614838D01*
X87408152Y-91643493D01*
X87280354Y-91334200D01*
X86975405Y-91028718D01*
X86576767Y-90863189D01*
X86145127Y-90862812D01*
X85746200Y-91027646D01*
X85651180Y-91122500D01*
X85502915Y-91122500D01*
X85755371Y-90870485D01*
X85843958Y-90657145D01*
X86155052Y-90346051D01*
X86403690Y-89973938D01*
X86491000Y-89535000D01*
X86491000Y-69063102D01*
X92660949Y-75233052D01*
X92948724Y-75425337D01*
X93033062Y-75481690D01*
X93472000Y-75569000D01*
X100633856Y-75569000D01*
X100845266Y-75656785D01*
X101336579Y-75657214D01*
X101790657Y-75469592D01*
X102138371Y-75122485D01*
X102326785Y-74668734D01*
X102327214Y-74177421D01*
X102139592Y-73723343D01*
X101792485Y-73375629D01*
X101569410Y-73283000D01*
X106172000Y-73283000D01*
X106610938Y-73195690D01*
X106983051Y-72947051D01*
X112903000Y-67027103D01*
X112903000Y-68719764D01*
X108591382Y-73031382D01*
X108398671Y-73319794D01*
X108331000Y-73660000D01*
X108331000Y-80010000D01*
X108398671Y-80350206D01*
X108591382Y-80638618D01*
X108862017Y-80819450D01*
X111938306Y-83895739D01*
X111914560Y-84013000D01*
X111914560Y-85463000D01*
X111958838Y-85698317D01*
X112097910Y-85914441D01*
X112200337Y-85984427D01*
X111639382Y-86545382D01*
X111446671Y-86833794D01*
X111379000Y-87174000D01*
X111379000Y-105156000D01*
X111446671Y-105496206D01*
X111586489Y-105705458D01*
X111633000Y-105775067D01*
X111633000Y-109347000D01*
X96012000Y-109347000D01*
X95962590Y-109357006D01*
X95920965Y-109385447D01*
X95893685Y-109427841D01*
X95885000Y-109474000D01*
X95885000Y-110744000D01*
X95895006Y-110793410D01*
X95923447Y-110835035D01*
X95965841Y-110862315D01*
X96012000Y-110871000D01*
X112268000Y-110871000D01*
X112317410Y-110860994D01*
X112357803Y-110833803D01*
X112865803Y-110325803D01*
X112893666Y-110283789D01*
X112903000Y-110236000D01*
X112903000Y-107048236D01*
X123063000Y-117208236D01*
X123063000Y-121105394D01*
X120739803Y-118782197D01*
X120697789Y-118754334D01*
X120650000Y-118745000D01*
X114352606Y-118745000D01*
X108547803Y-112940197D01*
X108505789Y-112912334D01*
X108458000Y-112903000D01*
X103632000Y-112903000D01*
X103582590Y-112913006D01*
X103540965Y-112941447D01*
X103513685Y-112983841D01*
X103505000Y-113030000D01*
X103505000Y-125782000D01*
X44398000Y-125782000D01*
X44398000Y-120963501D01*
X97154691Y-120963501D01*
X97425868Y-121619800D01*
X97927559Y-122122367D01*
X98583384Y-122394689D01*
X99293501Y-122395309D01*
X99949800Y-122124132D01*
X100452367Y-121622441D01*
X100724689Y-120966616D01*
X100725309Y-120256499D01*
X100454132Y-119600200D01*
X99952441Y-119097633D01*
X99296616Y-118825311D01*
X98586499Y-118824691D01*
X97930200Y-119095868D01*
X97427633Y-119597559D01*
X97155311Y-120253384D01*
X97154691Y-120963501D01*
X44398000Y-120963501D01*
X44398000Y-115963501D01*
X97154691Y-115963501D01*
X97425868Y-116619800D01*
X97927559Y-117122367D01*
X98583384Y-117394689D01*
X99293501Y-117395309D01*
X99949800Y-117124132D01*
X100452367Y-116622441D01*
X100724689Y-115966616D01*
X100725309Y-115256499D01*
X100454132Y-114600200D01*
X99952441Y-114097633D01*
X99296616Y-113825311D01*
X98586499Y-113824691D01*
X97930200Y-114095868D01*
X97427633Y-114597559D01*
X97155311Y-115253384D01*
X97154691Y-115963501D01*
X44398000Y-115963501D01*
X44398000Y-107940579D01*
X50072786Y-107940579D01*
X50260408Y-108394657D01*
X50607515Y-108742371D01*
X51061266Y-108930785D01*
X51552579Y-108931214D01*
X52006657Y-108743592D01*
X52354371Y-108396485D01*
X52542785Y-107942734D01*
X52543214Y-107451421D01*
X52355592Y-106997343D01*
X52008485Y-106649629D01*
X51554734Y-106461215D01*
X51063421Y-106460786D01*
X50609343Y-106648408D01*
X50261629Y-106995515D01*
X50073215Y-107449266D01*
X50072786Y-107940579D01*
X44398000Y-107940579D01*
X44398000Y-104137510D01*
X53466780Y-104137510D01*
X53659718Y-104604458D01*
X54016663Y-104962026D01*
X54483273Y-105155779D01*
X54988510Y-105156220D01*
X55455458Y-104963282D01*
X55813026Y-104606337D01*
X56006779Y-104139727D01*
X56007220Y-103634490D01*
X55814282Y-103167542D01*
X55457337Y-102809974D01*
X54990727Y-102616221D01*
X54485490Y-102615780D01*
X54018542Y-102808718D01*
X53660974Y-103165663D01*
X53467221Y-103632273D01*
X53466780Y-104137510D01*
X44398000Y-104137510D01*
X44398000Y-93716579D01*
X50072786Y-93716579D01*
X50260408Y-94170657D01*
X50607515Y-94518371D01*
X51061266Y-94706785D01*
X51552579Y-94707214D01*
X52006657Y-94519592D01*
X52354371Y-94172485D01*
X52542785Y-93718734D01*
X52543214Y-93227421D01*
X52355592Y-92773343D01*
X52008485Y-92425629D01*
X51554734Y-92237215D01*
X51063421Y-92236786D01*
X50609343Y-92424408D01*
X50261629Y-92771515D01*
X50073215Y-93225266D01*
X50072786Y-93716579D01*
X44398000Y-93716579D01*
X44398000Y-79492579D01*
X50072786Y-79492579D01*
X50260408Y-79946657D01*
X50607515Y-80294371D01*
X51061266Y-80482785D01*
X51552579Y-80483214D01*
X52006657Y-80295592D01*
X52354371Y-79948485D01*
X52542785Y-79494734D01*
X52543214Y-79003421D01*
X52355592Y-78549343D01*
X52008485Y-78201629D01*
X51554734Y-78013215D01*
X51063421Y-78012786D01*
X50609343Y-78200408D01*
X50261629Y-78547515D01*
X50073215Y-79001266D01*
X50072786Y-79492579D01*
X44398000Y-79492579D01*
X44398000Y-65268579D01*
X50072786Y-65268579D01*
X50260408Y-65722657D01*
X50607515Y-66070371D01*
X51061266Y-66258785D01*
X51552579Y-66259214D01*
X52006657Y-66071592D01*
X52354371Y-65724485D01*
X52542785Y-65270734D01*
X52543214Y-64779421D01*
X52355592Y-64325343D01*
X52008485Y-63977629D01*
X51554734Y-63789215D01*
X51063421Y-63788786D01*
X50609343Y-63976408D01*
X50261629Y-64323515D01*
X50073215Y-64777266D01*
X50072786Y-65268579D01*
X44398000Y-65268579D01*
X44398000Y-28142000D01*
X88710764Y-28142000D01*
X83751075Y-33101689D01*
X83751075Y-33101689D01*
G37*
X83751075Y-33101689D02*
X83658627Y-33063301D01*
X82968401Y-33062699D01*
X82330485Y-33326281D01*
X81915000Y-33741041D01*
X81915000Y-32004000D01*
X81847329Y-31663794D01*
X81654618Y-31375382D01*
X81000835Y-30721599D01*
X81486699Y-30721599D01*
X81750281Y-31359515D01*
X82237918Y-31848004D01*
X82875373Y-32112699D01*
X83565599Y-32113301D01*
X84203515Y-31849719D01*
X84692004Y-31362082D01*
X84956699Y-30724627D01*
X84957301Y-30034401D01*
X84693719Y-29396485D01*
X84206082Y-28907996D01*
X83568627Y-28643301D01*
X82878401Y-28642699D01*
X82240485Y-28906281D01*
X81751996Y-29393918D01*
X81487301Y-30031373D01*
X81486699Y-30721599D01*
X81000835Y-30721599D01*
X78860618Y-28581382D01*
X78572206Y-28388671D01*
X78232000Y-28321000D01*
X63500000Y-28321000D01*
X63159794Y-28388671D01*
X62871382Y-28581382D01*
X57936764Y-33516000D01*
X57641678Y-33516000D01*
X57600000Y-33507560D01*
X56700000Y-33507560D01*
X56655145Y-33516000D01*
X55810760Y-33516000D01*
X55602075Y-33557510D01*
X55210710Y-33557510D01*
X54975393Y-33601788D01*
X54759269Y-33740860D01*
X54734486Y-33777131D01*
X54758779Y-33655000D01*
X54671470Y-33216062D01*
X54644302Y-33175403D01*
X54614992Y-33019633D01*
X54475920Y-32803509D01*
X54263720Y-32658519D01*
X54093827Y-32624115D01*
X54050718Y-32595310D01*
X53611780Y-32508001D01*
X53172842Y-32595310D01*
X53132182Y-32622478D01*
X52976413Y-32651788D01*
X52927504Y-32683260D01*
X52153868Y-32683260D01*
X51714276Y-32595820D01*
X51155724Y-32595820D01*
X50683324Y-32689786D01*
X50282843Y-32957379D01*
X50015250Y-33357860D01*
X49921284Y-33830260D01*
X50015250Y-34302660D01*
X50282843Y-34703141D01*
X50472327Y-34829750D01*
X50282843Y-34956359D01*
X50015250Y-35356840D01*
X49921284Y-35829240D01*
X50015250Y-36301640D01*
X50270575Y-36683760D01*
X49838029Y-36683760D01*
X49771890Y-36638569D01*
X49520000Y-36587560D01*
X48270000Y-36587560D01*
X48034683Y-36631838D01*
X47818559Y-36770910D01*
X47673569Y-36983110D01*
X47622560Y-37235000D01*
X47622560Y-38235000D01*
X47666838Y-38470317D01*
X47805910Y-38686441D01*
X48018110Y-38831431D01*
X48270000Y-38882440D01*
X48539834Y-38882440D01*
X48551822Y-38890450D01*
X48990760Y-38977760D01*
X50716132Y-38977760D01*
X51155724Y-39065200D01*
X51714276Y-39065200D01*
X52186676Y-38971234D01*
X52587157Y-38703641D01*
X52854750Y-38303160D01*
X52948716Y-37830760D01*
X52854750Y-37358360D01*
X52587157Y-36957879D01*
X52395773Y-36830000D01*
X52587157Y-36702121D01*
X52854750Y-36301640D01*
X52948716Y-35829240D01*
X52854750Y-35356840D01*
X52601123Y-34977260D01*
X53436520Y-34977260D01*
X53875458Y-34889950D01*
X54212528Y-34664726D01*
X54247147Y-34658212D01*
X54463271Y-34519140D01*
X54563270Y-34372787D01*
X54563270Y-35005050D01*
X54607548Y-35240367D01*
X54746620Y-35456491D01*
X54958820Y-35601481D01*
X55210710Y-35652490D01*
X56010810Y-35652490D01*
X56246127Y-35608212D01*
X56462251Y-35469140D01*
X56581919Y-35294000D01*
X56658322Y-35294000D01*
X56700000Y-35302440D01*
X57600000Y-35302440D01*
X57644855Y-35294000D01*
X58305000Y-35294000D01*
X58645206Y-35226329D01*
X58933618Y-35033618D01*
X63868236Y-30099000D01*
X77863764Y-30099000D01*
X80137000Y-32372236D01*
X80137000Y-37846000D01*
X80204671Y-38186206D01*
X80351721Y-38406281D01*
X80397382Y-38474618D01*
X81577194Y-39654430D01*
X81576699Y-40221599D01*
X81840281Y-40859515D01*
X82128338Y-41148075D01*
X81841996Y-41433918D01*
X81577301Y-42071373D01*
X81576699Y-42761599D01*
X81840281Y-43399515D01*
X82128338Y-43688075D01*
X81841996Y-43973918D01*
X81577301Y-44611373D01*
X81576699Y-45301599D01*
X81616014Y-45396750D01*
X79127382Y-47885382D01*
X78934671Y-48173794D01*
X78871000Y-48493891D01*
X78871000Y-45571080D01*
X79053329Y-45298206D01*
X79121000Y-44958000D01*
X79121000Y-43434000D01*
X79053329Y-43093794D01*
X78860618Y-42805382D01*
X78352618Y-42297382D01*
X78311339Y-42269800D01*
X78064206Y-42104671D01*
X77724000Y-42037000D01*
X71984236Y-42037000D01*
X71751440Y-41804204D01*
X71751440Y-41714000D01*
X71707162Y-41478683D01*
X71568090Y-41262559D01*
X71355890Y-41117569D01*
X71104000Y-41066560D01*
X70923994Y-41066560D01*
X70888500Y-41031066D01*
X70888500Y-41002797D01*
X70935440Y-40771000D01*
X70935440Y-39321000D01*
X70891162Y-39085683D01*
X70888500Y-39081546D01*
X70888500Y-39062342D01*
X70896371Y-39054485D01*
X71084785Y-38600734D01*
X71085214Y-38109421D01*
X71002608Y-37909500D01*
X72684000Y-37909500D01*
X72999906Y-37846663D01*
X73267717Y-37667717D01*
X73781980Y-37153453D01*
X73881352Y-37194716D01*
X74531795Y-37195284D01*
X75132943Y-36946894D01*
X75593278Y-36487363D01*
X75842716Y-35886648D01*
X75843284Y-35236205D01*
X75594894Y-34635057D01*
X75135363Y-34174722D01*
X74534648Y-33925284D01*
X73884205Y-33924716D01*
X73283057Y-34173106D01*
X72822722Y-34632637D01*
X72573284Y-35233352D01*
X72572716Y-35883795D01*
X72614835Y-35985731D01*
X72342066Y-36258500D01*
X70935440Y-36258500D01*
X70935440Y-35940994D01*
X72229717Y-34646717D01*
X72408663Y-34378906D01*
X72471500Y-34063000D01*
X72471500Y-33851440D01*
X72646000Y-33851440D01*
X72881317Y-33807162D01*
X73097441Y-33668090D01*
X73242431Y-33455890D01*
X73293440Y-33204000D01*
X73293440Y-30804000D01*
X73249162Y-30568683D01*
X73110090Y-30352559D01*
X72897890Y-30207569D01*
X72646000Y-30156560D01*
X70646000Y-30156560D01*
X70410683Y-30200838D01*
X70194559Y-30339910D01*
X70049569Y-30552110D01*
X69998560Y-30804000D01*
X69998560Y-33204000D01*
X70021096Y-33323769D01*
X69996717Y-33287283D01*
X69996714Y-33287281D01*
X69193440Y-32484007D01*
X69193440Y-30804000D01*
X69149162Y-30568683D01*
X69010090Y-30352559D01*
X68797890Y-30207569D01*
X68546000Y-30156560D01*
X66546000Y-30156560D01*
X66310683Y-30200838D01*
X66094559Y-30339910D01*
X65949569Y-30552110D01*
X65898560Y-30804000D01*
X65898560Y-33204000D01*
X65942838Y-33439317D01*
X66081910Y-33655441D01*
X66294110Y-33800431D01*
X66546000Y-33851440D01*
X68226007Y-33851440D01*
X68587500Y-34212933D01*
X68587500Y-34273560D01*
X68538000Y-34273560D01*
X68302683Y-34317838D01*
X68086559Y-34456910D01*
X67941569Y-34669110D01*
X67890560Y-34921000D01*
X67890560Y-36371000D01*
X67934838Y-36606317D01*
X67937500Y-36610454D01*
X67937500Y-36759000D01*
X68000337Y-37074906D01*
X68179283Y-37342717D01*
X68504281Y-37667714D01*
X68504283Y-37667717D01*
X68733997Y-37821207D01*
X68615215Y-38107266D01*
X68614786Y-38598579D01*
X68645768Y-38673560D01*
X68538000Y-38673560D01*
X68434329Y-38693067D01*
X68338000Y-38673560D01*
X67888000Y-38673560D01*
X67652683Y-38717838D01*
X67436559Y-38856910D01*
X67291569Y-39069110D01*
X67240560Y-39321000D01*
X67240560Y-39796007D01*
X66952017Y-40084549D01*
X66681382Y-40265382D01*
X66488671Y-40553794D01*
X66421000Y-40894000D01*
X66421000Y-43688000D01*
X66488671Y-44028206D01*
X66640430Y-44255329D01*
X66681382Y-44316618D01*
X68647382Y-46282618D01*
X68755709Y-46355000D01*
X47785020Y-46355000D01*
X47711404Y-46369643D01*
X47636376Y-46367515D01*
X47542917Y-46403157D01*
X47444814Y-46422671D01*
X47382405Y-46464371D01*
X47312274Y-46491117D01*
X47239568Y-46559812D01*
X47156402Y-46615382D01*
X47133338Y-46649900D01*
X47105570Y-46649900D01*
X46870253Y-46694178D01*
X46654129Y-46833250D01*
X46509139Y-47045450D01*
X46458130Y-47297340D01*
X46458130Y-49796700D01*
X46502408Y-50032017D01*
X46641480Y-50248141D01*
X46853680Y-50393131D01*
X47105570Y-50444140D01*
X48906430Y-50444140D01*
X49141747Y-50399862D01*
X49357871Y-50260790D01*
X49502861Y-50048590D01*
X49553870Y-49796700D01*
X49553870Y-48133000D01*
X50820093Y-48133000D01*
X50819519Y-48133840D01*
X50785115Y-48303733D01*
X50756310Y-48346842D01*
X50669000Y-48785780D01*
X50669000Y-49071856D01*
X50581215Y-49283266D01*
X50580819Y-49737270D01*
X50465950Y-49737270D01*
X50230633Y-49781548D01*
X50014509Y-49920620D01*
X49869519Y-50132820D01*
X49818510Y-50384710D01*
X49818510Y-51184810D01*
X49862788Y-51420127D01*
X49864017Y-51422037D01*
X49553870Y-51418005D01*
X49553870Y-51295300D01*
X49509592Y-51059983D01*
X49370520Y-50843859D01*
X49158320Y-50698869D01*
X48906430Y-50647860D01*
X47105570Y-50647860D01*
X46870253Y-50692138D01*
X46654129Y-50831210D01*
X46509139Y-51043410D01*
X46458130Y-51295300D01*
X46458130Y-53794660D01*
X46502408Y-54029977D01*
X46641480Y-54246101D01*
X46853680Y-54391091D01*
X47105570Y-54442100D01*
X48906430Y-54442100D01*
X49141747Y-54397822D01*
X49357871Y-54258750D01*
X49502861Y-54046550D01*
X49553870Y-53794660D01*
X49553870Y-53712199D01*
X50531091Y-53724903D01*
X50971126Y-53643306D01*
X51312701Y-53421440D01*
X51316000Y-53421440D01*
X51551317Y-53377162D01*
X51767441Y-53238090D01*
X51815134Y-53168289D01*
X51851910Y-53225441D01*
X52064110Y-53370431D01*
X52316000Y-53421440D01*
X52582844Y-53421440D01*
X52832000Y-53471000D01*
X58452898Y-53471000D01*
X62942949Y-57961052D01*
X63194225Y-58128949D01*
X63315062Y-58209690D01*
X63754000Y-58297000D01*
X71660898Y-58297000D01*
X76588992Y-63225095D01*
X76676408Y-63436657D01*
X77023515Y-63784371D01*
X77477266Y-63972785D01*
X77968579Y-63973214D01*
X78422657Y-63785592D01*
X78770371Y-63438485D01*
X78867000Y-63205777D01*
X78867000Y-69284437D01*
X78478734Y-69123215D01*
X77987421Y-69122786D01*
X77533343Y-69310408D01*
X77374474Y-69469000D01*
X75552236Y-69469000D01*
X65398618Y-59315382D01*
X65302356Y-59251062D01*
X65110206Y-59122671D01*
X64770000Y-59055000D01*
X52018096Y-59055000D01*
X52010090Y-59042559D01*
X51797890Y-58897569D01*
X51546000Y-58846560D01*
X51046000Y-58846560D01*
X51019067Y-58851628D01*
X51019214Y-58683421D01*
X50831592Y-58229343D01*
X50484485Y-57881629D01*
X50030734Y-57693215D01*
X49539421Y-57692786D01*
X49085343Y-57880408D01*
X48737629Y-58227515D01*
X48649042Y-58440856D01*
X48292898Y-58797000D01*
X48248000Y-58797000D01*
X47809062Y-58884310D01*
X47716197Y-58946360D01*
X47612683Y-58965838D01*
X47396559Y-59104910D01*
X47251569Y-59317110D01*
X47224465Y-59450952D01*
X47188310Y-59505062D01*
X47101000Y-59944000D01*
X47188310Y-60382938D01*
X47222109Y-60433521D01*
X47244838Y-60554317D01*
X47383910Y-60770441D01*
X47596110Y-60915431D01*
X47712138Y-60938927D01*
X47809062Y-61003690D01*
X48248000Y-61091000D01*
X49276000Y-61091000D01*
X49535671Y-61039348D01*
X49546000Y-61041440D01*
X50046000Y-61041440D01*
X50281317Y-60997162D01*
X50497441Y-60858090D01*
X50545134Y-60788289D01*
X50581910Y-60845441D01*
X50794110Y-60990431D01*
X51046000Y-61041440D01*
X51546000Y-61041440D01*
X51781317Y-60997162D01*
X51997441Y-60858090D01*
X52014584Y-60833000D01*
X53520069Y-60833000D01*
X53467221Y-60960273D01*
X53466780Y-61465510D01*
X53659718Y-61932458D01*
X54016663Y-62290026D01*
X54483273Y-62483779D01*
X54988510Y-62484220D01*
X55455458Y-62291282D01*
X55813026Y-61934337D01*
X56006779Y-61467727D01*
X56007220Y-60962490D01*
X55953716Y-60833000D01*
X64401764Y-60833000D01*
X74555382Y-70986618D01*
X74843794Y-71179329D01*
X75184000Y-71247000D01*
X77158437Y-71247000D01*
X76997215Y-71635266D01*
X76997019Y-71859745D01*
X75577764Y-73279000D01*
X52018096Y-73279000D01*
X52010090Y-73266559D01*
X51797890Y-73121569D01*
X51546000Y-73070560D01*
X51046000Y-73070560D01*
X51019067Y-73075628D01*
X51019214Y-72907421D01*
X50831592Y-72453343D01*
X50484485Y-72105629D01*
X50030734Y-71917215D01*
X49539421Y-71916786D01*
X49085343Y-72104408D01*
X48737629Y-72451515D01*
X48649042Y-72664856D01*
X48292898Y-73021000D01*
X48248000Y-73021000D01*
X47809062Y-73108310D01*
X47716197Y-73170360D01*
X47612683Y-73189838D01*
X47396559Y-73328910D01*
X47251569Y-73541110D01*
X47224465Y-73674952D01*
X47188310Y-73729062D01*
X47101000Y-74168000D01*
X47188310Y-74606938D01*
X47222109Y-74657521D01*
X47244838Y-74778317D01*
X47383910Y-74994441D01*
X47596110Y-75139431D01*
X47712138Y-75162927D01*
X47809062Y-75227690D01*
X48248000Y-75315000D01*
X49796000Y-75315000D01*
X50045156Y-75265440D01*
X50046000Y-75265440D01*
X50281317Y-75221162D01*
X50497441Y-75082090D01*
X50534907Y-75027256D01*
X50548794Y-75017977D01*
X50581910Y-75069441D01*
X50794110Y-75214431D01*
X51046000Y-75265440D01*
X51546000Y-75265440D01*
X51781317Y-75221162D01*
X51997441Y-75082090D01*
X52014584Y-75057000D01*
X53520069Y-75057000D01*
X53467221Y-75184273D01*
X53466780Y-75689510D01*
X53659718Y-76156458D01*
X54016663Y-76514026D01*
X54483273Y-76707779D01*
X54988510Y-76708220D01*
X55455458Y-76515282D01*
X55813026Y-76158337D01*
X56006779Y-75691727D01*
X56007220Y-75186490D01*
X55953716Y-75057000D01*
X75323764Y-75057000D01*
X62877764Y-87503000D01*
X52018096Y-87503000D01*
X52010090Y-87490559D01*
X51797890Y-87345569D01*
X51546000Y-87294560D01*
X51046000Y-87294560D01*
X51019067Y-87299628D01*
X51019214Y-87131421D01*
X50831592Y-86677343D01*
X50484485Y-86329629D01*
X50030734Y-86141215D01*
X49539421Y-86140786D01*
X49085343Y-86328408D01*
X48737629Y-86675515D01*
X48649042Y-86888856D01*
X48292898Y-87245000D01*
X48248000Y-87245000D01*
X47809062Y-87332310D01*
X47716197Y-87394360D01*
X47612683Y-87413838D01*
X47396559Y-87552910D01*
X47251569Y-87765110D01*
X47224465Y-87898952D01*
X47188310Y-87953062D01*
X47101000Y-88392000D01*
X47188310Y-88830938D01*
X47222109Y-88881521D01*
X47244838Y-89002317D01*
X47383910Y-89218441D01*
X47596110Y-89363431D01*
X47712138Y-89386927D01*
X47809062Y-89451690D01*
X48248000Y-89539000D01*
X49796000Y-89539000D01*
X50045156Y-89489440D01*
X50046000Y-89489440D01*
X50281317Y-89445162D01*
X50497441Y-89306090D01*
X50534907Y-89251256D01*
X50548794Y-89241977D01*
X50581910Y-89293441D01*
X50794110Y-89438431D01*
X51046000Y-89489440D01*
X51546000Y-89489440D01*
X51781317Y-89445162D01*
X51997441Y-89306090D01*
X52014584Y-89281000D01*
X53520069Y-89281000D01*
X53467221Y-89408273D01*
X53466780Y-89913510D01*
X53659718Y-90380458D01*
X54016663Y-90738026D01*
X54483273Y-90931779D01*
X54988510Y-90932220D01*
X55455458Y-90739282D01*
X55813026Y-90382337D01*
X56006779Y-89915727D01*
X56007220Y-89410490D01*
X55953716Y-89281000D01*
X59829764Y-89281000D01*
X57283382Y-91827382D01*
X57090671Y-92115794D01*
X57023000Y-92456000D01*
X57023000Y-94881764D01*
X50881832Y-101022932D01*
X50831592Y-100901343D01*
X50484485Y-100553629D01*
X50030734Y-100365215D01*
X49539421Y-100364786D01*
X49085343Y-100552408D01*
X48737629Y-100899515D01*
X48649043Y-101112855D01*
X48304898Y-101457000D01*
X48260000Y-101457000D01*
X47821062Y-101544310D01*
X47707902Y-101619921D01*
X47612683Y-101637838D01*
X47396559Y-101776910D01*
X47251569Y-101989110D01*
X47224465Y-102122952D01*
X47188310Y-102177062D01*
X47101001Y-102616000D01*
X47188310Y-103054938D01*
X47222109Y-103105521D01*
X47244838Y-103226317D01*
X47383910Y-103442441D01*
X47596110Y-103587431D01*
X47712138Y-103610927D01*
X47809062Y-103675690D01*
X48248000Y-103762999D01*
X48308324Y-103751000D01*
X49735672Y-103751000D01*
X49796000Y-103763000D01*
X50045156Y-103713440D01*
X50046000Y-103713440D01*
X50281317Y-103669162D01*
X50497441Y-103530090D01*
X50534906Y-103475258D01*
X50548795Y-103465978D01*
X50581910Y-103517441D01*
X50794110Y-103662431D01*
X51046000Y-103713440D01*
X51546000Y-103713440D01*
X51781317Y-103669162D01*
X51997441Y-103530090D01*
X52142431Y-103317890D01*
X52193440Y-103066000D01*
X52193440Y-102225796D01*
X58540618Y-95878618D01*
X58599976Y-95789782D01*
X58733329Y-95590206D01*
X58801000Y-95250000D01*
X58801000Y-92824236D01*
X61201236Y-90424000D01*
X63627000Y-90424000D01*
X63967206Y-90356329D01*
X64255618Y-90163618D01*
X78254216Y-76165020D01*
X78476579Y-76165214D01*
X78867000Y-76003895D01*
X78867000Y-88785000D01*
X78469678Y-88785000D01*
X78428000Y-88776560D01*
X77528000Y-88776560D01*
X77483145Y-88785000D01*
X76691678Y-88785000D01*
X76650000Y-88776560D01*
X75750000Y-88776560D01*
X75514683Y-88820838D01*
X75298559Y-88959910D01*
X75153569Y-89172110D01*
X75102560Y-89424000D01*
X75102560Y-89924000D01*
X75146838Y-90159317D01*
X75285910Y-90375441D01*
X75498110Y-90520431D01*
X75750000Y-90571440D01*
X76650000Y-90571440D01*
X76694855Y-90563000D01*
X77006121Y-90563000D01*
X76931569Y-90672110D01*
X76880560Y-90924000D01*
X76880560Y-91424000D01*
X76924838Y-91659317D01*
X77063910Y-91875441D01*
X77276110Y-92020431D01*
X77528000Y-92071440D01*
X78428000Y-92071440D01*
X78472855Y-92063000D01*
X78971879Y-92063000D01*
X79129110Y-92170431D01*
X79381000Y-92221440D01*
X80131000Y-92221440D01*
X80208644Y-92206830D01*
X80195189Y-92239233D01*
X80194812Y-92670873D01*
X80343667Y-93031128D01*
X80346638Y-93046917D01*
X80356566Y-93062345D01*
X80359646Y-93069800D01*
X80364477Y-93074639D01*
X80375005Y-93091000D01*
X62826453Y-93091000D01*
X62712415Y-92920330D01*
X62226234Y-92595474D01*
X61652745Y-92481400D01*
X61283255Y-92481400D01*
X60709766Y-92595474D01*
X60223585Y-92920330D01*
X59898729Y-93406511D01*
X59784655Y-93980000D01*
X59898729Y-94553489D01*
X60223585Y-95039670D01*
X60538366Y-95250000D01*
X60223585Y-95460330D01*
X59898729Y-95946511D01*
X59784655Y-96520000D01*
X59898729Y-97093489D01*
X60223585Y-97579670D01*
X60538366Y-97790000D01*
X60223585Y-98000330D01*
X59898729Y-98486511D01*
X59784655Y-99060000D01*
X59898729Y-99633489D01*
X60223585Y-100119670D01*
X60538366Y-100330000D01*
X60223585Y-100540330D01*
X59898729Y-101026511D01*
X59784655Y-101600000D01*
X59898729Y-102173489D01*
X60223585Y-102659670D01*
X60538366Y-102870000D01*
X60223585Y-103080330D01*
X59898729Y-103566511D01*
X59784655Y-104140000D01*
X59898729Y-104713489D01*
X60223585Y-105199670D01*
X60538366Y-105410000D01*
X60223585Y-105620330D01*
X59898729Y-106106511D01*
X59784655Y-106680000D01*
X59898729Y-107253489D01*
X60223585Y-107739670D01*
X60709766Y-108064526D01*
X61283255Y-108178600D01*
X61652745Y-108178600D01*
X62226234Y-108064526D01*
X62581717Y-107827000D01*
X94234000Y-107827000D01*
X94672938Y-107739690D01*
X94742000Y-107693544D01*
X94790903Y-107726220D01*
X94811062Y-107739690D01*
X95250000Y-107827000D01*
X108106283Y-107827000D01*
X108461766Y-108064526D01*
X109035255Y-108178600D01*
X109404745Y-108178600D01*
X109978234Y-108064526D01*
X110464415Y-107739670D01*
X110789271Y-107253489D01*
X110903345Y-106680000D01*
X110789271Y-106106511D01*
X110464415Y-105620330D01*
X110149634Y-105410000D01*
X110464415Y-105199670D01*
X110789271Y-104713489D01*
X110903345Y-104140000D01*
X110789271Y-103566511D01*
X110464415Y-103080330D01*
X110149634Y-102870000D01*
X110464415Y-102659670D01*
X110789271Y-102173489D01*
X110903345Y-101600000D01*
X110789271Y-101026511D01*
X110464415Y-100540330D01*
X110149634Y-100330000D01*
X110464415Y-100119670D01*
X110789271Y-99633489D01*
X110903345Y-99060000D01*
X110789271Y-98486511D01*
X110464415Y-98000330D01*
X110149634Y-97790000D01*
X110464415Y-97579670D01*
X110789271Y-97093489D01*
X110903345Y-96520000D01*
X110789271Y-95946511D01*
X110464415Y-95460330D01*
X110149634Y-95250000D01*
X110464415Y-95039670D01*
X110789271Y-94553489D01*
X110903345Y-93980000D01*
X110789271Y-93406511D01*
X110464415Y-92920330D01*
X109978234Y-92595474D01*
X109404745Y-92481400D01*
X109035255Y-92481400D01*
X108461766Y-92595474D01*
X107975585Y-92920330D01*
X107861547Y-93091000D01*
X93327977Y-93091000D01*
X93365440Y-92906000D01*
X93365440Y-92041796D01*
X97585637Y-87821599D01*
X101986699Y-87821599D01*
X102250281Y-88459515D01*
X102737918Y-88948004D01*
X103375373Y-89212699D01*
X104065599Y-89213301D01*
X104703515Y-88949719D01*
X105192004Y-88462082D01*
X105456699Y-87824627D01*
X105457301Y-87134401D01*
X105193719Y-86496485D01*
X104706082Y-86007996D01*
X104068627Y-85743301D01*
X103378401Y-85742699D01*
X102740485Y-86006281D01*
X102251996Y-86493918D01*
X101987301Y-87131373D01*
X101986699Y-87821599D01*
X97585637Y-87821599D01*
X99740085Y-85667151D01*
X99782873Y-85667188D01*
X100181800Y-85502354D01*
X100487282Y-85197405D01*
X100652811Y-84798767D01*
X100653188Y-84367127D01*
X100488354Y-83968200D01*
X100183405Y-83662718D01*
X99784767Y-83497189D01*
X99353127Y-83496812D01*
X98954200Y-83661646D01*
X98648718Y-83966595D01*
X98483189Y-84365233D01*
X98483150Y-84409614D01*
X91839382Y-91053382D01*
X91646671Y-91341794D01*
X91601875Y-91567000D01*
X90682558Y-91567000D01*
X90542890Y-91471569D01*
X90291000Y-91420560D01*
X89541000Y-91420560D01*
X89305683Y-91464838D01*
X89128270Y-91579000D01*
X88629678Y-91579000D01*
X88588000Y-91570560D01*
X87688000Y-91570560D01*
X87452683Y-91614838D01*
X87408152Y-91643493D01*
X87280354Y-91334200D01*
X86975405Y-91028718D01*
X86576767Y-90863189D01*
X86145127Y-90862812D01*
X85746200Y-91027646D01*
X85651180Y-91122500D01*
X85502915Y-91122500D01*
X85755371Y-90870485D01*
X85843958Y-90657145D01*
X86155052Y-90346051D01*
X86403690Y-89973938D01*
X86491000Y-89535000D01*
X86491000Y-69063102D01*
X92660949Y-75233052D01*
X92948724Y-75425337D01*
X93033062Y-75481690D01*
X93472000Y-75569000D01*
X100633856Y-75569000D01*
X100845266Y-75656785D01*
X101336579Y-75657214D01*
X101790657Y-75469592D01*
X102138371Y-75122485D01*
X102326785Y-74668734D01*
X102327214Y-74177421D01*
X102139592Y-73723343D01*
X101792485Y-73375629D01*
X101569410Y-73283000D01*
X106172000Y-73283000D01*
X106610938Y-73195690D01*
X106983051Y-72947051D01*
X112903000Y-67027103D01*
X112903000Y-68719764D01*
X108591382Y-73031382D01*
X108398671Y-73319794D01*
X108331000Y-73660000D01*
X108331000Y-80010000D01*
X108398671Y-80350206D01*
X108591382Y-80638618D01*
X108862017Y-80819450D01*
X111938306Y-83895739D01*
X111914560Y-84013000D01*
X111914560Y-85463000D01*
X111958838Y-85698317D01*
X112097910Y-85914441D01*
X112200337Y-85984427D01*
X111639382Y-86545382D01*
X111446671Y-86833794D01*
X111379000Y-87174000D01*
X111379000Y-105156000D01*
X111446671Y-105496206D01*
X111586489Y-105705458D01*
X111633000Y-105775067D01*
X111633000Y-109347000D01*
X96012000Y-109347000D01*
X95962590Y-109357006D01*
X95920965Y-109385447D01*
X95893685Y-109427841D01*
X95885000Y-109474000D01*
X95885000Y-110744000D01*
X95895006Y-110793410D01*
X95923447Y-110835035D01*
X95965841Y-110862315D01*
X96012000Y-110871000D01*
X112268000Y-110871000D01*
X112317410Y-110860994D01*
X112357803Y-110833803D01*
X112865803Y-110325803D01*
X112893666Y-110283789D01*
X112903000Y-110236000D01*
X112903000Y-107048236D01*
X123063000Y-117208236D01*
X123063000Y-121105394D01*
X120739803Y-118782197D01*
X120697789Y-118754334D01*
X120650000Y-118745000D01*
X114352606Y-118745000D01*
X108547803Y-112940197D01*
X108505789Y-112912334D01*
X108458000Y-112903000D01*
X103632000Y-112903000D01*
X103582590Y-112913006D01*
X103540965Y-112941447D01*
X103513685Y-112983841D01*
X103505000Y-113030000D01*
X103505000Y-125782000D01*
X44398000Y-125782000D01*
X44398000Y-120963501D01*
X97154691Y-120963501D01*
X97425868Y-121619800D01*
X97927559Y-122122367D01*
X98583384Y-122394689D01*
X99293501Y-122395309D01*
X99949800Y-122124132D01*
X100452367Y-121622441D01*
X100724689Y-120966616D01*
X100725309Y-120256499D01*
X100454132Y-119600200D01*
X99952441Y-119097633D01*
X99296616Y-118825311D01*
X98586499Y-118824691D01*
X97930200Y-119095868D01*
X97427633Y-119597559D01*
X97155311Y-120253384D01*
X97154691Y-120963501D01*
X44398000Y-120963501D01*
X44398000Y-115963501D01*
X97154691Y-115963501D01*
X97425868Y-116619800D01*
X97927559Y-117122367D01*
X98583384Y-117394689D01*
X99293501Y-117395309D01*
X99949800Y-117124132D01*
X100452367Y-116622441D01*
X100724689Y-115966616D01*
X100725309Y-115256499D01*
X100454132Y-114600200D01*
X99952441Y-114097633D01*
X99296616Y-113825311D01*
X98586499Y-113824691D01*
X97930200Y-114095868D01*
X97427633Y-114597559D01*
X97155311Y-115253384D01*
X97154691Y-115963501D01*
X44398000Y-115963501D01*
X44398000Y-107940579D01*
X50072786Y-107940579D01*
X50260408Y-108394657D01*
X50607515Y-108742371D01*
X51061266Y-108930785D01*
X51552579Y-108931214D01*
X52006657Y-108743592D01*
X52354371Y-108396485D01*
X52542785Y-107942734D01*
X52543214Y-107451421D01*
X52355592Y-106997343D01*
X52008485Y-106649629D01*
X51554734Y-106461215D01*
X51063421Y-106460786D01*
X50609343Y-106648408D01*
X50261629Y-106995515D01*
X50073215Y-107449266D01*
X50072786Y-107940579D01*
X44398000Y-107940579D01*
X44398000Y-104137510D01*
X53466780Y-104137510D01*
X53659718Y-104604458D01*
X54016663Y-104962026D01*
X54483273Y-105155779D01*
X54988510Y-105156220D01*
X55455458Y-104963282D01*
X55813026Y-104606337D01*
X56006779Y-104139727D01*
X56007220Y-103634490D01*
X55814282Y-103167542D01*
X55457337Y-102809974D01*
X54990727Y-102616221D01*
X54485490Y-102615780D01*
X54018542Y-102808718D01*
X53660974Y-103165663D01*
X53467221Y-103632273D01*
X53466780Y-104137510D01*
X44398000Y-104137510D01*
X44398000Y-93716579D01*
X50072786Y-93716579D01*
X50260408Y-94170657D01*
X50607515Y-94518371D01*
X51061266Y-94706785D01*
X51552579Y-94707214D01*
X52006657Y-94519592D01*
X52354371Y-94172485D01*
X52542785Y-93718734D01*
X52543214Y-93227421D01*
X52355592Y-92773343D01*
X52008485Y-92425629D01*
X51554734Y-92237215D01*
X51063421Y-92236786D01*
X50609343Y-92424408D01*
X50261629Y-92771515D01*
X50073215Y-93225266D01*
X50072786Y-93716579D01*
X44398000Y-93716579D01*
X44398000Y-79492579D01*
X50072786Y-79492579D01*
X50260408Y-79946657D01*
X50607515Y-80294371D01*
X51061266Y-80482785D01*
X51552579Y-80483214D01*
X52006657Y-80295592D01*
X52354371Y-79948485D01*
X52542785Y-79494734D01*
X52543214Y-79003421D01*
X52355592Y-78549343D01*
X52008485Y-78201629D01*
X51554734Y-78013215D01*
X51063421Y-78012786D01*
X50609343Y-78200408D01*
X50261629Y-78547515D01*
X50073215Y-79001266D01*
X50072786Y-79492579D01*
X44398000Y-79492579D01*
X44398000Y-65268579D01*
X50072786Y-65268579D01*
X50260408Y-65722657D01*
X50607515Y-66070371D01*
X51061266Y-66258785D01*
X51552579Y-66259214D01*
X52006657Y-66071592D01*
X52354371Y-65724485D01*
X52542785Y-65270734D01*
X52543214Y-64779421D01*
X52355592Y-64325343D01*
X52008485Y-63977629D01*
X51554734Y-63789215D01*
X51063421Y-63788786D01*
X50609343Y-63976408D01*
X50261629Y-64323515D01*
X50073215Y-64777266D01*
X50072786Y-65268579D01*
X44398000Y-65268579D01*
X44398000Y-28142000D01*
X88710764Y-28142000D01*
X83751075Y-33101689D01*
G36*
X121787382Y-113392618D02*
X122075794Y-113585329D01*
X122416000Y-113653000D01*
X124730322Y-113653000D01*
X124772000Y-113661440D01*
X125672000Y-113661440D01*
X125716855Y-113653000D01*
X127009000Y-113653000D01*
X127268210Y-113601440D01*
X127759000Y-113601440D01*
X127994317Y-113557162D01*
X128210441Y-113418090D01*
X128304709Y-113280125D01*
X128327110Y-113295431D01*
X128579000Y-113346440D01*
X128651000Y-113346440D01*
X128651000Y-113931000D01*
X128508000Y-113931000D01*
X127977983Y-114036427D01*
X127951357Y-114054218D01*
X127772683Y-114087838D01*
X127556559Y-114226910D01*
X127411569Y-114439110D01*
X127390421Y-114543542D01*
X127228427Y-114785983D01*
X127123000Y-115316000D01*
X127228427Y-115846017D01*
X127387477Y-116084052D01*
X127404838Y-116176317D01*
X127452612Y-116250560D01*
X127016000Y-116250560D01*
X126780683Y-116294838D01*
X126564559Y-116433910D01*
X126419569Y-116646110D01*
X126368560Y-116898000D01*
X126368560Y-117798000D01*
X126377700Y-117846575D01*
X126377700Y-118065885D01*
X126271489Y-118221330D01*
X126220480Y-118473220D01*
X126220480Y-119270780D01*
X126264758Y-119506097D01*
X126403830Y-119722221D01*
X126616030Y-119867211D01*
X126867920Y-119918220D01*
X127665480Y-119918220D01*
X127900797Y-119873942D01*
X127910376Y-119867778D01*
X128408281Y-120365683D01*
X128343683Y-120377838D01*
X128127559Y-120516910D01*
X127982569Y-120729110D01*
X127931560Y-120981000D01*
X127931560Y-121062834D01*
X127455394Y-121539000D01*
X124841000Y-121539000D01*
X124841000Y-116840000D01*
X124773329Y-116499794D01*
X124580618Y-116211382D01*
X113157000Y-104787764D01*
X113157000Y-104762236D01*
X121787382Y-113392618D01*
X121787382Y-113392618D01*
G37*
X121787382Y-113392618D02*
X122075794Y-113585329D01*
X122416000Y-113653000D01*
X124730322Y-113653000D01*
X124772000Y-113661440D01*
X125672000Y-113661440D01*
X125716855Y-113653000D01*
X127009000Y-113653000D01*
X127268210Y-113601440D01*
X127759000Y-113601440D01*
X127994317Y-113557162D01*
X128210441Y-113418090D01*
X128304709Y-113280125D01*
X128327110Y-113295431D01*
X128579000Y-113346440D01*
X128651000Y-113346440D01*
X128651000Y-113931000D01*
X128508000Y-113931000D01*
X127977983Y-114036427D01*
X127951357Y-114054218D01*
X127772683Y-114087838D01*
X127556559Y-114226910D01*
X127411569Y-114439110D01*
X127390421Y-114543542D01*
X127228427Y-114785983D01*
X127123000Y-115316000D01*
X127228427Y-115846017D01*
X127387477Y-116084052D01*
X127404838Y-116176317D01*
X127452612Y-116250560D01*
X127016000Y-116250560D01*
X126780683Y-116294838D01*
X126564559Y-116433910D01*
X126419569Y-116646110D01*
X126368560Y-116898000D01*
X126368560Y-117798000D01*
X126377700Y-117846575D01*
X126377700Y-118065885D01*
X126271489Y-118221330D01*
X126220480Y-118473220D01*
X126220480Y-119270780D01*
X126264758Y-119506097D01*
X126403830Y-119722221D01*
X126616030Y-119867211D01*
X126867920Y-119918220D01*
X127665480Y-119918220D01*
X127900797Y-119873942D01*
X127910376Y-119867778D01*
X128408281Y-120365683D01*
X128343683Y-120377838D01*
X128127559Y-120516910D01*
X127982569Y-120729110D01*
X127931560Y-120981000D01*
X127931560Y-121062834D01*
X127455394Y-121539000D01*
X124841000Y-121539000D01*
X124841000Y-116840000D01*
X124773329Y-116499794D01*
X124580618Y-116211382D01*
X113157000Y-104787764D01*
X113157000Y-104762236D01*
X121787382Y-113392618D01*
G36*
X115148000Y-91387000D02*
X115215671Y-91727206D01*
X115338370Y-91910838D01*
X115408382Y-92015618D01*
X124124560Y-100731796D01*
X124124560Y-100822000D01*
X124168838Y-101057317D01*
X124307910Y-101273441D01*
X124520110Y-101418431D01*
X124772000Y-101469440D01*
X125672000Y-101469440D01*
X125716855Y-101461000D01*
X127009000Y-101461000D01*
X127268210Y-101409440D01*
X127759000Y-101409440D01*
X127994317Y-101365162D01*
X128210441Y-101226090D01*
X128304709Y-101088125D01*
X128327110Y-101103431D01*
X128579000Y-101154440D01*
X128651000Y-101154440D01*
X128651000Y-101739000D01*
X128508000Y-101739000D01*
X127977983Y-101844427D01*
X127951357Y-101862218D01*
X127772683Y-101895838D01*
X127556559Y-102034910D01*
X127411569Y-102247110D01*
X127390421Y-102351542D01*
X127228427Y-102593983D01*
X127123000Y-103124000D01*
X127228427Y-103654017D01*
X127387477Y-103892052D01*
X127404838Y-103984317D01*
X127452612Y-104058560D01*
X127016000Y-104058560D01*
X126780683Y-104102838D01*
X126564559Y-104241910D01*
X126419569Y-104454110D01*
X126368560Y-104706000D01*
X126368560Y-105606000D01*
X126377700Y-105654575D01*
X126377700Y-105873885D01*
X126271489Y-106029330D01*
X126220480Y-106281220D01*
X126220480Y-107078780D01*
X126264758Y-107314097D01*
X126403830Y-107530221D01*
X126616030Y-107675211D01*
X126867920Y-107726220D01*
X127665480Y-107726220D01*
X127900797Y-107681942D01*
X127910376Y-107675778D01*
X128408281Y-108173683D01*
X128343683Y-108185838D01*
X128127559Y-108324910D01*
X127982569Y-108537110D01*
X127931560Y-108789000D01*
X127931560Y-111731504D01*
X127759000Y-111696560D01*
X126489000Y-111696560D01*
X126253683Y-111740838D01*
X126045189Y-111875000D01*
X125713678Y-111875000D01*
X125672000Y-111866560D01*
X124772000Y-111866560D01*
X124727145Y-111875000D01*
X122784236Y-111875000D01*
X114173000Y-103263764D01*
X114173000Y-102404619D01*
X115982613Y-102404619D01*
X116322155Y-103226372D01*
X116950321Y-103855636D01*
X117771481Y-104196611D01*
X118660619Y-104197387D01*
X119482372Y-103857845D01*
X120111636Y-103229679D01*
X120452611Y-102408519D01*
X120453387Y-101519381D01*
X120113845Y-100697628D01*
X119485679Y-100068364D01*
X118664519Y-99727389D01*
X117775381Y-99726613D01*
X116953628Y-100066155D01*
X116324364Y-100694321D01*
X115983389Y-101515481D01*
X115982613Y-102404619D01*
X114173000Y-102404619D01*
X114173000Y-89281000D01*
X115148000Y-89281000D01*
X115148000Y-91387000D01*
X115148000Y-91387000D01*
G37*
X115148000Y-91387000D02*
X115215671Y-91727206D01*
X115338370Y-91910838D01*
X115408382Y-92015618D01*
X124124560Y-100731796D01*
X124124560Y-100822000D01*
X124168838Y-101057317D01*
X124307910Y-101273441D01*
X124520110Y-101418431D01*
X124772000Y-101469440D01*
X125672000Y-101469440D01*
X125716855Y-101461000D01*
X127009000Y-101461000D01*
X127268210Y-101409440D01*
X127759000Y-101409440D01*
X127994317Y-101365162D01*
X128210441Y-101226090D01*
X128304709Y-101088125D01*
X128327110Y-101103431D01*
X128579000Y-101154440D01*
X128651000Y-101154440D01*
X128651000Y-101739000D01*
X128508000Y-101739000D01*
X127977983Y-101844427D01*
X127951357Y-101862218D01*
X127772683Y-101895838D01*
X127556559Y-102034910D01*
X127411569Y-102247110D01*
X127390421Y-102351542D01*
X127228427Y-102593983D01*
X127123000Y-103124000D01*
X127228427Y-103654017D01*
X127387477Y-103892052D01*
X127404838Y-103984317D01*
X127452612Y-104058560D01*
X127016000Y-104058560D01*
X126780683Y-104102838D01*
X126564559Y-104241910D01*
X126419569Y-104454110D01*
X126368560Y-104706000D01*
X126368560Y-105606000D01*
X126377700Y-105654575D01*
X126377700Y-105873885D01*
X126271489Y-106029330D01*
X126220480Y-106281220D01*
X126220480Y-107078780D01*
X126264758Y-107314097D01*
X126403830Y-107530221D01*
X126616030Y-107675211D01*
X126867920Y-107726220D01*
X127665480Y-107726220D01*
X127900797Y-107681942D01*
X127910376Y-107675778D01*
X128408281Y-108173683D01*
X128343683Y-108185838D01*
X128127559Y-108324910D01*
X127982569Y-108537110D01*
X127931560Y-108789000D01*
X127931560Y-111731504D01*
X127759000Y-111696560D01*
X126489000Y-111696560D01*
X126253683Y-111740838D01*
X126045189Y-111875000D01*
X125713678Y-111875000D01*
X125672000Y-111866560D01*
X124772000Y-111866560D01*
X124727145Y-111875000D01*
X122784236Y-111875000D01*
X114173000Y-103263764D01*
X114173000Y-102404619D01*
X115982613Y-102404619D01*
X116322155Y-103226372D01*
X116950321Y-103855636D01*
X117771481Y-104196611D01*
X118660619Y-104197387D01*
X119482372Y-103857845D01*
X120111636Y-103229679D01*
X120452611Y-102408519D01*
X120453387Y-101519381D01*
X120113845Y-100697628D01*
X119485679Y-100068364D01*
X118664519Y-99727389D01*
X117775381Y-99726613D01*
X116953628Y-100066155D01*
X116324364Y-100694321D01*
X115983389Y-101515481D01*
X115982613Y-102404619D01*
X114173000Y-102404619D01*
X114173000Y-89281000D01*
X115148000Y-89281000D01*
X115148000Y-91387000D01*
G36*
X93760786Y-96256579D02*
X93905632Y-96607132D01*
X92843382Y-97669382D01*
X92650671Y-97957794D01*
X92583000Y-98298000D01*
X92583000Y-99218419D01*
X92425629Y-99375515D01*
X92237215Y-99829266D01*
X92236786Y-100320579D01*
X92424408Y-100774657D01*
X92771515Y-101122371D01*
X93225266Y-101310785D01*
X93716579Y-101311214D01*
X93723000Y-101308561D01*
X93723000Y-105533000D01*
X62581717Y-105533000D01*
X62397634Y-105410000D01*
X62712415Y-105199670D01*
X63037271Y-104713489D01*
X63151345Y-104140000D01*
X63037271Y-103566511D01*
X62712415Y-103080330D01*
X62397634Y-102870000D01*
X62712415Y-102659670D01*
X62882834Y-102404619D01*
X65982613Y-102404619D01*
X66322155Y-103226372D01*
X66950321Y-103855636D01*
X67771481Y-104196611D01*
X68660619Y-104197387D01*
X69482372Y-103857845D01*
X70111636Y-103229679D01*
X70452611Y-102408519D01*
X70453387Y-101519381D01*
X70113845Y-100697628D01*
X69485679Y-100068364D01*
X68664519Y-99727389D01*
X67775381Y-99726613D01*
X66953628Y-100066155D01*
X66324364Y-100694321D01*
X65983389Y-101515481D01*
X65982613Y-102404619D01*
X62882834Y-102404619D01*
X63037271Y-102173489D01*
X63151345Y-101600000D01*
X63080649Y-101244587D01*
X65900236Y-98425000D01*
X70751764Y-98425000D01*
X73158382Y-100831618D01*
X73446795Y-101024330D01*
X73787000Y-101092000D01*
X85544649Y-101092000D01*
X85529189Y-101129233D01*
X85528812Y-101560873D01*
X85693646Y-101959800D01*
X85998595Y-102265282D01*
X86397233Y-102430811D01*
X86828873Y-102431188D01*
X86996320Y-102362000D01*
X88338649Y-102362000D01*
X88323189Y-102399233D01*
X88322812Y-102830873D01*
X88487646Y-103229800D01*
X88792595Y-103535282D01*
X89191233Y-103700811D01*
X89376995Y-103700973D01*
X89374560Y-103713000D01*
X89374560Y-104313000D01*
X89418838Y-104548317D01*
X89557910Y-104764441D01*
X89770110Y-104909431D01*
X90022000Y-104960440D01*
X91522000Y-104960440D01*
X91757317Y-104916162D01*
X91973441Y-104777090D01*
X92118431Y-104564890D01*
X92169440Y-104313000D01*
X92169440Y-103713000D01*
X92125162Y-103477683D01*
X92061322Y-103378472D01*
X92118431Y-103294890D01*
X92169440Y-103043000D01*
X92169440Y-102443000D01*
X92125162Y-102207683D01*
X92061322Y-102108472D01*
X92118431Y-102024890D01*
X92169440Y-101773000D01*
X92169440Y-101173000D01*
X92125162Y-100937683D01*
X92061322Y-100838472D01*
X92118431Y-100754890D01*
X92169440Y-100503000D01*
X92169440Y-99903000D01*
X92125162Y-99667683D01*
X92061322Y-99568472D01*
X92118431Y-99484890D01*
X92169440Y-99233000D01*
X92169440Y-98633000D01*
X92125162Y-98397683D01*
X92061322Y-98298472D01*
X92118431Y-98214890D01*
X92169440Y-97963000D01*
X92169440Y-97363000D01*
X92125162Y-97127683D01*
X92061322Y-97028472D01*
X92118431Y-96944890D01*
X92169440Y-96693000D01*
X92169440Y-96093000D01*
X92149419Y-95986600D01*
X93761022Y-95986600D01*
X93760786Y-96256579D01*
X93760786Y-96256579D01*
G37*
X93760786Y-96256579D02*
X93905632Y-96607132D01*
X92843382Y-97669382D01*
X92650671Y-97957794D01*
X92583000Y-98298000D01*
X92583000Y-99218419D01*
X92425629Y-99375515D01*
X92237215Y-99829266D01*
X92236786Y-100320579D01*
X92424408Y-100774657D01*
X92771515Y-101122371D01*
X93225266Y-101310785D01*
X93716579Y-101311214D01*
X93723000Y-101308561D01*
X93723000Y-105533000D01*
X62581717Y-105533000D01*
X62397634Y-105410000D01*
X62712415Y-105199670D01*
X63037271Y-104713489D01*
X63151345Y-104140000D01*
X63037271Y-103566511D01*
X62712415Y-103080330D01*
X62397634Y-102870000D01*
X62712415Y-102659670D01*
X62882834Y-102404619D01*
X65982613Y-102404619D01*
X66322155Y-103226372D01*
X66950321Y-103855636D01*
X67771481Y-104196611D01*
X68660619Y-104197387D01*
X69482372Y-103857845D01*
X70111636Y-103229679D01*
X70452611Y-102408519D01*
X70453387Y-101519381D01*
X70113845Y-100697628D01*
X69485679Y-100068364D01*
X68664519Y-99727389D01*
X67775381Y-99726613D01*
X66953628Y-100066155D01*
X66324364Y-100694321D01*
X65983389Y-101515481D01*
X65982613Y-102404619D01*
X62882834Y-102404619D01*
X63037271Y-102173489D01*
X63151345Y-101600000D01*
X63080649Y-101244587D01*
X65900236Y-98425000D01*
X70751764Y-98425000D01*
X73158382Y-100831618D01*
X73446795Y-101024330D01*
X73787000Y-101092000D01*
X85544649Y-101092000D01*
X85529189Y-101129233D01*
X85528812Y-101560873D01*
X85693646Y-101959800D01*
X85998595Y-102265282D01*
X86397233Y-102430811D01*
X86828873Y-102431188D01*
X86996320Y-102362000D01*
X88338649Y-102362000D01*
X88323189Y-102399233D01*
X88322812Y-102830873D01*
X88487646Y-103229800D01*
X88792595Y-103535282D01*
X89191233Y-103700811D01*
X89376995Y-103700973D01*
X89374560Y-103713000D01*
X89374560Y-104313000D01*
X89418838Y-104548317D01*
X89557910Y-104764441D01*
X89770110Y-104909431D01*
X90022000Y-104960440D01*
X91522000Y-104960440D01*
X91757317Y-104916162D01*
X91973441Y-104777090D01*
X92118431Y-104564890D01*
X92169440Y-104313000D01*
X92169440Y-103713000D01*
X92125162Y-103477683D01*
X92061322Y-103378472D01*
X92118431Y-103294890D01*
X92169440Y-103043000D01*
X92169440Y-102443000D01*
X92125162Y-102207683D01*
X92061322Y-102108472D01*
X92118431Y-102024890D01*
X92169440Y-101773000D01*
X92169440Y-101173000D01*
X92125162Y-100937683D01*
X92061322Y-100838472D01*
X92118431Y-100754890D01*
X92169440Y-100503000D01*
X92169440Y-99903000D01*
X92125162Y-99667683D01*
X92061322Y-99568472D01*
X92118431Y-99484890D01*
X92169440Y-99233000D01*
X92169440Y-98633000D01*
X92125162Y-98397683D01*
X92061322Y-98298472D01*
X92118431Y-98214890D01*
X92169440Y-97963000D01*
X92169440Y-97363000D01*
X92125162Y-97127683D01*
X92061322Y-97028472D01*
X92118431Y-96944890D01*
X92169440Y-96693000D01*
X92169440Y-96093000D01*
X92149419Y-95986600D01*
X93761022Y-95986600D01*
X93760786Y-96256579D01*
G36*
X128327110Y-88911431D02*
X128579000Y-88962440D01*
X128651000Y-88962440D01*
X128651000Y-89575445D01*
X128508000Y-89547000D01*
X127977984Y-89652427D01*
X127951358Y-89670218D01*
X127772683Y-89703838D01*
X127556559Y-89842910D01*
X127411569Y-90055110D01*
X127390421Y-90159542D01*
X127228427Y-90401984D01*
X127123000Y-90932000D01*
X127228427Y-91462016D01*
X127387477Y-91700052D01*
X127404838Y-91792317D01*
X127452612Y-91866560D01*
X127016000Y-91866560D01*
X126780683Y-91910838D01*
X126564559Y-92049910D01*
X126419569Y-92262110D01*
X126368560Y-92514000D01*
X126368560Y-93414000D01*
X126377700Y-93462575D01*
X126377700Y-93681885D01*
X126271489Y-93837330D01*
X126220480Y-94089220D01*
X126220480Y-94886780D01*
X126264758Y-95122097D01*
X126403830Y-95338221D01*
X126616030Y-95483211D01*
X126867920Y-95534220D01*
X127665480Y-95534220D01*
X127900797Y-95489942D01*
X127910376Y-95483778D01*
X128408281Y-95981683D01*
X128343683Y-95993838D01*
X128127559Y-96132910D01*
X127982569Y-96345110D01*
X127931560Y-96597000D01*
X127931560Y-99539504D01*
X127759000Y-99504560D01*
X126489000Y-99504560D01*
X126253683Y-99548838D01*
X126045189Y-99683000D01*
X125713678Y-99683000D01*
X125672000Y-99674560D01*
X125581796Y-99674560D01*
X116926000Y-91018764D01*
X116926000Y-89281000D01*
X117602000Y-89281000D01*
X117651410Y-89270994D01*
X117691803Y-89243803D01*
X117696037Y-89239569D01*
X117844000Y-89269000D01*
X124730322Y-89269000D01*
X124772000Y-89277440D01*
X125672000Y-89277440D01*
X125716855Y-89269000D01*
X127009000Y-89269000D01*
X127268210Y-89217440D01*
X127759000Y-89217440D01*
X127994317Y-89173162D01*
X128210441Y-89034090D01*
X128304709Y-88896125D01*
X128327110Y-88911431D01*
X128327110Y-88911431D01*
G37*
X128327110Y-88911431D02*
X128579000Y-88962440D01*
X128651000Y-88962440D01*
X128651000Y-89575445D01*
X128508000Y-89547000D01*
X127977984Y-89652427D01*
X127951358Y-89670218D01*
X127772683Y-89703838D01*
X127556559Y-89842910D01*
X127411569Y-90055110D01*
X127390421Y-90159542D01*
X127228427Y-90401984D01*
X127123000Y-90932000D01*
X127228427Y-91462016D01*
X127387477Y-91700052D01*
X127404838Y-91792317D01*
X127452612Y-91866560D01*
X127016000Y-91866560D01*
X126780683Y-91910838D01*
X126564559Y-92049910D01*
X126419569Y-92262110D01*
X126368560Y-92514000D01*
X126368560Y-93414000D01*
X126377700Y-93462575D01*
X126377700Y-93681885D01*
X126271489Y-93837330D01*
X126220480Y-94089220D01*
X126220480Y-94886780D01*
X126264758Y-95122097D01*
X126403830Y-95338221D01*
X126616030Y-95483211D01*
X126867920Y-95534220D01*
X127665480Y-95534220D01*
X127900797Y-95489942D01*
X127910376Y-95483778D01*
X128408281Y-95981683D01*
X128343683Y-95993838D01*
X128127559Y-96132910D01*
X127982569Y-96345110D01*
X127931560Y-96597000D01*
X127931560Y-99539504D01*
X127759000Y-99504560D01*
X126489000Y-99504560D01*
X126253683Y-99548838D01*
X126045189Y-99683000D01*
X125713678Y-99683000D01*
X125672000Y-99674560D01*
X125581796Y-99674560D01*
X116926000Y-91018764D01*
X116926000Y-89281000D01*
X117602000Y-89281000D01*
X117651410Y-89270994D01*
X117691803Y-89243803D01*
X117696037Y-89239569D01*
X117844000Y-89269000D01*
X124730322Y-89269000D01*
X124772000Y-89277440D01*
X125672000Y-89277440D01*
X125716855Y-89269000D01*
X127009000Y-89269000D01*
X127268210Y-89217440D01*
X127759000Y-89217440D01*
X127994317Y-89173162D01*
X128210441Y-89034090D01*
X128304709Y-88896125D01*
X128327110Y-88911431D01*
G36*
X87509382Y-96640618D02*
X87706264Y-96837500D01*
X86995000Y-96837500D01*
X86995000Y-96608640D01*
X87452200Y-96608640D01*
X87484015Y-96602654D01*
X87509382Y-96640618D01*
X87509382Y-96640618D01*
G37*
X87509382Y-96640618D02*
X87706264Y-96837500D01*
X86995000Y-96837500D01*
X86995000Y-96608640D01*
X87452200Y-96608640D01*
X87484015Y-96602654D01*
X87509382Y-96640618D01*
G36*
X82237918Y-88948004D02*
X82875373Y-89212699D01*
X83565599Y-89213301D01*
X84197000Y-88952411D01*
X84197000Y-89045283D01*
X84010343Y-89122408D01*
X83662629Y-89469515D01*
X83474215Y-89923266D01*
X83473786Y-90414579D01*
X83661408Y-90868657D01*
X83914808Y-91122500D01*
X83766345Y-91122500D01*
X83642200Y-91097360D01*
X83121500Y-91097360D01*
X83121500Y-90678005D01*
X83121501Y-90678000D01*
X83058663Y-90362094D01*
X82879717Y-90094283D01*
X82169000Y-89383566D01*
X82169000Y-88878966D01*
X82237918Y-88948004D01*
X82237918Y-88948004D01*
G37*
X82237918Y-88948004D02*
X82875373Y-89212699D01*
X83565599Y-89213301D01*
X84197000Y-88952411D01*
X84197000Y-89045283D01*
X84010343Y-89122408D01*
X83662629Y-89469515D01*
X83474215Y-89923266D01*
X83473786Y-90414579D01*
X83661408Y-90868657D01*
X83914808Y-91122500D01*
X83766345Y-91122500D01*
X83642200Y-91097360D01*
X83121500Y-91097360D01*
X83121500Y-90678005D01*
X83121501Y-90678000D01*
X83058663Y-90362094D01*
X82879717Y-90094283D01*
X82169000Y-89383566D01*
X82169000Y-88878966D01*
X82237918Y-88948004D01*
G36*
X128327110Y-76719431D02*
X128579000Y-76770440D01*
X128651000Y-76770440D01*
X128651000Y-77355000D01*
X128508000Y-77355000D01*
X127977983Y-77460427D01*
X127951357Y-77478218D01*
X127772683Y-77511838D01*
X127556559Y-77650910D01*
X127411569Y-77863110D01*
X127390421Y-77967542D01*
X127228427Y-78209983D01*
X127123000Y-78740000D01*
X127228427Y-79270017D01*
X127387477Y-79508052D01*
X127404838Y-79600317D01*
X127452612Y-79674560D01*
X127016000Y-79674560D01*
X126780683Y-79718838D01*
X126564559Y-79857910D01*
X126419569Y-80070110D01*
X126368560Y-80322000D01*
X126368560Y-81222000D01*
X126377700Y-81270575D01*
X126377700Y-81489885D01*
X126271489Y-81645330D01*
X126220480Y-81897220D01*
X126220480Y-82694780D01*
X126264758Y-82930097D01*
X126403830Y-83146221D01*
X126616030Y-83291211D01*
X126867920Y-83342220D01*
X127665480Y-83342220D01*
X127900797Y-83297942D01*
X127910376Y-83291778D01*
X128408281Y-83789683D01*
X128343683Y-83801838D01*
X128127559Y-83940910D01*
X127982569Y-84153110D01*
X127931560Y-84405000D01*
X127931560Y-87347504D01*
X127759000Y-87312560D01*
X126489000Y-87312560D01*
X126253683Y-87356838D01*
X126045189Y-87491000D01*
X125713678Y-87491000D01*
X125672000Y-87482560D01*
X124772000Y-87482560D01*
X124727145Y-87491000D01*
X118999000Y-87491000D01*
X118999000Y-85979000D01*
X119634000Y-85979000D01*
X119683410Y-85968994D01*
X119725035Y-85940553D01*
X119752315Y-85898159D01*
X119761000Y-85852000D01*
X119761000Y-83820000D01*
X119750994Y-83770590D01*
X119722553Y-83728965D01*
X119680159Y-83701685D01*
X119634000Y-83693000D01*
X118999000Y-83693000D01*
X118999000Y-78877191D01*
X119283282Y-78593405D01*
X119448811Y-78194767D01*
X119449188Y-77763127D01*
X119284354Y-77364200D01*
X119124834Y-77204402D01*
X119252236Y-77077000D01*
X124730322Y-77077000D01*
X124772000Y-77085440D01*
X125672000Y-77085440D01*
X125907317Y-77041162D01*
X126123441Y-76902090D01*
X126125894Y-76898500D01*
X126125981Y-76898500D01*
X126237110Y-76974431D01*
X126489000Y-77025440D01*
X127759000Y-77025440D01*
X127994317Y-76981162D01*
X128210441Y-76842090D01*
X128304709Y-76704125D01*
X128327110Y-76719431D01*
X128327110Y-76719431D01*
G37*
X128327110Y-76719431D02*
X128579000Y-76770440D01*
X128651000Y-76770440D01*
X128651000Y-77355000D01*
X128508000Y-77355000D01*
X127977983Y-77460427D01*
X127951357Y-77478218D01*
X127772683Y-77511838D01*
X127556559Y-77650910D01*
X127411569Y-77863110D01*
X127390421Y-77967542D01*
X127228427Y-78209983D01*
X127123000Y-78740000D01*
X127228427Y-79270017D01*
X127387477Y-79508052D01*
X127404838Y-79600317D01*
X127452612Y-79674560D01*
X127016000Y-79674560D01*
X126780683Y-79718838D01*
X126564559Y-79857910D01*
X126419569Y-80070110D01*
X126368560Y-80322000D01*
X126368560Y-81222000D01*
X126377700Y-81270575D01*
X126377700Y-81489885D01*
X126271489Y-81645330D01*
X126220480Y-81897220D01*
X126220480Y-82694780D01*
X126264758Y-82930097D01*
X126403830Y-83146221D01*
X126616030Y-83291211D01*
X126867920Y-83342220D01*
X127665480Y-83342220D01*
X127900797Y-83297942D01*
X127910376Y-83291778D01*
X128408281Y-83789683D01*
X128343683Y-83801838D01*
X128127559Y-83940910D01*
X127982569Y-84153110D01*
X127931560Y-84405000D01*
X127931560Y-87347504D01*
X127759000Y-87312560D01*
X126489000Y-87312560D01*
X126253683Y-87356838D01*
X126045189Y-87491000D01*
X125713678Y-87491000D01*
X125672000Y-87482560D01*
X124772000Y-87482560D01*
X124727145Y-87491000D01*
X118999000Y-87491000D01*
X118999000Y-85979000D01*
X119634000Y-85979000D01*
X119683410Y-85968994D01*
X119725035Y-85940553D01*
X119752315Y-85898159D01*
X119761000Y-85852000D01*
X119761000Y-83820000D01*
X119750994Y-83770590D01*
X119722553Y-83728965D01*
X119680159Y-83701685D01*
X119634000Y-83693000D01*
X118999000Y-83693000D01*
X118999000Y-78877191D01*
X119283282Y-78593405D01*
X119448811Y-78194767D01*
X119449188Y-77763127D01*
X119284354Y-77364200D01*
X119124834Y-77204402D01*
X119252236Y-77077000D01*
X124730322Y-77077000D01*
X124772000Y-77085440D01*
X125672000Y-77085440D01*
X125907317Y-77041162D01*
X126123441Y-76902090D01*
X126125894Y-76898500D01*
X126125981Y-76898500D01*
X126237110Y-76974431D01*
X126489000Y-77025440D01*
X127759000Y-77025440D01*
X127994317Y-76981162D01*
X128210441Y-76842090D01*
X128304709Y-76704125D01*
X128327110Y-76719431D01*
G36*
X117762000Y-80210440D02*
X118212000Y-80210440D01*
X118237000Y-80205736D01*
X118237000Y-86371000D01*
X118169329Y-86030794D01*
X118162500Y-86020574D01*
X118162500Y-85694795D01*
X118209440Y-85463000D01*
X118209440Y-84013000D01*
X118165162Y-83777683D01*
X118026090Y-83561559D01*
X117924843Y-83492380D01*
X117925188Y-83097127D01*
X117760354Y-82698200D01*
X117455405Y-82392718D01*
X117056767Y-82227189D01*
X116625127Y-82226812D01*
X116226200Y-82391646D01*
X116078009Y-82539578D01*
X115931405Y-82392718D01*
X115532767Y-82227189D01*
X115346474Y-82227026D01*
X115359440Y-82163000D01*
X115359440Y-81413000D01*
X115346864Y-81346167D01*
X115353233Y-81348811D01*
X115784873Y-81349188D01*
X116183800Y-81184354D01*
X116489282Y-80879405D01*
X116654811Y-80480767D01*
X116655047Y-80210440D01*
X116912000Y-80210440D01*
X117015671Y-80190933D01*
X117112000Y-80210440D01*
X117562000Y-80210440D01*
X117665671Y-80190933D01*
X117762000Y-80210440D01*
X117762000Y-80210440D01*
G37*
X117762000Y-80210440D02*
X118212000Y-80210440D01*
X118237000Y-80205736D01*
X118237000Y-86371000D01*
X118169329Y-86030794D01*
X118162500Y-86020574D01*
X118162500Y-85694795D01*
X118209440Y-85463000D01*
X118209440Y-84013000D01*
X118165162Y-83777683D01*
X118026090Y-83561559D01*
X117924843Y-83492380D01*
X117925188Y-83097127D01*
X117760354Y-82698200D01*
X117455405Y-82392718D01*
X117056767Y-82227189D01*
X116625127Y-82226812D01*
X116226200Y-82391646D01*
X116078009Y-82539578D01*
X115931405Y-82392718D01*
X115532767Y-82227189D01*
X115346474Y-82227026D01*
X115359440Y-82163000D01*
X115359440Y-81413000D01*
X115346864Y-81346167D01*
X115353233Y-81348811D01*
X115784873Y-81349188D01*
X116183800Y-81184354D01*
X116489282Y-80879405D01*
X116654811Y-80480767D01*
X116655047Y-80210440D01*
X116912000Y-80210440D01*
X117015671Y-80190933D01*
X117112000Y-80210440D01*
X117562000Y-80210440D01*
X117665671Y-80190933D01*
X117762000Y-80210440D01*
G36*
X114485051Y-80204983D02*
X114484812Y-80478873D01*
X114603269Y-80765560D01*
X113912000Y-80765560D01*
X113794841Y-80787605D01*
X113217676Y-80210440D01*
X113662000Y-80210440D01*
X113765671Y-80190933D01*
X113862000Y-80210440D01*
X114312000Y-80210440D01*
X114415671Y-80190933D01*
X114485051Y-80204983D01*
X114485051Y-80204983D01*
G37*
X114485051Y-80204983D02*
X114484812Y-80478873D01*
X114603269Y-80765560D01*
X113912000Y-80765560D01*
X113794841Y-80787605D01*
X113217676Y-80210440D01*
X113662000Y-80210440D01*
X113765671Y-80190933D01*
X113862000Y-80210440D01*
X114312000Y-80210440D01*
X114415671Y-80190933D01*
X114485051Y-80204983D01*
G36*
X128327110Y-64527431D02*
X128579000Y-64578440D01*
X128651000Y-64578440D01*
X128651000Y-65163000D01*
X128508000Y-65163000D01*
X127977983Y-65268427D01*
X127951357Y-65286218D01*
X127772683Y-65319838D01*
X127556559Y-65458910D01*
X127411569Y-65671110D01*
X127390421Y-65775542D01*
X127228427Y-66017983D01*
X127123000Y-66548000D01*
X127228427Y-67078017D01*
X127387477Y-67316052D01*
X127404838Y-67408317D01*
X127452612Y-67482560D01*
X127016000Y-67482560D01*
X126780683Y-67526838D01*
X126564559Y-67665910D01*
X126419569Y-67878110D01*
X126368560Y-68130000D01*
X126368560Y-69030000D01*
X126377700Y-69078575D01*
X126377700Y-69297885D01*
X126271489Y-69453330D01*
X126220480Y-69705220D01*
X126220480Y-70502780D01*
X126264758Y-70738097D01*
X126403830Y-70954221D01*
X126616030Y-71099211D01*
X126867920Y-71150220D01*
X127665480Y-71150220D01*
X127900797Y-71105942D01*
X127910376Y-71099778D01*
X128408281Y-71597683D01*
X128343683Y-71609838D01*
X128127559Y-71748910D01*
X127982569Y-71961110D01*
X127931560Y-72213000D01*
X127931560Y-75155504D01*
X127759000Y-75120560D01*
X126489000Y-75120560D01*
X126253683Y-75164838D01*
X126125223Y-75247500D01*
X125337005Y-75247500D01*
X125337000Y-75247499D01*
X125120520Y-75290560D01*
X124772000Y-75290560D01*
X124727145Y-75299000D01*
X118999000Y-75299000D01*
X118999000Y-71476236D01*
X125581796Y-64893440D01*
X125672000Y-64893440D01*
X125716855Y-64885000D01*
X127009000Y-64885000D01*
X127268210Y-64833440D01*
X127759000Y-64833440D01*
X127994317Y-64789162D01*
X128210441Y-64650090D01*
X128304709Y-64512125D01*
X128327110Y-64527431D01*
X128327110Y-64527431D01*
G37*
X128327110Y-64527431D02*
X128579000Y-64578440D01*
X128651000Y-64578440D01*
X128651000Y-65163000D01*
X128508000Y-65163000D01*
X127977983Y-65268427D01*
X127951357Y-65286218D01*
X127772683Y-65319838D01*
X127556559Y-65458910D01*
X127411569Y-65671110D01*
X127390421Y-65775542D01*
X127228427Y-66017983D01*
X127123000Y-66548000D01*
X127228427Y-67078017D01*
X127387477Y-67316052D01*
X127404838Y-67408317D01*
X127452612Y-67482560D01*
X127016000Y-67482560D01*
X126780683Y-67526838D01*
X126564559Y-67665910D01*
X126419569Y-67878110D01*
X126368560Y-68130000D01*
X126368560Y-69030000D01*
X126377700Y-69078575D01*
X126377700Y-69297885D01*
X126271489Y-69453330D01*
X126220480Y-69705220D01*
X126220480Y-70502780D01*
X126264758Y-70738097D01*
X126403830Y-70954221D01*
X126616030Y-71099211D01*
X126867920Y-71150220D01*
X127665480Y-71150220D01*
X127900797Y-71105942D01*
X127910376Y-71099778D01*
X128408281Y-71597683D01*
X128343683Y-71609838D01*
X128127559Y-71748910D01*
X127982569Y-71961110D01*
X127931560Y-72213000D01*
X127931560Y-75155504D01*
X127759000Y-75120560D01*
X126489000Y-75120560D01*
X126253683Y-75164838D01*
X126125223Y-75247500D01*
X125337005Y-75247500D01*
X125337000Y-75247499D01*
X125120520Y-75290560D01*
X124772000Y-75290560D01*
X124727145Y-75299000D01*
X118999000Y-75299000D01*
X118999000Y-71476236D01*
X125581796Y-64893440D01*
X125672000Y-64893440D01*
X125716855Y-64885000D01*
X127009000Y-64885000D01*
X127268210Y-64833440D01*
X127759000Y-64833440D01*
X127994317Y-64789162D01*
X128210441Y-64650090D01*
X128304709Y-64512125D01*
X128327110Y-64527431D01*
G36*
X102160281Y-38319515D02*
X102448338Y-38608075D01*
X102161996Y-38893918D01*
X101897301Y-39531373D01*
X101896699Y-40221599D01*
X102160281Y-40859515D01*
X102448338Y-41148075D01*
X102161996Y-41433918D01*
X101897301Y-42071373D01*
X101896699Y-42761599D01*
X102160281Y-43399515D01*
X102448338Y-43688075D01*
X102161996Y-43973918D01*
X101897301Y-44611373D01*
X101896699Y-45301599D01*
X102160281Y-45939515D01*
X102448338Y-46228075D01*
X102161996Y-46513918D01*
X101897301Y-47151373D01*
X101896699Y-47841599D01*
X102160281Y-48479515D01*
X102448338Y-48768075D01*
X102161996Y-49053918D01*
X101897301Y-49691373D01*
X101896699Y-50381599D01*
X102160281Y-51019515D01*
X102448338Y-51308075D01*
X102161996Y-51593918D01*
X101897301Y-52231373D01*
X101896699Y-52921599D01*
X102160281Y-53559515D01*
X102448338Y-53848075D01*
X102161996Y-54133918D01*
X101897301Y-54771373D01*
X101896699Y-55461599D01*
X102160281Y-56099515D01*
X102448338Y-56388075D01*
X102161996Y-56673918D01*
X101897301Y-57311373D01*
X101896699Y-58001599D01*
X102160281Y-58639515D01*
X102448338Y-58928075D01*
X102161996Y-59213918D01*
X101897301Y-59851373D01*
X101896699Y-60541599D01*
X102160281Y-61179515D01*
X102448338Y-61468075D01*
X102161996Y-61753918D01*
X101897301Y-62391373D01*
X101896699Y-63081599D01*
X102160281Y-63719515D01*
X102448338Y-64008075D01*
X102161996Y-64293918D01*
X101897301Y-64931373D01*
X101896699Y-65621599D01*
X102160281Y-66259515D01*
X102448338Y-66548075D01*
X102161996Y-66833918D01*
X101897301Y-67471373D01*
X101896699Y-68161599D01*
X102160281Y-68799515D01*
X102647918Y-69288004D01*
X103285373Y-69552699D01*
X103975599Y-69553301D01*
X104613515Y-69289719D01*
X105102004Y-68802082D01*
X105366699Y-68164627D01*
X105367301Y-67474401D01*
X105103719Y-66836485D01*
X104815662Y-66547925D01*
X105102004Y-66262082D01*
X105366699Y-65624627D01*
X105367301Y-64934401D01*
X105103719Y-64296485D01*
X104815662Y-64007925D01*
X105102004Y-63722082D01*
X105141486Y-63627000D01*
X106422452Y-63627000D01*
X106602060Y-63749721D01*
X106853950Y-63800730D01*
X107654050Y-63800730D01*
X107889367Y-63756452D01*
X108105491Y-63617380D01*
X108204632Y-63472283D01*
X108289860Y-63604731D01*
X108502060Y-63749721D01*
X108753950Y-63800730D01*
X109554050Y-63800730D01*
X109789367Y-63756452D01*
X109965706Y-63642981D01*
X110117110Y-63746431D01*
X110369000Y-63797440D01*
X111119000Y-63797440D01*
X111354317Y-63753162D01*
X111531730Y-63639000D01*
X111550121Y-63639000D01*
X111475569Y-63748110D01*
X111463043Y-63809965D01*
X111462310Y-63811062D01*
X111434027Y-63953250D01*
X111424560Y-64000000D01*
X111424560Y-64000844D01*
X111375000Y-64250000D01*
X111375000Y-65310897D01*
X105696898Y-70989000D01*
X94455103Y-70989000D01*
X85393051Y-61926949D01*
X85020938Y-61678310D01*
X84969126Y-61668004D01*
X84627572Y-61600065D01*
X84296082Y-61267996D01*
X83658627Y-61003301D01*
X82968401Y-61002699D01*
X82330485Y-61266281D01*
X82169000Y-61427484D01*
X82169000Y-58968808D01*
X82327918Y-59128004D01*
X82965373Y-59392699D01*
X83655599Y-59393301D01*
X84293515Y-59129719D01*
X84782004Y-58642082D01*
X85046699Y-58004627D01*
X85047301Y-57314401D01*
X84783719Y-56676485D01*
X84495662Y-56387925D01*
X84782004Y-56102082D01*
X85046699Y-55464627D01*
X85047301Y-54774401D01*
X84783719Y-54136485D01*
X84495662Y-53847925D01*
X84782004Y-53562082D01*
X85046699Y-52924627D01*
X85047301Y-52234401D01*
X84783719Y-51596485D01*
X84495662Y-51307925D01*
X84782004Y-51022082D01*
X85046699Y-50384627D01*
X85047301Y-49694401D01*
X84783719Y-49056485D01*
X84495662Y-48767925D01*
X84782004Y-48482082D01*
X85046699Y-47844627D01*
X85047301Y-47154401D01*
X84783719Y-46516485D01*
X84495662Y-46227925D01*
X84782004Y-45942082D01*
X85015801Y-45379037D01*
X97663000Y-58026236D01*
X97663000Y-65902366D01*
X97632718Y-65932595D01*
X97467189Y-66331233D01*
X97466812Y-66762873D01*
X97631646Y-67161800D01*
X97936595Y-67467282D01*
X98335233Y-67632811D01*
X98632470Y-67633071D01*
X98647646Y-67669800D01*
X98952595Y-67975282D01*
X99351233Y-68140811D01*
X99782873Y-68141188D01*
X100181800Y-67976354D01*
X100487282Y-67671405D01*
X100652811Y-67272767D01*
X100653188Y-66841127D01*
X100488354Y-66442200D01*
X100457000Y-66410791D01*
X100457000Y-39230236D01*
X101928551Y-37758685D01*
X102160281Y-38319515D01*
X102160281Y-38319515D01*
G37*
X102160281Y-38319515D02*
X102448338Y-38608075D01*
X102161996Y-38893918D01*
X101897301Y-39531373D01*
X101896699Y-40221599D01*
X102160281Y-40859515D01*
X102448338Y-41148075D01*
X102161996Y-41433918D01*
X101897301Y-42071373D01*
X101896699Y-42761599D01*
X102160281Y-43399515D01*
X102448338Y-43688075D01*
X102161996Y-43973918D01*
X101897301Y-44611373D01*
X101896699Y-45301599D01*
X102160281Y-45939515D01*
X102448338Y-46228075D01*
X102161996Y-46513918D01*
X101897301Y-47151373D01*
X101896699Y-47841599D01*
X102160281Y-48479515D01*
X102448338Y-48768075D01*
X102161996Y-49053918D01*
X101897301Y-49691373D01*
X101896699Y-50381599D01*
X102160281Y-51019515D01*
X102448338Y-51308075D01*
X102161996Y-51593918D01*
X101897301Y-52231373D01*
X101896699Y-52921599D01*
X102160281Y-53559515D01*
X102448338Y-53848075D01*
X102161996Y-54133918D01*
X101897301Y-54771373D01*
X101896699Y-55461599D01*
X102160281Y-56099515D01*
X102448338Y-56388075D01*
X102161996Y-56673918D01*
X101897301Y-57311373D01*
X101896699Y-58001599D01*
X102160281Y-58639515D01*
X102448338Y-58928075D01*
X102161996Y-59213918D01*
X101897301Y-59851373D01*
X101896699Y-60541599D01*
X102160281Y-61179515D01*
X102448338Y-61468075D01*
X102161996Y-61753918D01*
X101897301Y-62391373D01*
X101896699Y-63081599D01*
X102160281Y-63719515D01*
X102448338Y-64008075D01*
X102161996Y-64293918D01*
X101897301Y-64931373D01*
X101896699Y-65621599D01*
X102160281Y-66259515D01*
X102448338Y-66548075D01*
X102161996Y-66833918D01*
X101897301Y-67471373D01*
X101896699Y-68161599D01*
X102160281Y-68799515D01*
X102647918Y-69288004D01*
X103285373Y-69552699D01*
X103975599Y-69553301D01*
X104613515Y-69289719D01*
X105102004Y-68802082D01*
X105366699Y-68164627D01*
X105367301Y-67474401D01*
X105103719Y-66836485D01*
X104815662Y-66547925D01*
X105102004Y-66262082D01*
X105366699Y-65624627D01*
X105367301Y-64934401D01*
X105103719Y-64296485D01*
X104815662Y-64007925D01*
X105102004Y-63722082D01*
X105141486Y-63627000D01*
X106422452Y-63627000D01*
X106602060Y-63749721D01*
X106853950Y-63800730D01*
X107654050Y-63800730D01*
X107889367Y-63756452D01*
X108105491Y-63617380D01*
X108204632Y-63472283D01*
X108289860Y-63604731D01*
X108502060Y-63749721D01*
X108753950Y-63800730D01*
X109554050Y-63800730D01*
X109789367Y-63756452D01*
X109965706Y-63642981D01*
X110117110Y-63746431D01*
X110369000Y-63797440D01*
X111119000Y-63797440D01*
X111354317Y-63753162D01*
X111531730Y-63639000D01*
X111550121Y-63639000D01*
X111475569Y-63748110D01*
X111463043Y-63809965D01*
X111462310Y-63811062D01*
X111434027Y-63953250D01*
X111424560Y-64000000D01*
X111424560Y-64000844D01*
X111375000Y-64250000D01*
X111375000Y-65310897D01*
X105696898Y-70989000D01*
X94455103Y-70989000D01*
X85393051Y-61926949D01*
X85020938Y-61678310D01*
X84969126Y-61668004D01*
X84627572Y-61600065D01*
X84296082Y-61267996D01*
X83658627Y-61003301D01*
X82968401Y-61002699D01*
X82330485Y-61266281D01*
X82169000Y-61427484D01*
X82169000Y-58968808D01*
X82327918Y-59128004D01*
X82965373Y-59392699D01*
X83655599Y-59393301D01*
X84293515Y-59129719D01*
X84782004Y-58642082D01*
X85046699Y-58004627D01*
X85047301Y-57314401D01*
X84783719Y-56676485D01*
X84495662Y-56387925D01*
X84782004Y-56102082D01*
X85046699Y-55464627D01*
X85047301Y-54774401D01*
X84783719Y-54136485D01*
X84495662Y-53847925D01*
X84782004Y-53562082D01*
X85046699Y-52924627D01*
X85047301Y-52234401D01*
X84783719Y-51596485D01*
X84495662Y-51307925D01*
X84782004Y-51022082D01*
X85046699Y-50384627D01*
X85047301Y-49694401D01*
X84783719Y-49056485D01*
X84495662Y-48767925D01*
X84782004Y-48482082D01*
X85046699Y-47844627D01*
X85047301Y-47154401D01*
X84783719Y-46516485D01*
X84495662Y-46227925D01*
X84782004Y-45942082D01*
X85015801Y-45379037D01*
X97663000Y-58026236D01*
X97663000Y-65902366D01*
X97632718Y-65932595D01*
X97467189Y-66331233D01*
X97466812Y-66762873D01*
X97631646Y-67161800D01*
X97936595Y-67467282D01*
X98335233Y-67632811D01*
X98632470Y-67633071D01*
X98647646Y-67669800D01*
X98952595Y-67975282D01*
X99351233Y-68140811D01*
X99782873Y-68141188D01*
X100181800Y-67976354D01*
X100487282Y-67671405D01*
X100652811Y-67272767D01*
X100653188Y-66841127D01*
X100488354Y-66442200D01*
X100457000Y-66410791D01*
X100457000Y-39230236D01*
X101928551Y-37758685D01*
X102160281Y-38319515D01*
G36*
X128327110Y-52335431D02*
X128579000Y-52386440D01*
X128651000Y-52386440D01*
X128651000Y-52999445D01*
X128508000Y-52971000D01*
X127977984Y-53076427D01*
X127951358Y-53094218D01*
X127772683Y-53127838D01*
X127556559Y-53266910D01*
X127411569Y-53479110D01*
X127390421Y-53583542D01*
X127228427Y-53825984D01*
X127123000Y-54356000D01*
X127228427Y-54886016D01*
X127387477Y-55124052D01*
X127404838Y-55216317D01*
X127452612Y-55290560D01*
X127016000Y-55290560D01*
X126780683Y-55334838D01*
X126564559Y-55473910D01*
X126419569Y-55686110D01*
X126368560Y-55938000D01*
X126368560Y-56838000D01*
X126377700Y-56886575D01*
X126377700Y-57105885D01*
X126271489Y-57261330D01*
X126220480Y-57513220D01*
X126220480Y-58310780D01*
X126264758Y-58546097D01*
X126403830Y-58762221D01*
X126616030Y-58907211D01*
X126867920Y-58958220D01*
X127665480Y-58958220D01*
X127900797Y-58913942D01*
X127910376Y-58907778D01*
X128408281Y-59405683D01*
X128343683Y-59417838D01*
X128127559Y-59556910D01*
X127982569Y-59769110D01*
X127931560Y-60021000D01*
X127931560Y-62963504D01*
X127759000Y-62928560D01*
X126489000Y-62928560D01*
X126253683Y-62972838D01*
X126045189Y-63107000D01*
X125713678Y-63107000D01*
X125672000Y-63098560D01*
X124772000Y-63098560D01*
X124536683Y-63142838D01*
X124320559Y-63281910D01*
X124175569Y-63494110D01*
X124124560Y-63746000D01*
X124124560Y-63836204D01*
X118999000Y-68961764D01*
X118999000Y-59284236D01*
X125581796Y-52701440D01*
X125672000Y-52701440D01*
X125716855Y-52693000D01*
X127009000Y-52693000D01*
X127268210Y-52641440D01*
X127759000Y-52641440D01*
X127994317Y-52597162D01*
X128210441Y-52458090D01*
X128304709Y-52320125D01*
X128327110Y-52335431D01*
X128327110Y-52335431D01*
G37*
X128327110Y-52335431D02*
X128579000Y-52386440D01*
X128651000Y-52386440D01*
X128651000Y-52999445D01*
X128508000Y-52971000D01*
X127977984Y-53076427D01*
X127951358Y-53094218D01*
X127772683Y-53127838D01*
X127556559Y-53266910D01*
X127411569Y-53479110D01*
X127390421Y-53583542D01*
X127228427Y-53825984D01*
X127123000Y-54356000D01*
X127228427Y-54886016D01*
X127387477Y-55124052D01*
X127404838Y-55216317D01*
X127452612Y-55290560D01*
X127016000Y-55290560D01*
X126780683Y-55334838D01*
X126564559Y-55473910D01*
X126419569Y-55686110D01*
X126368560Y-55938000D01*
X126368560Y-56838000D01*
X126377700Y-56886575D01*
X126377700Y-57105885D01*
X126271489Y-57261330D01*
X126220480Y-57513220D01*
X126220480Y-58310780D01*
X126264758Y-58546097D01*
X126403830Y-58762221D01*
X126616030Y-58907211D01*
X126867920Y-58958220D01*
X127665480Y-58958220D01*
X127900797Y-58913942D01*
X127910376Y-58907778D01*
X128408281Y-59405683D01*
X128343683Y-59417838D01*
X128127559Y-59556910D01*
X127982569Y-59769110D01*
X127931560Y-60021000D01*
X127931560Y-62963504D01*
X127759000Y-62928560D01*
X126489000Y-62928560D01*
X126253683Y-62972838D01*
X126045189Y-63107000D01*
X125713678Y-63107000D01*
X125672000Y-63098560D01*
X124772000Y-63098560D01*
X124536683Y-63142838D01*
X124320559Y-63281910D01*
X124175569Y-63494110D01*
X124124560Y-63746000D01*
X124124560Y-63836204D01*
X118999000Y-68961764D01*
X118999000Y-59284236D01*
X125581796Y-52701440D01*
X125672000Y-52701440D01*
X125716855Y-52693000D01*
X127009000Y-52693000D01*
X127268210Y-52641440D01*
X127759000Y-52641440D01*
X127994317Y-52597162D01*
X128210441Y-52458090D01*
X128304709Y-52320125D01*
X128327110Y-52335431D01*
G36*
X128327110Y-40143431D02*
X128579000Y-40194440D01*
X128651000Y-40194440D01*
X128651000Y-40779000D01*
X128508000Y-40779000D01*
X127977983Y-40884427D01*
X127951357Y-40902218D01*
X127772683Y-40935838D01*
X127556559Y-41074910D01*
X127411569Y-41287110D01*
X127390421Y-41391542D01*
X127228427Y-41633983D01*
X127123000Y-42164000D01*
X127228427Y-42694017D01*
X127387477Y-42932052D01*
X127404838Y-43024317D01*
X127452612Y-43098560D01*
X127016000Y-43098560D01*
X126780683Y-43142838D01*
X126564559Y-43281910D01*
X126419569Y-43494110D01*
X126368560Y-43746000D01*
X126368560Y-44646000D01*
X126377700Y-44694575D01*
X126377700Y-44913885D01*
X126271489Y-45069330D01*
X126220480Y-45321220D01*
X126220480Y-46118780D01*
X126264758Y-46354097D01*
X126403830Y-46570221D01*
X126616030Y-46715211D01*
X126867920Y-46766220D01*
X127665480Y-46766220D01*
X127900797Y-46721942D01*
X127910376Y-46715778D01*
X128408281Y-47213683D01*
X128343683Y-47225838D01*
X128127559Y-47364910D01*
X127982569Y-47577110D01*
X127931560Y-47829000D01*
X127931560Y-50771504D01*
X127759000Y-50736560D01*
X126489000Y-50736560D01*
X126253683Y-50780838D01*
X126045189Y-50915000D01*
X125713678Y-50915000D01*
X125672000Y-50906560D01*
X124772000Y-50906560D01*
X124536683Y-50950838D01*
X124320559Y-51089910D01*
X124175569Y-51302110D01*
X124124560Y-51554000D01*
X124124560Y-51644204D01*
X118999000Y-56769764D01*
X118999000Y-54057571D01*
X119482372Y-53857845D01*
X120111636Y-53229679D01*
X120452611Y-52408519D01*
X120453387Y-51519381D01*
X120113845Y-50697628D01*
X119485679Y-50068364D01*
X118999000Y-49866277D01*
X118999000Y-43294236D01*
X121792236Y-40501000D01*
X124730322Y-40501000D01*
X124772000Y-40509440D01*
X125672000Y-40509440D01*
X125716855Y-40501000D01*
X127009000Y-40501000D01*
X127268210Y-40449440D01*
X127759000Y-40449440D01*
X127994317Y-40405162D01*
X128210441Y-40266090D01*
X128304709Y-40128125D01*
X128327110Y-40143431D01*
X128327110Y-40143431D01*
G37*
X128327110Y-40143431D02*
X128579000Y-40194440D01*
X128651000Y-40194440D01*
X128651000Y-40779000D01*
X128508000Y-40779000D01*
X127977983Y-40884427D01*
X127951357Y-40902218D01*
X127772683Y-40935838D01*
X127556559Y-41074910D01*
X127411569Y-41287110D01*
X127390421Y-41391542D01*
X127228427Y-41633983D01*
X127123000Y-42164000D01*
X127228427Y-42694017D01*
X127387477Y-42932052D01*
X127404838Y-43024317D01*
X127452612Y-43098560D01*
X127016000Y-43098560D01*
X126780683Y-43142838D01*
X126564559Y-43281910D01*
X126419569Y-43494110D01*
X126368560Y-43746000D01*
X126368560Y-44646000D01*
X126377700Y-44694575D01*
X126377700Y-44913885D01*
X126271489Y-45069330D01*
X126220480Y-45321220D01*
X126220480Y-46118780D01*
X126264758Y-46354097D01*
X126403830Y-46570221D01*
X126616030Y-46715211D01*
X126867920Y-46766220D01*
X127665480Y-46766220D01*
X127900797Y-46721942D01*
X127910376Y-46715778D01*
X128408281Y-47213683D01*
X128343683Y-47225838D01*
X128127559Y-47364910D01*
X127982569Y-47577110D01*
X127931560Y-47829000D01*
X127931560Y-50771504D01*
X127759000Y-50736560D01*
X126489000Y-50736560D01*
X126253683Y-50780838D01*
X126045189Y-50915000D01*
X125713678Y-50915000D01*
X125672000Y-50906560D01*
X124772000Y-50906560D01*
X124536683Y-50950838D01*
X124320559Y-51089910D01*
X124175569Y-51302110D01*
X124124560Y-51554000D01*
X124124560Y-51644204D01*
X118999000Y-56769764D01*
X118999000Y-54057571D01*
X119482372Y-53857845D01*
X120111636Y-53229679D01*
X120452611Y-52408519D01*
X120453387Y-51519381D01*
X120113845Y-50697628D01*
X119485679Y-50068364D01*
X118999000Y-49866277D01*
X118999000Y-43294236D01*
X121792236Y-40501000D01*
X124730322Y-40501000D01*
X124772000Y-40509440D01*
X125672000Y-40509440D01*
X125716855Y-40501000D01*
X127009000Y-40501000D01*
X127268210Y-40449440D01*
X127759000Y-40449440D01*
X127994317Y-40405162D01*
X128210441Y-40266090D01*
X128304709Y-40128125D01*
X128327110Y-40143431D01*
G36*
X102161996Y-33813918D02*
X101897301Y-34451373D01*
X101896699Y-35141599D01*
X101936014Y-35236750D01*
X98939382Y-38233382D01*
X98746671Y-38521794D01*
X98679000Y-38862000D01*
X98679000Y-56527764D01*
X85008311Y-42857075D01*
X85046699Y-42764627D01*
X85047301Y-42074401D01*
X84783719Y-41436485D01*
X84495662Y-41147925D01*
X84782004Y-40862082D01*
X85046699Y-40224627D01*
X85047301Y-39534401D01*
X84783719Y-38896485D01*
X84495662Y-38607925D01*
X84782004Y-38322082D01*
X85046699Y-37684627D01*
X85047301Y-36994401D01*
X85007986Y-36899250D01*
X88506236Y-33401000D01*
X102575635Y-33401000D01*
X102161996Y-33813918D01*
X102161996Y-33813918D01*
G37*
X102161996Y-33813918D02*
X101897301Y-34451373D01*
X101896699Y-35141599D01*
X101936014Y-35236750D01*
X98939382Y-38233382D01*
X98746671Y-38521794D01*
X98679000Y-38862000D01*
X98679000Y-56527764D01*
X85008311Y-42857075D01*
X85046699Y-42764627D01*
X85047301Y-42074401D01*
X84783719Y-41436485D01*
X84495662Y-41147925D01*
X84782004Y-40862082D01*
X85046699Y-40224627D01*
X85047301Y-39534401D01*
X84783719Y-38896485D01*
X84495662Y-38607925D01*
X84782004Y-38322082D01*
X85046699Y-37684627D01*
X85047301Y-36994401D01*
X85007986Y-36899250D01*
X88506236Y-33401000D01*
X102575635Y-33401000D01*
X102161996Y-33813918D01*
G36*
X118237000Y-41541764D02*
X112655382Y-47123382D01*
X112462671Y-47411794D01*
X112395000Y-47752000D01*
X112395000Y-53733764D01*
X107061000Y-48399764D01*
X107061000Y-47498000D01*
X106993329Y-47157794D01*
X106800618Y-46869382D01*
X105328311Y-45397075D01*
X105366699Y-45304627D01*
X105367301Y-44614401D01*
X105103719Y-43976485D01*
X104815662Y-43687925D01*
X105102004Y-43402082D01*
X105366699Y-42764627D01*
X105367301Y-42074401D01*
X105103719Y-41436485D01*
X104815662Y-41147925D01*
X105102004Y-40862082D01*
X105366699Y-40224627D01*
X105367301Y-39534401D01*
X105103719Y-38896485D01*
X104815662Y-38607925D01*
X105102004Y-38322082D01*
X105366699Y-37684627D01*
X105367301Y-36994401D01*
X105103719Y-36356485D01*
X104815662Y-36067925D01*
X105102004Y-35782082D01*
X105366699Y-35144627D01*
X105367301Y-34454401D01*
X105103719Y-33816485D01*
X104688959Y-33401000D01*
X108089764Y-33401000D01*
X110929071Y-36240307D01*
X110928812Y-36536873D01*
X111093646Y-36935800D01*
X111398595Y-37241282D01*
X111797233Y-37406811D01*
X112228873Y-37407188D01*
X112627800Y-37242354D01*
X112933282Y-36937405D01*
X113098811Y-36538767D01*
X113099162Y-36136839D01*
X113498873Y-36137188D01*
X113897800Y-35972354D01*
X114203282Y-35667405D01*
X114368811Y-35268767D01*
X114369188Y-34837127D01*
X114204354Y-34438200D01*
X113899405Y-34132718D01*
X113500767Y-33967189D01*
X113456386Y-33967150D01*
X107631236Y-28142000D01*
X118237000Y-28142000D01*
X118237000Y-41541764D01*
X118237000Y-41541764D01*
G37*
X118237000Y-41541764D02*
X112655382Y-47123382D01*
X112462671Y-47411794D01*
X112395000Y-47752000D01*
X112395000Y-53733764D01*
X107061000Y-48399764D01*
X107061000Y-47498000D01*
X106993329Y-47157794D01*
X106800618Y-46869382D01*
X105328311Y-45397075D01*
X105366699Y-45304627D01*
X105367301Y-44614401D01*
X105103719Y-43976485D01*
X104815662Y-43687925D01*
X105102004Y-43402082D01*
X105366699Y-42764627D01*
X105367301Y-42074401D01*
X105103719Y-41436485D01*
X104815662Y-41147925D01*
X105102004Y-40862082D01*
X105366699Y-40224627D01*
X105367301Y-39534401D01*
X105103719Y-38896485D01*
X104815662Y-38607925D01*
X105102004Y-38322082D01*
X105366699Y-37684627D01*
X105367301Y-36994401D01*
X105103719Y-36356485D01*
X104815662Y-36067925D01*
X105102004Y-35782082D01*
X105366699Y-35144627D01*
X105367301Y-34454401D01*
X105103719Y-33816485D01*
X104688959Y-33401000D01*
X108089764Y-33401000D01*
X110929071Y-36240307D01*
X110928812Y-36536873D01*
X111093646Y-36935800D01*
X111398595Y-37241282D01*
X111797233Y-37406811D01*
X112228873Y-37407188D01*
X112627800Y-37242354D01*
X112933282Y-36937405D01*
X113098811Y-36538767D01*
X113099162Y-36136839D01*
X113498873Y-36137188D01*
X113897800Y-35972354D01*
X114203282Y-35667405D01*
X114368811Y-35268767D01*
X114369188Y-34837127D01*
X114204354Y-34438200D01*
X113899405Y-34132718D01*
X113500767Y-33967189D01*
X113456386Y-33967150D01*
X107631236Y-28142000D01*
X118237000Y-28142000D01*
X118237000Y-41541764D01*
G36*
X74273910Y-46430441D02*
X74486110Y-46575431D01*
X74738000Y-46626440D01*
X75798000Y-46626440D01*
X76033317Y-46582162D01*
X76249441Y-46443090D01*
X76273287Y-46408189D01*
X76335110Y-46450431D01*
X76577000Y-46499415D01*
X76577000Y-51493107D01*
X76239127Y-51492812D01*
X75840200Y-51657646D01*
X75808791Y-51689000D01*
X75298236Y-51689000D01*
X70224618Y-46615382D01*
X70157030Y-46570221D01*
X70116291Y-46543000D01*
X70982366Y-46543000D01*
X71012595Y-46573282D01*
X71411233Y-46738811D01*
X71842873Y-46739188D01*
X72241800Y-46574354D01*
X72259164Y-46557020D01*
X72286110Y-46575431D01*
X72538000Y-46626440D01*
X73598000Y-46626440D01*
X73833317Y-46582162D01*
X74049441Y-46443090D01*
X74169233Y-46267768D01*
X74273910Y-46430441D01*
X74273910Y-46430441D01*
G37*
X74273910Y-46430441D02*
X74486110Y-46575431D01*
X74738000Y-46626440D01*
X75798000Y-46626440D01*
X76033317Y-46582162D01*
X76249441Y-46443090D01*
X76273287Y-46408189D01*
X76335110Y-46450431D01*
X76577000Y-46499415D01*
X76577000Y-51493107D01*
X76239127Y-51492812D01*
X75840200Y-51657646D01*
X75808791Y-51689000D01*
X75298236Y-51689000D01*
X70224618Y-46615382D01*
X70157030Y-46570221D01*
X70116291Y-46543000D01*
X70982366Y-46543000D01*
X71012595Y-46573282D01*
X71411233Y-46738811D01*
X71842873Y-46739188D01*
X72241800Y-46574354D01*
X72259164Y-46557020D01*
X72286110Y-46575431D01*
X72538000Y-46626440D01*
X73598000Y-46626440D01*
X73833317Y-46582162D01*
X74049441Y-46443090D01*
X74169233Y-46267768D01*
X74273910Y-46430441D01*
G36*
X77343000Y-44382785D02*
X77285062Y-44394310D01*
X77266729Y-44406560D01*
X76587000Y-44406560D01*
X76351683Y-44450838D01*
X76174270Y-44565000D01*
X75468000Y-44565000D01*
X75127794Y-44632671D01*
X75054627Y-44681560D01*
X74738000Y-44681560D01*
X74502683Y-44725838D01*
X74286559Y-44864910D01*
X74166767Y-45040232D01*
X74062090Y-44877559D01*
X73849890Y-44732569D01*
X73712880Y-44704824D01*
X73833317Y-44682162D01*
X74049441Y-44543090D01*
X74194431Y-44330890D01*
X74245440Y-44079000D01*
X74245440Y-43815000D01*
X77343000Y-43815000D01*
X77343000Y-44382785D01*
X77343000Y-44382785D01*
G37*
X77343000Y-44382785D02*
X77285062Y-44394310D01*
X77266729Y-44406560D01*
X76587000Y-44406560D01*
X76351683Y-44450838D01*
X76174270Y-44565000D01*
X75468000Y-44565000D01*
X75127794Y-44632671D01*
X75054627Y-44681560D01*
X74738000Y-44681560D01*
X74502683Y-44725838D01*
X74286559Y-44864910D01*
X74166767Y-45040232D01*
X74062090Y-44877559D01*
X73849890Y-44732569D01*
X73712880Y-44704824D01*
X73833317Y-44682162D01*
X74049441Y-44543090D01*
X74194431Y-44330890D01*
X74245440Y-44079000D01*
X74245440Y-43815000D01*
X77343000Y-43815000D01*
X77343000Y-44382785D01*
G36*
X128651000Y-28587000D02*
X128508000Y-28587000D01*
X127977983Y-28692427D01*
X127951357Y-28710218D01*
X127772683Y-28743838D01*
X127556559Y-28882910D01*
X127411569Y-29095110D01*
X127390421Y-29199542D01*
X127228427Y-29441983D01*
X127123000Y-29972000D01*
X127228427Y-30502017D01*
X127387477Y-30740052D01*
X127404838Y-30832317D01*
X127452612Y-30906560D01*
X127016000Y-30906560D01*
X126780683Y-30950838D01*
X126564559Y-31089910D01*
X126419569Y-31302110D01*
X126368560Y-31554000D01*
X126368560Y-32454000D01*
X126377700Y-32502575D01*
X126377700Y-32721885D01*
X126271489Y-32877330D01*
X126220480Y-33129220D01*
X126220480Y-33926780D01*
X126264758Y-34162097D01*
X126403830Y-34378221D01*
X126616030Y-34523211D01*
X126867920Y-34574220D01*
X127665480Y-34574220D01*
X127900797Y-34529942D01*
X127910376Y-34523778D01*
X128408281Y-35021683D01*
X128343683Y-35033838D01*
X128127559Y-35172910D01*
X127982569Y-35385110D01*
X127931560Y-35637000D01*
X127931560Y-38579504D01*
X127759000Y-38544560D01*
X126489000Y-38544560D01*
X126253683Y-38588838D01*
X126045189Y-38723000D01*
X125713678Y-38723000D01*
X125672000Y-38714560D01*
X124772000Y-38714560D01*
X124727145Y-38723000D01*
X121424000Y-38723000D01*
X121083794Y-38790671D01*
X120795382Y-38983382D01*
X118999000Y-40779764D01*
X118999000Y-28142000D01*
X128651000Y-28142000D01*
X128651000Y-28587000D01*
X128651000Y-28587000D01*
G37*
X128651000Y-28587000D02*
X128508000Y-28587000D01*
X127977983Y-28692427D01*
X127951357Y-28710218D01*
X127772683Y-28743838D01*
X127556559Y-28882910D01*
X127411569Y-29095110D01*
X127390421Y-29199542D01*
X127228427Y-29441983D01*
X127123000Y-29972000D01*
X127228427Y-30502017D01*
X127387477Y-30740052D01*
X127404838Y-30832317D01*
X127452612Y-30906560D01*
X127016000Y-30906560D01*
X126780683Y-30950838D01*
X126564559Y-31089910D01*
X126419569Y-31302110D01*
X126368560Y-31554000D01*
X126368560Y-32454000D01*
X126377700Y-32502575D01*
X126377700Y-32721885D01*
X126271489Y-32877330D01*
X126220480Y-33129220D01*
X126220480Y-33926780D01*
X126264758Y-34162097D01*
X126403830Y-34378221D01*
X126616030Y-34523211D01*
X126867920Y-34574220D01*
X127665480Y-34574220D01*
X127900797Y-34529942D01*
X127910376Y-34523778D01*
X128408281Y-35021683D01*
X128343683Y-35033838D01*
X128127559Y-35172910D01*
X127982569Y-35385110D01*
X127931560Y-35637000D01*
X127931560Y-38579504D01*
X127759000Y-38544560D01*
X126489000Y-38544560D01*
X126253683Y-38588838D01*
X126045189Y-38723000D01*
X125713678Y-38723000D01*
X125672000Y-38714560D01*
X124772000Y-38714560D01*
X124727145Y-38723000D01*
X121424000Y-38723000D01*
X121083794Y-38790671D01*
X120795382Y-38983382D01*
X118999000Y-40779764D01*
X118999000Y-28142000D01*
X128651000Y-28142000D01*
X128651000Y-28587000D01*
G36*
X102251996Y-29393918D02*
X101987301Y-30031373D01*
X101986699Y-30721599D01*
X102250281Y-31359515D01*
X102513306Y-31623000D01*
X88138000Y-31623000D01*
X87797795Y-31690670D01*
X87509382Y-31883382D01*
X85015449Y-34377315D01*
X85007986Y-34359250D01*
X90030236Y-29337000D01*
X102309013Y-29337000D01*
X102251996Y-29393918D01*
X102251996Y-29393918D01*
G37*
X102251996Y-29393918D02*
X101987301Y-30031373D01*
X101986699Y-30721599D01*
X102250281Y-31359515D01*
X102513306Y-31623000D01*
X88138000Y-31623000D01*
X87797795Y-31690670D01*
X87509382Y-31883382D01*
X85015449Y-34377315D01*
X85007986Y-34359250D01*
X90030236Y-29337000D01*
X102309013Y-29337000D01*
X102251996Y-29393918D01*
G36*
X108632468Y-31657704D02*
X108458000Y-31623000D01*
X104930630Y-31623000D01*
X105192004Y-31362082D01*
X105456699Y-30724627D01*
X105457301Y-30034401D01*
X105193719Y-29396485D01*
X105134338Y-29337000D01*
X106311764Y-29337000D01*
X108632468Y-31657704D01*
X108632468Y-31657704D01*
G37*
X108632468Y-31657704D02*
X108458000Y-31623000D01*
X104930630Y-31623000D01*
X105192004Y-31362082D01*
X105456699Y-30724627D01*
X105457301Y-30034401D01*
X105193719Y-29396485D01*
X105134338Y-29337000D01*
X106311764Y-29337000D01*
X108632468Y-31657704D01*
G36*
X113448197Y-119977803D02*
X113490211Y-120005666D01*
X113538000Y-120015000D01*
X120089394Y-120015000D01*
X122571000Y-122496606D01*
X122571000Y-123686000D01*
X122658052Y-124123641D01*
X122676122Y-124214486D01*
X122975486Y-124662514D01*
X123602972Y-125290000D01*
X104775000Y-125290000D01*
X104775000Y-124900524D01*
X104789079Y-124831000D01*
X104789079Y-123581000D01*
X104775000Y-123506177D01*
X104775000Y-121897700D01*
X105117109Y-121385699D01*
X105271405Y-120610000D01*
X105117109Y-119834301D01*
X104775000Y-119322300D01*
X104775000Y-116897700D01*
X105117109Y-116385699D01*
X105271405Y-115610000D01*
X105130774Y-114903000D01*
X108373394Y-114903000D01*
X113448197Y-119977803D01*
X113448197Y-119977803D01*
G37*
X113448197Y-119977803D02*
X113490211Y-120005666D01*
X113538000Y-120015000D01*
X120089394Y-120015000D01*
X122571000Y-122496606D01*
X122571000Y-123686000D01*
X122658052Y-124123641D01*
X122676122Y-124214486D01*
X122975486Y-124662514D01*
X123602972Y-125290000D01*
X104775000Y-125290000D01*
X104775000Y-124900524D01*
X104789079Y-124831000D01*
X104789079Y-123581000D01*
X104775000Y-123506177D01*
X104775000Y-121897700D01*
X105117109Y-121385699D01*
X105271405Y-120610000D01*
X105117109Y-119834301D01*
X104775000Y-119322300D01*
X104775000Y-116897700D01*
X105117109Y-116385699D01*
X105271405Y-115610000D01*
X105130774Y-114903000D01*
X108373394Y-114903000D01*
X113448197Y-119977803D01*
M02*
