G04 #@! TF.FileFunction,Legend,Top*
%FSLAX46Y46*%
G04 Gerber Fmt 4.6, Leading zero omitted, Abs format (unit mm)*
G04 Created by KiCad (PCBNEW (2015-12-10 BZR 6367)-product) date Fri 14 Oct 2016 00:38:17 BST*
%MOMM*%
G01*
G04 APERTURE LIST*
%ADD10C,0.100000*%
%ADD11C,0.300000*%
%ADD12C,0.150000*%
%ADD13C,0.350000*%
%ADD14C,0.120000*%
G04 APERTURE END LIST*
D10*
D11*
X112438571Y-107707142D02*
X111724286Y-108207142D01*
X112438571Y-108564285D02*
X110938571Y-108564285D01*
X110938571Y-107992857D01*
X111010000Y-107849999D01*
X111081429Y-107778571D01*
X111224286Y-107707142D01*
X111438571Y-107707142D01*
X111581429Y-107778571D01*
X111652857Y-107849999D01*
X111724286Y-107992857D01*
X111724286Y-108564285D01*
X111652857Y-106564285D02*
X111652857Y-107064285D01*
X112438571Y-107064285D02*
X110938571Y-107064285D01*
X110938571Y-106349999D01*
X112438571Y-104635714D02*
X111438571Y-104635714D01*
X111581429Y-104635714D02*
X111510000Y-104564286D01*
X111438571Y-104421428D01*
X111438571Y-104207143D01*
X111510000Y-104064286D01*
X111652857Y-103992857D01*
X112438571Y-103992857D01*
X111652857Y-103992857D02*
X111510000Y-103921428D01*
X111438571Y-103778571D01*
X111438571Y-103564286D01*
X111510000Y-103421428D01*
X111652857Y-103350000D01*
X112438571Y-103350000D01*
X112438571Y-102421428D02*
X112367143Y-102564286D01*
X112295714Y-102635714D01*
X112152857Y-102707143D01*
X111724286Y-102707143D01*
X111581429Y-102635714D01*
X111510000Y-102564286D01*
X111438571Y-102421428D01*
X111438571Y-102207143D01*
X111510000Y-102064286D01*
X111581429Y-101992857D01*
X111724286Y-101921428D01*
X112152857Y-101921428D01*
X112295714Y-101992857D01*
X112367143Y-102064286D01*
X112438571Y-102207143D01*
X112438571Y-102421428D01*
X112438571Y-100635714D02*
X110938571Y-100635714D01*
X112367143Y-100635714D02*
X112438571Y-100778571D01*
X112438571Y-101064285D01*
X112367143Y-101207143D01*
X112295714Y-101278571D01*
X112152857Y-101350000D01*
X111724286Y-101350000D01*
X111581429Y-101278571D01*
X111510000Y-101207143D01*
X111438571Y-101064285D01*
X111438571Y-100778571D01*
X111510000Y-100635714D01*
X111438571Y-99278571D02*
X112438571Y-99278571D01*
X111438571Y-99921428D02*
X112224286Y-99921428D01*
X112367143Y-99850000D01*
X112438571Y-99707142D01*
X112438571Y-99492857D01*
X112367143Y-99350000D01*
X112295714Y-99278571D01*
X112438571Y-98349999D02*
X112367143Y-98492857D01*
X112224286Y-98564285D01*
X110938571Y-98564285D01*
X112367143Y-97207143D02*
X112438571Y-97350000D01*
X112438571Y-97635714D01*
X112367143Y-97778571D01*
X112224286Y-97850000D01*
X111652857Y-97850000D01*
X111510000Y-97778571D01*
X111438571Y-97635714D01*
X111438571Y-97350000D01*
X111510000Y-97207143D01*
X111652857Y-97135714D01*
X111795714Y-97135714D01*
X111938571Y-97850000D01*
X111081429Y-95421429D02*
X111010000Y-95350000D01*
X110938571Y-95207143D01*
X110938571Y-94850000D01*
X111010000Y-94707143D01*
X111081429Y-94635714D01*
X111224286Y-94564286D01*
X111367143Y-94564286D01*
X111581429Y-94635714D01*
X112438571Y-95492857D01*
X112438571Y-94564286D01*
X64686571Y-107707142D02*
X63972286Y-108207142D01*
X64686571Y-108564285D02*
X63186571Y-108564285D01*
X63186571Y-107992857D01*
X63258000Y-107849999D01*
X63329429Y-107778571D01*
X63472286Y-107707142D01*
X63686571Y-107707142D01*
X63829429Y-107778571D01*
X63900857Y-107849999D01*
X63972286Y-107992857D01*
X63972286Y-108564285D01*
X63900857Y-106564285D02*
X63900857Y-107064285D01*
X64686571Y-107064285D02*
X63186571Y-107064285D01*
X63186571Y-106349999D01*
X64686571Y-104635714D02*
X63686571Y-104635714D01*
X63829429Y-104635714D02*
X63758000Y-104564286D01*
X63686571Y-104421428D01*
X63686571Y-104207143D01*
X63758000Y-104064286D01*
X63900857Y-103992857D01*
X64686571Y-103992857D01*
X63900857Y-103992857D02*
X63758000Y-103921428D01*
X63686571Y-103778571D01*
X63686571Y-103564286D01*
X63758000Y-103421428D01*
X63900857Y-103350000D01*
X64686571Y-103350000D01*
X64686571Y-102421428D02*
X64615143Y-102564286D01*
X64543714Y-102635714D01*
X64400857Y-102707143D01*
X63972286Y-102707143D01*
X63829429Y-102635714D01*
X63758000Y-102564286D01*
X63686571Y-102421428D01*
X63686571Y-102207143D01*
X63758000Y-102064286D01*
X63829429Y-101992857D01*
X63972286Y-101921428D01*
X64400857Y-101921428D01*
X64543714Y-101992857D01*
X64615143Y-102064286D01*
X64686571Y-102207143D01*
X64686571Y-102421428D01*
X64686571Y-100635714D02*
X63186571Y-100635714D01*
X64615143Y-100635714D02*
X64686571Y-100778571D01*
X64686571Y-101064285D01*
X64615143Y-101207143D01*
X64543714Y-101278571D01*
X64400857Y-101350000D01*
X63972286Y-101350000D01*
X63829429Y-101278571D01*
X63758000Y-101207143D01*
X63686571Y-101064285D01*
X63686571Y-100778571D01*
X63758000Y-100635714D01*
X63686571Y-99278571D02*
X64686571Y-99278571D01*
X63686571Y-99921428D02*
X64472286Y-99921428D01*
X64615143Y-99850000D01*
X64686571Y-99707142D01*
X64686571Y-99492857D01*
X64615143Y-99350000D01*
X64543714Y-99278571D01*
X64686571Y-98349999D02*
X64615143Y-98492857D01*
X64472286Y-98564285D01*
X63186571Y-98564285D01*
X64615143Y-97207143D02*
X64686571Y-97350000D01*
X64686571Y-97635714D01*
X64615143Y-97778571D01*
X64472286Y-97850000D01*
X63900857Y-97850000D01*
X63758000Y-97778571D01*
X63686571Y-97635714D01*
X63686571Y-97350000D01*
X63758000Y-97207143D01*
X63900857Y-97135714D01*
X64043714Y-97135714D01*
X64186571Y-97850000D01*
X64686571Y-94564286D02*
X64686571Y-95421429D01*
X64686571Y-94992857D02*
X63186571Y-94992857D01*
X63400857Y-95135714D01*
X63543714Y-95278572D01*
X63615143Y-95421429D01*
X138818857Y-35500571D02*
X138961714Y-35500571D01*
X139104571Y-35572000D01*
X139176000Y-35643429D01*
X139247429Y-35786286D01*
X139318857Y-36072000D01*
X139318857Y-36429143D01*
X139247429Y-36714857D01*
X139176000Y-36857714D01*
X139104571Y-36929143D01*
X138961714Y-37000571D01*
X138818857Y-37000571D01*
X138676000Y-36929143D01*
X138604571Y-36857714D01*
X138533143Y-36714857D01*
X138461714Y-36429143D01*
X138461714Y-36072000D01*
X138533143Y-35786286D01*
X138604571Y-35643429D01*
X138676000Y-35572000D01*
X138818857Y-35500571D01*
X139747428Y-35500571D02*
X140247428Y-37000571D01*
X140747428Y-35500571D01*
X138818857Y-47692571D02*
X138961714Y-47692571D01*
X139104571Y-47764000D01*
X139176000Y-47835429D01*
X139247429Y-47978286D01*
X139318857Y-48264000D01*
X139318857Y-48621143D01*
X139247429Y-48906857D01*
X139176000Y-49049714D01*
X139104571Y-49121143D01*
X138961714Y-49192571D01*
X138818857Y-49192571D01*
X138676000Y-49121143D01*
X138604571Y-49049714D01*
X138533143Y-48906857D01*
X138461714Y-48621143D01*
X138461714Y-48264000D01*
X138533143Y-47978286D01*
X138604571Y-47835429D01*
X138676000Y-47764000D01*
X138818857Y-47692571D01*
X139747428Y-47692571D02*
X140247428Y-49192571D01*
X140747428Y-47692571D01*
X138818857Y-59884571D02*
X138961714Y-59884571D01*
X139104571Y-59956000D01*
X139176000Y-60027429D01*
X139247429Y-60170286D01*
X139318857Y-60456000D01*
X139318857Y-60813143D01*
X139247429Y-61098857D01*
X139176000Y-61241714D01*
X139104571Y-61313143D01*
X138961714Y-61384571D01*
X138818857Y-61384571D01*
X138676000Y-61313143D01*
X138604571Y-61241714D01*
X138533143Y-61098857D01*
X138461714Y-60813143D01*
X138461714Y-60456000D01*
X138533143Y-60170286D01*
X138604571Y-60027429D01*
X138676000Y-59956000D01*
X138818857Y-59884571D01*
X139747428Y-59884571D02*
X140247428Y-61384571D01*
X140747428Y-59884571D01*
X138818857Y-72076571D02*
X138961714Y-72076571D01*
X139104571Y-72148000D01*
X139176000Y-72219429D01*
X139247429Y-72362286D01*
X139318857Y-72648000D01*
X139318857Y-73005143D01*
X139247429Y-73290857D01*
X139176000Y-73433714D01*
X139104571Y-73505143D01*
X138961714Y-73576571D01*
X138818857Y-73576571D01*
X138676000Y-73505143D01*
X138604571Y-73433714D01*
X138533143Y-73290857D01*
X138461714Y-73005143D01*
X138461714Y-72648000D01*
X138533143Y-72362286D01*
X138604571Y-72219429D01*
X138676000Y-72148000D01*
X138818857Y-72076571D01*
X139747428Y-72076571D02*
X140247428Y-73576571D01*
X140747428Y-72076571D01*
X138818857Y-84268571D02*
X138961714Y-84268571D01*
X139104571Y-84340000D01*
X139176000Y-84411429D01*
X139247429Y-84554286D01*
X139318857Y-84840000D01*
X139318857Y-85197143D01*
X139247429Y-85482857D01*
X139176000Y-85625714D01*
X139104571Y-85697143D01*
X138961714Y-85768571D01*
X138818857Y-85768571D01*
X138676000Y-85697143D01*
X138604571Y-85625714D01*
X138533143Y-85482857D01*
X138461714Y-85197143D01*
X138461714Y-84840000D01*
X138533143Y-84554286D01*
X138604571Y-84411429D01*
X138676000Y-84340000D01*
X138818857Y-84268571D01*
X139747428Y-84268571D02*
X140247428Y-85768571D01*
X140747428Y-84268571D01*
X138818857Y-96460571D02*
X138961714Y-96460571D01*
X139104571Y-96532000D01*
X139176000Y-96603429D01*
X139247429Y-96746286D01*
X139318857Y-97032000D01*
X139318857Y-97389143D01*
X139247429Y-97674857D01*
X139176000Y-97817714D01*
X139104571Y-97889143D01*
X138961714Y-97960571D01*
X138818857Y-97960571D01*
X138676000Y-97889143D01*
X138604571Y-97817714D01*
X138533143Y-97674857D01*
X138461714Y-97389143D01*
X138461714Y-97032000D01*
X138533143Y-96746286D01*
X138604571Y-96603429D01*
X138676000Y-96532000D01*
X138818857Y-96460571D01*
X139747428Y-96460571D02*
X140247428Y-97960571D01*
X140747428Y-96460571D01*
X138818857Y-108652571D02*
X138961714Y-108652571D01*
X139104571Y-108724000D01*
X139176000Y-108795429D01*
X139247429Y-108938286D01*
X139318857Y-109224000D01*
X139318857Y-109581143D01*
X139247429Y-109866857D01*
X139176000Y-110009714D01*
X139104571Y-110081143D01*
X138961714Y-110152571D01*
X138818857Y-110152571D01*
X138676000Y-110081143D01*
X138604571Y-110009714D01*
X138533143Y-109866857D01*
X138461714Y-109581143D01*
X138461714Y-109224000D01*
X138533143Y-108938286D01*
X138604571Y-108795429D01*
X138676000Y-108724000D01*
X138818857Y-108652571D01*
X139747428Y-108652571D02*
X140247428Y-110152571D01*
X140747428Y-108652571D01*
X138818857Y-120844571D02*
X138961714Y-120844571D01*
X139104571Y-120916000D01*
X139176000Y-120987429D01*
X139247429Y-121130286D01*
X139318857Y-121416000D01*
X139318857Y-121773143D01*
X139247429Y-122058857D01*
X139176000Y-122201714D01*
X139104571Y-122273143D01*
X138961714Y-122344571D01*
X138818857Y-122344571D01*
X138676000Y-122273143D01*
X138604571Y-122201714D01*
X138533143Y-122058857D01*
X138461714Y-121773143D01*
X138461714Y-121416000D01*
X138533143Y-121130286D01*
X138604571Y-120987429D01*
X138676000Y-120916000D01*
X138818857Y-120844571D01*
X139747428Y-120844571D02*
X140247428Y-122344571D01*
X140747428Y-120844571D01*
X139318857Y-117264571D02*
X138461714Y-117264571D01*
X138890286Y-117264571D02*
X138890286Y-115764571D01*
X138747429Y-115978857D01*
X138604571Y-116121714D01*
X138461714Y-116193143D01*
X139890285Y-115907429D02*
X139961714Y-115836000D01*
X140104571Y-115764571D01*
X140461714Y-115764571D01*
X140604571Y-115836000D01*
X140676000Y-115907429D01*
X140747428Y-116050286D01*
X140747428Y-116193143D01*
X140676000Y-116407429D01*
X139818857Y-117264571D01*
X140747428Y-117264571D01*
X141175999Y-115764571D02*
X141675999Y-117264571D01*
X142175999Y-115764571D01*
X139318857Y-105072571D02*
X138461714Y-105072571D01*
X138890286Y-105072571D02*
X138890286Y-103572571D01*
X138747429Y-103786857D01*
X138604571Y-103929714D01*
X138461714Y-104001143D01*
X139890285Y-103715429D02*
X139961714Y-103644000D01*
X140104571Y-103572571D01*
X140461714Y-103572571D01*
X140604571Y-103644000D01*
X140676000Y-103715429D01*
X140747428Y-103858286D01*
X140747428Y-104001143D01*
X140676000Y-104215429D01*
X139818857Y-105072571D01*
X140747428Y-105072571D01*
X141175999Y-103572571D02*
X141675999Y-105072571D01*
X142175999Y-103572571D01*
X139318857Y-92880571D02*
X138461714Y-92880571D01*
X138890286Y-92880571D02*
X138890286Y-91380571D01*
X138747429Y-91594857D01*
X138604571Y-91737714D01*
X138461714Y-91809143D01*
X139890285Y-91523429D02*
X139961714Y-91452000D01*
X140104571Y-91380571D01*
X140461714Y-91380571D01*
X140604571Y-91452000D01*
X140676000Y-91523429D01*
X140747428Y-91666286D01*
X140747428Y-91809143D01*
X140676000Y-92023429D01*
X139818857Y-92880571D01*
X140747428Y-92880571D01*
X141175999Y-91380571D02*
X141675999Y-92880571D01*
X142175999Y-91380571D01*
X139318857Y-80688571D02*
X138461714Y-80688571D01*
X138890286Y-80688571D02*
X138890286Y-79188571D01*
X138747429Y-79402857D01*
X138604571Y-79545714D01*
X138461714Y-79617143D01*
X139890285Y-79331429D02*
X139961714Y-79260000D01*
X140104571Y-79188571D01*
X140461714Y-79188571D01*
X140604571Y-79260000D01*
X140676000Y-79331429D01*
X140747428Y-79474286D01*
X140747428Y-79617143D01*
X140676000Y-79831429D01*
X139818857Y-80688571D01*
X140747428Y-80688571D01*
X141175999Y-79188571D02*
X141675999Y-80688571D01*
X142175999Y-79188571D01*
X139318857Y-68496571D02*
X138461714Y-68496571D01*
X138890286Y-68496571D02*
X138890286Y-66996571D01*
X138747429Y-67210857D01*
X138604571Y-67353714D01*
X138461714Y-67425143D01*
X139890285Y-67139429D02*
X139961714Y-67068000D01*
X140104571Y-66996571D01*
X140461714Y-66996571D01*
X140604571Y-67068000D01*
X140676000Y-67139429D01*
X140747428Y-67282286D01*
X140747428Y-67425143D01*
X140676000Y-67639429D01*
X139818857Y-68496571D01*
X140747428Y-68496571D01*
X141175999Y-66996571D02*
X141675999Y-68496571D01*
X142175999Y-66996571D01*
X139318857Y-56304571D02*
X138461714Y-56304571D01*
X138890286Y-56304571D02*
X138890286Y-54804571D01*
X138747429Y-55018857D01*
X138604571Y-55161714D01*
X138461714Y-55233143D01*
X139890285Y-54947429D02*
X139961714Y-54876000D01*
X140104571Y-54804571D01*
X140461714Y-54804571D01*
X140604571Y-54876000D01*
X140676000Y-54947429D01*
X140747428Y-55090286D01*
X140747428Y-55233143D01*
X140676000Y-55447429D01*
X139818857Y-56304571D01*
X140747428Y-56304571D01*
X141175999Y-54804571D02*
X141675999Y-56304571D01*
X142175999Y-54804571D01*
X139318857Y-44112571D02*
X138461714Y-44112571D01*
X138890286Y-44112571D02*
X138890286Y-42612571D01*
X138747429Y-42826857D01*
X138604571Y-42969714D01*
X138461714Y-43041143D01*
X139890285Y-42755429D02*
X139961714Y-42684000D01*
X140104571Y-42612571D01*
X140461714Y-42612571D01*
X140604571Y-42684000D01*
X140676000Y-42755429D01*
X140747428Y-42898286D01*
X140747428Y-43041143D01*
X140676000Y-43255429D01*
X139818857Y-44112571D01*
X140747428Y-44112571D01*
X141175999Y-42612571D02*
X141675999Y-44112571D01*
X142175999Y-42612571D01*
X139318857Y-31920571D02*
X138461714Y-31920571D01*
X138890286Y-31920571D02*
X138890286Y-30420571D01*
X138747429Y-30634857D01*
X138604571Y-30777714D01*
X138461714Y-30849143D01*
X139890285Y-30563429D02*
X139961714Y-30492000D01*
X140104571Y-30420571D01*
X140461714Y-30420571D01*
X140604571Y-30492000D01*
X140676000Y-30563429D01*
X140747428Y-30706286D01*
X140747428Y-30849143D01*
X140676000Y-31063429D01*
X139818857Y-31920571D01*
X140747428Y-31920571D01*
X141175999Y-30420571D02*
X141675999Y-31920571D01*
X142175999Y-30420571D01*
X99187143Y-117360000D02*
X99044286Y-117288571D01*
X98830000Y-117288571D01*
X98615715Y-117360000D01*
X98472857Y-117502857D01*
X98401429Y-117645714D01*
X98330000Y-117931429D01*
X98330000Y-118145714D01*
X98401429Y-118431429D01*
X98472857Y-118574286D01*
X98615715Y-118717143D01*
X98830000Y-118788571D01*
X98972857Y-118788571D01*
X99187143Y-118717143D01*
X99258572Y-118645714D01*
X99258572Y-118145714D01*
X98972857Y-118145714D01*
X99901429Y-118788571D02*
X99901429Y-117288571D01*
X100758572Y-118788571D01*
X100758572Y-117288571D01*
X101472858Y-118788571D02*
X101472858Y-117288571D01*
X101830001Y-117288571D01*
X102044286Y-117360000D01*
X102187144Y-117502857D01*
X102258572Y-117645714D01*
X102330001Y-117931429D01*
X102330001Y-118145714D01*
X102258572Y-118431429D01*
X102187144Y-118574286D01*
X102044286Y-118717143D01*
X101830001Y-118788571D01*
X101472858Y-118788571D01*
X105751429Y-118788571D02*
X104894286Y-118788571D01*
X105322858Y-118788571D02*
X105322858Y-117288571D01*
X105180001Y-117502857D01*
X105037143Y-117645714D01*
X104894286Y-117717143D01*
X106322857Y-117431429D02*
X106394286Y-117360000D01*
X106537143Y-117288571D01*
X106894286Y-117288571D01*
X107037143Y-117360000D01*
X107108572Y-117431429D01*
X107180000Y-117574286D01*
X107180000Y-117717143D01*
X107108572Y-117931429D01*
X106251429Y-118788571D01*
X107180000Y-118788571D01*
X107608571Y-117288571D02*
X108108571Y-118788571D01*
X108608571Y-117288571D01*
X54482857Y-39001000D02*
X54340000Y-38929571D01*
X54125714Y-38929571D01*
X53911429Y-39001000D01*
X53768571Y-39143857D01*
X53697143Y-39286714D01*
X53625714Y-39572429D01*
X53625714Y-39786714D01*
X53697143Y-40072429D01*
X53768571Y-40215286D01*
X53911429Y-40358143D01*
X54125714Y-40429571D01*
X54268571Y-40429571D01*
X54482857Y-40358143D01*
X54554286Y-40286714D01*
X54554286Y-39786714D01*
X54268571Y-39786714D01*
X55197143Y-40429571D02*
X55197143Y-38929571D01*
X56054286Y-40429571D01*
X56054286Y-38929571D01*
X56768572Y-40429571D02*
X56768572Y-38929571D01*
X57125715Y-38929571D01*
X57340000Y-39001000D01*
X57482858Y-39143857D01*
X57554286Y-39286714D01*
X57625715Y-39572429D01*
X57625715Y-39786714D01*
X57554286Y-40072429D01*
X57482858Y-40215286D01*
X57340000Y-40358143D01*
X57125715Y-40429571D01*
X56768572Y-40429571D01*
X53570143Y-37826143D02*
X54713000Y-37826143D01*
X54141571Y-38397571D02*
X54141571Y-37254714D01*
X56141572Y-36897571D02*
X55427286Y-36897571D01*
X55355857Y-37611857D01*
X55427286Y-37540429D01*
X55570143Y-37469000D01*
X55927286Y-37469000D01*
X56070143Y-37540429D01*
X56141572Y-37611857D01*
X56213000Y-37754714D01*
X56213000Y-38111857D01*
X56141572Y-38254714D01*
X56070143Y-38326143D01*
X55927286Y-38397571D01*
X55570143Y-38397571D01*
X55427286Y-38326143D01*
X55355857Y-38254714D01*
X56641571Y-36897571D02*
X57141571Y-38397571D01*
X57641571Y-36897571D01*
X46545857Y-34460571D02*
X46045857Y-33746286D01*
X45688714Y-34460571D02*
X45688714Y-32960571D01*
X46260142Y-32960571D01*
X46403000Y-33032000D01*
X46474428Y-33103429D01*
X46545857Y-33246286D01*
X46545857Y-33460571D01*
X46474428Y-33603429D01*
X46403000Y-33674857D01*
X46260142Y-33746286D01*
X45688714Y-33746286D01*
X47188714Y-33674857D02*
X47688714Y-33674857D01*
X47903000Y-34460571D02*
X47188714Y-34460571D01*
X47188714Y-32960571D01*
X47903000Y-32960571D01*
X49260143Y-34460571D02*
X48545857Y-34460571D01*
X48545857Y-32960571D01*
X50841427Y-114960000D02*
X50698570Y-114888571D01*
X50484284Y-114888571D01*
X50269999Y-114960000D01*
X50127141Y-115102857D01*
X50055713Y-115245714D01*
X49984284Y-115531429D01*
X49984284Y-115745714D01*
X50055713Y-116031429D01*
X50127141Y-116174286D01*
X50269999Y-116317143D01*
X50484284Y-116388571D01*
X50627141Y-116388571D01*
X50841427Y-116317143D01*
X50912856Y-116245714D01*
X50912856Y-115745714D01*
X50627141Y-115745714D01*
X51555713Y-114888571D02*
X51555713Y-116102857D01*
X51627141Y-116245714D01*
X51698570Y-116317143D01*
X51841427Y-116388571D01*
X52127141Y-116388571D01*
X52269999Y-116317143D01*
X52341427Y-116245714D01*
X52412856Y-116102857D01*
X52412856Y-114888571D01*
X53055713Y-115960000D02*
X53769999Y-115960000D01*
X52912856Y-116388571D02*
X53412856Y-114888571D01*
X53912856Y-116388571D01*
X55269999Y-116388571D02*
X54769999Y-115674286D01*
X54412856Y-116388571D02*
X54412856Y-114888571D01*
X54984284Y-114888571D01*
X55127142Y-114960000D01*
X55198570Y-115031429D01*
X55269999Y-115174286D01*
X55269999Y-115388571D01*
X55198570Y-115531429D01*
X55127142Y-115602857D01*
X54984284Y-115674286D01*
X54412856Y-115674286D01*
X55912856Y-116388571D02*
X55912856Y-114888571D01*
X56269999Y-114888571D01*
X56484284Y-114960000D01*
X56627142Y-115102857D01*
X56698570Y-115245714D01*
X56769999Y-115531429D01*
X56769999Y-115745714D01*
X56698570Y-116031429D01*
X56627142Y-116174286D01*
X56484284Y-116317143D01*
X56269999Y-116388571D01*
X55912856Y-116388571D01*
X57412856Y-114888571D02*
X57412856Y-116102857D01*
X57484284Y-116245714D01*
X57555713Y-116317143D01*
X57698570Y-116388571D01*
X57984284Y-116388571D01*
X58127142Y-116317143D01*
X58198570Y-116245714D01*
X58269999Y-116102857D01*
X58269999Y-114888571D01*
X58984285Y-116388571D02*
X58984285Y-114888571D01*
X59698571Y-116388571D02*
X59698571Y-114888571D01*
X60555714Y-116388571D01*
X60555714Y-114888571D01*
X61555714Y-114888571D02*
X61841428Y-114888571D01*
X61984286Y-114960000D01*
X62127143Y-115102857D01*
X62198571Y-115388571D01*
X62198571Y-115888571D01*
X62127143Y-116174286D01*
X61984286Y-116317143D01*
X61841428Y-116388571D01*
X61555714Y-116388571D01*
X61412857Y-116317143D01*
X61270000Y-116174286D01*
X61198571Y-115888571D01*
X61198571Y-115388571D01*
X61270000Y-115102857D01*
X61412857Y-114960000D01*
X61555714Y-114888571D01*
X64841429Y-116245714D02*
X64770000Y-116317143D01*
X64555714Y-116388571D01*
X64412857Y-116388571D01*
X64198572Y-116317143D01*
X64055714Y-116174286D01*
X63984286Y-116031429D01*
X63912857Y-115745714D01*
X63912857Y-115531429D01*
X63984286Y-115245714D01*
X64055714Y-115102857D01*
X64198572Y-114960000D01*
X64412857Y-114888571D01*
X64555714Y-114888571D01*
X64770000Y-114960000D01*
X64841429Y-115031429D01*
X65770000Y-114888571D02*
X66055714Y-114888571D01*
X66198572Y-114960000D01*
X66341429Y-115102857D01*
X66412857Y-115388571D01*
X66412857Y-115888571D01*
X66341429Y-116174286D01*
X66198572Y-116317143D01*
X66055714Y-116388571D01*
X65770000Y-116388571D01*
X65627143Y-116317143D01*
X65484286Y-116174286D01*
X65412857Y-115888571D01*
X65412857Y-115388571D01*
X65484286Y-115102857D01*
X65627143Y-114960000D01*
X65770000Y-114888571D01*
X67055715Y-116388571D02*
X67055715Y-114888571D01*
X67912858Y-116388571D01*
X67912858Y-114888571D01*
X68412858Y-114888571D02*
X69270001Y-114888571D01*
X68841430Y-116388571D02*
X68841430Y-114888571D01*
X70627144Y-116388571D02*
X70127144Y-115674286D01*
X69770001Y-116388571D02*
X69770001Y-114888571D01*
X70341429Y-114888571D01*
X70484287Y-114960000D01*
X70555715Y-115031429D01*
X70627144Y-115174286D01*
X70627144Y-115388571D01*
X70555715Y-115531429D01*
X70484287Y-115602857D01*
X70341429Y-115674286D01*
X69770001Y-115674286D01*
X71555715Y-114888571D02*
X71841429Y-114888571D01*
X71984287Y-114960000D01*
X72127144Y-115102857D01*
X72198572Y-115388571D01*
X72198572Y-115888571D01*
X72127144Y-116174286D01*
X71984287Y-116317143D01*
X71841429Y-116388571D01*
X71555715Y-116388571D01*
X71412858Y-116317143D01*
X71270001Y-116174286D01*
X71198572Y-115888571D01*
X71198572Y-115388571D01*
X71270001Y-115102857D01*
X71412858Y-114960000D01*
X71555715Y-114888571D01*
X73555716Y-116388571D02*
X72841430Y-116388571D01*
X72841430Y-114888571D01*
X75198573Y-114888571D02*
X75198573Y-116102857D01*
X75270001Y-116245714D01*
X75341430Y-116317143D01*
X75484287Y-116388571D01*
X75770001Y-116388571D01*
X75912859Y-116317143D01*
X75984287Y-116245714D01*
X76055716Y-116102857D01*
X76055716Y-114888571D01*
X76770002Y-116388571D02*
X76770002Y-114888571D01*
X77627145Y-116388571D01*
X77627145Y-114888571D01*
X78341431Y-116388571D02*
X78341431Y-114888571D01*
X78841431Y-114888571D02*
X79698574Y-114888571D01*
X79270003Y-116388571D02*
X79270003Y-114888571D01*
X48591430Y-117788571D02*
X48948573Y-118788571D01*
X49305715Y-117788571D01*
X50448572Y-118717143D02*
X50305715Y-118788571D01*
X50020001Y-118788571D01*
X49877144Y-118717143D01*
X49805715Y-118574286D01*
X49805715Y-118002857D01*
X49877144Y-117860000D01*
X50020001Y-117788571D01*
X50305715Y-117788571D01*
X50448572Y-117860000D01*
X50520001Y-118002857D01*
X50520001Y-118145714D01*
X49805715Y-118288571D01*
X51162858Y-118788571D02*
X51162858Y-117788571D01*
X51162858Y-118074286D02*
X51234286Y-117931429D01*
X51305715Y-117860000D01*
X51448572Y-117788571D01*
X51591429Y-117788571D01*
X54020000Y-118788571D02*
X53162857Y-118788571D01*
X53591429Y-118788571D02*
X53591429Y-117288571D01*
X53448572Y-117502857D01*
X53305714Y-117645714D01*
X53162857Y-117717143D01*
X54662857Y-118645714D02*
X54734285Y-118717143D01*
X54662857Y-118788571D01*
X54591428Y-118717143D01*
X54662857Y-118645714D01*
X54662857Y-118788571D01*
X55662857Y-117288571D02*
X55805714Y-117288571D01*
X55948571Y-117360000D01*
X56020000Y-117431429D01*
X56091429Y-117574286D01*
X56162857Y-117860000D01*
X56162857Y-118217143D01*
X56091429Y-118502857D01*
X56020000Y-118645714D01*
X55948571Y-118717143D01*
X55805714Y-118788571D01*
X55662857Y-118788571D01*
X55520000Y-118717143D01*
X55448571Y-118645714D01*
X55377143Y-118502857D01*
X55305714Y-118217143D01*
X55305714Y-117860000D01*
X55377143Y-117574286D01*
X55448571Y-117431429D01*
X55520000Y-117360000D01*
X55662857Y-117288571D01*
X56877142Y-118717143D02*
X56877142Y-118788571D01*
X56805714Y-118931429D01*
X56734285Y-119002857D01*
X59091428Y-117288571D02*
X59091428Y-118360000D01*
X59020000Y-118574286D01*
X58877143Y-118717143D01*
X58662857Y-118788571D01*
X58520000Y-118788571D01*
X60448571Y-118788571D02*
X60448571Y-118002857D01*
X60377142Y-117860000D01*
X60234285Y-117788571D01*
X59948571Y-117788571D01*
X59805714Y-117860000D01*
X60448571Y-118717143D02*
X60305714Y-118788571D01*
X59948571Y-118788571D01*
X59805714Y-118717143D01*
X59734285Y-118574286D01*
X59734285Y-118431429D01*
X59805714Y-118288571D01*
X59948571Y-118217143D01*
X60305714Y-118217143D01*
X60448571Y-118145714D01*
X61162857Y-118788571D02*
X61162857Y-117288571D01*
X61305714Y-118217143D02*
X61734285Y-118788571D01*
X61734285Y-117788571D02*
X61162857Y-118360000D01*
X63020000Y-117788571D02*
X63020000Y-118788571D01*
X62377143Y-117788571D02*
X62377143Y-118574286D01*
X62448571Y-118717143D01*
X62591429Y-118788571D01*
X62805714Y-118788571D01*
X62948571Y-118717143D01*
X63020000Y-118645714D01*
X63734286Y-118788571D02*
X63734286Y-117288571D01*
X63734286Y-117860000D02*
X63877143Y-117788571D01*
X64162857Y-117788571D01*
X64305714Y-117860000D01*
X64377143Y-117931429D01*
X64448572Y-118074286D01*
X64448572Y-118502857D01*
X64377143Y-118645714D01*
X64305714Y-118717143D01*
X64162857Y-118788571D01*
X63877143Y-118788571D01*
X63734286Y-118717143D01*
X66234286Y-118788571D02*
X66234286Y-117288571D01*
X67091429Y-118788571D01*
X67091429Y-117288571D01*
X68377143Y-118717143D02*
X68234286Y-118788571D01*
X67948572Y-118788571D01*
X67805715Y-118717143D01*
X67734286Y-118574286D01*
X67734286Y-118002857D01*
X67805715Y-117860000D01*
X67948572Y-117788571D01*
X68234286Y-117788571D01*
X68377143Y-117860000D01*
X68448572Y-118002857D01*
X68448572Y-118145714D01*
X67734286Y-118288571D01*
X69734286Y-118788571D02*
X69734286Y-117288571D01*
X69734286Y-118717143D02*
X69591429Y-118788571D01*
X69305715Y-118788571D01*
X69162857Y-118717143D01*
X69091429Y-118645714D01*
X69020000Y-118502857D01*
X69020000Y-118074286D01*
X69091429Y-117931429D01*
X69162857Y-117860000D01*
X69305715Y-117788571D01*
X69591429Y-117788571D01*
X69734286Y-117860000D01*
X70448572Y-118788571D02*
X70448572Y-117288571D01*
X70448572Y-117860000D02*
X70591429Y-117788571D01*
X70877143Y-117788571D01*
X71020000Y-117860000D01*
X71091429Y-117931429D01*
X71162858Y-118074286D01*
X71162858Y-118502857D01*
X71091429Y-118645714D01*
X71020000Y-118717143D01*
X70877143Y-118788571D01*
X70591429Y-118788571D01*
X70448572Y-118717143D01*
X72448572Y-118788571D02*
X72448572Y-118002857D01*
X72377143Y-117860000D01*
X72234286Y-117788571D01*
X71948572Y-117788571D01*
X71805715Y-117860000D01*
X72448572Y-118717143D02*
X72305715Y-118788571D01*
X71948572Y-118788571D01*
X71805715Y-118717143D01*
X71734286Y-118574286D01*
X71734286Y-118431429D01*
X71805715Y-118288571D01*
X71948572Y-118217143D01*
X72305715Y-118217143D01*
X72448572Y-118145714D01*
X73377144Y-118788571D02*
X73234286Y-118717143D01*
X73162858Y-118574286D01*
X73162858Y-117288571D01*
X74020000Y-118717143D02*
X74020000Y-118788571D01*
X73948572Y-118931429D01*
X73877143Y-119002857D01*
X75734286Y-117431429D02*
X75805715Y-117360000D01*
X75948572Y-117288571D01*
X76305715Y-117288571D01*
X76448572Y-117360000D01*
X76520001Y-117431429D01*
X76591429Y-117574286D01*
X76591429Y-117717143D01*
X76520001Y-117931429D01*
X75662858Y-118788571D01*
X76591429Y-118788571D01*
X77520000Y-117288571D02*
X77662857Y-117288571D01*
X77805714Y-117360000D01*
X77877143Y-117431429D01*
X77948572Y-117574286D01*
X78020000Y-117860000D01*
X78020000Y-118217143D01*
X77948572Y-118502857D01*
X77877143Y-118645714D01*
X77805714Y-118717143D01*
X77662857Y-118788571D01*
X77520000Y-118788571D01*
X77377143Y-118717143D01*
X77305714Y-118645714D01*
X77234286Y-118502857D01*
X77162857Y-118217143D01*
X77162857Y-117860000D01*
X77234286Y-117574286D01*
X77305714Y-117431429D01*
X77377143Y-117360000D01*
X77520000Y-117288571D01*
X79448571Y-118788571D02*
X78591428Y-118788571D01*
X79020000Y-118788571D02*
X79020000Y-117288571D01*
X78877143Y-117502857D01*
X78734285Y-117645714D01*
X78591428Y-117717143D01*
X80734285Y-117288571D02*
X80448571Y-117288571D01*
X80305714Y-117360000D01*
X80234285Y-117431429D01*
X80091428Y-117645714D01*
X80019999Y-117931429D01*
X80019999Y-118502857D01*
X80091428Y-118645714D01*
X80162856Y-118717143D01*
X80305714Y-118788571D01*
X80591428Y-118788571D01*
X80734285Y-118717143D01*
X80805714Y-118645714D01*
X80877142Y-118502857D01*
X80877142Y-118145714D01*
X80805714Y-118002857D01*
X80734285Y-117931429D01*
X80591428Y-117860000D01*
X80305714Y-117860000D01*
X80162856Y-117931429D01*
X80091428Y-118002857D01*
X80019999Y-118145714D01*
X59877144Y-121045714D02*
X59805715Y-121117143D01*
X59591429Y-121188571D01*
X59448572Y-121188571D01*
X59234287Y-121117143D01*
X59091429Y-120974286D01*
X59020001Y-120831429D01*
X58948572Y-120545714D01*
X58948572Y-120331429D01*
X59020001Y-120045714D01*
X59091429Y-119902857D01*
X59234287Y-119760000D01*
X59448572Y-119688571D01*
X59591429Y-119688571D01*
X59805715Y-119760000D01*
X59877144Y-119831429D01*
X61377144Y-121045714D02*
X61305715Y-121117143D01*
X61091429Y-121188571D01*
X60948572Y-121188571D01*
X60734287Y-121117143D01*
X60591429Y-120974286D01*
X60520001Y-120831429D01*
X60448572Y-120545714D01*
X60448572Y-120331429D01*
X60520001Y-120045714D01*
X60591429Y-119902857D01*
X60734287Y-119760000D01*
X60948572Y-119688571D01*
X61091429Y-119688571D01*
X61305715Y-119760000D01*
X61377144Y-119831429D01*
X62020001Y-120617143D02*
X63162858Y-120617143D01*
X64377144Y-120402857D02*
X64591430Y-120474286D01*
X64662858Y-120545714D01*
X64734287Y-120688571D01*
X64734287Y-120902857D01*
X64662858Y-121045714D01*
X64591430Y-121117143D01*
X64448572Y-121188571D01*
X63877144Y-121188571D01*
X63877144Y-119688571D01*
X64377144Y-119688571D01*
X64520001Y-119760000D01*
X64591430Y-119831429D01*
X64662858Y-119974286D01*
X64662858Y-120117143D01*
X64591430Y-120260000D01*
X64520001Y-120331429D01*
X64377144Y-120402857D01*
X63877144Y-120402857D01*
X65662858Y-120474286D02*
X65662858Y-121188571D01*
X65162858Y-119688571D02*
X65662858Y-120474286D01*
X66162858Y-119688571D01*
X66662858Y-120617143D02*
X67805715Y-120617143D01*
X68448572Y-121117143D02*
X68662858Y-121188571D01*
X69020001Y-121188571D01*
X69162858Y-121117143D01*
X69234287Y-121045714D01*
X69305715Y-120902857D01*
X69305715Y-120760000D01*
X69234287Y-120617143D01*
X69162858Y-120545714D01*
X69020001Y-120474286D01*
X68734287Y-120402857D01*
X68591429Y-120331429D01*
X68520001Y-120260000D01*
X68448572Y-120117143D01*
X68448572Y-119974286D01*
X68520001Y-119831429D01*
X68591429Y-119760000D01*
X68734287Y-119688571D01*
X69091429Y-119688571D01*
X69305715Y-119760000D01*
X69877143Y-120760000D02*
X70591429Y-120760000D01*
X69734286Y-121188571D02*
X70234286Y-119688571D01*
X70734286Y-121188571D01*
D12*
X127516000Y-55713000D02*
X128516000Y-55713000D01*
X128516000Y-57063000D02*
X127516000Y-57063000D01*
X125897000Y-62746000D02*
X125897000Y-63746000D01*
X124547000Y-63746000D02*
X124547000Y-62746000D01*
X126344000Y-59376000D02*
X132544000Y-59376000D01*
X127044000Y-64576000D02*
X132544000Y-64576000D01*
X129567940Y-54588860D02*
X129918460Y-54588860D01*
X133068060Y-54588860D02*
X132717540Y-54588860D01*
X129567940Y-58638440D02*
X129918460Y-58638440D01*
X129567940Y-54137560D02*
X129918460Y-54137560D01*
X133068060Y-54137560D02*
X132717540Y-54137560D01*
X133068060Y-58638440D02*
X132717540Y-58638440D01*
X129567940Y-54137560D02*
X129567940Y-58638440D01*
X133068060Y-54137560D02*
X133068060Y-58638440D01*
X129116000Y-57362000D02*
X127216000Y-57362000D01*
X129116000Y-58462000D02*
X127216000Y-58462000D01*
X128216000Y-57912000D02*
X127766000Y-57912000D01*
X128266000Y-58162000D02*
X128266000Y-57662000D01*
X128266000Y-57912000D02*
X128016000Y-58162000D01*
X128016000Y-58162000D02*
X128016000Y-57662000D01*
X128016000Y-57662000D02*
X128266000Y-57912000D01*
X127008000Y-55206000D02*
X128008000Y-55206000D01*
X128008000Y-53506000D02*
X127008000Y-53506000D01*
X127008000Y-103974000D02*
X128008000Y-103974000D01*
X128008000Y-102274000D02*
X127008000Y-102274000D01*
X129116000Y-106130000D02*
X127216000Y-106130000D01*
X129116000Y-107230000D02*
X127216000Y-107230000D01*
X128216000Y-106680000D02*
X127766000Y-106680000D01*
X128266000Y-106930000D02*
X128266000Y-106430000D01*
X128266000Y-106680000D02*
X128016000Y-106930000D01*
X128016000Y-106930000D02*
X128016000Y-106430000D01*
X128016000Y-106430000D02*
X128266000Y-106680000D01*
X129567940Y-103356860D02*
X129918460Y-103356860D01*
X133068060Y-103356860D02*
X132717540Y-103356860D01*
X129567940Y-107406440D02*
X129918460Y-107406440D01*
X129567940Y-102905560D02*
X129918460Y-102905560D01*
X133068060Y-102905560D02*
X132717540Y-102905560D01*
X133068060Y-107406440D02*
X132717540Y-107406440D01*
X129567940Y-102905560D02*
X129567940Y-107406440D01*
X133068060Y-102905560D02*
X133068060Y-107406440D01*
X126344000Y-108144000D02*
X132544000Y-108144000D01*
X127044000Y-113344000D02*
X132544000Y-113344000D01*
X125897000Y-111514000D02*
X125897000Y-112514000D01*
X124547000Y-112514000D02*
X124547000Y-111514000D01*
X127516000Y-104481000D02*
X128516000Y-104481000D01*
X128516000Y-105831000D02*
X127516000Y-105831000D01*
X127516000Y-116673000D02*
X128516000Y-116673000D01*
X128516000Y-118023000D02*
X127516000Y-118023000D01*
X125897000Y-123706000D02*
X125897000Y-124706000D01*
X124547000Y-124706000D02*
X124547000Y-123706000D01*
X126344000Y-120336000D02*
X132544000Y-120336000D01*
X127044000Y-125536000D02*
X132544000Y-125536000D01*
X129567940Y-115548860D02*
X129918460Y-115548860D01*
X133068060Y-115548860D02*
X132717540Y-115548860D01*
X129567940Y-119598440D02*
X129918460Y-119598440D01*
X129567940Y-115097560D02*
X129918460Y-115097560D01*
X133068060Y-115097560D02*
X132717540Y-115097560D01*
X133068060Y-119598440D02*
X132717540Y-119598440D01*
X129567940Y-115097560D02*
X129567940Y-119598440D01*
X133068060Y-115097560D02*
X133068060Y-119598440D01*
X129116000Y-118322000D02*
X127216000Y-118322000D01*
X129116000Y-119422000D02*
X127216000Y-119422000D01*
X128216000Y-118872000D02*
X127766000Y-118872000D01*
X128266000Y-119122000D02*
X128266000Y-118622000D01*
X128266000Y-118872000D02*
X128016000Y-119122000D01*
X128016000Y-119122000D02*
X128016000Y-118622000D01*
X128016000Y-118622000D02*
X128266000Y-118872000D01*
X127008000Y-116166000D02*
X128008000Y-116166000D01*
X128008000Y-114466000D02*
X127008000Y-114466000D01*
X127008000Y-67398000D02*
X128008000Y-67398000D01*
X128008000Y-65698000D02*
X127008000Y-65698000D01*
X129116000Y-69554000D02*
X127216000Y-69554000D01*
X129116000Y-70654000D02*
X127216000Y-70654000D01*
X128216000Y-70104000D02*
X127766000Y-70104000D01*
X128266000Y-70354000D02*
X128266000Y-69854000D01*
X128266000Y-70104000D02*
X128016000Y-70354000D01*
X128016000Y-70354000D02*
X128016000Y-69854000D01*
X128016000Y-69854000D02*
X128266000Y-70104000D01*
X129567940Y-66780860D02*
X129918460Y-66780860D01*
X133068060Y-66780860D02*
X132717540Y-66780860D01*
X129567940Y-70830440D02*
X129918460Y-70830440D01*
X129567940Y-66329560D02*
X129918460Y-66329560D01*
X133068060Y-66329560D02*
X132717540Y-66329560D01*
X133068060Y-70830440D02*
X132717540Y-70830440D01*
X129567940Y-66329560D02*
X129567940Y-70830440D01*
X133068060Y-66329560D02*
X133068060Y-70830440D01*
X126344000Y-71568000D02*
X132544000Y-71568000D01*
X127044000Y-76768000D02*
X132544000Y-76768000D01*
X125897000Y-74938000D02*
X125897000Y-75938000D01*
X124547000Y-75938000D02*
X124547000Y-74938000D01*
X127516000Y-67905000D02*
X128516000Y-67905000D01*
X128516000Y-69255000D02*
X127516000Y-69255000D01*
X127516000Y-43521000D02*
X128516000Y-43521000D01*
X128516000Y-44871000D02*
X127516000Y-44871000D01*
X125897000Y-50554000D02*
X125897000Y-51554000D01*
X124547000Y-51554000D02*
X124547000Y-50554000D01*
X126344000Y-47184000D02*
X132544000Y-47184000D01*
X127044000Y-52384000D02*
X132544000Y-52384000D01*
X129567940Y-42396860D02*
X129918460Y-42396860D01*
X133068060Y-42396860D02*
X132717540Y-42396860D01*
X129567940Y-46446440D02*
X129918460Y-46446440D01*
X129567940Y-41945560D02*
X129918460Y-41945560D01*
X133068060Y-41945560D02*
X132717540Y-41945560D01*
X133068060Y-46446440D02*
X132717540Y-46446440D01*
X129567940Y-41945560D02*
X129567940Y-46446440D01*
X133068060Y-41945560D02*
X133068060Y-46446440D01*
X129116000Y-45170000D02*
X127216000Y-45170000D01*
X129116000Y-46270000D02*
X127216000Y-46270000D01*
X128216000Y-45720000D02*
X127766000Y-45720000D01*
X128266000Y-45970000D02*
X128266000Y-45470000D01*
X128266000Y-45720000D02*
X128016000Y-45970000D01*
X128016000Y-45970000D02*
X128016000Y-45470000D01*
X128016000Y-45470000D02*
X128266000Y-45720000D01*
X127008000Y-43014000D02*
X128008000Y-43014000D01*
X128008000Y-41314000D02*
X127008000Y-41314000D01*
X127008000Y-91782000D02*
X128008000Y-91782000D01*
X128008000Y-90082000D02*
X127008000Y-90082000D01*
X129116000Y-93938000D02*
X127216000Y-93938000D01*
X129116000Y-95038000D02*
X127216000Y-95038000D01*
X128216000Y-94488000D02*
X127766000Y-94488000D01*
X128266000Y-94738000D02*
X128266000Y-94238000D01*
X128266000Y-94488000D02*
X128016000Y-94738000D01*
X128016000Y-94738000D02*
X128016000Y-94238000D01*
X128016000Y-94238000D02*
X128266000Y-94488000D01*
X129567940Y-91164860D02*
X129918460Y-91164860D01*
X133068060Y-91164860D02*
X132717540Y-91164860D01*
X129567940Y-95214440D02*
X129918460Y-95214440D01*
X129567940Y-90713560D02*
X129918460Y-90713560D01*
X133068060Y-90713560D02*
X132717540Y-90713560D01*
X133068060Y-95214440D02*
X132717540Y-95214440D01*
X129567940Y-90713560D02*
X129567940Y-95214440D01*
X133068060Y-90713560D02*
X133068060Y-95214440D01*
X126344000Y-95952000D02*
X132544000Y-95952000D01*
X127044000Y-101152000D02*
X132544000Y-101152000D01*
X125897000Y-99322000D02*
X125897000Y-100322000D01*
X124547000Y-100322000D02*
X124547000Y-99322000D01*
X127516000Y-92289000D02*
X128516000Y-92289000D01*
X128516000Y-93639000D02*
X127516000Y-93639000D01*
X127516000Y-80097000D02*
X128516000Y-80097000D01*
X128516000Y-81447000D02*
X127516000Y-81447000D01*
X125897000Y-87130000D02*
X125897000Y-88130000D01*
X124547000Y-88130000D02*
X124547000Y-87130000D01*
X126344000Y-83760000D02*
X132544000Y-83760000D01*
X127044000Y-88960000D02*
X132544000Y-88960000D01*
X129567940Y-78972860D02*
X129918460Y-78972860D01*
X133068060Y-78972860D02*
X132717540Y-78972860D01*
X129567940Y-83022440D02*
X129918460Y-83022440D01*
X129567940Y-78521560D02*
X129918460Y-78521560D01*
X133068060Y-78521560D02*
X132717540Y-78521560D01*
X133068060Y-83022440D02*
X132717540Y-83022440D01*
X129567940Y-78521560D02*
X129567940Y-83022440D01*
X133068060Y-78521560D02*
X133068060Y-83022440D01*
X129116000Y-81746000D02*
X127216000Y-81746000D01*
X129116000Y-82846000D02*
X127216000Y-82846000D01*
X128216000Y-82296000D02*
X127766000Y-82296000D01*
X128266000Y-82546000D02*
X128266000Y-82046000D01*
X128266000Y-82296000D02*
X128016000Y-82546000D01*
X128016000Y-82546000D02*
X128016000Y-82046000D01*
X128016000Y-82046000D02*
X128266000Y-82296000D01*
X127008000Y-79590000D02*
X128008000Y-79590000D01*
X128008000Y-77890000D02*
X127008000Y-77890000D01*
X103640000Y-125056000D02*
X104640000Y-125056000D01*
X104640000Y-123356000D02*
X103640000Y-123356000D01*
X49745000Y-39235000D02*
X49745000Y-38235000D01*
X48045000Y-38235000D02*
X48045000Y-39235000D01*
X76362000Y-45054000D02*
X76362000Y-44354000D01*
X77562000Y-44354000D02*
X77562000Y-45054000D01*
X114712000Y-81188000D02*
X115412000Y-81188000D01*
X115412000Y-82388000D02*
X114712000Y-82388000D01*
X127008000Y-30822000D02*
X128008000Y-30822000D01*
X128008000Y-29122000D02*
X127008000Y-29122000D01*
X47848000Y-60544000D02*
X47148000Y-60544000D01*
X47148000Y-59344000D02*
X47848000Y-59344000D01*
X47848000Y-74768000D02*
X47148000Y-74768000D01*
X47148000Y-73568000D02*
X47848000Y-73568000D01*
X50896000Y-65624000D02*
X50196000Y-65624000D01*
X50196000Y-64424000D02*
X50896000Y-64424000D01*
X50896000Y-79848000D02*
X50196000Y-79848000D01*
X50196000Y-78648000D02*
X50896000Y-78648000D01*
X47848000Y-88992000D02*
X47148000Y-88992000D01*
X47148000Y-87792000D02*
X47848000Y-87792000D01*
X47848000Y-103216000D02*
X47148000Y-103216000D01*
X47148000Y-102016000D02*
X47848000Y-102016000D01*
X50896000Y-94072000D02*
X50196000Y-94072000D01*
X50196000Y-92872000D02*
X50896000Y-92872000D01*
X50896000Y-108296000D02*
X50196000Y-108296000D01*
X50196000Y-107096000D02*
X50896000Y-107096000D01*
X111344000Y-63150000D02*
X111344000Y-63850000D01*
X110144000Y-63850000D02*
X110144000Y-63150000D01*
X90516000Y-92868000D02*
X90516000Y-93568000D01*
X89316000Y-93568000D02*
X89316000Y-92868000D01*
X80356000Y-90074000D02*
X80356000Y-90774000D01*
X79156000Y-90774000D02*
X79156000Y-90074000D01*
X129116000Y-32978000D02*
X127216000Y-32978000D01*
X129116000Y-34078000D02*
X127216000Y-34078000D01*
X128216000Y-33528000D02*
X127766000Y-33528000D01*
X128266000Y-33778000D02*
X128266000Y-33278000D01*
X128266000Y-33528000D02*
X128016000Y-33778000D01*
X128016000Y-33778000D02*
X128016000Y-33278000D01*
X128016000Y-33278000D02*
X128266000Y-33528000D01*
X129567940Y-30204860D02*
X129918460Y-30204860D01*
X133068060Y-30204860D02*
X132717540Y-30204860D01*
X129567940Y-34254440D02*
X129918460Y-34254440D01*
X129567940Y-29753560D02*
X129918460Y-29753560D01*
X133068060Y-29753560D02*
X132717540Y-29753560D01*
X133068060Y-34254440D02*
X132717540Y-34254440D01*
X129567940Y-29753560D02*
X129567940Y-34254440D01*
X133068060Y-29753560D02*
X133068060Y-34254440D01*
X110490000Y-107950000D02*
X110490000Y-92710000D01*
X110490000Y-92710000D02*
X107950000Y-92710000D01*
X107950000Y-92710000D02*
X107950000Y-107950000D01*
X110770000Y-110770000D02*
X110770000Y-109220000D01*
X110490000Y-107950000D02*
X107950000Y-107950000D01*
X107670000Y-109220000D02*
X107670000Y-110770000D01*
X107670000Y-110770000D02*
X110770000Y-110770000D01*
X62738000Y-107950000D02*
X62738000Y-92710000D01*
X62738000Y-92710000D02*
X60198000Y-92710000D01*
X60198000Y-92710000D02*
X60198000Y-107950000D01*
X63018000Y-110770000D02*
X63018000Y-109220000D01*
X62738000Y-107950000D02*
X60198000Y-107950000D01*
X59918000Y-109220000D02*
X59918000Y-110770000D01*
X59918000Y-110770000D02*
X63018000Y-110770000D01*
X53959760Y-32355840D02*
X53959760Y-32404100D01*
X54660800Y-35154820D02*
X53959760Y-35154820D01*
X53959760Y-35154820D02*
X53959760Y-34905900D01*
X53959760Y-32355840D02*
X53959760Y-32155180D01*
X53959760Y-32155180D02*
X54660800Y-32155180D01*
X126344000Y-34992000D02*
X132544000Y-34992000D01*
X127044000Y-40192000D02*
X132544000Y-40192000D01*
X53115160Y-49133760D02*
X53066900Y-49133760D01*
X50316180Y-49834800D02*
X50316180Y-49133760D01*
X50316180Y-49133760D02*
X50565100Y-49133760D01*
X53115160Y-49133760D02*
X53315820Y-49133760D01*
X53315820Y-49133760D02*
X53315820Y-49834800D01*
X57825000Y-33155000D02*
X57825000Y-34155000D01*
X56475000Y-34155000D02*
X56475000Y-33155000D01*
X69604000Y-41489000D02*
X70604000Y-41489000D01*
X70604000Y-42839000D02*
X69604000Y-42839000D01*
X125897000Y-38362000D02*
X125897000Y-39362000D01*
X124547000Y-39362000D02*
X124547000Y-38362000D01*
X127516000Y-31329000D02*
X128516000Y-31329000D01*
X128516000Y-32679000D02*
X127516000Y-32679000D01*
X51046000Y-60619000D02*
X50046000Y-60619000D01*
X50046000Y-59269000D02*
X51046000Y-59269000D01*
X51046000Y-74843000D02*
X50046000Y-74843000D01*
X50046000Y-73493000D02*
X51046000Y-73493000D01*
X51316000Y-51649000D02*
X52316000Y-51649000D01*
X52316000Y-52999000D02*
X51316000Y-52999000D01*
X51046000Y-89067000D02*
X50046000Y-89067000D01*
X50046000Y-87717000D02*
X51046000Y-87717000D01*
X51046000Y-103291000D02*
X50046000Y-103291000D01*
X50046000Y-101941000D02*
X51046000Y-101941000D01*
X113197000Y-63000000D02*
X113197000Y-64000000D01*
X111847000Y-64000000D02*
X111847000Y-63000000D01*
X87463000Y-93718000D02*
X87463000Y-92718000D01*
X88813000Y-92718000D02*
X88813000Y-93718000D01*
X93718000Y-93131000D02*
X92718000Y-93131000D01*
X92718000Y-91781000D02*
X93718000Y-91781000D01*
X77303000Y-90924000D02*
X77303000Y-89924000D01*
X78653000Y-89924000D02*
X78653000Y-90924000D01*
X75525000Y-90924000D02*
X75525000Y-89924000D01*
X76875000Y-89924000D02*
X76875000Y-90924000D01*
X70763000Y-36171000D02*
X70513000Y-36171000D01*
X70763000Y-39521000D02*
X70513000Y-39521000D01*
X67413000Y-39521000D02*
X67663000Y-39521000D01*
X67413000Y-36171000D02*
X67663000Y-36171000D01*
X70763000Y-36171000D02*
X70763000Y-39521000D01*
X67413000Y-36171000D02*
X67413000Y-39521000D01*
X70513000Y-36171000D02*
X70513000Y-34921000D01*
X73968000Y-43004000D02*
G75*
G03X73968000Y-43004000I-100000J0D01*
G01*
X74418000Y-43254000D02*
X73918000Y-43254000D01*
X74418000Y-46154000D02*
X74418000Y-43254000D01*
X73918000Y-46154000D02*
X74418000Y-46154000D01*
X73918000Y-43254000D02*
X73918000Y-46154000D01*
X118437000Y-84013000D02*
X118437000Y-79563000D01*
X111687000Y-85538000D02*
X111687000Y-79563000D01*
X106904840Y-64404240D02*
X106953100Y-64404240D01*
X109703820Y-63703200D02*
X109703820Y-64404240D01*
X109703820Y-64404240D02*
X109454900Y-64404240D01*
X106904840Y-64404240D02*
X106704180Y-64404240D01*
X106704180Y-64404240D02*
X106704180Y-63703200D01*
X87838000Y-94658000D02*
X87838000Y-94958000D01*
X87838000Y-94958000D02*
X87538000Y-94958000D01*
X88738000Y-96858000D02*
X88738000Y-94658000D01*
X88738000Y-94658000D02*
X87538000Y-94658000D01*
X87538000Y-94658000D02*
X87538000Y-96858000D01*
X87538000Y-96858000D02*
X88738000Y-96858000D01*
X91397000Y-95763000D02*
X91397000Y-95868000D01*
X95547000Y-95763000D02*
X95547000Y-95868000D01*
X95547000Y-105913000D02*
X95547000Y-105808000D01*
X91397000Y-105913000D02*
X91397000Y-105808000D01*
X91397000Y-95763000D02*
X95547000Y-95763000D01*
X91397000Y-105913000D02*
X95547000Y-105913000D01*
X91397000Y-95868000D02*
X90022000Y-95868000D01*
X82596000Y-93048000D02*
X82596000Y-92748000D01*
X82596000Y-92748000D02*
X82896000Y-92748000D01*
X81696000Y-90848000D02*
X81696000Y-93048000D01*
X81696000Y-93048000D02*
X82896000Y-93048000D01*
X82896000Y-93048000D02*
X82896000Y-90848000D01*
X82896000Y-90848000D02*
X81696000Y-90848000D01*
X72196000Y-33704000D02*
X67896000Y-33704000D01*
X66946000Y-30304000D02*
X72196000Y-30304000D01*
X97917000Y-79883000D02*
X97917000Y-70993000D01*
X97917000Y-70993000D02*
X105537000Y-70993000D01*
X97917000Y-79883000D02*
X105537000Y-79883000D01*
X97472000Y-91313000D02*
X97472000Y-90043000D01*
X89472000Y-91313000D02*
X89472000Y-90043000D01*
X97472000Y-91313000D02*
X89472000Y-91313000D01*
X85972000Y-25813000D02*
X85972000Y-27813000D01*
X100972000Y-25813000D02*
X100972000Y-27813000D01*
X100972000Y-25813000D02*
X85972000Y-25813000D01*
X105972000Y-29718000D02*
G75*
G03X104067000Y-27813000I-1905000J0D01*
G01*
X105972000Y-88138000D02*
X105972000Y-29718000D01*
X104067000Y-90043000D02*
G75*
G03X105972000Y-88138000I0J1905000D01*
G01*
X80972000Y-88138000D02*
G75*
G03X82877000Y-90043000I1905000J0D01*
G01*
X82877000Y-27813000D02*
G75*
G03X80972000Y-29718000I0J-1905000D01*
G01*
X80972000Y-88138000D02*
X80972000Y-29718000D01*
X104067000Y-90043000D02*
X82877000Y-90043000D01*
X104067000Y-27813000D02*
X82877000Y-27813000D01*
X46255940Y-48746860D02*
X46606460Y-48746860D01*
X49756060Y-48746860D02*
X49405540Y-48746860D01*
X46255940Y-52796440D02*
X46606460Y-52796440D01*
X46255940Y-48295560D02*
X46606460Y-48295560D01*
X49756060Y-48295560D02*
X49405540Y-48295560D01*
X49756060Y-52796440D02*
X49405540Y-52796440D01*
X46255940Y-48295560D02*
X46255940Y-52796440D01*
X49756060Y-48295560D02*
X49756060Y-52796440D01*
D13*
X77216000Y-30310000D02*
X79458000Y-30310000D01*
X76200000Y-30810000D02*
X77216000Y-30310000D01*
X73958000Y-30810000D02*
X76200000Y-30810000D01*
X73958000Y-40310000D02*
X76200000Y-40310000D01*
X76200000Y-40310000D02*
X77216000Y-40810000D01*
X77216000Y-40810000D02*
X79458000Y-40810000D01*
X73958000Y-30810000D02*
X73958000Y-40310000D01*
X79458000Y-40810000D02*
X79458000Y-30310000D01*
D14*
X124961714Y-56749905D02*
X124695047Y-56368952D01*
X124504571Y-56749905D02*
X124504571Y-55949905D01*
X124809333Y-55949905D01*
X124885524Y-55988000D01*
X124923619Y-56026095D01*
X124961714Y-56102286D01*
X124961714Y-56216571D01*
X124923619Y-56292762D01*
X124885524Y-56330857D01*
X124809333Y-56368952D01*
X124504571Y-56368952D01*
X125723619Y-56749905D02*
X125266476Y-56749905D01*
X125495047Y-56749905D02*
X125495047Y-55949905D01*
X125418857Y-56064190D01*
X125342666Y-56140381D01*
X125266476Y-56178476D01*
X125990286Y-55949905D02*
X126485524Y-55949905D01*
X126218857Y-56254667D01*
X126333143Y-56254667D01*
X126409333Y-56292762D01*
X126447429Y-56330857D01*
X126485524Y-56407048D01*
X126485524Y-56597524D01*
X126447429Y-56673714D01*
X126409333Y-56711810D01*
X126333143Y-56749905D01*
X126104571Y-56749905D01*
X126028381Y-56711810D01*
X125990286Y-56673714D01*
X124707714Y-61575905D02*
X124441047Y-61194952D01*
X124250571Y-61575905D02*
X124250571Y-60775905D01*
X124555333Y-60775905D01*
X124631524Y-60814000D01*
X124669619Y-60852095D01*
X124707714Y-60928286D01*
X124707714Y-61042571D01*
X124669619Y-61118762D01*
X124631524Y-61156857D01*
X124555333Y-61194952D01*
X124250571Y-61194952D01*
X125469619Y-61575905D02*
X125012476Y-61575905D01*
X125241047Y-61575905D02*
X125241047Y-60775905D01*
X125164857Y-60890190D01*
X125088666Y-60966381D01*
X125012476Y-61004476D01*
X126231524Y-61575905D02*
X125774381Y-61575905D01*
X126002952Y-61575905D02*
X126002952Y-60775905D01*
X125926762Y-60890190D01*
X125850571Y-60966381D01*
X125774381Y-61004476D01*
X134035810Y-63684095D02*
X133959619Y-63646000D01*
X133883429Y-63569810D01*
X133769143Y-63455524D01*
X133692952Y-63417429D01*
X133616762Y-63417429D01*
X133654857Y-63607905D02*
X133578667Y-63569810D01*
X133502476Y-63493619D01*
X133464381Y-63341238D01*
X133464381Y-63074571D01*
X133502476Y-62922190D01*
X133578667Y-62846000D01*
X133654857Y-62807905D01*
X133807238Y-62807905D01*
X133883429Y-62846000D01*
X133959619Y-62922190D01*
X133997714Y-63074571D01*
X133997714Y-63341238D01*
X133959619Y-63493619D01*
X133883429Y-63569810D01*
X133807238Y-63607905D01*
X133654857Y-63607905D01*
X134683428Y-62807905D02*
X134531047Y-62807905D01*
X134454857Y-62846000D01*
X134416762Y-62884095D01*
X134340571Y-62998381D01*
X134302476Y-63150762D01*
X134302476Y-63455524D01*
X134340571Y-63531714D01*
X134378666Y-63569810D01*
X134454857Y-63607905D01*
X134607238Y-63607905D01*
X134683428Y-63569810D01*
X134721524Y-63531714D01*
X134759619Y-63455524D01*
X134759619Y-63265048D01*
X134721524Y-63188857D01*
X134683428Y-63150762D01*
X134607238Y-63112667D01*
X134454857Y-63112667D01*
X134378666Y-63150762D01*
X134340571Y-63188857D01*
X134302476Y-63265048D01*
X133394571Y-54971905D02*
X133394571Y-54171905D01*
X133585047Y-54171905D01*
X133699333Y-54210000D01*
X133775524Y-54286190D01*
X133813619Y-54362381D01*
X133851714Y-54514762D01*
X133851714Y-54629048D01*
X133813619Y-54781429D01*
X133775524Y-54857619D01*
X133699333Y-54933810D01*
X133585047Y-54971905D01*
X133394571Y-54971905D01*
X134613619Y-54971905D02*
X134156476Y-54971905D01*
X134385047Y-54971905D02*
X134385047Y-54171905D01*
X134308857Y-54286190D01*
X134232666Y-54362381D01*
X134156476Y-54400476D01*
X135375524Y-54971905D02*
X134918381Y-54971905D01*
X135146952Y-54971905D02*
X135146952Y-54171905D01*
X135070762Y-54286190D01*
X134994571Y-54362381D01*
X134918381Y-54400476D01*
X125139524Y-58273905D02*
X125139524Y-57473905D01*
X125330000Y-57473905D01*
X125444286Y-57512000D01*
X125520477Y-57588190D01*
X125558572Y-57664381D01*
X125596667Y-57816762D01*
X125596667Y-57931048D01*
X125558572Y-58083429D01*
X125520477Y-58159619D01*
X125444286Y-58235810D01*
X125330000Y-58273905D01*
X125139524Y-58273905D01*
X125977619Y-58273905D02*
X126130000Y-58273905D01*
X126206191Y-58235810D01*
X126244286Y-58197714D01*
X126320477Y-58083429D01*
X126358572Y-57931048D01*
X126358572Y-57626286D01*
X126320477Y-57550095D01*
X126282381Y-57512000D01*
X126206191Y-57473905D01*
X126053810Y-57473905D01*
X125977619Y-57512000D01*
X125939524Y-57550095D01*
X125901429Y-57626286D01*
X125901429Y-57816762D01*
X125939524Y-57892952D01*
X125977619Y-57931048D01*
X126053810Y-57969143D01*
X126206191Y-57969143D01*
X126282381Y-57931048D01*
X126320477Y-57892952D01*
X126358572Y-57816762D01*
X123945714Y-53371714D02*
X123907619Y-53409810D01*
X123793333Y-53447905D01*
X123717143Y-53447905D01*
X123602857Y-53409810D01*
X123526666Y-53333619D01*
X123488571Y-53257429D01*
X123450476Y-53105048D01*
X123450476Y-52990762D01*
X123488571Y-52838381D01*
X123526666Y-52762190D01*
X123602857Y-52686000D01*
X123717143Y-52647905D01*
X123793333Y-52647905D01*
X123907619Y-52686000D01*
X123945714Y-52724095D01*
X124707619Y-53447905D02*
X124250476Y-53447905D01*
X124479047Y-53447905D02*
X124479047Y-52647905D01*
X124402857Y-52762190D01*
X124326666Y-52838381D01*
X124250476Y-52876476D01*
X125469524Y-53447905D02*
X125012381Y-53447905D01*
X125240952Y-53447905D02*
X125240952Y-52647905D01*
X125164762Y-52762190D01*
X125088571Y-52838381D01*
X125012381Y-52876476D01*
X123945714Y-103409714D02*
X123907619Y-103447810D01*
X123793333Y-103485905D01*
X123717143Y-103485905D01*
X123602857Y-103447810D01*
X123526666Y-103371619D01*
X123488571Y-103295429D01*
X123450476Y-103143048D01*
X123450476Y-103028762D01*
X123488571Y-102876381D01*
X123526666Y-102800190D01*
X123602857Y-102724000D01*
X123717143Y-102685905D01*
X123793333Y-102685905D01*
X123907619Y-102724000D01*
X123945714Y-102762095D01*
X124707619Y-103485905D02*
X124250476Y-103485905D01*
X124479047Y-103485905D02*
X124479047Y-102685905D01*
X124402857Y-102800190D01*
X124326666Y-102876381D01*
X124250476Y-102914476D01*
X125012381Y-102762095D02*
X125050476Y-102724000D01*
X125126667Y-102685905D01*
X125317143Y-102685905D01*
X125393333Y-102724000D01*
X125431429Y-102762095D01*
X125469524Y-102838286D01*
X125469524Y-102914476D01*
X125431429Y-103028762D01*
X124974286Y-103485905D01*
X125469524Y-103485905D01*
X124504571Y-107041905D02*
X124504571Y-106241905D01*
X124695047Y-106241905D01*
X124809333Y-106280000D01*
X124885524Y-106356190D01*
X124923619Y-106432381D01*
X124961714Y-106584762D01*
X124961714Y-106699048D01*
X124923619Y-106851429D01*
X124885524Y-106927619D01*
X124809333Y-107003810D01*
X124695047Y-107041905D01*
X124504571Y-107041905D01*
X125723619Y-107041905D02*
X125266476Y-107041905D01*
X125495047Y-107041905D02*
X125495047Y-106241905D01*
X125418857Y-106356190D01*
X125342666Y-106432381D01*
X125266476Y-106470476D01*
X126218857Y-106241905D02*
X126295048Y-106241905D01*
X126371238Y-106280000D01*
X126409333Y-106318095D01*
X126447429Y-106394286D01*
X126485524Y-106546667D01*
X126485524Y-106737143D01*
X126447429Y-106889524D01*
X126409333Y-106965714D01*
X126371238Y-107003810D01*
X126295048Y-107041905D01*
X126218857Y-107041905D01*
X126142667Y-107003810D01*
X126104571Y-106965714D01*
X126066476Y-106889524D01*
X126028381Y-106737143D01*
X126028381Y-106546667D01*
X126066476Y-106394286D01*
X126104571Y-106318095D01*
X126142667Y-106280000D01*
X126218857Y-106241905D01*
X133394571Y-103739905D02*
X133394571Y-102939905D01*
X133585047Y-102939905D01*
X133699333Y-102978000D01*
X133775524Y-103054190D01*
X133813619Y-103130381D01*
X133851714Y-103282762D01*
X133851714Y-103397048D01*
X133813619Y-103549429D01*
X133775524Y-103625619D01*
X133699333Y-103701810D01*
X133585047Y-103739905D01*
X133394571Y-103739905D01*
X134613619Y-103739905D02*
X134156476Y-103739905D01*
X134385047Y-103739905D02*
X134385047Y-102939905D01*
X134308857Y-103054190D01*
X134232666Y-103130381D01*
X134156476Y-103168476D01*
X134918381Y-103016095D02*
X134956476Y-102978000D01*
X135032667Y-102939905D01*
X135223143Y-102939905D01*
X135299333Y-102978000D01*
X135337429Y-103016095D01*
X135375524Y-103092286D01*
X135375524Y-103168476D01*
X135337429Y-103282762D01*
X134880286Y-103739905D01*
X135375524Y-103739905D01*
X134035810Y-112452095D02*
X133959619Y-112414000D01*
X133883429Y-112337810D01*
X133769143Y-112223524D01*
X133692952Y-112185429D01*
X133616762Y-112185429D01*
X133654857Y-112375905D02*
X133578667Y-112337810D01*
X133502476Y-112261619D01*
X133464381Y-112109238D01*
X133464381Y-111842571D01*
X133502476Y-111690190D01*
X133578667Y-111614000D01*
X133654857Y-111575905D01*
X133807238Y-111575905D01*
X133883429Y-111614000D01*
X133959619Y-111690190D01*
X133997714Y-111842571D01*
X133997714Y-112109238D01*
X133959619Y-112261619D01*
X133883429Y-112337810D01*
X133807238Y-112375905D01*
X133654857Y-112375905D01*
X134264381Y-111575905D02*
X134797714Y-111575905D01*
X134454857Y-112375905D01*
X122675714Y-113137905D02*
X122409047Y-112756952D01*
X122218571Y-113137905D02*
X122218571Y-112337905D01*
X122523333Y-112337905D01*
X122599524Y-112376000D01*
X122637619Y-112414095D01*
X122675714Y-112490286D01*
X122675714Y-112604571D01*
X122637619Y-112680762D01*
X122599524Y-112718857D01*
X122523333Y-112756952D01*
X122218571Y-112756952D01*
X123437619Y-113137905D02*
X122980476Y-113137905D01*
X123209047Y-113137905D02*
X123209047Y-112337905D01*
X123132857Y-112452190D01*
X123056666Y-112528381D01*
X122980476Y-112566476D01*
X123742381Y-112414095D02*
X123780476Y-112376000D01*
X123856667Y-112337905D01*
X124047143Y-112337905D01*
X124123333Y-112376000D01*
X124161429Y-112414095D01*
X124199524Y-112490286D01*
X124199524Y-112566476D01*
X124161429Y-112680762D01*
X123704286Y-113137905D01*
X124199524Y-113137905D01*
X124961714Y-105517905D02*
X124695047Y-105136952D01*
X124504571Y-105517905D02*
X124504571Y-104717905D01*
X124809333Y-104717905D01*
X124885524Y-104756000D01*
X124923619Y-104794095D01*
X124961714Y-104870286D01*
X124961714Y-104984571D01*
X124923619Y-105060762D01*
X124885524Y-105098857D01*
X124809333Y-105136952D01*
X124504571Y-105136952D01*
X125723619Y-105517905D02*
X125266476Y-105517905D01*
X125495047Y-105517905D02*
X125495047Y-104717905D01*
X125418857Y-104832190D01*
X125342666Y-104908381D01*
X125266476Y-104946476D01*
X126409333Y-104984571D02*
X126409333Y-105517905D01*
X126218857Y-104679810D02*
X126028381Y-105251238D01*
X126523619Y-105251238D01*
X124961714Y-117455905D02*
X124695047Y-117074952D01*
X124504571Y-117455905D02*
X124504571Y-116655905D01*
X124809333Y-116655905D01*
X124885524Y-116694000D01*
X124923619Y-116732095D01*
X124961714Y-116808286D01*
X124961714Y-116922571D01*
X124923619Y-116998762D01*
X124885524Y-117036857D01*
X124809333Y-117074952D01*
X124504571Y-117074952D01*
X125723619Y-117455905D02*
X125266476Y-117455905D01*
X125495047Y-117455905D02*
X125495047Y-116655905D01*
X125418857Y-116770190D01*
X125342666Y-116846381D01*
X125266476Y-116884476D01*
X126180762Y-116998762D02*
X126104571Y-116960667D01*
X126066476Y-116922571D01*
X126028381Y-116846381D01*
X126028381Y-116808286D01*
X126066476Y-116732095D01*
X126104571Y-116694000D01*
X126180762Y-116655905D01*
X126333143Y-116655905D01*
X126409333Y-116694000D01*
X126447429Y-116732095D01*
X126485524Y-116808286D01*
X126485524Y-116846381D01*
X126447429Y-116922571D01*
X126409333Y-116960667D01*
X126333143Y-116998762D01*
X126180762Y-116998762D01*
X126104571Y-117036857D01*
X126066476Y-117074952D01*
X126028381Y-117151143D01*
X126028381Y-117303524D01*
X126066476Y-117379714D01*
X126104571Y-117417810D01*
X126180762Y-117455905D01*
X126333143Y-117455905D01*
X126409333Y-117417810D01*
X126447429Y-117379714D01*
X126485524Y-117303524D01*
X126485524Y-117151143D01*
X126447429Y-117074952D01*
X126409333Y-117036857D01*
X126333143Y-116998762D01*
X124313905Y-124720286D02*
X123932952Y-124986953D01*
X124313905Y-125177429D02*
X123513905Y-125177429D01*
X123513905Y-124872667D01*
X123552000Y-124796476D01*
X123590095Y-124758381D01*
X123666286Y-124720286D01*
X123780571Y-124720286D01*
X123856762Y-124758381D01*
X123894857Y-124796476D01*
X123932952Y-124872667D01*
X123932952Y-125177429D01*
X124313905Y-123958381D02*
X124313905Y-124415524D01*
X124313905Y-124186953D02*
X123513905Y-124186953D01*
X123628190Y-124263143D01*
X123704381Y-124339334D01*
X123742476Y-124415524D01*
X123513905Y-123272667D02*
X123513905Y-123425048D01*
X123552000Y-123501238D01*
X123590095Y-123539333D01*
X123704381Y-123615524D01*
X123856762Y-123653619D01*
X124161524Y-123653619D01*
X124237714Y-123615524D01*
X124275810Y-123577429D01*
X124313905Y-123501238D01*
X124313905Y-123348857D01*
X124275810Y-123272667D01*
X124237714Y-123234571D01*
X124161524Y-123196476D01*
X123971048Y-123196476D01*
X123894857Y-123234571D01*
X123856762Y-123272667D01*
X123818667Y-123348857D01*
X123818667Y-123501238D01*
X123856762Y-123577429D01*
X123894857Y-123615524D01*
X123971048Y-123653619D01*
X134035810Y-124644095D02*
X133959619Y-124606000D01*
X133883429Y-124529810D01*
X133769143Y-124415524D01*
X133692952Y-124377429D01*
X133616762Y-124377429D01*
X133654857Y-124567905D02*
X133578667Y-124529810D01*
X133502476Y-124453619D01*
X133464381Y-124301238D01*
X133464381Y-124034571D01*
X133502476Y-123882190D01*
X133578667Y-123806000D01*
X133654857Y-123767905D01*
X133807238Y-123767905D01*
X133883429Y-123806000D01*
X133959619Y-123882190D01*
X133997714Y-124034571D01*
X133997714Y-124301238D01*
X133959619Y-124453619D01*
X133883429Y-124529810D01*
X133807238Y-124567905D01*
X133654857Y-124567905D01*
X134378666Y-124567905D02*
X134531047Y-124567905D01*
X134607238Y-124529810D01*
X134645333Y-124491714D01*
X134721524Y-124377429D01*
X134759619Y-124225048D01*
X134759619Y-123920286D01*
X134721524Y-123844095D01*
X134683428Y-123806000D01*
X134607238Y-123767905D01*
X134454857Y-123767905D01*
X134378666Y-123806000D01*
X134340571Y-123844095D01*
X134302476Y-123920286D01*
X134302476Y-124110762D01*
X134340571Y-124186952D01*
X134378666Y-124225048D01*
X134454857Y-124263143D01*
X134607238Y-124263143D01*
X134683428Y-124225048D01*
X134721524Y-124186952D01*
X134759619Y-124110762D01*
X133394571Y-115931905D02*
X133394571Y-115131905D01*
X133585047Y-115131905D01*
X133699333Y-115170000D01*
X133775524Y-115246190D01*
X133813619Y-115322381D01*
X133851714Y-115474762D01*
X133851714Y-115589048D01*
X133813619Y-115741429D01*
X133775524Y-115817619D01*
X133699333Y-115893810D01*
X133585047Y-115931905D01*
X133394571Y-115931905D01*
X134613619Y-115931905D02*
X134156476Y-115931905D01*
X134385047Y-115931905D02*
X134385047Y-115131905D01*
X134308857Y-115246190D01*
X134232666Y-115322381D01*
X134156476Y-115360476D01*
X135299333Y-115131905D02*
X135146952Y-115131905D01*
X135070762Y-115170000D01*
X135032667Y-115208095D01*
X134956476Y-115322381D01*
X134918381Y-115474762D01*
X134918381Y-115779524D01*
X134956476Y-115855714D01*
X134994571Y-115893810D01*
X135070762Y-115931905D01*
X135223143Y-115931905D01*
X135299333Y-115893810D01*
X135337429Y-115855714D01*
X135375524Y-115779524D01*
X135375524Y-115589048D01*
X135337429Y-115512857D01*
X135299333Y-115474762D01*
X135223143Y-115436667D01*
X135070762Y-115436667D01*
X134994571Y-115474762D01*
X134956476Y-115512857D01*
X134918381Y-115589048D01*
X124504571Y-118471905D02*
X124504571Y-117671905D01*
X124695047Y-117671905D01*
X124809333Y-117710000D01*
X124885524Y-117786190D01*
X124923619Y-117862381D01*
X124961714Y-118014762D01*
X124961714Y-118129048D01*
X124923619Y-118281429D01*
X124885524Y-118357619D01*
X124809333Y-118433810D01*
X124695047Y-118471905D01*
X124504571Y-118471905D01*
X125723619Y-118471905D02*
X125266476Y-118471905D01*
X125495047Y-118471905D02*
X125495047Y-117671905D01*
X125418857Y-117786190D01*
X125342666Y-117862381D01*
X125266476Y-117900476D01*
X126409333Y-117938571D02*
X126409333Y-118471905D01*
X126218857Y-117633810D02*
X126028381Y-118205238D01*
X126523619Y-118205238D01*
X123945714Y-115601714D02*
X123907619Y-115639810D01*
X123793333Y-115677905D01*
X123717143Y-115677905D01*
X123602857Y-115639810D01*
X123526666Y-115563619D01*
X123488571Y-115487429D01*
X123450476Y-115335048D01*
X123450476Y-115220762D01*
X123488571Y-115068381D01*
X123526666Y-114992190D01*
X123602857Y-114916000D01*
X123717143Y-114877905D01*
X123793333Y-114877905D01*
X123907619Y-114916000D01*
X123945714Y-114954095D01*
X124707619Y-115677905D02*
X124250476Y-115677905D01*
X124479047Y-115677905D02*
X124479047Y-114877905D01*
X124402857Y-114992190D01*
X124326666Y-115068381D01*
X124250476Y-115106476D01*
X125393333Y-115144571D02*
X125393333Y-115677905D01*
X125202857Y-114839810D02*
X125012381Y-115411238D01*
X125507619Y-115411238D01*
X123945714Y-66833714D02*
X123907619Y-66871810D01*
X123793333Y-66909905D01*
X123717143Y-66909905D01*
X123602857Y-66871810D01*
X123526666Y-66795619D01*
X123488571Y-66719429D01*
X123450476Y-66567048D01*
X123450476Y-66452762D01*
X123488571Y-66300381D01*
X123526666Y-66224190D01*
X123602857Y-66148000D01*
X123717143Y-66109905D01*
X123793333Y-66109905D01*
X123907619Y-66148000D01*
X123945714Y-66186095D01*
X124707619Y-66909905D02*
X124250476Y-66909905D01*
X124479047Y-66909905D02*
X124479047Y-66109905D01*
X124402857Y-66224190D01*
X124326666Y-66300381D01*
X124250476Y-66338476D01*
X124974286Y-66109905D02*
X125469524Y-66109905D01*
X125202857Y-66414667D01*
X125317143Y-66414667D01*
X125393333Y-66452762D01*
X125431429Y-66490857D01*
X125469524Y-66567048D01*
X125469524Y-66757524D01*
X125431429Y-66833714D01*
X125393333Y-66871810D01*
X125317143Y-66909905D01*
X125088571Y-66909905D01*
X125012381Y-66871810D01*
X124974286Y-66833714D01*
X124504571Y-70465905D02*
X124504571Y-69665905D01*
X124695047Y-69665905D01*
X124809333Y-69704000D01*
X124885524Y-69780190D01*
X124923619Y-69856381D01*
X124961714Y-70008762D01*
X124961714Y-70123048D01*
X124923619Y-70275429D01*
X124885524Y-70351619D01*
X124809333Y-70427810D01*
X124695047Y-70465905D01*
X124504571Y-70465905D01*
X125723619Y-70465905D02*
X125266476Y-70465905D01*
X125495047Y-70465905D02*
X125495047Y-69665905D01*
X125418857Y-69780190D01*
X125342666Y-69856381D01*
X125266476Y-69894476D01*
X125990286Y-69665905D02*
X126485524Y-69665905D01*
X126218857Y-69970667D01*
X126333143Y-69970667D01*
X126409333Y-70008762D01*
X126447429Y-70046857D01*
X126485524Y-70123048D01*
X126485524Y-70313524D01*
X126447429Y-70389714D01*
X126409333Y-70427810D01*
X126333143Y-70465905D01*
X126104571Y-70465905D01*
X126028381Y-70427810D01*
X125990286Y-70389714D01*
X133394571Y-67163905D02*
X133394571Y-66363905D01*
X133585047Y-66363905D01*
X133699333Y-66402000D01*
X133775524Y-66478190D01*
X133813619Y-66554381D01*
X133851714Y-66706762D01*
X133851714Y-66821048D01*
X133813619Y-66973429D01*
X133775524Y-67049619D01*
X133699333Y-67125810D01*
X133585047Y-67163905D01*
X133394571Y-67163905D01*
X134613619Y-67163905D02*
X134156476Y-67163905D01*
X134385047Y-67163905D02*
X134385047Y-66363905D01*
X134308857Y-66478190D01*
X134232666Y-66554381D01*
X134156476Y-66592476D01*
X135337429Y-66363905D02*
X134956476Y-66363905D01*
X134918381Y-66744857D01*
X134956476Y-66706762D01*
X135032667Y-66668667D01*
X135223143Y-66668667D01*
X135299333Y-66706762D01*
X135337429Y-66744857D01*
X135375524Y-66821048D01*
X135375524Y-67011524D01*
X135337429Y-67087714D01*
X135299333Y-67125810D01*
X135223143Y-67163905D01*
X135032667Y-67163905D01*
X134956476Y-67125810D01*
X134918381Y-67087714D01*
X134035810Y-75876095D02*
X133959619Y-75838000D01*
X133883429Y-75761810D01*
X133769143Y-75647524D01*
X133692952Y-75609429D01*
X133616762Y-75609429D01*
X133654857Y-75799905D02*
X133578667Y-75761810D01*
X133502476Y-75685619D01*
X133464381Y-75533238D01*
X133464381Y-75266571D01*
X133502476Y-75114190D01*
X133578667Y-75038000D01*
X133654857Y-74999905D01*
X133807238Y-74999905D01*
X133883429Y-75038000D01*
X133959619Y-75114190D01*
X133997714Y-75266571D01*
X133997714Y-75533238D01*
X133959619Y-75685619D01*
X133883429Y-75761810D01*
X133807238Y-75799905D01*
X133654857Y-75799905D01*
X134454857Y-75342762D02*
X134378666Y-75304667D01*
X134340571Y-75266571D01*
X134302476Y-75190381D01*
X134302476Y-75152286D01*
X134340571Y-75076095D01*
X134378666Y-75038000D01*
X134454857Y-74999905D01*
X134607238Y-74999905D01*
X134683428Y-75038000D01*
X134721524Y-75076095D01*
X134759619Y-75152286D01*
X134759619Y-75190381D01*
X134721524Y-75266571D01*
X134683428Y-75304667D01*
X134607238Y-75342762D01*
X134454857Y-75342762D01*
X134378666Y-75380857D01*
X134340571Y-75418952D01*
X134302476Y-75495143D01*
X134302476Y-75647524D01*
X134340571Y-75723714D01*
X134378666Y-75761810D01*
X134454857Y-75799905D01*
X134607238Y-75799905D01*
X134683428Y-75761810D01*
X134721524Y-75723714D01*
X134759619Y-75647524D01*
X134759619Y-75495143D01*
X134721524Y-75418952D01*
X134683428Y-75380857D01*
X134607238Y-75342762D01*
X122675714Y-76307905D02*
X122409047Y-75926952D01*
X122218571Y-76307905D02*
X122218571Y-75507905D01*
X122523333Y-75507905D01*
X122599524Y-75546000D01*
X122637619Y-75584095D01*
X122675714Y-75660286D01*
X122675714Y-75774571D01*
X122637619Y-75850762D01*
X122599524Y-75888857D01*
X122523333Y-75926952D01*
X122218571Y-75926952D01*
X123437619Y-76307905D02*
X122980476Y-76307905D01*
X123209047Y-76307905D02*
X123209047Y-75507905D01*
X123132857Y-75622190D01*
X123056666Y-75698381D01*
X122980476Y-75736476D01*
X124161429Y-75507905D02*
X123780476Y-75507905D01*
X123742381Y-75888857D01*
X123780476Y-75850762D01*
X123856667Y-75812667D01*
X124047143Y-75812667D01*
X124123333Y-75850762D01*
X124161429Y-75888857D01*
X124199524Y-75965048D01*
X124199524Y-76155524D01*
X124161429Y-76231714D01*
X124123333Y-76269810D01*
X124047143Y-76307905D01*
X123856667Y-76307905D01*
X123780476Y-76269810D01*
X123742381Y-76231714D01*
X124961714Y-68941905D02*
X124695047Y-68560952D01*
X124504571Y-68941905D02*
X124504571Y-68141905D01*
X124809333Y-68141905D01*
X124885524Y-68180000D01*
X124923619Y-68218095D01*
X124961714Y-68294286D01*
X124961714Y-68408571D01*
X124923619Y-68484762D01*
X124885524Y-68522857D01*
X124809333Y-68560952D01*
X124504571Y-68560952D01*
X125723619Y-68941905D02*
X125266476Y-68941905D01*
X125495047Y-68941905D02*
X125495047Y-68141905D01*
X125418857Y-68256190D01*
X125342666Y-68332381D01*
X125266476Y-68370476D01*
X125990286Y-68141905D02*
X126523619Y-68141905D01*
X126180762Y-68941905D01*
X125342667Y-44557905D02*
X125076000Y-44176952D01*
X124885524Y-44557905D02*
X124885524Y-43757905D01*
X125190286Y-43757905D01*
X125266477Y-43796000D01*
X125304572Y-43834095D01*
X125342667Y-43910286D01*
X125342667Y-44024571D01*
X125304572Y-44100762D01*
X125266477Y-44138857D01*
X125190286Y-44176952D01*
X124885524Y-44176952D01*
X125723619Y-44557905D02*
X125876000Y-44557905D01*
X125952191Y-44519810D01*
X125990286Y-44481714D01*
X126066477Y-44367429D01*
X126104572Y-44215048D01*
X126104572Y-43910286D01*
X126066477Y-43834095D01*
X126028381Y-43796000D01*
X125952191Y-43757905D01*
X125799810Y-43757905D01*
X125723619Y-43796000D01*
X125685524Y-43834095D01*
X125647429Y-43910286D01*
X125647429Y-44100762D01*
X125685524Y-44176952D01*
X125723619Y-44215048D01*
X125799810Y-44253143D01*
X125952191Y-44253143D01*
X126028381Y-44215048D01*
X126066477Y-44176952D01*
X126104572Y-44100762D01*
X125088667Y-49383905D02*
X124822000Y-49002952D01*
X124631524Y-49383905D02*
X124631524Y-48583905D01*
X124936286Y-48583905D01*
X125012477Y-48622000D01*
X125050572Y-48660095D01*
X125088667Y-48736286D01*
X125088667Y-48850571D01*
X125050572Y-48926762D01*
X125012477Y-48964857D01*
X124936286Y-49002952D01*
X124631524Y-49002952D01*
X125355334Y-48583905D02*
X125888667Y-48583905D01*
X125545810Y-49383905D01*
X134035810Y-51492095D02*
X133959619Y-51454000D01*
X133883429Y-51377810D01*
X133769143Y-51263524D01*
X133692952Y-51225429D01*
X133616762Y-51225429D01*
X133654857Y-51415905D02*
X133578667Y-51377810D01*
X133502476Y-51301619D01*
X133464381Y-51149238D01*
X133464381Y-50882571D01*
X133502476Y-50730190D01*
X133578667Y-50654000D01*
X133654857Y-50615905D01*
X133807238Y-50615905D01*
X133883429Y-50654000D01*
X133959619Y-50730190D01*
X133997714Y-50882571D01*
X133997714Y-51149238D01*
X133959619Y-51301619D01*
X133883429Y-51377810D01*
X133807238Y-51415905D01*
X133654857Y-51415905D01*
X134683428Y-50882571D02*
X134683428Y-51415905D01*
X134492952Y-50577810D02*
X134302476Y-51149238D01*
X134797714Y-51149238D01*
X133521524Y-42779905D02*
X133521524Y-41979905D01*
X133712000Y-41979905D01*
X133826286Y-42018000D01*
X133902477Y-42094190D01*
X133940572Y-42170381D01*
X133978667Y-42322762D01*
X133978667Y-42437048D01*
X133940572Y-42589429D01*
X133902477Y-42665619D01*
X133826286Y-42741810D01*
X133712000Y-42779905D01*
X133521524Y-42779905D01*
X134245334Y-41979905D02*
X134778667Y-41979905D01*
X134435810Y-42779905D01*
X124885524Y-46081905D02*
X124885524Y-45281905D01*
X125076000Y-45281905D01*
X125190286Y-45320000D01*
X125266477Y-45396190D01*
X125304572Y-45472381D01*
X125342667Y-45624762D01*
X125342667Y-45739048D01*
X125304572Y-45891429D01*
X125266477Y-45967619D01*
X125190286Y-46043810D01*
X125076000Y-46081905D01*
X124885524Y-46081905D01*
X126066477Y-45281905D02*
X125685524Y-45281905D01*
X125647429Y-45662857D01*
X125685524Y-45624762D01*
X125761715Y-45586667D01*
X125952191Y-45586667D01*
X126028381Y-45624762D01*
X126066477Y-45662857D01*
X126104572Y-45739048D01*
X126104572Y-45929524D01*
X126066477Y-46005714D01*
X126028381Y-46043810D01*
X125952191Y-46081905D01*
X125761715Y-46081905D01*
X125685524Y-46043810D01*
X125647429Y-46005714D01*
X124834667Y-43211714D02*
X124796572Y-43249810D01*
X124682286Y-43287905D01*
X124606096Y-43287905D01*
X124491810Y-43249810D01*
X124415619Y-43173619D01*
X124377524Y-43097429D01*
X124339429Y-42945048D01*
X124339429Y-42830762D01*
X124377524Y-42678381D01*
X124415619Y-42602190D01*
X124491810Y-42526000D01*
X124606096Y-42487905D01*
X124682286Y-42487905D01*
X124796572Y-42526000D01*
X124834667Y-42564095D01*
X125215619Y-43287905D02*
X125368000Y-43287905D01*
X125444191Y-43249810D01*
X125482286Y-43211714D01*
X125558477Y-43097429D01*
X125596572Y-42945048D01*
X125596572Y-42640286D01*
X125558477Y-42564095D01*
X125520381Y-42526000D01*
X125444191Y-42487905D01*
X125291810Y-42487905D01*
X125215619Y-42526000D01*
X125177524Y-42564095D01*
X125139429Y-42640286D01*
X125139429Y-42830762D01*
X125177524Y-42906952D01*
X125215619Y-42945048D01*
X125291810Y-42983143D01*
X125444191Y-42983143D01*
X125520381Y-42945048D01*
X125558477Y-42906952D01*
X125596572Y-42830762D01*
X123945714Y-91471714D02*
X123907619Y-91509810D01*
X123793333Y-91547905D01*
X123717143Y-91547905D01*
X123602857Y-91509810D01*
X123526666Y-91433619D01*
X123488571Y-91357429D01*
X123450476Y-91205048D01*
X123450476Y-91090762D01*
X123488571Y-90938381D01*
X123526666Y-90862190D01*
X123602857Y-90786000D01*
X123717143Y-90747905D01*
X123793333Y-90747905D01*
X123907619Y-90786000D01*
X123945714Y-90824095D01*
X124707619Y-91547905D02*
X124250476Y-91547905D01*
X124479047Y-91547905D02*
X124479047Y-90747905D01*
X124402857Y-90862190D01*
X124326666Y-90938381D01*
X124250476Y-90976476D01*
X125202857Y-90747905D02*
X125279048Y-90747905D01*
X125355238Y-90786000D01*
X125393333Y-90824095D01*
X125431429Y-90900286D01*
X125469524Y-91052667D01*
X125469524Y-91243143D01*
X125431429Y-91395524D01*
X125393333Y-91471714D01*
X125355238Y-91509810D01*
X125279048Y-91547905D01*
X125202857Y-91547905D01*
X125126667Y-91509810D01*
X125088571Y-91471714D01*
X125050476Y-91395524D01*
X125012381Y-91243143D01*
X125012381Y-91052667D01*
X125050476Y-90900286D01*
X125088571Y-90824095D01*
X125126667Y-90786000D01*
X125202857Y-90747905D01*
X124885524Y-94849905D02*
X124885524Y-94049905D01*
X125076000Y-94049905D01*
X125190286Y-94088000D01*
X125266477Y-94164190D01*
X125304572Y-94240381D01*
X125342667Y-94392762D01*
X125342667Y-94507048D01*
X125304572Y-94659429D01*
X125266477Y-94735619D01*
X125190286Y-94811810D01*
X125076000Y-94849905D01*
X124885524Y-94849905D01*
X126028381Y-94049905D02*
X125876000Y-94049905D01*
X125799810Y-94088000D01*
X125761715Y-94126095D01*
X125685524Y-94240381D01*
X125647429Y-94392762D01*
X125647429Y-94697524D01*
X125685524Y-94773714D01*
X125723619Y-94811810D01*
X125799810Y-94849905D01*
X125952191Y-94849905D01*
X126028381Y-94811810D01*
X126066477Y-94773714D01*
X126104572Y-94697524D01*
X126104572Y-94507048D01*
X126066477Y-94430857D01*
X126028381Y-94392762D01*
X125952191Y-94354667D01*
X125799810Y-94354667D01*
X125723619Y-94392762D01*
X125685524Y-94430857D01*
X125647429Y-94507048D01*
X133521524Y-91547905D02*
X133521524Y-90747905D01*
X133712000Y-90747905D01*
X133826286Y-90786000D01*
X133902477Y-90862190D01*
X133940572Y-90938381D01*
X133978667Y-91090762D01*
X133978667Y-91205048D01*
X133940572Y-91357429D01*
X133902477Y-91433619D01*
X133826286Y-91509810D01*
X133712000Y-91547905D01*
X133521524Y-91547905D01*
X134435810Y-91090762D02*
X134359619Y-91052667D01*
X134321524Y-91014571D01*
X134283429Y-90938381D01*
X134283429Y-90900286D01*
X134321524Y-90824095D01*
X134359619Y-90786000D01*
X134435810Y-90747905D01*
X134588191Y-90747905D01*
X134664381Y-90786000D01*
X134702477Y-90824095D01*
X134740572Y-90900286D01*
X134740572Y-90938381D01*
X134702477Y-91014571D01*
X134664381Y-91052667D01*
X134588191Y-91090762D01*
X134435810Y-91090762D01*
X134359619Y-91128857D01*
X134321524Y-91166952D01*
X134283429Y-91243143D01*
X134283429Y-91395524D01*
X134321524Y-91471714D01*
X134359619Y-91509810D01*
X134435810Y-91547905D01*
X134588191Y-91547905D01*
X134664381Y-91509810D01*
X134702477Y-91471714D01*
X134740572Y-91395524D01*
X134740572Y-91243143D01*
X134702477Y-91166952D01*
X134664381Y-91128857D01*
X134588191Y-91090762D01*
X134035810Y-100260095D02*
X133959619Y-100222000D01*
X133883429Y-100145810D01*
X133769143Y-100031524D01*
X133692952Y-99993429D01*
X133616762Y-99993429D01*
X133654857Y-100183905D02*
X133578667Y-100145810D01*
X133502476Y-100069619D01*
X133464381Y-99917238D01*
X133464381Y-99650571D01*
X133502476Y-99498190D01*
X133578667Y-99422000D01*
X133654857Y-99383905D01*
X133807238Y-99383905D01*
X133883429Y-99422000D01*
X133959619Y-99498190D01*
X133997714Y-99650571D01*
X133997714Y-99917238D01*
X133959619Y-100069619D01*
X133883429Y-100145810D01*
X133807238Y-100183905D01*
X133654857Y-100183905D01*
X134721524Y-99383905D02*
X134340571Y-99383905D01*
X134302476Y-99764857D01*
X134340571Y-99726762D01*
X134416762Y-99688667D01*
X134607238Y-99688667D01*
X134683428Y-99726762D01*
X134721524Y-99764857D01*
X134759619Y-99841048D01*
X134759619Y-100031524D01*
X134721524Y-100107714D01*
X134683428Y-100145810D01*
X134607238Y-100183905D01*
X134416762Y-100183905D01*
X134340571Y-100145810D01*
X134302476Y-100107714D01*
X123564667Y-99675905D02*
X123298000Y-99294952D01*
X123107524Y-99675905D02*
X123107524Y-98875905D01*
X123412286Y-98875905D01*
X123488477Y-98914000D01*
X123526572Y-98952095D01*
X123564667Y-99028286D01*
X123564667Y-99142571D01*
X123526572Y-99218762D01*
X123488477Y-99256857D01*
X123412286Y-99294952D01*
X123107524Y-99294952D01*
X124021810Y-99218762D02*
X123945619Y-99180667D01*
X123907524Y-99142571D01*
X123869429Y-99066381D01*
X123869429Y-99028286D01*
X123907524Y-98952095D01*
X123945619Y-98914000D01*
X124021810Y-98875905D01*
X124174191Y-98875905D01*
X124250381Y-98914000D01*
X124288477Y-98952095D01*
X124326572Y-99028286D01*
X124326572Y-99066381D01*
X124288477Y-99142571D01*
X124250381Y-99180667D01*
X124174191Y-99218762D01*
X124021810Y-99218762D01*
X123945619Y-99256857D01*
X123907524Y-99294952D01*
X123869429Y-99371143D01*
X123869429Y-99523524D01*
X123907524Y-99599714D01*
X123945619Y-99637810D01*
X124021810Y-99675905D01*
X124174191Y-99675905D01*
X124250381Y-99637810D01*
X124288477Y-99599714D01*
X124326572Y-99523524D01*
X124326572Y-99371143D01*
X124288477Y-99294952D01*
X124250381Y-99256857D01*
X124174191Y-99218762D01*
X124961714Y-93325905D02*
X124695047Y-92944952D01*
X124504571Y-93325905D02*
X124504571Y-92525905D01*
X124809333Y-92525905D01*
X124885524Y-92564000D01*
X124923619Y-92602095D01*
X124961714Y-92678286D01*
X124961714Y-92792571D01*
X124923619Y-92868762D01*
X124885524Y-92906857D01*
X124809333Y-92944952D01*
X124504571Y-92944952D01*
X125723619Y-93325905D02*
X125266476Y-93325905D01*
X125495047Y-93325905D02*
X125495047Y-92525905D01*
X125418857Y-92640190D01*
X125342666Y-92716381D01*
X125266476Y-92754476D01*
X126218857Y-92525905D02*
X126295048Y-92525905D01*
X126371238Y-92564000D01*
X126409333Y-92602095D01*
X126447429Y-92678286D01*
X126485524Y-92830667D01*
X126485524Y-93021143D01*
X126447429Y-93173524D01*
X126409333Y-93249714D01*
X126371238Y-93287810D01*
X126295048Y-93325905D01*
X126218857Y-93325905D01*
X126142667Y-93287810D01*
X126104571Y-93249714D01*
X126066476Y-93173524D01*
X126028381Y-93021143D01*
X126028381Y-92830667D01*
X126066476Y-92678286D01*
X126104571Y-92602095D01*
X126142667Y-92564000D01*
X126218857Y-92525905D01*
X125342667Y-81133905D02*
X125076000Y-80752952D01*
X124885524Y-81133905D02*
X124885524Y-80333905D01*
X125190286Y-80333905D01*
X125266477Y-80372000D01*
X125304572Y-80410095D01*
X125342667Y-80486286D01*
X125342667Y-80600571D01*
X125304572Y-80676762D01*
X125266477Y-80714857D01*
X125190286Y-80752952D01*
X124885524Y-80752952D01*
X126028381Y-80333905D02*
X125876000Y-80333905D01*
X125799810Y-80372000D01*
X125761715Y-80410095D01*
X125685524Y-80524381D01*
X125647429Y-80676762D01*
X125647429Y-80981524D01*
X125685524Y-81057714D01*
X125723619Y-81095810D01*
X125799810Y-81133905D01*
X125952191Y-81133905D01*
X126028381Y-81095810D01*
X126066477Y-81057714D01*
X126104572Y-80981524D01*
X126104572Y-80791048D01*
X126066477Y-80714857D01*
X126028381Y-80676762D01*
X125952191Y-80638667D01*
X125799810Y-80638667D01*
X125723619Y-80676762D01*
X125685524Y-80714857D01*
X125647429Y-80791048D01*
X123564667Y-88499905D02*
X123298000Y-88118952D01*
X123107524Y-88499905D02*
X123107524Y-87699905D01*
X123412286Y-87699905D01*
X123488477Y-87738000D01*
X123526572Y-87776095D01*
X123564667Y-87852286D01*
X123564667Y-87966571D01*
X123526572Y-88042762D01*
X123488477Y-88080857D01*
X123412286Y-88118952D01*
X123107524Y-88118952D01*
X124250381Y-87966571D02*
X124250381Y-88499905D01*
X124059905Y-87661810D02*
X123869429Y-88233238D01*
X124364667Y-88233238D01*
X134035810Y-88068095D02*
X133959619Y-88030000D01*
X133883429Y-87953810D01*
X133769143Y-87839524D01*
X133692952Y-87801429D01*
X133616762Y-87801429D01*
X133654857Y-87991905D02*
X133578667Y-87953810D01*
X133502476Y-87877619D01*
X133464381Y-87725238D01*
X133464381Y-87458571D01*
X133502476Y-87306190D01*
X133578667Y-87230000D01*
X133654857Y-87191905D01*
X133807238Y-87191905D01*
X133883429Y-87230000D01*
X133959619Y-87306190D01*
X133997714Y-87458571D01*
X133997714Y-87725238D01*
X133959619Y-87877619D01*
X133883429Y-87953810D01*
X133807238Y-87991905D01*
X133654857Y-87991905D01*
X134264381Y-87191905D02*
X134759619Y-87191905D01*
X134492952Y-87496667D01*
X134607238Y-87496667D01*
X134683428Y-87534762D01*
X134721524Y-87572857D01*
X134759619Y-87649048D01*
X134759619Y-87839524D01*
X134721524Y-87915714D01*
X134683428Y-87953810D01*
X134607238Y-87991905D01*
X134378666Y-87991905D01*
X134302476Y-87953810D01*
X134264381Y-87915714D01*
X133521524Y-79355905D02*
X133521524Y-78555905D01*
X133712000Y-78555905D01*
X133826286Y-78594000D01*
X133902477Y-78670190D01*
X133940572Y-78746381D01*
X133978667Y-78898762D01*
X133978667Y-79013048D01*
X133940572Y-79165429D01*
X133902477Y-79241619D01*
X133826286Y-79317810D01*
X133712000Y-79355905D01*
X133521524Y-79355905D01*
X134664381Y-78822571D02*
X134664381Y-79355905D01*
X134473905Y-78517810D02*
X134283429Y-79089238D01*
X134778667Y-79089238D01*
X124885524Y-82657905D02*
X124885524Y-81857905D01*
X125076000Y-81857905D01*
X125190286Y-81896000D01*
X125266477Y-81972190D01*
X125304572Y-82048381D01*
X125342667Y-82200762D01*
X125342667Y-82315048D01*
X125304572Y-82467429D01*
X125266477Y-82543619D01*
X125190286Y-82619810D01*
X125076000Y-82657905D01*
X124885524Y-82657905D01*
X125647429Y-81934095D02*
X125685524Y-81896000D01*
X125761715Y-81857905D01*
X125952191Y-81857905D01*
X126028381Y-81896000D01*
X126066477Y-81934095D01*
X126104572Y-82010286D01*
X126104572Y-82086476D01*
X126066477Y-82200762D01*
X125609334Y-82657905D01*
X126104572Y-82657905D01*
X124834667Y-79279714D02*
X124796572Y-79317810D01*
X124682286Y-79355905D01*
X124606096Y-79355905D01*
X124491810Y-79317810D01*
X124415619Y-79241619D01*
X124377524Y-79165429D01*
X124339429Y-79013048D01*
X124339429Y-78898762D01*
X124377524Y-78746381D01*
X124415619Y-78670190D01*
X124491810Y-78594000D01*
X124606096Y-78555905D01*
X124682286Y-78555905D01*
X124796572Y-78594000D01*
X124834667Y-78632095D01*
X125291810Y-78898762D02*
X125215619Y-78860667D01*
X125177524Y-78822571D01*
X125139429Y-78746381D01*
X125139429Y-78708286D01*
X125177524Y-78632095D01*
X125215619Y-78594000D01*
X125291810Y-78555905D01*
X125444191Y-78555905D01*
X125520381Y-78594000D01*
X125558477Y-78632095D01*
X125596572Y-78708286D01*
X125596572Y-78746381D01*
X125558477Y-78822571D01*
X125520381Y-78860667D01*
X125444191Y-78898762D01*
X125291810Y-78898762D01*
X125215619Y-78936857D01*
X125177524Y-78974952D01*
X125139429Y-79051143D01*
X125139429Y-79203524D01*
X125177524Y-79279714D01*
X125215619Y-79317810D01*
X125291810Y-79355905D01*
X125444191Y-79355905D01*
X125520381Y-79317810D01*
X125558477Y-79279714D01*
X125596572Y-79203524D01*
X125596572Y-79051143D01*
X125558477Y-78974952D01*
X125520381Y-78936857D01*
X125444191Y-78898762D01*
X104006667Y-122713714D02*
X103968572Y-122751810D01*
X103854286Y-122789905D01*
X103778096Y-122789905D01*
X103663810Y-122751810D01*
X103587619Y-122675619D01*
X103549524Y-122599429D01*
X103511429Y-122447048D01*
X103511429Y-122332762D01*
X103549524Y-122180381D01*
X103587619Y-122104190D01*
X103663810Y-122028000D01*
X103778096Y-121989905D01*
X103854286Y-121989905D01*
X103968572Y-122028000D01*
X104006667Y-122066095D01*
X104768572Y-122789905D02*
X104311429Y-122789905D01*
X104540000Y-122789905D02*
X104540000Y-121989905D01*
X104463810Y-122104190D01*
X104387619Y-122180381D01*
X104311429Y-122218476D01*
X48761667Y-36734714D02*
X48723572Y-36772810D01*
X48609286Y-36810905D01*
X48533096Y-36810905D01*
X48418810Y-36772810D01*
X48342619Y-36696619D01*
X48304524Y-36620429D01*
X48266429Y-36468048D01*
X48266429Y-36353762D01*
X48304524Y-36201381D01*
X48342619Y-36125190D01*
X48418810Y-36049000D01*
X48533096Y-36010905D01*
X48609286Y-36010905D01*
X48723572Y-36049000D01*
X48761667Y-36087095D01*
X49066429Y-36087095D02*
X49104524Y-36049000D01*
X49180715Y-36010905D01*
X49371191Y-36010905D01*
X49447381Y-36049000D01*
X49485477Y-36087095D01*
X49523572Y-36163286D01*
X49523572Y-36239476D01*
X49485477Y-36353762D01*
X49028334Y-36810905D01*
X49523572Y-36810905D01*
X78771714Y-44837333D02*
X78809810Y-44875428D01*
X78847905Y-44989714D01*
X78847905Y-45065904D01*
X78809810Y-45180190D01*
X78733619Y-45256381D01*
X78657429Y-45294476D01*
X78505048Y-45332571D01*
X78390762Y-45332571D01*
X78238381Y-45294476D01*
X78162190Y-45256381D01*
X78086000Y-45180190D01*
X78047905Y-45065904D01*
X78047905Y-44989714D01*
X78086000Y-44875428D01*
X78124095Y-44837333D01*
X78047905Y-44113523D02*
X78047905Y-44494476D01*
X78428857Y-44532571D01*
X78390762Y-44494476D01*
X78352667Y-44418285D01*
X78352667Y-44227809D01*
X78390762Y-44151619D01*
X78428857Y-44113523D01*
X78505048Y-44075428D01*
X78695524Y-44075428D01*
X78771714Y-44113523D01*
X78809810Y-44151619D01*
X78847905Y-44227809D01*
X78847905Y-44418285D01*
X78809810Y-44494476D01*
X78771714Y-44532571D01*
X117214667Y-82073714D02*
X117176572Y-82111810D01*
X117062286Y-82149905D01*
X116986096Y-82149905D01*
X116871810Y-82111810D01*
X116795619Y-82035619D01*
X116757524Y-81959429D01*
X116719429Y-81807048D01*
X116719429Y-81692762D01*
X116757524Y-81540381D01*
X116795619Y-81464190D01*
X116871810Y-81388000D01*
X116986096Y-81349905D01*
X117062286Y-81349905D01*
X117176572Y-81388000D01*
X117214667Y-81426095D01*
X117900381Y-81349905D02*
X117748000Y-81349905D01*
X117671810Y-81388000D01*
X117633715Y-81426095D01*
X117557524Y-81540381D01*
X117519429Y-81692762D01*
X117519429Y-81997524D01*
X117557524Y-82073714D01*
X117595619Y-82111810D01*
X117671810Y-82149905D01*
X117824191Y-82149905D01*
X117900381Y-82111810D01*
X117938477Y-82073714D01*
X117976572Y-81997524D01*
X117976572Y-81807048D01*
X117938477Y-81730857D01*
X117900381Y-81692762D01*
X117824191Y-81654667D01*
X117671810Y-81654667D01*
X117595619Y-81692762D01*
X117557524Y-81730857D01*
X117519429Y-81807048D01*
X124326667Y-30257714D02*
X124288572Y-30295810D01*
X124174286Y-30333905D01*
X124098096Y-30333905D01*
X123983810Y-30295810D01*
X123907619Y-30219619D01*
X123869524Y-30143429D01*
X123831429Y-29991048D01*
X123831429Y-29876762D01*
X123869524Y-29724381D01*
X123907619Y-29648190D01*
X123983810Y-29572000D01*
X124098096Y-29533905D01*
X124174286Y-29533905D01*
X124288572Y-29572000D01*
X124326667Y-29610095D01*
X124593334Y-29533905D02*
X125126667Y-29533905D01*
X124783810Y-30333905D01*
X46983714Y-61753714D02*
X46945619Y-61791810D01*
X46831333Y-61829905D01*
X46755143Y-61829905D01*
X46640857Y-61791810D01*
X46564666Y-61715619D01*
X46526571Y-61639429D01*
X46488476Y-61487048D01*
X46488476Y-61372762D01*
X46526571Y-61220381D01*
X46564666Y-61144190D01*
X46640857Y-61068000D01*
X46755143Y-61029905D01*
X46831333Y-61029905D01*
X46945619Y-61068000D01*
X46983714Y-61106095D01*
X47288476Y-61106095D02*
X47326571Y-61068000D01*
X47402762Y-61029905D01*
X47593238Y-61029905D01*
X47669428Y-61068000D01*
X47707524Y-61106095D01*
X47745619Y-61182286D01*
X47745619Y-61258476D01*
X47707524Y-61372762D01*
X47250381Y-61829905D01*
X47745619Y-61829905D01*
X48240857Y-61029905D02*
X48317048Y-61029905D01*
X48393238Y-61068000D01*
X48431333Y-61106095D01*
X48469429Y-61182286D01*
X48507524Y-61334667D01*
X48507524Y-61525143D01*
X48469429Y-61677524D01*
X48431333Y-61753714D01*
X48393238Y-61791810D01*
X48317048Y-61829905D01*
X48240857Y-61829905D01*
X48164667Y-61791810D01*
X48126571Y-61753714D01*
X48088476Y-61677524D01*
X48050381Y-61525143D01*
X48050381Y-61334667D01*
X48088476Y-61182286D01*
X48126571Y-61106095D01*
X48164667Y-61068000D01*
X48240857Y-61029905D01*
X46983714Y-75977714D02*
X46945619Y-76015810D01*
X46831333Y-76053905D01*
X46755143Y-76053905D01*
X46640857Y-76015810D01*
X46564666Y-75939619D01*
X46526571Y-75863429D01*
X46488476Y-75711048D01*
X46488476Y-75596762D01*
X46526571Y-75444381D01*
X46564666Y-75368190D01*
X46640857Y-75292000D01*
X46755143Y-75253905D01*
X46831333Y-75253905D01*
X46945619Y-75292000D01*
X46983714Y-75330095D01*
X47745619Y-76053905D02*
X47288476Y-76053905D01*
X47517047Y-76053905D02*
X47517047Y-75253905D01*
X47440857Y-75368190D01*
X47364666Y-75444381D01*
X47288476Y-75482476D01*
X48126571Y-76053905D02*
X48278952Y-76053905D01*
X48355143Y-76015810D01*
X48393238Y-75977714D01*
X48469429Y-75863429D01*
X48507524Y-75711048D01*
X48507524Y-75406286D01*
X48469429Y-75330095D01*
X48431333Y-75292000D01*
X48355143Y-75253905D01*
X48202762Y-75253905D01*
X48126571Y-75292000D01*
X48088476Y-75330095D01*
X48050381Y-75406286D01*
X48050381Y-75596762D01*
X48088476Y-75672952D01*
X48126571Y-75711048D01*
X48202762Y-75749143D01*
X48355143Y-75749143D01*
X48431333Y-75711048D01*
X48469429Y-75672952D01*
X48507524Y-75596762D01*
X50031714Y-66833714D02*
X49993619Y-66871810D01*
X49879333Y-66909905D01*
X49803143Y-66909905D01*
X49688857Y-66871810D01*
X49612666Y-66795619D01*
X49574571Y-66719429D01*
X49536476Y-66567048D01*
X49536476Y-66452762D01*
X49574571Y-66300381D01*
X49612666Y-66224190D01*
X49688857Y-66148000D01*
X49803143Y-66109905D01*
X49879333Y-66109905D01*
X49993619Y-66148000D01*
X50031714Y-66186095D01*
X50336476Y-66186095D02*
X50374571Y-66148000D01*
X50450762Y-66109905D01*
X50641238Y-66109905D01*
X50717428Y-66148000D01*
X50755524Y-66186095D01*
X50793619Y-66262286D01*
X50793619Y-66338476D01*
X50755524Y-66452762D01*
X50298381Y-66909905D01*
X50793619Y-66909905D01*
X51098381Y-66186095D02*
X51136476Y-66148000D01*
X51212667Y-66109905D01*
X51403143Y-66109905D01*
X51479333Y-66148000D01*
X51517429Y-66186095D01*
X51555524Y-66262286D01*
X51555524Y-66338476D01*
X51517429Y-66452762D01*
X51060286Y-66909905D01*
X51555524Y-66909905D01*
X50031714Y-81057714D02*
X49993619Y-81095810D01*
X49879333Y-81133905D01*
X49803143Y-81133905D01*
X49688857Y-81095810D01*
X49612666Y-81019619D01*
X49574571Y-80943429D01*
X49536476Y-80791048D01*
X49536476Y-80676762D01*
X49574571Y-80524381D01*
X49612666Y-80448190D01*
X49688857Y-80372000D01*
X49803143Y-80333905D01*
X49879333Y-80333905D01*
X49993619Y-80372000D01*
X50031714Y-80410095D01*
X50336476Y-80410095D02*
X50374571Y-80372000D01*
X50450762Y-80333905D01*
X50641238Y-80333905D01*
X50717428Y-80372000D01*
X50755524Y-80410095D01*
X50793619Y-80486286D01*
X50793619Y-80562476D01*
X50755524Y-80676762D01*
X50298381Y-81133905D01*
X50793619Y-81133905D01*
X51555524Y-81133905D02*
X51098381Y-81133905D01*
X51326952Y-81133905D02*
X51326952Y-80333905D01*
X51250762Y-80448190D01*
X51174571Y-80524381D01*
X51098381Y-80562476D01*
X46983714Y-90201714D02*
X46945619Y-90239810D01*
X46831333Y-90277905D01*
X46755143Y-90277905D01*
X46640857Y-90239810D01*
X46564666Y-90163619D01*
X46526571Y-90087429D01*
X46488476Y-89935048D01*
X46488476Y-89820762D01*
X46526571Y-89668381D01*
X46564666Y-89592190D01*
X46640857Y-89516000D01*
X46755143Y-89477905D01*
X46831333Y-89477905D01*
X46945619Y-89516000D01*
X46983714Y-89554095D01*
X47745619Y-90277905D02*
X47288476Y-90277905D01*
X47517047Y-90277905D02*
X47517047Y-89477905D01*
X47440857Y-89592190D01*
X47364666Y-89668381D01*
X47288476Y-89706476D01*
X48431333Y-89477905D02*
X48278952Y-89477905D01*
X48202762Y-89516000D01*
X48164667Y-89554095D01*
X48088476Y-89668381D01*
X48050381Y-89820762D01*
X48050381Y-90125524D01*
X48088476Y-90201714D01*
X48126571Y-90239810D01*
X48202762Y-90277905D01*
X48355143Y-90277905D01*
X48431333Y-90239810D01*
X48469429Y-90201714D01*
X48507524Y-90125524D01*
X48507524Y-89935048D01*
X48469429Y-89858857D01*
X48431333Y-89820762D01*
X48355143Y-89782667D01*
X48202762Y-89782667D01*
X48126571Y-89820762D01*
X48088476Y-89858857D01*
X48050381Y-89935048D01*
X46983714Y-104425714D02*
X46945619Y-104463810D01*
X46831333Y-104501905D01*
X46755143Y-104501905D01*
X46640857Y-104463810D01*
X46564666Y-104387619D01*
X46526571Y-104311429D01*
X46488476Y-104159048D01*
X46488476Y-104044762D01*
X46526571Y-103892381D01*
X46564666Y-103816190D01*
X46640857Y-103740000D01*
X46755143Y-103701905D01*
X46831333Y-103701905D01*
X46945619Y-103740000D01*
X46983714Y-103778095D01*
X47745619Y-104501905D02*
X47288476Y-104501905D01*
X47517047Y-104501905D02*
X47517047Y-103701905D01*
X47440857Y-103816190D01*
X47364666Y-103892381D01*
X47288476Y-103930476D01*
X48469429Y-103701905D02*
X48088476Y-103701905D01*
X48050381Y-104082857D01*
X48088476Y-104044762D01*
X48164667Y-104006667D01*
X48355143Y-104006667D01*
X48431333Y-104044762D01*
X48469429Y-104082857D01*
X48507524Y-104159048D01*
X48507524Y-104349524D01*
X48469429Y-104425714D01*
X48431333Y-104463810D01*
X48355143Y-104501905D01*
X48164667Y-104501905D01*
X48088476Y-104463810D01*
X48050381Y-104425714D01*
X50031714Y-95281714D02*
X49993619Y-95319810D01*
X49879333Y-95357905D01*
X49803143Y-95357905D01*
X49688857Y-95319810D01*
X49612666Y-95243619D01*
X49574571Y-95167429D01*
X49536476Y-95015048D01*
X49536476Y-94900762D01*
X49574571Y-94748381D01*
X49612666Y-94672190D01*
X49688857Y-94596000D01*
X49803143Y-94557905D01*
X49879333Y-94557905D01*
X49993619Y-94596000D01*
X50031714Y-94634095D01*
X50793619Y-95357905D02*
X50336476Y-95357905D01*
X50565047Y-95357905D02*
X50565047Y-94557905D01*
X50488857Y-94672190D01*
X50412666Y-94748381D01*
X50336476Y-94786476D01*
X51250762Y-94900762D02*
X51174571Y-94862667D01*
X51136476Y-94824571D01*
X51098381Y-94748381D01*
X51098381Y-94710286D01*
X51136476Y-94634095D01*
X51174571Y-94596000D01*
X51250762Y-94557905D01*
X51403143Y-94557905D01*
X51479333Y-94596000D01*
X51517429Y-94634095D01*
X51555524Y-94710286D01*
X51555524Y-94748381D01*
X51517429Y-94824571D01*
X51479333Y-94862667D01*
X51403143Y-94900762D01*
X51250762Y-94900762D01*
X51174571Y-94938857D01*
X51136476Y-94976952D01*
X51098381Y-95053143D01*
X51098381Y-95205524D01*
X51136476Y-95281714D01*
X51174571Y-95319810D01*
X51250762Y-95357905D01*
X51403143Y-95357905D01*
X51479333Y-95319810D01*
X51517429Y-95281714D01*
X51555524Y-95205524D01*
X51555524Y-95053143D01*
X51517429Y-94976952D01*
X51479333Y-94938857D01*
X51403143Y-94900762D01*
X50031714Y-109505714D02*
X49993619Y-109543810D01*
X49879333Y-109581905D01*
X49803143Y-109581905D01*
X49688857Y-109543810D01*
X49612666Y-109467619D01*
X49574571Y-109391429D01*
X49536476Y-109239048D01*
X49536476Y-109124762D01*
X49574571Y-108972381D01*
X49612666Y-108896190D01*
X49688857Y-108820000D01*
X49803143Y-108781905D01*
X49879333Y-108781905D01*
X49993619Y-108820000D01*
X50031714Y-108858095D01*
X50793619Y-109581905D02*
X50336476Y-109581905D01*
X50565047Y-109581905D02*
X50565047Y-108781905D01*
X50488857Y-108896190D01*
X50412666Y-108972381D01*
X50336476Y-109010476D01*
X51060286Y-108781905D02*
X51593619Y-108781905D01*
X51250762Y-109581905D01*
X111029714Y-66808286D02*
X111067810Y-66846381D01*
X111105905Y-66960667D01*
X111105905Y-67036857D01*
X111067810Y-67151143D01*
X110991619Y-67227334D01*
X110915429Y-67265429D01*
X110763048Y-67303524D01*
X110648762Y-67303524D01*
X110496381Y-67265429D01*
X110420190Y-67227334D01*
X110344000Y-67151143D01*
X110305905Y-67036857D01*
X110305905Y-66960667D01*
X110344000Y-66846381D01*
X110382095Y-66808286D01*
X110382095Y-66503524D02*
X110344000Y-66465429D01*
X110305905Y-66389238D01*
X110305905Y-66198762D01*
X110344000Y-66122572D01*
X110382095Y-66084476D01*
X110458286Y-66046381D01*
X110534476Y-66046381D01*
X110648762Y-66084476D01*
X111105905Y-66541619D01*
X111105905Y-66046381D01*
X110305905Y-65779714D02*
X110305905Y-65284476D01*
X110610667Y-65551143D01*
X110610667Y-65436857D01*
X110648762Y-65360667D01*
X110686857Y-65322571D01*
X110763048Y-65284476D01*
X110953524Y-65284476D01*
X111029714Y-65322571D01*
X111067810Y-65360667D01*
X111105905Y-65436857D01*
X111105905Y-65665429D01*
X111067810Y-65741619D01*
X111029714Y-65779714D01*
X91725714Y-93732286D02*
X91763810Y-93770381D01*
X91801905Y-93884667D01*
X91801905Y-93960857D01*
X91763810Y-94075143D01*
X91687619Y-94151334D01*
X91611429Y-94189429D01*
X91459048Y-94227524D01*
X91344762Y-94227524D01*
X91192381Y-94189429D01*
X91116190Y-94151334D01*
X91040000Y-94075143D01*
X91001905Y-93960857D01*
X91001905Y-93884667D01*
X91040000Y-93770381D01*
X91078095Y-93732286D01*
X91078095Y-93427524D02*
X91040000Y-93389429D01*
X91001905Y-93313238D01*
X91001905Y-93122762D01*
X91040000Y-93046572D01*
X91078095Y-93008476D01*
X91154286Y-92970381D01*
X91230476Y-92970381D01*
X91344762Y-93008476D01*
X91801905Y-93465619D01*
X91801905Y-92970381D01*
X91001905Y-92246571D02*
X91001905Y-92627524D01*
X91382857Y-92665619D01*
X91344762Y-92627524D01*
X91306667Y-92551333D01*
X91306667Y-92360857D01*
X91344762Y-92284667D01*
X91382857Y-92246571D01*
X91459048Y-92208476D01*
X91649524Y-92208476D01*
X91725714Y-92246571D01*
X91763810Y-92284667D01*
X91801905Y-92360857D01*
X91801905Y-92551333D01*
X91763810Y-92627524D01*
X91725714Y-92665619D01*
X80041714Y-88398286D02*
X80079810Y-88436381D01*
X80117905Y-88550667D01*
X80117905Y-88626857D01*
X80079810Y-88741143D01*
X80003619Y-88817334D01*
X79927429Y-88855429D01*
X79775048Y-88893524D01*
X79660762Y-88893524D01*
X79508381Y-88855429D01*
X79432190Y-88817334D01*
X79356000Y-88741143D01*
X79317905Y-88626857D01*
X79317905Y-88550667D01*
X79356000Y-88436381D01*
X79394095Y-88398286D01*
X79394095Y-88093524D02*
X79356000Y-88055429D01*
X79317905Y-87979238D01*
X79317905Y-87788762D01*
X79356000Y-87712572D01*
X79394095Y-87674476D01*
X79470286Y-87636381D01*
X79546476Y-87636381D01*
X79660762Y-87674476D01*
X80117905Y-88131619D01*
X80117905Y-87636381D01*
X79660762Y-87179238D02*
X79622667Y-87255429D01*
X79584571Y-87293524D01*
X79508381Y-87331619D01*
X79470286Y-87331619D01*
X79394095Y-87293524D01*
X79356000Y-87255429D01*
X79317905Y-87179238D01*
X79317905Y-87026857D01*
X79356000Y-86950667D01*
X79394095Y-86912571D01*
X79470286Y-86874476D01*
X79508381Y-86874476D01*
X79584571Y-86912571D01*
X79622667Y-86950667D01*
X79660762Y-87026857D01*
X79660762Y-87179238D01*
X79698857Y-87255429D01*
X79736952Y-87293524D01*
X79813143Y-87331619D01*
X79965524Y-87331619D01*
X80041714Y-87293524D01*
X80079810Y-87255429D01*
X80117905Y-87179238D01*
X80117905Y-87026857D01*
X80079810Y-86950667D01*
X80041714Y-86912571D01*
X79965524Y-86874476D01*
X79813143Y-86874476D01*
X79736952Y-86912571D01*
X79698857Y-86950667D01*
X79660762Y-87026857D01*
X124885524Y-33889905D02*
X124885524Y-33089905D01*
X125076000Y-33089905D01*
X125190286Y-33128000D01*
X125266477Y-33204190D01*
X125304572Y-33280381D01*
X125342667Y-33432762D01*
X125342667Y-33547048D01*
X125304572Y-33699429D01*
X125266477Y-33775619D01*
X125190286Y-33851810D01*
X125076000Y-33889905D01*
X124885524Y-33889905D01*
X126104572Y-33889905D02*
X125647429Y-33889905D01*
X125876000Y-33889905D02*
X125876000Y-33089905D01*
X125799810Y-33204190D01*
X125723619Y-33280381D01*
X125647429Y-33318476D01*
X133521524Y-30587905D02*
X133521524Y-29787905D01*
X133712000Y-29787905D01*
X133826286Y-29826000D01*
X133902477Y-29902190D01*
X133940572Y-29978381D01*
X133978667Y-30130762D01*
X133978667Y-30245048D01*
X133940572Y-30397429D01*
X133902477Y-30473619D01*
X133826286Y-30549810D01*
X133712000Y-30587905D01*
X133521524Y-30587905D01*
X134245334Y-29787905D02*
X134740572Y-29787905D01*
X134473905Y-30092667D01*
X134588191Y-30092667D01*
X134664381Y-30130762D01*
X134702477Y-30168857D01*
X134740572Y-30245048D01*
X134740572Y-30435524D01*
X134702477Y-30511714D01*
X134664381Y-30549810D01*
X134588191Y-30587905D01*
X134359619Y-30587905D01*
X134283429Y-30549810D01*
X134245334Y-30511714D01*
X107295905Y-109867619D02*
X106495905Y-109867619D01*
X107067333Y-109600952D01*
X106495905Y-109334285D01*
X107295905Y-109334285D01*
X107295905Y-108534285D02*
X107295905Y-108991428D01*
X107295905Y-108762857D02*
X106495905Y-108762857D01*
X106610190Y-108839047D01*
X106686381Y-108915238D01*
X106724476Y-108991428D01*
X59543905Y-109867619D02*
X58743905Y-109867619D01*
X59315333Y-109600952D01*
X58743905Y-109334285D01*
X59543905Y-109334285D01*
X58820095Y-108991428D02*
X58782000Y-108953333D01*
X58743905Y-108877142D01*
X58743905Y-108686666D01*
X58782000Y-108610476D01*
X58820095Y-108572380D01*
X58896286Y-108534285D01*
X58972476Y-108534285D01*
X59086762Y-108572380D01*
X59543905Y-109029523D01*
X59543905Y-108534285D01*
X54533810Y-31807095D02*
X54457619Y-31769000D01*
X54381429Y-31692810D01*
X54267143Y-31578524D01*
X54190952Y-31540429D01*
X54114762Y-31540429D01*
X54152857Y-31730905D02*
X54076667Y-31692810D01*
X54000476Y-31616619D01*
X53962381Y-31464238D01*
X53962381Y-31197571D01*
X54000476Y-31045190D01*
X54076667Y-30969000D01*
X54152857Y-30930905D01*
X54305238Y-30930905D01*
X54381429Y-30969000D01*
X54457619Y-31045190D01*
X54495714Y-31197571D01*
X54495714Y-31464238D01*
X54457619Y-31616619D01*
X54381429Y-31692810D01*
X54305238Y-31730905D01*
X54152857Y-31730905D01*
X55257619Y-31730905D02*
X54800476Y-31730905D01*
X55029047Y-31730905D02*
X55029047Y-30930905D01*
X54952857Y-31045190D01*
X54876666Y-31121381D01*
X54800476Y-31159476D01*
X134035810Y-39300095D02*
X133959619Y-39262000D01*
X133883429Y-39185810D01*
X133769143Y-39071524D01*
X133692952Y-39033429D01*
X133616762Y-39033429D01*
X133654857Y-39223905D02*
X133578667Y-39185810D01*
X133502476Y-39109619D01*
X133464381Y-38957238D01*
X133464381Y-38690571D01*
X133502476Y-38538190D01*
X133578667Y-38462000D01*
X133654857Y-38423905D01*
X133807238Y-38423905D01*
X133883429Y-38462000D01*
X133959619Y-38538190D01*
X133997714Y-38690571D01*
X133997714Y-38957238D01*
X133959619Y-39109619D01*
X133883429Y-39185810D01*
X133807238Y-39223905D01*
X133654857Y-39223905D01*
X134302476Y-38500095D02*
X134340571Y-38462000D01*
X134416762Y-38423905D01*
X134607238Y-38423905D01*
X134683428Y-38462000D01*
X134721524Y-38500095D01*
X134759619Y-38576286D01*
X134759619Y-38652476D01*
X134721524Y-38766762D01*
X134264381Y-39223905D01*
X134759619Y-39223905D01*
X51358858Y-47936095D02*
X51282667Y-47898000D01*
X51206477Y-47821810D01*
X51092191Y-47707524D01*
X51016000Y-47669429D01*
X50939810Y-47669429D01*
X50977905Y-47859905D02*
X50901715Y-47821810D01*
X50825524Y-47745619D01*
X50787429Y-47593238D01*
X50787429Y-47326571D01*
X50825524Y-47174190D01*
X50901715Y-47098000D01*
X50977905Y-47059905D01*
X51130286Y-47059905D01*
X51206477Y-47098000D01*
X51282667Y-47174190D01*
X51320762Y-47326571D01*
X51320762Y-47593238D01*
X51282667Y-47745619D01*
X51206477Y-47821810D01*
X51130286Y-47859905D01*
X50977905Y-47859905D01*
X52082667Y-47859905D02*
X51625524Y-47859905D01*
X51854095Y-47859905D02*
X51854095Y-47059905D01*
X51777905Y-47174190D01*
X51701714Y-47250381D01*
X51625524Y-47288476D01*
X52577905Y-47059905D02*
X52654096Y-47059905D01*
X52730286Y-47098000D01*
X52768381Y-47136095D01*
X52806477Y-47212286D01*
X52844572Y-47364667D01*
X52844572Y-47555143D01*
X52806477Y-47707524D01*
X52768381Y-47783714D01*
X52730286Y-47821810D01*
X52654096Y-47859905D01*
X52577905Y-47859905D01*
X52501715Y-47821810D01*
X52463619Y-47783714D01*
X52425524Y-47707524D01*
X52387429Y-47555143D01*
X52387429Y-47364667D01*
X52425524Y-47212286D01*
X52463619Y-47136095D01*
X52501715Y-47098000D01*
X52577905Y-47059905D01*
X57016667Y-32238905D02*
X56750000Y-31857952D01*
X56559524Y-32238905D02*
X56559524Y-31438905D01*
X56864286Y-31438905D01*
X56940477Y-31477000D01*
X56978572Y-31515095D01*
X57016667Y-31591286D01*
X57016667Y-31705571D01*
X56978572Y-31781762D01*
X56940477Y-31819857D01*
X56864286Y-31857952D01*
X56559524Y-31857952D01*
X57778572Y-32238905D02*
X57321429Y-32238905D01*
X57550000Y-32238905D02*
X57550000Y-31438905D01*
X57473810Y-31553190D01*
X57397619Y-31629381D01*
X57321429Y-31667476D01*
X69970667Y-44303905D02*
X69704000Y-43922952D01*
X69513524Y-44303905D02*
X69513524Y-43503905D01*
X69818286Y-43503905D01*
X69894477Y-43542000D01*
X69932572Y-43580095D01*
X69970667Y-43656286D01*
X69970667Y-43770571D01*
X69932572Y-43846762D01*
X69894477Y-43884857D01*
X69818286Y-43922952D01*
X69513524Y-43922952D01*
X70275429Y-43580095D02*
X70313524Y-43542000D01*
X70389715Y-43503905D01*
X70580191Y-43503905D01*
X70656381Y-43542000D01*
X70694477Y-43580095D01*
X70732572Y-43656286D01*
X70732572Y-43732476D01*
X70694477Y-43846762D01*
X70237334Y-44303905D01*
X70732572Y-44303905D01*
X123310667Y-39985905D02*
X123044000Y-39604952D01*
X122853524Y-39985905D02*
X122853524Y-39185905D01*
X123158286Y-39185905D01*
X123234477Y-39224000D01*
X123272572Y-39262095D01*
X123310667Y-39338286D01*
X123310667Y-39452571D01*
X123272572Y-39528762D01*
X123234477Y-39566857D01*
X123158286Y-39604952D01*
X122853524Y-39604952D01*
X123577334Y-39185905D02*
X124072572Y-39185905D01*
X123805905Y-39490667D01*
X123920191Y-39490667D01*
X123996381Y-39528762D01*
X124034477Y-39566857D01*
X124072572Y-39643048D01*
X124072572Y-39833524D01*
X124034477Y-39909714D01*
X123996381Y-39947810D01*
X123920191Y-39985905D01*
X123691619Y-39985905D01*
X123615429Y-39947810D01*
X123577334Y-39909714D01*
X125342667Y-32365905D02*
X125076000Y-31984952D01*
X124885524Y-32365905D02*
X124885524Y-31565905D01*
X125190286Y-31565905D01*
X125266477Y-31604000D01*
X125304572Y-31642095D01*
X125342667Y-31718286D01*
X125342667Y-31832571D01*
X125304572Y-31908762D01*
X125266477Y-31946857D01*
X125190286Y-31984952D01*
X124885524Y-31984952D01*
X126066477Y-31565905D02*
X125685524Y-31565905D01*
X125647429Y-31946857D01*
X125685524Y-31908762D01*
X125761715Y-31870667D01*
X125952191Y-31870667D01*
X126028381Y-31908762D01*
X126066477Y-31946857D01*
X126104572Y-32023048D01*
X126104572Y-32213524D01*
X126066477Y-32289714D01*
X126028381Y-32327810D01*
X125952191Y-32365905D01*
X125761715Y-32365905D01*
X125685524Y-32327810D01*
X125647429Y-32289714D01*
X50031714Y-61829905D02*
X49765047Y-61448952D01*
X49574571Y-61829905D02*
X49574571Y-61029905D01*
X49879333Y-61029905D01*
X49955524Y-61068000D01*
X49993619Y-61106095D01*
X50031714Y-61182286D01*
X50031714Y-61296571D01*
X49993619Y-61372762D01*
X49955524Y-61410857D01*
X49879333Y-61448952D01*
X49574571Y-61448952D01*
X50336476Y-61106095D02*
X50374571Y-61068000D01*
X50450762Y-61029905D01*
X50641238Y-61029905D01*
X50717428Y-61068000D01*
X50755524Y-61106095D01*
X50793619Y-61182286D01*
X50793619Y-61258476D01*
X50755524Y-61372762D01*
X50298381Y-61829905D01*
X50793619Y-61829905D01*
X51060286Y-61029905D02*
X51555524Y-61029905D01*
X51288857Y-61334667D01*
X51403143Y-61334667D01*
X51479333Y-61372762D01*
X51517429Y-61410857D01*
X51555524Y-61487048D01*
X51555524Y-61677524D01*
X51517429Y-61753714D01*
X51479333Y-61791810D01*
X51403143Y-61829905D01*
X51174571Y-61829905D01*
X51098381Y-61791810D01*
X51060286Y-61753714D01*
X50031714Y-76053905D02*
X49765047Y-75672952D01*
X49574571Y-76053905D02*
X49574571Y-75253905D01*
X49879333Y-75253905D01*
X49955524Y-75292000D01*
X49993619Y-75330095D01*
X50031714Y-75406286D01*
X50031714Y-75520571D01*
X49993619Y-75596762D01*
X49955524Y-75634857D01*
X49879333Y-75672952D01*
X49574571Y-75672952D01*
X50336476Y-75330095D02*
X50374571Y-75292000D01*
X50450762Y-75253905D01*
X50641238Y-75253905D01*
X50717428Y-75292000D01*
X50755524Y-75330095D01*
X50793619Y-75406286D01*
X50793619Y-75482476D01*
X50755524Y-75596762D01*
X50298381Y-76053905D01*
X50793619Y-76053905D01*
X51098381Y-75330095D02*
X51136476Y-75292000D01*
X51212667Y-75253905D01*
X51403143Y-75253905D01*
X51479333Y-75292000D01*
X51517429Y-75330095D01*
X51555524Y-75406286D01*
X51555524Y-75482476D01*
X51517429Y-75596762D01*
X51060286Y-76053905D01*
X51555524Y-76053905D01*
X51301714Y-54209905D02*
X51035047Y-53828952D01*
X50844571Y-54209905D02*
X50844571Y-53409905D01*
X51149333Y-53409905D01*
X51225524Y-53448000D01*
X51263619Y-53486095D01*
X51301714Y-53562286D01*
X51301714Y-53676571D01*
X51263619Y-53752762D01*
X51225524Y-53790857D01*
X51149333Y-53828952D01*
X50844571Y-53828952D01*
X51606476Y-53486095D02*
X51644571Y-53448000D01*
X51720762Y-53409905D01*
X51911238Y-53409905D01*
X51987428Y-53448000D01*
X52025524Y-53486095D01*
X52063619Y-53562286D01*
X52063619Y-53638476D01*
X52025524Y-53752762D01*
X51568381Y-54209905D01*
X52063619Y-54209905D01*
X52825524Y-54209905D02*
X52368381Y-54209905D01*
X52596952Y-54209905D02*
X52596952Y-53409905D01*
X52520762Y-53524190D01*
X52444571Y-53600381D01*
X52368381Y-53638476D01*
X50031714Y-90277905D02*
X49765047Y-89896952D01*
X49574571Y-90277905D02*
X49574571Y-89477905D01*
X49879333Y-89477905D01*
X49955524Y-89516000D01*
X49993619Y-89554095D01*
X50031714Y-89630286D01*
X50031714Y-89744571D01*
X49993619Y-89820762D01*
X49955524Y-89858857D01*
X49879333Y-89896952D01*
X49574571Y-89896952D01*
X50336476Y-89554095D02*
X50374571Y-89516000D01*
X50450762Y-89477905D01*
X50641238Y-89477905D01*
X50717428Y-89516000D01*
X50755524Y-89554095D01*
X50793619Y-89630286D01*
X50793619Y-89706476D01*
X50755524Y-89820762D01*
X50298381Y-90277905D01*
X50793619Y-90277905D01*
X51288857Y-89477905D02*
X51365048Y-89477905D01*
X51441238Y-89516000D01*
X51479333Y-89554095D01*
X51517429Y-89630286D01*
X51555524Y-89782667D01*
X51555524Y-89973143D01*
X51517429Y-90125524D01*
X51479333Y-90201714D01*
X51441238Y-90239810D01*
X51365048Y-90277905D01*
X51288857Y-90277905D01*
X51212667Y-90239810D01*
X51174571Y-90201714D01*
X51136476Y-90125524D01*
X51098381Y-89973143D01*
X51098381Y-89782667D01*
X51136476Y-89630286D01*
X51174571Y-89554095D01*
X51212667Y-89516000D01*
X51288857Y-89477905D01*
X50031714Y-104501905D02*
X49765047Y-104120952D01*
X49574571Y-104501905D02*
X49574571Y-103701905D01*
X49879333Y-103701905D01*
X49955524Y-103740000D01*
X49993619Y-103778095D01*
X50031714Y-103854286D01*
X50031714Y-103968571D01*
X49993619Y-104044762D01*
X49955524Y-104082857D01*
X49879333Y-104120952D01*
X49574571Y-104120952D01*
X50793619Y-104501905D02*
X50336476Y-104501905D01*
X50565047Y-104501905D02*
X50565047Y-103701905D01*
X50488857Y-103816190D01*
X50412666Y-103892381D01*
X50336476Y-103930476D01*
X51174571Y-104501905D02*
X51326952Y-104501905D01*
X51403143Y-104463810D01*
X51441238Y-104425714D01*
X51517429Y-104311429D01*
X51555524Y-104159048D01*
X51555524Y-103854286D01*
X51517429Y-103778095D01*
X51479333Y-103740000D01*
X51403143Y-103701905D01*
X51250762Y-103701905D01*
X51174571Y-103740000D01*
X51136476Y-103778095D01*
X51098381Y-103854286D01*
X51098381Y-104044762D01*
X51136476Y-104120952D01*
X51174571Y-104159048D01*
X51250762Y-104197143D01*
X51403143Y-104197143D01*
X51479333Y-104159048D01*
X51517429Y-104120952D01*
X51555524Y-104044762D01*
X112883905Y-66808286D02*
X112502952Y-67074953D01*
X112883905Y-67265429D02*
X112083905Y-67265429D01*
X112083905Y-66960667D01*
X112122000Y-66884476D01*
X112160095Y-66846381D01*
X112236286Y-66808286D01*
X112350571Y-66808286D01*
X112426762Y-66846381D01*
X112464857Y-66884476D01*
X112502952Y-66960667D01*
X112502952Y-67265429D01*
X112160095Y-66503524D02*
X112122000Y-66465429D01*
X112083905Y-66389238D01*
X112083905Y-66198762D01*
X112122000Y-66122572D01*
X112160095Y-66084476D01*
X112236286Y-66046381D01*
X112312476Y-66046381D01*
X112426762Y-66084476D01*
X112883905Y-66541619D01*
X112883905Y-66046381D01*
X112350571Y-65360667D02*
X112883905Y-65360667D01*
X112045810Y-65551143D02*
X112617238Y-65741619D01*
X112617238Y-65246381D01*
X86975905Y-93986286D02*
X86594952Y-94252953D01*
X86975905Y-94443429D02*
X86175905Y-94443429D01*
X86175905Y-94138667D01*
X86214000Y-94062476D01*
X86252095Y-94024381D01*
X86328286Y-93986286D01*
X86442571Y-93986286D01*
X86518762Y-94024381D01*
X86556857Y-94062476D01*
X86594952Y-94138667D01*
X86594952Y-94443429D01*
X86252095Y-93681524D02*
X86214000Y-93643429D01*
X86175905Y-93567238D01*
X86175905Y-93376762D01*
X86214000Y-93300572D01*
X86252095Y-93262476D01*
X86328286Y-93224381D01*
X86404476Y-93224381D01*
X86518762Y-93262476D01*
X86975905Y-93719619D01*
X86975905Y-93224381D01*
X86175905Y-92500571D02*
X86175905Y-92881524D01*
X86556857Y-92919619D01*
X86518762Y-92881524D01*
X86480667Y-92805333D01*
X86480667Y-92614857D01*
X86518762Y-92538667D01*
X86556857Y-92500571D01*
X86633048Y-92462476D01*
X86823524Y-92462476D01*
X86899714Y-92500571D01*
X86937810Y-92538667D01*
X86975905Y-92614857D01*
X86975905Y-92805333D01*
X86937810Y-92881524D01*
X86899714Y-92919619D01*
X95243714Y-92817905D02*
X94977047Y-92436952D01*
X94786571Y-92817905D02*
X94786571Y-92017905D01*
X95091333Y-92017905D01*
X95167524Y-92056000D01*
X95205619Y-92094095D01*
X95243714Y-92170286D01*
X95243714Y-92284571D01*
X95205619Y-92360762D01*
X95167524Y-92398857D01*
X95091333Y-92436952D01*
X94786571Y-92436952D01*
X95548476Y-92094095D02*
X95586571Y-92056000D01*
X95662762Y-92017905D01*
X95853238Y-92017905D01*
X95929428Y-92056000D01*
X95967524Y-92094095D01*
X96005619Y-92170286D01*
X96005619Y-92246476D01*
X95967524Y-92360762D01*
X95510381Y-92817905D01*
X96005619Y-92817905D01*
X96691333Y-92017905D02*
X96538952Y-92017905D01*
X96462762Y-92056000D01*
X96424667Y-92094095D01*
X96348476Y-92208381D01*
X96310381Y-92360762D01*
X96310381Y-92665524D01*
X96348476Y-92741714D01*
X96386571Y-92779810D01*
X96462762Y-92817905D01*
X96615143Y-92817905D01*
X96691333Y-92779810D01*
X96729429Y-92741714D01*
X96767524Y-92665524D01*
X96767524Y-92475048D01*
X96729429Y-92398857D01*
X96691333Y-92360762D01*
X96615143Y-92322667D01*
X96462762Y-92322667D01*
X96386571Y-92360762D01*
X96348476Y-92398857D01*
X96310381Y-92475048D01*
X78339905Y-88398286D02*
X77958952Y-88664953D01*
X78339905Y-88855429D02*
X77539905Y-88855429D01*
X77539905Y-88550667D01*
X77578000Y-88474476D01*
X77616095Y-88436381D01*
X77692286Y-88398286D01*
X77806571Y-88398286D01*
X77882762Y-88436381D01*
X77920857Y-88474476D01*
X77958952Y-88550667D01*
X77958952Y-88855429D01*
X77616095Y-88093524D02*
X77578000Y-88055429D01*
X77539905Y-87979238D01*
X77539905Y-87788762D01*
X77578000Y-87712572D01*
X77616095Y-87674476D01*
X77692286Y-87636381D01*
X77768476Y-87636381D01*
X77882762Y-87674476D01*
X78339905Y-88131619D01*
X78339905Y-87636381D01*
X77539905Y-87369714D02*
X77539905Y-86836381D01*
X78339905Y-87179238D01*
X76561905Y-88398286D02*
X76180952Y-88664953D01*
X76561905Y-88855429D02*
X75761905Y-88855429D01*
X75761905Y-88550667D01*
X75800000Y-88474476D01*
X75838095Y-88436381D01*
X75914286Y-88398286D01*
X76028571Y-88398286D01*
X76104762Y-88436381D01*
X76142857Y-88474476D01*
X76180952Y-88550667D01*
X76180952Y-88855429D01*
X75838095Y-88093524D02*
X75800000Y-88055429D01*
X75761905Y-87979238D01*
X75761905Y-87788762D01*
X75800000Y-87712572D01*
X75838095Y-87674476D01*
X75914286Y-87636381D01*
X75990476Y-87636381D01*
X76104762Y-87674476D01*
X76561905Y-88131619D01*
X76561905Y-87636381D01*
X76104762Y-87179238D02*
X76066667Y-87255429D01*
X76028571Y-87293524D01*
X75952381Y-87331619D01*
X75914286Y-87331619D01*
X75838095Y-87293524D01*
X75800000Y-87255429D01*
X75761905Y-87179238D01*
X75761905Y-87026857D01*
X75800000Y-86950667D01*
X75838095Y-86912571D01*
X75914286Y-86874476D01*
X75952381Y-86874476D01*
X76028571Y-86912571D01*
X76066667Y-86950667D01*
X76104762Y-87026857D01*
X76104762Y-87179238D01*
X76142857Y-87255429D01*
X76180952Y-87293524D01*
X76257143Y-87331619D01*
X76409524Y-87331619D01*
X76485714Y-87293524D01*
X76523810Y-87255429D01*
X76561905Y-87179238D01*
X76561905Y-87026857D01*
X76523810Y-86950667D01*
X76485714Y-86912571D01*
X76409524Y-86874476D01*
X76257143Y-86874476D01*
X76180952Y-86912571D01*
X76142857Y-86950667D01*
X76104762Y-87026857D01*
X66109905Y-38455524D02*
X66757524Y-38455524D01*
X66833714Y-38417429D01*
X66871810Y-38379333D01*
X66909905Y-38303143D01*
X66909905Y-38150762D01*
X66871810Y-38074571D01*
X66833714Y-38036476D01*
X66757524Y-37998381D01*
X66109905Y-37998381D01*
X66909905Y-37198381D02*
X66909905Y-37655524D01*
X66909905Y-37426953D02*
X66109905Y-37426953D01*
X66224190Y-37503143D01*
X66300381Y-37579334D01*
X66338476Y-37655524D01*
X73558476Y-46551905D02*
X73558476Y-47199524D01*
X73596571Y-47275714D01*
X73634667Y-47313810D01*
X73710857Y-47351905D01*
X73863238Y-47351905D01*
X73939429Y-47313810D01*
X73977524Y-47275714D01*
X74015619Y-47199524D01*
X74015619Y-46551905D01*
X74358476Y-46628095D02*
X74396571Y-46590000D01*
X74472762Y-46551905D01*
X74663238Y-46551905D01*
X74739428Y-46590000D01*
X74777524Y-46628095D01*
X74815619Y-46704286D01*
X74815619Y-46780476D01*
X74777524Y-46894762D01*
X74320381Y-47351905D01*
X74815619Y-47351905D01*
X110559905Y-82397524D02*
X111207524Y-82397524D01*
X111283714Y-82359429D01*
X111321810Y-82321333D01*
X111359905Y-82245143D01*
X111359905Y-82092762D01*
X111321810Y-82016571D01*
X111283714Y-81978476D01*
X111207524Y-81940381D01*
X110559905Y-81940381D01*
X110559905Y-81635619D02*
X110559905Y-81140381D01*
X110864667Y-81407048D01*
X110864667Y-81292762D01*
X110902762Y-81216572D01*
X110940857Y-81178476D01*
X111017048Y-81140381D01*
X111207524Y-81140381D01*
X111283714Y-81178476D01*
X111321810Y-81216572D01*
X111359905Y-81292762D01*
X111359905Y-81521334D01*
X111321810Y-81597524D01*
X111283714Y-81635619D01*
X107594476Y-65601905D02*
X107594476Y-66249524D01*
X107632571Y-66325714D01*
X107670667Y-66363810D01*
X107746857Y-66401905D01*
X107899238Y-66401905D01*
X107975429Y-66363810D01*
X108013524Y-66325714D01*
X108051619Y-66249524D01*
X108051619Y-65601905D01*
X108775428Y-65868571D02*
X108775428Y-66401905D01*
X108584952Y-65563810D02*
X108394476Y-66135238D01*
X108889714Y-66135238D01*
X87528476Y-97351905D02*
X87528476Y-97999524D01*
X87566571Y-98075714D01*
X87604667Y-98113810D01*
X87680857Y-98151905D01*
X87833238Y-98151905D01*
X87909429Y-98113810D01*
X87947524Y-98075714D01*
X87985619Y-97999524D01*
X87985619Y-97351905D01*
X88747524Y-97351905D02*
X88366571Y-97351905D01*
X88328476Y-97732857D01*
X88366571Y-97694762D01*
X88442762Y-97656667D01*
X88633238Y-97656667D01*
X88709428Y-97694762D01*
X88747524Y-97732857D01*
X88785619Y-97809048D01*
X88785619Y-97999524D01*
X88747524Y-98075714D01*
X88709428Y-98113810D01*
X88633238Y-98151905D01*
X88442762Y-98151905D01*
X88366571Y-98113810D01*
X88328476Y-98075714D01*
X92862476Y-94557905D02*
X92862476Y-95205524D01*
X92900571Y-95281714D01*
X92938667Y-95319810D01*
X93014857Y-95357905D01*
X93167238Y-95357905D01*
X93243429Y-95319810D01*
X93281524Y-95281714D01*
X93319619Y-95205524D01*
X93319619Y-94557905D01*
X94043428Y-94557905D02*
X93891047Y-94557905D01*
X93814857Y-94596000D01*
X93776762Y-94634095D01*
X93700571Y-94748381D01*
X93662476Y-94900762D01*
X93662476Y-95205524D01*
X93700571Y-95281714D01*
X93738666Y-95319810D01*
X93814857Y-95357905D01*
X93967238Y-95357905D01*
X94043428Y-95319810D01*
X94081524Y-95281714D01*
X94119619Y-95205524D01*
X94119619Y-95015048D01*
X94081524Y-94938857D01*
X94043428Y-94900762D01*
X93967238Y-94862667D01*
X93814857Y-94862667D01*
X93738666Y-94900762D01*
X93700571Y-94938857D01*
X93662476Y-95015048D01*
X81686476Y-93541905D02*
X81686476Y-94189524D01*
X81724571Y-94265714D01*
X81762667Y-94303810D01*
X81838857Y-94341905D01*
X81991238Y-94341905D01*
X82067429Y-94303810D01*
X82105524Y-94265714D01*
X82143619Y-94189524D01*
X82143619Y-93541905D01*
X82448381Y-93541905D02*
X82981714Y-93541905D01*
X82638857Y-94341905D01*
X69215048Y-29184952D02*
X69215048Y-29565905D01*
X68948381Y-28765905D02*
X69215048Y-29184952D01*
X69481715Y-28765905D01*
X70167429Y-29565905D02*
X69710286Y-29565905D01*
X69938857Y-29565905D02*
X69938857Y-28765905D01*
X69862667Y-28880190D01*
X69786476Y-28956381D01*
X69710286Y-28994476D01*
D12*
X92757714Y-60364667D02*
X93233905Y-60364667D01*
X92662476Y-60650381D02*
X92995809Y-59650381D01*
X93329143Y-60650381D01*
X94186286Y-60650381D02*
X93614857Y-60650381D01*
X93900571Y-60650381D02*
X93900571Y-59650381D01*
X93805333Y-59793238D01*
X93710095Y-59888476D01*
X93614857Y-59936095D01*
D14*
X45827905Y-51517429D02*
X45027905Y-51517429D01*
X45027905Y-51326953D01*
X45066000Y-51212667D01*
X45142190Y-51136476D01*
X45218381Y-51098381D01*
X45370762Y-51060286D01*
X45485048Y-51060286D01*
X45637429Y-51098381D01*
X45713619Y-51136476D01*
X45789810Y-51212667D01*
X45827905Y-51326953D01*
X45827905Y-51517429D01*
X45827905Y-50298381D02*
X45827905Y-50755524D01*
X45827905Y-50526953D02*
X45027905Y-50526953D01*
X45142190Y-50603143D01*
X45218381Y-50679334D01*
X45256476Y-50755524D01*
X45027905Y-50031714D02*
X45027905Y-49498381D01*
X45827905Y-49841238D01*
D12*
X67456095Y-48214381D02*
X67456095Y-47214381D01*
X67456095Y-47690571D02*
X68027524Y-47690571D01*
X68027524Y-48214381D02*
X68027524Y-47214381D01*
X69027524Y-48214381D02*
X68456095Y-48214381D01*
X68741809Y-48214381D02*
X68741809Y-47214381D01*
X68646571Y-47357238D01*
X68551333Y-47452476D01*
X68456095Y-47500095D01*
X117456095Y-48214381D02*
X117456095Y-47214381D01*
X117456095Y-47690571D02*
X118027524Y-47690571D01*
X118027524Y-48214381D02*
X118027524Y-47214381D01*
X118456095Y-47309619D02*
X118503714Y-47262000D01*
X118598952Y-47214381D01*
X118837048Y-47214381D01*
X118932286Y-47262000D01*
X118979905Y-47309619D01*
X119027524Y-47404857D01*
X119027524Y-47500095D01*
X118979905Y-47642952D01*
X118408476Y-48214381D01*
X119027524Y-48214381D01*
X67456095Y-98214381D02*
X67456095Y-97214381D01*
X67456095Y-97690571D02*
X68027524Y-97690571D01*
X68027524Y-98214381D02*
X68027524Y-97214381D01*
X68408476Y-97214381D02*
X69027524Y-97214381D01*
X68694190Y-97595333D01*
X68837048Y-97595333D01*
X68932286Y-97642952D01*
X68979905Y-97690571D01*
X69027524Y-97785810D01*
X69027524Y-98023905D01*
X68979905Y-98119143D01*
X68932286Y-98166762D01*
X68837048Y-98214381D01*
X68551333Y-98214381D01*
X68456095Y-98166762D01*
X68408476Y-98119143D01*
X117456095Y-98214381D02*
X117456095Y-97214381D01*
X117456095Y-97690571D02*
X118027524Y-97690571D01*
X118027524Y-98214381D02*
X118027524Y-97214381D01*
X118932286Y-97547714D02*
X118932286Y-98214381D01*
X118694190Y-97166762D02*
X118456095Y-97881048D01*
X119075143Y-97881048D01*
D14*
X76574667Y-29749714D02*
X76536572Y-29787810D01*
X76422286Y-29825905D01*
X76346096Y-29825905D01*
X76231810Y-29787810D01*
X76155619Y-29711619D01*
X76117524Y-29635429D01*
X76079429Y-29483048D01*
X76079429Y-29368762D01*
X76117524Y-29216381D01*
X76155619Y-29140190D01*
X76231810Y-29064000D01*
X76346096Y-29025905D01*
X76422286Y-29025905D01*
X76536572Y-29064000D01*
X76574667Y-29102095D01*
X77260381Y-29292571D02*
X77260381Y-29825905D01*
X77069905Y-28987810D02*
X76879429Y-29559238D01*
X77374667Y-29559238D01*
D12*
X72771048Y-37155429D02*
X73532953Y-37155429D01*
X73152001Y-37536381D02*
X73152001Y-36774476D01*
M02*
