G04 #@! TF.FileFunction,Soldermask,Top*
%FSLAX46Y46*%
G04 Gerber Fmt 4.6, Leading zero omitted, Abs format (unit mm)*
G04 Created by KiCad (PCBNEW (2015-12-10 BZR 6367)-product) date Fri 14 Oct 2016 00:38:17 BST*
%MOMM*%
G01*
G04 APERTURE LIST*
%ADD10C,0.100000*%
%ADD11R,0.900000X1.300000*%
%ADD12R,1.300000X0.900000*%
%ADD13R,1.670000X1.010000*%
%ADD14R,1.420000X1.010000*%
%ADD15R,4.210000X4.310000*%
%ADD16R,2.200860X2.899360*%
%ADD17R,1.197560X1.197560*%
%ADD18R,1.400000X1.650000*%
%ADD19R,1.650000X1.400000*%
%ADD20R,1.150000X1.200000*%
%ADD21R,1.200000X1.150000*%
%ADD22R,2.432000X2.127200*%
%ADD23O,2.432000X2.127200*%
%ADD24R,1.200100X1.200100*%
%ADD25R,0.850000X1.850000*%
%ADD26R,1.460000X1.050000*%
%ADD27R,1.060400X0.806400*%
%ADD28R,1.900000X1.000000*%
%ADD29R,2.400000X2.800000*%
%ADD30C,2.600000*%
%ADD31R,2.099260X1.598880*%
%ADD32O,2.099260X1.598880*%
%ADD33C,3.600000*%
%ADD34O,2.500000X3.700000*%
%ADD35O,3.700000X2.200000*%
%ADD36C,2.700000*%
%ADD37C,2.400000*%
G04 APERTURE END LIST*
D10*
D11*
X128766000Y-56388000D03*
X127266000Y-56388000D03*
D12*
X125222000Y-63996000D03*
X125222000Y-62496000D03*
D13*
X127124000Y-60071000D03*
X127124000Y-61341000D03*
X127124000Y-62611000D03*
X127124000Y-63881000D03*
D14*
X132589000Y-63881000D03*
X132589000Y-62611000D03*
X132589000Y-61341000D03*
X132589000Y-60071000D03*
D15*
X130484000Y-61976000D03*
D16*
X131318000Y-54389020D03*
X131318000Y-58386980D03*
D17*
X127266700Y-57912000D03*
X128765300Y-57912000D03*
D18*
X128508000Y-54356000D03*
X126508000Y-54356000D03*
X128508000Y-103124000D03*
X126508000Y-103124000D03*
D17*
X127266700Y-106680000D03*
X128765300Y-106680000D03*
D16*
X131318000Y-103157020D03*
X131318000Y-107154980D03*
D13*
X127124000Y-108839000D03*
X127124000Y-110109000D03*
X127124000Y-111379000D03*
X127124000Y-112649000D03*
D14*
X132589000Y-112649000D03*
X132589000Y-111379000D03*
X132589000Y-110109000D03*
X132589000Y-108839000D03*
D15*
X130484000Y-110744000D03*
D12*
X125222000Y-112764000D03*
X125222000Y-111264000D03*
D11*
X128766000Y-105156000D03*
X127266000Y-105156000D03*
X128766000Y-117348000D03*
X127266000Y-117348000D03*
D12*
X125222000Y-124956000D03*
X125222000Y-123456000D03*
D13*
X127124000Y-121031000D03*
X127124000Y-122301000D03*
X127124000Y-123571000D03*
X127124000Y-124841000D03*
D14*
X132589000Y-124841000D03*
X132589000Y-123571000D03*
X132589000Y-122301000D03*
X132589000Y-121031000D03*
D15*
X130484000Y-122936000D03*
D16*
X131318000Y-115349020D03*
X131318000Y-119346980D03*
D17*
X127266700Y-118872000D03*
X128765300Y-118872000D03*
D18*
X128508000Y-115316000D03*
X126508000Y-115316000D03*
X128508000Y-66548000D03*
X126508000Y-66548000D03*
D17*
X127266700Y-70104000D03*
X128765300Y-70104000D03*
D16*
X131318000Y-66581020D03*
X131318000Y-70578980D03*
D13*
X127124000Y-72263000D03*
X127124000Y-73533000D03*
X127124000Y-74803000D03*
X127124000Y-76073000D03*
D14*
X132589000Y-76073000D03*
X132589000Y-74803000D03*
X132589000Y-73533000D03*
X132589000Y-72263000D03*
D15*
X130484000Y-74168000D03*
D12*
X125222000Y-76188000D03*
X125222000Y-74688000D03*
D11*
X128766000Y-68580000D03*
X127266000Y-68580000D03*
X128766000Y-44196000D03*
X127266000Y-44196000D03*
D12*
X125222000Y-51804000D03*
X125222000Y-50304000D03*
D13*
X127124000Y-47879000D03*
X127124000Y-49149000D03*
X127124000Y-50419000D03*
X127124000Y-51689000D03*
D14*
X132589000Y-51689000D03*
X132589000Y-50419000D03*
X132589000Y-49149000D03*
X132589000Y-47879000D03*
D15*
X130484000Y-49784000D03*
D16*
X131318000Y-42197020D03*
X131318000Y-46194980D03*
D17*
X127266700Y-45720000D03*
X128765300Y-45720000D03*
D18*
X128508000Y-42164000D03*
X126508000Y-42164000D03*
X128508000Y-90932000D03*
X126508000Y-90932000D03*
D17*
X127266700Y-94488000D03*
X128765300Y-94488000D03*
D16*
X131318000Y-90965020D03*
X131318000Y-94962980D03*
D13*
X127124000Y-96647000D03*
X127124000Y-97917000D03*
X127124000Y-99187000D03*
X127124000Y-100457000D03*
D14*
X132589000Y-100457000D03*
X132589000Y-99187000D03*
X132589000Y-97917000D03*
X132589000Y-96647000D03*
D15*
X130484000Y-98552000D03*
D12*
X125222000Y-100572000D03*
X125222000Y-99072000D03*
D11*
X128766000Y-92964000D03*
X127266000Y-92964000D03*
X128766000Y-80772000D03*
X127266000Y-80772000D03*
D12*
X125222000Y-88380000D03*
X125222000Y-86880000D03*
D13*
X127124000Y-84455000D03*
X127124000Y-85725000D03*
X127124000Y-86995000D03*
X127124000Y-88265000D03*
D14*
X132589000Y-88265000D03*
X132589000Y-86995000D03*
X132589000Y-85725000D03*
X132589000Y-84455000D03*
D15*
X130484000Y-86360000D03*
D16*
X131318000Y-78773020D03*
X131318000Y-82770980D03*
D17*
X127266700Y-82296000D03*
X128765300Y-82296000D03*
D18*
X128508000Y-78740000D03*
X126508000Y-78740000D03*
X105140000Y-124206000D03*
X103140000Y-124206000D03*
D19*
X48895000Y-37735000D03*
X48895000Y-39735000D03*
D20*
X76962000Y-45454000D03*
X76962000Y-43954000D03*
D21*
X114312000Y-81788000D03*
X115812000Y-81788000D03*
D18*
X128508000Y-29972000D03*
X126508000Y-29972000D03*
D21*
X48248000Y-59944000D03*
X46748000Y-59944000D03*
X48248000Y-74168000D03*
X46748000Y-74168000D03*
X51296000Y-65024000D03*
X49796000Y-65024000D03*
X51296000Y-79248000D03*
X49796000Y-79248000D03*
X48248000Y-88392000D03*
X46748000Y-88392000D03*
X48248000Y-102616000D03*
X46748000Y-102616000D03*
X51296000Y-93472000D03*
X49796000Y-93472000D03*
X51296000Y-107696000D03*
X49796000Y-107696000D03*
D20*
X110744000Y-62750000D03*
X110744000Y-64250000D03*
X89916000Y-92468000D03*
X89916000Y-93968000D03*
X79756000Y-89674000D03*
X79756000Y-91174000D03*
D17*
X127266700Y-33528000D03*
X128765300Y-33528000D03*
D16*
X131318000Y-30005020D03*
X131318000Y-34002980D03*
D22*
X109220000Y-109220000D03*
D23*
X109220000Y-106680000D03*
X109220000Y-104140000D03*
X109220000Y-101600000D03*
X109220000Y-99060000D03*
X109220000Y-96520000D03*
X109220000Y-93980000D03*
D22*
X61468000Y-109220000D03*
D23*
X61468000Y-106680000D03*
X61468000Y-104140000D03*
X61468000Y-101600000D03*
X61468000Y-99060000D03*
X61468000Y-96520000D03*
X61468000Y-93980000D03*
D24*
X55610760Y-34605000D03*
X55610760Y-32705000D03*
X53611780Y-33655000D03*
D13*
X127124000Y-35687000D03*
X127124000Y-36957000D03*
X127124000Y-38227000D03*
X127124000Y-39497000D03*
D14*
X132589000Y-39497000D03*
X132589000Y-38227000D03*
X132589000Y-36957000D03*
X132589000Y-35687000D03*
D15*
X130484000Y-37592000D03*
D24*
X50866000Y-50784760D03*
X52766000Y-50784760D03*
X51816000Y-48785780D03*
D12*
X57150000Y-34405000D03*
X57150000Y-32905000D03*
D11*
X70854000Y-42164000D03*
X69354000Y-42164000D03*
D12*
X125222000Y-39612000D03*
X125222000Y-38112000D03*
D11*
X128766000Y-32004000D03*
X127266000Y-32004000D03*
X49796000Y-59944000D03*
X51296000Y-59944000D03*
X49796000Y-74168000D03*
X51296000Y-74168000D03*
X52566000Y-52324000D03*
X51066000Y-52324000D03*
X49796000Y-88392000D03*
X51296000Y-88392000D03*
X49796000Y-102616000D03*
X51296000Y-102616000D03*
D12*
X112522000Y-64250000D03*
X112522000Y-62750000D03*
X88138000Y-92468000D03*
X88138000Y-93968000D03*
D11*
X92468000Y-92456000D03*
X93968000Y-92456000D03*
D12*
X77978000Y-89674000D03*
X77978000Y-91174000D03*
X76200000Y-89674000D03*
X76200000Y-91174000D03*
D25*
X70063000Y-35646000D03*
X69413000Y-35646000D03*
X68763000Y-35646000D03*
X68113000Y-35646000D03*
X68113000Y-40046000D03*
X68763000Y-40046000D03*
X69413000Y-40046000D03*
X70063000Y-40046000D03*
D26*
X73068000Y-43754000D03*
X73068000Y-44704000D03*
X73068000Y-45654000D03*
X75268000Y-45654000D03*
X75268000Y-43754000D03*
D25*
X112137000Y-84738000D03*
X112787000Y-84738000D03*
X113437000Y-84738000D03*
X114087000Y-84738000D03*
X114737000Y-84738000D03*
X115387000Y-84738000D03*
X116037000Y-84738000D03*
X116687000Y-84738000D03*
X117337000Y-84738000D03*
X117987000Y-84738000D03*
X117987000Y-78838000D03*
X117337000Y-78838000D03*
X116687000Y-78838000D03*
X116037000Y-78838000D03*
X115387000Y-78838000D03*
X114737000Y-78838000D03*
X114087000Y-78838000D03*
X113437000Y-78838000D03*
X112787000Y-78838000D03*
X112137000Y-78838000D03*
D24*
X109154000Y-62753240D03*
X107254000Y-62753240D03*
X108204000Y-64752220D03*
D27*
X87122000Y-95097600D03*
X87122000Y-96418400D03*
X87122000Y-95758000D03*
X89154000Y-96418400D03*
X89154000Y-95097600D03*
D28*
X90772000Y-96393000D03*
X90772000Y-97663000D03*
X90772000Y-98933000D03*
X90772000Y-100203000D03*
X90772000Y-101473000D03*
X90772000Y-102743000D03*
X90772000Y-104013000D03*
X90772000Y-105283000D03*
X96172000Y-105283000D03*
X96172000Y-104013000D03*
X96172000Y-102743000D03*
X96172000Y-101473000D03*
X96172000Y-100203000D03*
X96172000Y-98933000D03*
X96172000Y-97663000D03*
X96172000Y-96393000D03*
D27*
X83312000Y-92608400D03*
X83312000Y-91287600D03*
X83312000Y-91948000D03*
X81280000Y-91287600D03*
X81280000Y-92608400D03*
D29*
X67546000Y-32004000D03*
X71646000Y-32004000D03*
D30*
X103632000Y-34798000D03*
X103632000Y-37338000D03*
X103632000Y-39878000D03*
X103632000Y-42418000D03*
X103632000Y-44958000D03*
X103632000Y-47498000D03*
X103632000Y-50038000D03*
X103632000Y-52578000D03*
X103632000Y-55118000D03*
X103632000Y-57658000D03*
X103632000Y-60198000D03*
X103632000Y-62738000D03*
X103632000Y-65278000D03*
X103632000Y-67818000D03*
X83312000Y-67818000D03*
X83312000Y-65278000D03*
X83312000Y-62738000D03*
X83312000Y-60198000D03*
X83312000Y-57658000D03*
X83312000Y-55118000D03*
X83312000Y-52578000D03*
X83312000Y-50038000D03*
X83312000Y-47498000D03*
X83312000Y-44958000D03*
X83312000Y-42418000D03*
X83312000Y-39878000D03*
X83312000Y-37338000D03*
X103722000Y-30378000D03*
X83222000Y-30378000D03*
X83222000Y-87478000D03*
X103722000Y-87478000D03*
X83312000Y-34798000D03*
D16*
X48006000Y-48547020D03*
X48006000Y-52544980D03*
D31*
X51435000Y-39832280D03*
D32*
X51435000Y-35829240D03*
X51435000Y-37830760D03*
X51435000Y-33830260D03*
D33*
X68218000Y-51962000D03*
X118218000Y-51962000D03*
X68218000Y-101962000D03*
X118218000Y-101962000D03*
D34*
X96940000Y-118110000D03*
D35*
X102440000Y-120610000D03*
X102440000Y-115610000D03*
X106090000Y-121010000D03*
X106090000Y-115210000D03*
D36*
X98940000Y-115610000D03*
X98940000Y-120610000D03*
D37*
X74208000Y-35560000D03*
X79208000Y-35560000D03*
M02*
